<?xml version="1.0" encoding="UTF-8" standalone="no"?>
<!DOCTYPE svg PUBLIC "-//W3C//DTD SVG 1.1//EN"
 "http://www.w3.org/Graphics/SVG/1.1/DTD/svg11.dtd">
<!-- Generated by graphviz version 2.43.0 (0)
 -->
<!-- Title: Parser Pages: 1 -->
<svg width="333pt" height="697pt"
 viewBox="0.00 0.00 333.00 697.00" xmlns="http://www.w3.org/2000/svg" xmlns:xlink="http://www.w3.org/1999/xlink">
<g id="graph0" class="graph" transform="scale(1 1) rotate(0) translate(4 693)">
<title>Parser</title>
<!-- Node1 -->
<g id="Node000001" class="node">
<title>Node1</title>
<g id="a_Node000001"><a xlink:title="Parser module for the GSC programming language.">
<polygon fill="#999999" stroke="transparent" points="323.5,-229 190.5,-229 190.5,0 323.5,0 323.5,-229"/>
<text text-anchor="start" x="242" y="-216.5" font-family="Helvetica,sans-Serif" font-size="10.00">Parser</text>
<text text-anchor="start" x="255.5" y="-201.5" font-family="Helvetica,sans-Serif" font-size="10.00"> </text>
<text text-anchor="start" x="195" y="-186.5" font-family="Helvetica,sans-Serif" font-size="10.00">+</text>
<text text-anchor="start" x="208" y="-186.5" font-family="Helvetica,sans-Serif" font-size="10.00">Parser()</text>
<text text-anchor="start" x="195" y="-171.5" font-family="Helvetica,sans-Serif" font-size="10.00">+</text>
<text text-anchor="start" x="208" y="-171.5" font-family="Helvetica,sans-Serif" font-size="10.00">parse()</text>
<text text-anchor="start" x="197.5" y="-156.5" font-family="Helvetica,sans-Serif" font-size="10.00">&#45;</text>
<text text-anchor="start" x="208" y="-156.5" font-family="Helvetica,sans-Serif" font-size="10.00">block()</text>
<text text-anchor="start" x="197.5" y="-141.5" font-family="Helvetica,sans-Serif" font-size="10.00">&#45;</text>
<text text-anchor="start" x="208" y="-141.5" font-family="Helvetica,sans-Serif" font-size="10.00">declaration()</text>
<text text-anchor="start" x="197.5" y="-126.5" font-family="Helvetica,sans-Serif" font-size="10.00">&#45;</text>
<text text-anchor="start" x="208" y="-126.5" font-family="Helvetica,sans-Serif" font-size="10.00">statement()</text>
<text text-anchor="start" x="197.5" y="-111.5" font-family="Helvetica,sans-Serif" font-size="10.00">&#45;</text>
<text text-anchor="start" x="208" y="-111.5" font-family="Helvetica,sans-Serif" font-size="10.00">printStatement()</text>
<text text-anchor="start" x="197.5" y="-96.5" font-family="Helvetica,sans-Serif" font-size="10.00">&#45;</text>
<text text-anchor="start" x="208" y="-96.5" font-family="Helvetica,sans-Serif" font-size="10.00">ifStatement()</text>
<text text-anchor="start" x="197.5" y="-81.5" font-family="Helvetica,sans-Serif" font-size="10.00">&#45;</text>
<text text-anchor="start" x="208" y="-81.5" font-family="Helvetica,sans-Serif" font-size="10.00">whileStatement()</text>
<text text-anchor="start" x="197.5" y="-66.5" font-family="Helvetica,sans-Serif" font-size="10.00">&#45;</text>
<text text-anchor="start" x="208" y="-66.5" font-family="Helvetica,sans-Serif" font-size="10.00">forStatement()</text>
<text text-anchor="start" x="197.5" y="-51.5" font-family="Helvetica,sans-Serif" font-size="10.00">&#45;</text>
<text text-anchor="start" x="208" y="-51.5" font-family="Helvetica,sans-Serif" font-size="10.00">varDeclaration()</text>
<text text-anchor="start" x="197.5" y="-36.5" font-family="Helvetica,sans-Serif" font-size="10.00">&#45;</text>
<text text-anchor="start" x="208" y="-36.5" font-family="Helvetica,sans-Serif" font-size="10.00">expressionStatement()</text>
<text text-anchor="start" x="197.5" y="-21.5" font-family="Helvetica,sans-Serif" font-size="10.00">&#45;</text>
<text text-anchor="start" x="208" y="-21.5" font-family="Helvetica,sans-Serif" font-size="10.00">assignment()</text>
<text text-anchor="start" x="208" y="-6.5" font-family="Helvetica,sans-Serif" font-size="10.00">and 18 more...</text>
<polygon fill="#666666" stroke="#666666" points="191,-211.5 191,-211.5 324,-211.5 324,-211.5 191,-211.5"/>
<polygon fill="#666666" stroke="#666666" points="191,-196.5 191,-196.5 324,-196.5 324,-196.5 191,-196.5"/>
<polygon fill="none" stroke="#666666" points="190.5,0 190.5,-229 323.5,-229 323.5,0 190.5,0"/>
</a>
</g>
</g>
<!-- Node2 -->
<g id="Node000002" class="node">
<title>Node2</title>
<g id="a_Node000002"><a xlink:title=" ">
<polygon fill="white" stroke="transparent" points="269.5,-325 156.5,-325 156.5,-276 269.5,-276 269.5,-325"/>
<text text-anchor="start" x="162" y="-312.5" font-family="Helvetica,sans-Serif" font-size="10.00">std::vector&lt; Token &gt;</text>
<text text-anchor="start" x="211.5" y="-297.5" font-family="Helvetica,sans-Serif" font-size="10.00"> </text>
<text text-anchor="start" x="211.5" y="-282.5" font-family="Helvetica,sans-Serif" font-size="10.00"> </text>
<polygon fill="#666666" stroke="#666666" points="157,-307.5 157,-307.5 270,-307.5 270,-307.5 157,-307.5"/>
<polygon fill="#666666" stroke="#666666" points="157,-292.5 157,-292.5 270,-292.5 270,-292.5 157,-292.5"/>
<polygon fill="none" stroke="#666666" points="156.5,-276 156.5,-325 269.5,-325 269.5,-276 156.5,-276"/>
</a>
</g>
</g>
<!-- Node2&#45;&gt;Node1 -->
<g id="edge1_Node000001_Node000002" class="edge">
<title>Node2&#45;&gt;Node1</title>
<g id="a_edge1_Node000001_Node000002"><a xlink:title=" ">
<path fill="none" stroke="#63b8ff" d="M218.66,-275.82C220.98,-266.14 223.85,-254.14 226.97,-241.1"/>
<polygon fill="none" stroke="#63b8ff" points="226.97,-241.07 224.48,-234.3 229.76,-229.4 232.26,-236.17 226.97,-241.07"/>
</a>
</g>
<text text-anchor="middle" x="245" y="-250" font-family="Helvetica,sans-Serif" font-size="10.00" fill="grey"> &#45;tokens</text>
</g>
<!-- Node3 -->
<g id="Node000003" class="node">
<title>Node3</title>
<g id="a_Node000003"><a xlink:href="classToken.html" target="_top" xlink:title="Represents a token in the source code.">
<polygon fill="white" stroke="transparent" points="243.5,-496 160.5,-496 160.5,-372 243.5,-372 243.5,-496"/>
<text text-anchor="start" x="188.5" y="-484" font-family="Helvetica,sans-Serif" font-size="10.00">Token</text>
<text text-anchor="start" x="200.5" y="-469" font-family="Helvetica,sans-Serif" font-size="10.00"> </text>
<text text-anchor="start" x="165" y="-454" font-family="Helvetica,sans-Serif" font-size="10.00">+</text>
<text text-anchor="start" x="178" y="-454" font-family="Helvetica,sans-Serif" font-size="10.00">Token()</text>
<text text-anchor="start" x="165" y="-439" font-family="Helvetica,sans-Serif" font-size="10.00">+</text>
<text text-anchor="start" x="178" y="-439" font-family="Helvetica,sans-Serif" font-size="10.00">getType()</text>
<text text-anchor="start" x="165" y="-424" font-family="Helvetica,sans-Serif" font-size="10.00">+</text>
<text text-anchor="start" x="178" y="-424" font-family="Helvetica,sans-Serif" font-size="10.00">getLexeme()</text>
<text text-anchor="start" x="165" y="-409" font-family="Helvetica,sans-Serif" font-size="10.00">+</text>
<text text-anchor="start" x="178" y="-409" font-family="Helvetica,sans-Serif" font-size="10.00">getLiteral()</text>
<text text-anchor="start" x="165" y="-394" font-family="Helvetica,sans-Serif" font-size="10.00">+</text>
<text text-anchor="start" x="178" y="-394" font-family="Helvetica,sans-Serif" font-size="10.00">getLine()</text>
<text text-anchor="start" x="165" y="-379" font-family="Helvetica,sans-Serif" font-size="10.00">+</text>
<text text-anchor="start" x="178" y="-379" font-family="Helvetica,sans-Serif" font-size="10.00">toString()</text>
<polygon fill="#666666" stroke="#666666" points="161,-479 161,-479 244,-479 244,-479 161,-479"/>
<polygon fill="#666666" stroke="#666666" points="161,-464 161,-464 244,-464 244,-464 161,-464"/>
<polygon fill="none" stroke="#666666" points="160.5,-372 160.5,-496 243.5,-496 243.5,-372 160.5,-372"/>
</a>
</g>
</g>
<!-- Node3&#45;&gt;Node2 -->
<g id="edge2_Node000002_Node000003" class="edge">
<title>Node3&#45;&gt;Node2</title>
<g id="a_edge2_Node000002_Node000003"><a xlink:title=" ">
<path fill="none" stroke="#63b8ff" d="M207.11,-371.87C208.1,-360.04 209.11,-348.02 210,-337.33"/>
<polygon fill="none" stroke="#63b8ff" points="210.03,-337.02 206.54,-330.71 211.03,-325.07 214.51,-331.38 210.03,-337.02"/>
</a>
</g>
<text text-anchor="middle" x="239" y="-346" font-family="Helvetica,sans-Serif" font-size="10.00" fill="grey"> +elements</text>
</g>
<!-- Node4 -->
<g id="Node000004" class="node">
<title>Node4</title>
<g id="a_Node000004"><a xlink:title=" ">
<polygon fill="white" stroke="transparent" points="90,-592 0,-592 0,-543 90,-543 90,-592"/>
<text text-anchor="start" x="5" y="-579.5" font-family="Helvetica,sans-Serif" font-size="10.00">const TokenType</text>
<text text-anchor="start" x="43" y="-564.5" font-family="Helvetica,sans-Serif" font-size="10.00"> </text>
<text text-anchor="start" x="43" y="-549.5" font-family="Helvetica,sans-Serif" font-size="10.00"> </text>
<polygon fill="#666666" stroke="#666666" points="0,-574.5 0,-574.5 90,-574.5 90,-574.5 0,-574.5"/>
<polygon fill="#666666" stroke="#666666" points="0,-559.5 0,-559.5 90,-559.5 90,-559.5 0,-559.5"/>
<polygon fill="none" stroke="#666666" points="0,-543 0,-592 90,-592 90,-543 0,-543"/>
</a>
</g>
</g>
<!-- Node4&#45;&gt;Node3 -->
<g id="edge3_Node000003_Node000004" class="edge">
<title>Node4&#45;&gt;Node3</title>
<g id="a_edge3_Node000003_Node000004"><a xlink:title=" ">
<path fill="none" stroke="#63b8ff" d="M73.07,-542.99C94.67,-524.9 125.11,-499.4 150.99,-477.73"/>
<polygon fill="none" stroke="#63b8ff" points="151.09,-477.64 153.12,-470.72 160.29,-469.94 158.26,-476.86 151.09,-477.64"/>
</a>
</g>
<text text-anchor="middle" x="119.5" y="-517" font-family="Helvetica,sans-Serif" font-size="10.00" fill="grey"> &#45;type</text>
</g>
<!-- Node5 -->
<g id="Node000005" class="node">
<title>Node5</title>
<g id="a_Node000005"><a xlink:title=" ">
<polygon fill="white" stroke="transparent" points="167.5,-592 108.5,-592 108.5,-543 167.5,-543 167.5,-592"/>
<text text-anchor="start" x="114" y="-579.5" font-family="Helvetica,sans-Serif" font-size="10.00">std::string</text>
<text text-anchor="start" x="136.5" y="-564.5" font-family="Helvetica,sans-Serif" font-size="10.00"> </text>
<text text-anchor="start" x="136.5" y="-549.5" font-family="Helvetica,sans-Serif" font-size="10.00"> </text>
<polygon fill="#666666" stroke="#666666" points="109,-574.5 109,-574.5 168,-574.5 168,-574.5 109,-574.5"/>
<polygon fill="#666666" stroke="#666666" points="109,-559.5 109,-559.5 168,-559.5 168,-559.5 109,-559.5"/>
<polygon fill="none" stroke="#666666" points="108.5,-543 108.5,-592 167.5,-592 167.5,-543 108.5,-543"/>
</a>
</g>
</g>
<!-- Node5&#45;&gt;Node3 -->
<g id="edge4_Node000003_Node000005" class="edge">
<title>Node5&#45;&gt;Node3</title>
<g id="a_edge4_Node000003_Node000005"><a xlink:title=" ">
<path fill="none" stroke="#63b8ff" d="M144.44,-542.82C147.25,-533.64 150.85,-523.16 155,-514 156.03,-511.73 157.11,-509.44 158.22,-507.14"/>
<polygon fill="none" stroke="#63b8ff" points="158.25,-507.09 157.42,-499.92 163.7,-496.4 164.54,-503.56 158.25,-507.09"/>
</a>
</g>
<text text-anchor="middle" x="176.5" y="-517" font-family="Helvetica,sans-Serif" font-size="10.00" fill="grey"> &#45;lexeme</text>
</g>
<!-- Node6 -->
<g id="Node000006" class="node">
<title>Node6</title>
<g id="a_Node000006"><a xlink:title=" ">
<polygon fill="white" stroke="transparent" points="187,-689 89,-689 89,-629 187,-629 187,-689"/>
<text text-anchor="start" x="94" y="-677" font-family="Helvetica,sans-Serif" font-size="10.00">std::basic_string&lt;</text>
<text text-anchor="start" x="119.5" y="-666" font-family="Helvetica,sans-Serif" font-size="10.00"> Char &gt;</text>
<text text-anchor="start" x="136" y="-651" font-family="Helvetica,sans-Serif" font-size="10.00"> </text>
<text text-anchor="start" x="136" y="-636" font-family="Helvetica,sans-Serif" font-size="10.00"> </text>
<polygon fill="#666666" stroke="#666666" points="89,-661 89,-661 187,-661 187,-661 89,-661"/>
<polygon fill="#666666" stroke="#666666" points="89,-646 89,-646 187,-646 187,-646 89,-646"/>
<polygon fill="none" stroke="#666666" points="89,-629 89,-689 187,-689 187,-629 89,-629"/>
</a>
</g>
</g>
<!-- Node6&#45;&gt;Node5 -->
<g id="edge5_Node000005_Node000006" class="edge">
<title>Node6&#45;&gt;Node5</title>
<g id="a_edge5_Node000005_Node000006"><a xlink:title=" ">
<path fill="none" stroke="#63b8ff" d="M138,-618.41C138,-609.47 138,-600.25 138,-592.21"/>
<polygon fill="none" stroke="#63b8ff" points="134.5,-618.69 138,-628.69 141.5,-618.69 134.5,-618.69"/>
</a>
</g>
</g>
<!-- Node7 -->
<g id="Node000007" class="node">
<title>Node7</title>
<g id="a_Node000007"><a xlink:title=" ">
<polygon fill="white" stroke="transparent" points="216.5,-592 187.5,-592 187.5,-543 216.5,-543 216.5,-592"/>
<text text-anchor="start" x="193" y="-579.5" font-family="Helvetica,sans-Serif" font-size="10.00">any</text>
<text text-anchor="start" x="200.5" y="-564.5" font-family="Helvetica,sans-Serif" font-size="10.00"> </text>
<text text-anchor="start" x="200.5" y="-549.5" font-family="Helvetica,sans-Serif" font-size="10.00"> </text>
<polygon fill="#666666" stroke="#666666" points="188,-574.5 188,-574.5 217,-574.5 217,-574.5 188,-574.5"/>
<polygon fill="#666666" stroke="#666666" points="188,-559.5 188,-559.5 217,-559.5 217,-559.5 188,-559.5"/>
<polygon fill="none" stroke="#666666" points="187.5,-543 187.5,-592 216.5,-592 216.5,-543 187.5,-543"/>
</a>
</g>
</g>
<!-- Node7&#45;&gt;Node3 -->
<g id="edge6_Node000003_Node000007" class="edge">
<title>Node7&#45;&gt;Node3</title>
<g id="a_edge6_Node000003_Node000007"><a xlink:title=" ">
<path fill="none" stroke="#63b8ff" d="M202,-542.99C202,-533.03 202,-520.82 202,-508.24"/>
<polygon fill="none" stroke="#63b8ff" points="202,-508.12 198,-502.12 202,-496.12 206,-502.12 202,-508.12"/>
</a>
</g>
<text text-anchor="middle" x="220" y="-517" font-family="Helvetica,sans-Serif" font-size="10.00" fill="grey"> &#45;literal</text>
</g>
<!-- Node8 -->
<g id="Node000008" class="node">
<title>Node8</title>
<g id="a_Node000008"><a xlink:title=" ">
<polygon fill="white" stroke="transparent" points="292.5,-592 269.5,-592 269.5,-543 292.5,-543 292.5,-592"/>
<text text-anchor="start" x="275" y="-579.5" font-family="Helvetica,sans-Serif" font-size="10.00">int</text>
<text text-anchor="start" x="279.5" y="-564.5" font-family="Helvetica,sans-Serif" font-size="10.00"> </text>
<text text-anchor="start" x="279.5" y="-549.5" font-family="Helvetica,sans-Serif" font-size="10.00"> </text>
<polygon fill="#666666" stroke="#666666" points="270,-574.5 270,-574.5 293,-574.5 293,-574.5 270,-574.5"/>
<polygon fill="#666666" stroke="#666666" points="270,-559.5 270,-559.5 293,-559.5 293,-559.5 270,-559.5"/>
<polygon fill="none" stroke="#666666" points="269.5,-543 269.5,-592 292.5,-592 292.5,-543 269.5,-543"/>
</a>
</g>
</g>
<!-- Node8&#45;&gt;Node1 -->
<g id="edge8_Node000001_Node000008" class="edge">
<title>Node8&#45;&gt;Node1</title>
<g id="a_edge8_Node000001_Node000008"><a xlink:title=" ">
<path fill="none" stroke="#63b8ff" d="M283.68,-542.83C284.23,-537.01 284.72,-530.78 285,-525 285.23,-520.12 285.07,-518.89 285,-514 283.44,-408.19 286.43,-381.49 278,-276 277.1,-264.77 275.97,-253.13 274.7,-241.47"/>
<polygon fill="none" stroke="#63b8ff" points="274.68,-241.26 270.03,-235.74 273.33,-229.33 277.98,-234.85 274.68,-241.26"/>
</a>
</g>
<text text-anchor="middle" x="304" y="-346" font-family="Helvetica,sans-Serif" font-size="10.00" fill="grey"> &#45;current</text>
</g>
<!-- Node8&#45;&gt;Node3 -->
<g id="edge7_Node000003_Node000008" class="edge">
<title>Node8&#45;&gt;Node3</title>
<g id="a_edge7_Node000003_Node000008"><a xlink:title=" ">
<path fill="none" stroke="#63b8ff" d="M269.34,-547.1C262.72,-536.07 253.96,-521.5 244.97,-506.53"/>
<polygon fill="none" stroke="#63b8ff" points="244.91,-506.42 238.39,-503.34 238.73,-496.14 245.25,-499.22 244.91,-506.42"/>
</a>
</g>
<text text-anchor="middle" x="268.5" y="-517" font-family="Helvetica,sans-Serif" font-size="10.00" fill="grey"> &#45;line</text>
</g>
</g>
</svg>
