<?xml version="1.0" encoding="UTF-8" standalone="no"?>
<!DOCTYPE svg PUBLIC "-//W3C//DTD SVG 1.1//EN"
 "http://www.w3.org/Graphics/SVG/1.1/DTD/svg11.dtd">
<!-- Generated by graphviz version 2.43.0 (0)
 -->
<!-- Title: Grouping Pages: 1 -->
<svg width="216pt" height="183pt"
 viewBox="0.00 0.00 216.00 183.00" xmlns="http://www.w3.org/2000/svg" xmlns:xlink="http://www.w3.org/1999/xlink">

<svg id="main" version="1.1" xmlns="http://www.w3.org/2000/svg" xmlns:xlink="http://www.w3.org/1999/xlink" xml:space="preserve" onload="init(evt)">
<style type="text/css"><![CDATA[
.node, .edge {opacity: 0.7;}
.node.selected, .edge.selected {opacity: 1;}
.edge:hover path { stroke: red; }
.edge:hover polygon { stroke: red; fill: red; }
]]></style>
<script type="application/ecmascript" xlink:href="svg.min.js"/>
<svg id="graph" class="graph">
<g id="graph0" class="graph" transform="scale(1 1) rotate(0) translate(4 179)">
<title>Grouping</title>
<!-- Node1 -->
<g id="Node000001" class="node">
<title>Node1</title>
<g id="a_Node000001"><a xlink:title="Class representing a grouping expression.">
<polygon fill="#999999" stroke="transparent" points="135.5,-79 37.5,-79 37.5,0 135.5,0 135.5,-79"/>
<text text-anchor="start" x="64" y="-66.5" font-family="Helvetica,sans-Serif" font-size="10.00">Grouping</text>
<text text-anchor="start" x="44" y="-51.5" font-family="Helvetica,sans-Serif" font-size="10.00">&#45;</text>
<text text-anchor="start" x="54.5" y="-51.5" font-family="Helvetica,sans-Serif" font-size="10.00">expression</text>
<text text-anchor="start" x="41.5" y="-36.5" font-family="Helvetica,sans-Serif" font-size="10.00">+</text>
<text text-anchor="start" x="54.5" y="-36.5" font-family="Helvetica,sans-Serif" font-size="10.00">Grouping()</text>
<text text-anchor="start" x="41.5" y="-21.5" font-family="Helvetica,sans-Serif" font-size="10.00">+</text>
<text text-anchor="start" x="54.5" y="-21.5" font-family="Helvetica,sans-Serif" font-size="10.00">accept()</text>
<text text-anchor="start" x="41.5" y="-6.5" font-family="Helvetica,sans-Serif" font-size="10.00">+</text>
<text text-anchor="start" x="54.5" y="-6.5" font-family="Helvetica,sans-Serif" font-size="10.00">getExpression()</text>
<polygon fill="#666666" stroke="#666666" points="37.5,-61.5 37.5,-61.5 135.5,-61.5 135.5,-61.5 37.5,-61.5"/>
<polygon fill="#666666" stroke="#666666" points="37.5,-46.5 37.5,-46.5 52.5,-46.5 52.5,-46.5 37.5,-46.5"/>
<polygon fill="#666666" stroke="#666666" points="52.5,-46.5 52.5,-46.5 135.5,-46.5 135.5,-46.5 52.5,-46.5"/>
<polygon fill="none" stroke="#666666" points="37.5,0 37.5,-79 135.5,-79 135.5,0 37.5,0"/>
</a>
</g>
</g>
<!-- Node2 -->
<g id="Node000002" class="node">
<title>Node2</title>
<g id="a_Node000002"><a xlink:href="classExpr.html" target="_top" xlink:title="Abstract base class for expressions.">
<polygon fill="white" stroke="transparent" points="61,-169.5 0,-169.5 0,-120.5 61,-120.5 61,-169.5"/>
<text text-anchor="start" x="20" y="-157" font-family="Helvetica,sans-Serif" font-size="10.00">Expr</text>
<text text-anchor="start" x="29" y="-142" font-family="Helvetica,sans-Serif" font-size="10.00"> </text>
<text text-anchor="start" x="4.5" y="-127" font-family="Helvetica,sans-Serif" font-size="10.00">+</text>
<text text-anchor="start" x="17.5" y="-127" font-family="Helvetica,sans-Serif" font-size="10.00">accept()</text>
<polygon fill="#666666" stroke="#666666" points="0.5,-152 0.5,-152 61.5,-152 61.5,-152 0.5,-152"/>
<polygon fill="#666666" stroke="#666666" points="0.5,-137 0.5,-137 61.5,-137 61.5,-137 0.5,-137"/>
<polygon fill="none" stroke="#666666" points="0,-120.5 0,-169.5 61,-169.5 61,-120.5 0,-120.5"/>
</a>
</g>
</g>
<!-- Node2&#45;&gt;Node1 -->
<g id="edge1_Node000001_Node000002" class="edge">
<title>Node2&#45;&gt;Node1</title>
<g id="a_edge1_Node000001_Node000002"><a xlink:title=" ">
<path fill="none" stroke="#63b8ff" d="M48.21,-111.26C53.73,-101.06 59.87,-89.71 65.59,-79.14"/>
<polygon fill="none" stroke="#63b8ff" points="45.03,-109.79 43.35,-120.26 51.18,-113.13 45.03,-109.79"/>
</a>
</g>
</g>
<!-- Node3 -->
<g id="Node000003" class="node">
<title>Node3</title>
<g id="a_Node000003"><a xlink:title=" ">
<polygon fill="white" stroke="transparent" points="208,-175 79,-175 79,-115 208,-115 208,-175"/>
<text text-anchor="start" x="84.5" y="-163" font-family="Helvetica,sans-Serif" font-size="10.00">std::enable_shared</text>
<text text-anchor="start" x="84.5" y="-152" font-family="Helvetica,sans-Serif" font-size="10.00">_from_this&lt; Grouping &gt;</text>
<text text-anchor="start" x="142" y="-137" font-family="Helvetica,sans-Serif" font-size="10.00"> </text>
<text text-anchor="start" x="142" y="-122" font-family="Helvetica,sans-Serif" font-size="10.00"> </text>
<polygon fill="#666666" stroke="#666666" points="79.5,-147 79.5,-147 208.5,-147 208.5,-147 79.5,-147"/>
<polygon fill="#666666" stroke="#666666" points="79.5,-132 79.5,-132 208.5,-132 208.5,-132 79.5,-132"/>
<polygon fill="none" stroke="#666666" points="79,-115 79,-175 208,-175 208,-115 79,-115"/>
</a>
</g>
</g>
<!-- Node3&#45;&gt;Node1 -->
<g id="edge2_Node000001_Node000003" class="edge">
<title>Node3&#45;&gt;Node1</title>
<g id="a_edge2_Node000001_Node000003"><a xlink:title=" ">
<path fill="none" stroke="#63b8ff" d="M122.57,-105.99C117.73,-97.21 112.58,-87.85 107.73,-79.05"/>
<polygon fill="none" stroke="#63b8ff" points="119.58,-107.82 127.47,-114.89 125.71,-104.45 119.58,-107.82"/>
</a>
</g>
</g>
</g>
</svg>
</svg>

<style type='text/css'>
<![CDATA[
[data-mouse-over-selected='false'] { opacity: 0.7; }
[data-mouse-over-selected='true']  { opacity: 1.0; }
]]>
</style>
<script type="application/ecmascript"><![CDATA[
document.addEventListener('DOMContentLoaded', (event) => {
  highlightEdges();
  highlightAdjacentNodes();
});
]]></script>
</svg>
