<?xml version="1.0" encoding="UTF-8" standalone="no"?>
<!DOCTYPE svg PUBLIC "-//W3C//DTD SVG 1.1//EN"
 "http://www.w3.org/Graphics/SVG/1.1/DTD/svg11.dtd">
<!-- Generated by graphviz version 2.43.0 (0)
 -->
<!-- Title: Variable Pages: 1 -->
<!--zoomable 451 -->

<svg id="main" version="1.1" xmlns="http://www.w3.org/2000/svg" xmlns:xlink="http://www.w3.org/1999/xlink" xml:space="preserve" onload="init(evt)">
<style type="text/css"><![CDATA[
.node, .edge {opacity: 0.7;}
.node.selected, .edge.selected {opacity: 1;}
.edge:hover path { stroke: red; }
.edge:hover polygon { stroke: red; fill: red; }
]]></style>

<defs>
  <circle id="rim" cx="0" cy="0" r="7"/>
  <circle id="rim2" cx="0" cy="0" r="3.5"/>
  <g id="zoomPlus">
    <use xlink:href="#rim" fill="#404040"><set attributeName="fill" to="#808080" begin="zoomplus.mouseover" end="zoomplus.mouseout"/></use>
    <path d="M-4,0h8M0,-4v8" fill="none" stroke="white" stroke-width="1.5" pointer-events="none"/>
  </g>
  <g id="zoomMin">
    <use xlink:href="#rim" fill="#404040"><set attributeName="fill" to="#808080" begin="zoomminus.mouseover" end="zoomminus.mouseout"/></use>
    <path d="M-4,0h8" fill="none" stroke="white" stroke-width="1.5" pointer-events="none"/>
  </g>
  <g id="arrowUp" transform="translate(30 24)">
    <use xlink:href="#rim"/>
    <path pointer-events="none" fill="none" stroke="white" stroke-width="1.5" d="M0,-3.0v7 M-2.5,-0.5L0,-3.0L2.5,-0.5"/>
  </g>
  <g id="arrowRight" transform="rotate(90) translate(36 -43)">
    <use xlink:href="#rim"/>
    <path pointer-events="none" fill="none" stroke="white" stroke-width="1.5" d="M0,-3.0v7 M-2.5,-0.5L0,-3.0L2.5,-0.5"/>
  </g>
  <g id="arrowDown" transform="rotate(180) translate(-30 -48)">
    <use xlink:href="#rim"/>
    <path pointer-events="none" fill="none" stroke="white" stroke-width="1.5" d="M0,-3.0v7 M-2.5,-0.5L0,-3.0L2.5,-0.5"/>
  </g>
  <g id="arrowLeft" transform="rotate(270) translate(-36 17)">
    <use xlink:href="#rim"/>
    <path pointer-events="none" fill="none" stroke="white" stroke-width="1.5" d="M0,-3.0v7 M-2.5,-0.5L0,-3.0L2.5,-0.5"/>
  </g>
  <g id="resetDef">
    <use xlink:href="#rim2" fill="#404040"><set attributeName="fill" to="#808080" begin="reset.mouseover" end="reset.mouseout"/></use>
  </g>
</defs>
<script type="application/ecmascript">
var viewWidth = 375;
var viewHeight = 451;
var sectionId = 'dynsection-1';
</script>
<script type="application/ecmascript" xlink:href="svg.min.js"/>
<svg id="graph" class="graph">
<g id="viewport">
<title>Variable</title>
<!-- Node1 -->
<g id="Node000001" class="node">
<title>Node1</title>
<g id="a_Node000001"><a xlink:title="Class representing a variable expression.">
<polygon fill="#999999" stroke="transparent" points="178.5,-79 104.5,-79 104.5,0 178.5,0 178.5,-79"/>
<text text-anchor="start" x="121.5" y="-66.5" font-family="Helvetica,sans-Serif" font-size="10.00">Variable</text>
<text text-anchor="start" x="139.5" y="-51.5" font-family="Helvetica,sans-Serif" font-size="10.00"> </text>
<text text-anchor="start" x="108.5" y="-36.5" font-family="Helvetica,sans-Serif" font-size="10.00">+</text>
<text text-anchor="start" x="121.5" y="-36.5" font-family="Helvetica,sans-Serif" font-size="10.00">Variable()</text>
<text text-anchor="start" x="108.5" y="-21.5" font-family="Helvetica,sans-Serif" font-size="10.00">+</text>
<text text-anchor="start" x="121.5" y="-21.5" font-family="Helvetica,sans-Serif" font-size="10.00">accept()</text>
<text text-anchor="start" x="108.5" y="-6.5" font-family="Helvetica,sans-Serif" font-size="10.00">+</text>
<text text-anchor="start" x="121.5" y="-6.5" font-family="Helvetica,sans-Serif" font-size="10.00">getName()</text>
<polygon fill="#666666" stroke="#666666" points="104.5,-61.5 104.5,-61.5 178.5,-61.5 178.5,-61.5 104.5,-61.5"/>
<polygon fill="#666666" stroke="#666666" points="104.5,-46.5 104.5,-46.5 178.5,-46.5 178.5,-46.5 104.5,-46.5"/>
<polygon fill="none" stroke="#666666" points="104.5,0 104.5,-79 178.5,-79 178.5,0 104.5,0"/>
</a>
</g>
</g>
<!-- Node2 -->
<g id="Node000002" class="node">
<title>Node2</title>
<g id="a_Node000002"><a xlink:href="classExpr.html" target="_top" xlink:title="Abstract base class for expressions.">
<polygon fill="white" stroke="transparent" points="61,-212.5 0,-212.5 0,-163.5 61,-163.5 61,-212.5"/>
<text text-anchor="start" x="20" y="-200" font-family="Helvetica,sans-Serif" font-size="10.00">Expr</text>
<text text-anchor="start" x="29" y="-185" font-family="Helvetica,sans-Serif" font-size="10.00"> </text>
<text text-anchor="start" x="4.5" y="-170" font-family="Helvetica,sans-Serif" font-size="10.00">+</text>
<text text-anchor="start" x="17.5" y="-170" font-family="Helvetica,sans-Serif" font-size="10.00">accept()</text>
<polygon fill="#666666" stroke="#666666" points="0.5,-195 0.5,-195 61.5,-195 61.5,-195 0.5,-195"/>
<polygon fill="#666666" stroke="#666666" points="0.5,-180 0.5,-180 61.5,-180 61.5,-180 0.5,-180"/>
<polygon fill="none" stroke="#666666" points="0,-163.5 0,-212.5 61,-212.5 61,-163.5 0,-163.5"/>
</a>
</g>
</g>
<!-- Node2&#45;&gt;Node1 -->
<g id="edge1_Node000001_Node000002" class="edge">
<title>Node2&#45;&gt;Node1</title>
<g id="a_edge1_Node000001_Node000002"><a xlink:title=" ">
<path fill="none" stroke="#63b8ff" d="M50.09,-154.63C56.07,-145.22 62.84,-135.05 69.5,-126 81.12,-110.21 94.77,-93.57 107.05,-79.21"/>
<polygon fill="none" stroke="#63b8ff" points="46.97,-153.02 44.62,-163.35 52.9,-156.74 46.97,-153.02"/>
</a>
</g>
</g>
<!-- Node3 -->
<g id="Node000003" class="node">
<title>Node3</title>
<g id="a_Node000003"><a xlink:title=" ">
<polygon fill="white" stroke="transparent" points="204,-218 79,-218 79,-158 204,-158 204,-218"/>
<text text-anchor="start" x="84.5" y="-206" font-family="Helvetica,sans-Serif" font-size="10.00">std::enable_shared</text>
<text text-anchor="start" x="84.5" y="-195" font-family="Helvetica,sans-Serif" font-size="10.00">_from_this&lt; Variable &gt;</text>
<text text-anchor="start" x="140" y="-180" font-family="Helvetica,sans-Serif" font-size="10.00"> </text>
<text text-anchor="start" x="140" y="-165" font-family="Helvetica,sans-Serif" font-size="10.00"> </text>
<polygon fill="#666666" stroke="#666666" points="79.5,-190 79.5,-190 204.5,-190 204.5,-190 79.5,-190"/>
<polygon fill="#666666" stroke="#666666" points="79.5,-175 79.5,-175 204.5,-175 204.5,-175 79.5,-175"/>
<polygon fill="none" stroke="#666666" points="79,-158 79,-218 204,-218 204,-158 79,-158"/>
</a>
</g>
</g>
<!-- Node3&#45;&gt;Node1 -->
<g id="edge2_Node000001_Node000003" class="edge">
<title>Node3&#45;&gt;Node1</title>
<g id="a_edge2_Node000001_Node000003"><a xlink:title=" ">
<path fill="none" stroke="#63b8ff" d="M141.5,-147.42C141.5,-126.24 141.5,-100.24 141.5,-79.19"/>
<polygon fill="none" stroke="#63b8ff" points="138,-147.71 141.5,-157.71 145,-147.71 138,-147.71"/>
</a>
</g>
</g>
<!-- Node4 -->
<g id="Node000004" class="node">
<title>Node4</title>
<g id="a_Node000004"><a xlink:href="classToken.html" target="_top" xlink:title="Represents a token in the source code.">
<polygon fill="white" stroke="transparent" points="305,-250 222,-250 222,-126 305,-126 305,-250"/>
<text text-anchor="start" x="250" y="-238" font-family="Helvetica,sans-Serif" font-size="10.00">Token</text>
<text text-anchor="start" x="262" y="-223" font-family="Helvetica,sans-Serif" font-size="10.00"> </text>
<text text-anchor="start" x="226.5" y="-208" font-family="Helvetica,sans-Serif" font-size="10.00">+</text>
<text text-anchor="start" x="239.5" y="-208" font-family="Helvetica,sans-Serif" font-size="10.00">Token()</text>
<text text-anchor="start" x="226.5" y="-193" font-family="Helvetica,sans-Serif" font-size="10.00">+</text>
<text text-anchor="start" x="239.5" y="-193" font-family="Helvetica,sans-Serif" font-size="10.00">getType()</text>
<text text-anchor="start" x="226.5" y="-178" font-family="Helvetica,sans-Serif" font-size="10.00">+</text>
<text text-anchor="start" x="239.5" y="-178" font-family="Helvetica,sans-Serif" font-size="10.00">getLexeme()</text>
<text text-anchor="start" x="226.5" y="-163" font-family="Helvetica,sans-Serif" font-size="10.00">+</text>
<text text-anchor="start" x="239.5" y="-163" font-family="Helvetica,sans-Serif" font-size="10.00">getLiteral()</text>
<text text-anchor="start" x="226.5" y="-148" font-family="Helvetica,sans-Serif" font-size="10.00">+</text>
<text text-anchor="start" x="239.5" y="-148" font-family="Helvetica,sans-Serif" font-size="10.00">getLine()</text>
<text text-anchor="start" x="226.5" y="-133" font-family="Helvetica,sans-Serif" font-size="10.00">+</text>
<text text-anchor="start" x="239.5" y="-133" font-family="Helvetica,sans-Serif" font-size="10.00">toString()</text>
<polygon fill="#666666" stroke="#666666" points="222.5,-233 222.5,-233 305.5,-233 305.5,-233 222.5,-233"/>
<polygon fill="#666666" stroke="#666666" points="222.5,-218 222.5,-218 305.5,-218 305.5,-218 222.5,-218"/>
<polygon fill="none" stroke="#666666" points="222,-126 222,-250 305,-250 305,-126 222,-126"/>
</a>
</g>
</g>
<!-- Node4&#45;&gt;Node1 -->
<g id="edge3_Node000001_Node000004" class="edge">
<title>Node4&#45;&gt;Node1</title>
<g id="a_edge3_Node000001_Node000004"><a xlink:title=" ">
<path fill="none" stroke="#63b8ff" d="M221.86,-136.99C208.82,-121.34 194.47,-104.11 181.55,-88.6"/>
<polygon fill="none" stroke="#63b8ff" points="181.4,-88.41 174.48,-86.36 173.72,-79.19 180.63,-81.24 181.4,-88.41"/>
</a>
</g>
<text text-anchor="middle" x="213" y="-100" font-family="Helvetica,sans-Serif" font-size="10.00" fill="grey"> &#45;name</text>
</g>
<!-- Node5 -->
<g id="Node000005" class="node">
<title>Node5</title>
<g id="a_Node000005"><a xlink:title=" ">
<polygon fill="white" stroke="transparent" points="184.5,-346 94.5,-346 94.5,-297 184.5,-297 184.5,-346"/>
<text text-anchor="start" x="99.5" y="-333.5" font-family="Helvetica,sans-Serif" font-size="10.00">const TokenType</text>
<text text-anchor="start" x="137.5" y="-318.5" font-family="Helvetica,sans-Serif" font-size="10.00"> </text>
<text text-anchor="start" x="137.5" y="-303.5" font-family="Helvetica,sans-Serif" font-size="10.00"> </text>
<polygon fill="#666666" stroke="#666666" points="94.5,-328.5 94.5,-328.5 184.5,-328.5 184.5,-328.5 94.5,-328.5"/>
<polygon fill="#666666" stroke="#666666" points="94.5,-313.5 94.5,-313.5 184.5,-313.5 184.5,-313.5 94.5,-313.5"/>
<polygon fill="none" stroke="#666666" points="94.5,-297 94.5,-346 184.5,-346 184.5,-297 94.5,-297"/>
</a>
</g>
</g>
<!-- Node5&#45;&gt;Node4 -->
<g id="edge4_Node000004_Node000005" class="edge">
<title>Node5&#45;&gt;Node4</title>
<g id="a_edge4_Node000004_Node000005"><a xlink:title=" ">
<path fill="none" stroke="#63b8ff" d="M165.15,-297C179.45,-283.58 197.37,-266.25 212.5,-250 212.89,-249.58 213.28,-249.16 213.67,-248.74"/>
<polygon fill="none" stroke="#63b8ff" points="213.85,-248.54 214.9,-241.4 221.89,-239.63 220.84,-246.76 213.85,-248.54"/>
</a>
</g>
<text text-anchor="middle" x="210" y="-271" font-family="Helvetica,sans-Serif" font-size="10.00" fill="grey"> &#45;type</text>
</g>
<!-- Node6 -->
<g id="Node000006" class="node">
<title>Node6</title>
<g id="a_Node000006"><a xlink:title=" ">
<polygon fill="white" stroke="transparent" points="262,-346 203,-346 203,-297 262,-297 262,-346"/>
<text text-anchor="start" x="208.5" y="-333.5" font-family="Helvetica,sans-Serif" font-size="10.00">std::string</text>
<text text-anchor="start" x="231" y="-318.5" font-family="Helvetica,sans-Serif" font-size="10.00"> </text>
<text text-anchor="start" x="231" y="-303.5" font-family="Helvetica,sans-Serif" font-size="10.00"> </text>
<polygon fill="#666666" stroke="#666666" points="203.5,-328.5 203.5,-328.5 262.5,-328.5 262.5,-328.5 203.5,-328.5"/>
<polygon fill="#666666" stroke="#666666" points="203.5,-313.5 203.5,-313.5 262.5,-313.5 262.5,-313.5 203.5,-313.5"/>
<polygon fill="none" stroke="#666666" points="203,-297 203,-346 262,-346 262,-297 203,-297"/>
</a>
</g>
</g>
<!-- Node6&#45;&gt;Node4 -->
<g id="edge5_Node000004_Node000006" class="edge">
<title>Node6&#45;&gt;Node4</title>
<g id="a_edge5_Node000004_Node000006"><a xlink:title=" ">
<path fill="none" stroke="#63b8ff" d="M231.83,-296.8C231.69,-290.98 231.57,-284.77 231.5,-279 231.44,-274.11 230.57,-272.8 231.5,-268 231.89,-266 232.33,-263.99 232.81,-261.98"/>
<polygon fill="none" stroke="#63b8ff" points="232.81,-261.97 230.56,-255.12 236.02,-250.41 238.27,-257.26 232.81,-261.97"/>
</a>
</g>
<text text-anchor="middle" x="253" y="-271" font-family="Helvetica,sans-Serif" font-size="10.00" fill="grey"> &#45;lexeme</text>
</g>
<!-- Node7 -->
<g id="Node000007" class="node">
<title>Node7</title>
<g id="a_Node000007"><a xlink:title=" ">
<polygon fill="white" stroke="transparent" points="281.5,-443 183.5,-443 183.5,-383 281.5,-383 281.5,-443"/>
<text text-anchor="start" x="188.5" y="-431" font-family="Helvetica,sans-Serif" font-size="10.00">std::basic_string&lt;</text>
<text text-anchor="start" x="214" y="-420" font-family="Helvetica,sans-Serif" font-size="10.00"> Char &gt;</text>
<text text-anchor="start" x="230.5" y="-405" font-family="Helvetica,sans-Serif" font-size="10.00"> </text>
<text text-anchor="start" x="230.5" y="-390" font-family="Helvetica,sans-Serif" font-size="10.00"> </text>
<polygon fill="#666666" stroke="#666666" points="183.5,-415 183.5,-415 281.5,-415 281.5,-415 183.5,-415"/>
<polygon fill="#666666" stroke="#666666" points="183.5,-400 183.5,-400 281.5,-400 281.5,-400 183.5,-400"/>
<polygon fill="none" stroke="#666666" points="183.5,-383 183.5,-443 281.5,-443 281.5,-383 183.5,-383"/>
</a>
</g>
</g>
<!-- Node7&#45;&gt;Node6 -->
<g id="edge6_Node000006_Node000007" class="edge">
<title>Node7&#45;&gt;Node6</title>
<g id="a_edge6_Node000006_Node000007"><a xlink:title=" ">
<path fill="none" stroke="#63b8ff" d="M232.5,-372.41C232.5,-363.47 232.5,-354.25 232.5,-346.21"/>
<polygon fill="none" stroke="#63b8ff" points="229,-372.69 232.5,-382.69 236,-372.69 229,-372.69"/>
</a>
</g>
</g>
<!-- Node8 -->
<g id="Node000008" class="node">
<title>Node8</title>
<g id="a_Node000008"><a xlink:title=" ">
<polygon fill="white" stroke="transparent" points="311,-346 282,-346 282,-297 311,-297 311,-346"/>
<text text-anchor="start" x="287.5" y="-333.5" font-family="Helvetica,sans-Serif" font-size="10.00">any</text>
<text text-anchor="start" x="295" y="-318.5" font-family="Helvetica,sans-Serif" font-size="10.00"> </text>
<text text-anchor="start" x="295" y="-303.5" font-family="Helvetica,sans-Serif" font-size="10.00"> </text>
<polygon fill="#666666" stroke="#666666" points="282.5,-328.5 282.5,-328.5 311.5,-328.5 311.5,-328.5 282.5,-328.5"/>
<polygon fill="#666666" stroke="#666666" points="282.5,-313.5 282.5,-313.5 311.5,-313.5 311.5,-313.5 282.5,-313.5"/>
<polygon fill="none" stroke="#666666" points="282,-297 282,-346 311,-346 311,-297 282,-297"/>
</a>
</g>
</g>
<!-- Node8&#45;&gt;Node4 -->
<g id="edge7_Node000004_Node000008" class="edge">
<title>Node8&#45;&gt;Node4</title>
<g id="a_edge7_Node000004_Node000008"><a xlink:title=" ">
<path fill="none" stroke="#63b8ff" d="M290.6,-296.99C288.07,-286.92 284.97,-274.56 281.78,-261.85"/>
<polygon fill="none" stroke="#63b8ff" points="281.76,-261.76 276.42,-256.91 278.84,-250.12 284.18,-254.97 281.76,-261.76"/>
</a>
</g>
<text text-anchor="middle" x="304.5" y="-271" font-family="Helvetica,sans-Serif" font-size="10.00" fill="grey"> &#45;literal</text>
</g>
<!-- Node9 -->
<g id="Node000009" class="node">
<title>Node9</title>
<g id="a_Node000009"><a xlink:title=" ">
<polygon fill="white" stroke="transparent" points="367,-346 344,-346 344,-297 367,-297 367,-346"/>
<text text-anchor="start" x="349.5" y="-333.5" font-family="Helvetica,sans-Serif" font-size="10.00">int</text>
<text text-anchor="start" x="354" y="-318.5" font-family="Helvetica,sans-Serif" font-size="10.00"> </text>
<text text-anchor="start" x="354" y="-303.5" font-family="Helvetica,sans-Serif" font-size="10.00"> </text>
<polygon fill="#666666" stroke="#666666" points="344.5,-328.5 344.5,-328.5 367.5,-328.5 367.5,-328.5 344.5,-328.5"/>
<polygon fill="#666666" stroke="#666666" points="344.5,-313.5 344.5,-313.5 367.5,-313.5 367.5,-313.5 344.5,-313.5"/>
<polygon fill="none" stroke="#666666" points="344,-297 344,-346 367,-346 367,-297 344,-297"/>
</a>
</g>
</g>
<!-- Node9&#45;&gt;Node4 -->
<g id="edge8_Node000004_Node000009" class="edge">
<title>Node9&#45;&gt;Node4</title>
<g id="a_edge8_Node000004_Node000009"><a xlink:title=" ">
<path fill="none" stroke="#63b8ff" d="M343.89,-297.52C338.88,-288.16 332.75,-277.35 326.5,-268 322.22,-261.59 317.54,-255.05 312.75,-248.61"/>
<polygon fill="none" stroke="#63b8ff" points="312.41,-248.16 305.59,-245.81 305.14,-238.62 311.95,-240.97 312.41,-248.16"/>
</a>
</g>
<text text-anchor="middle" x="345" y="-271" font-family="Helvetica,sans-Serif" font-size="10.00" fill="grey"> &#45;line</text>
</g>
</g>
</svg>

<g id="navigator" transform="translate(0 0)" fill="#404254">
  <rect fill="#f2f5e9" fill-opacity="0.5" stroke="#606060" stroke-width=".5" x="0" y="0" width="60" height="60"/>
  <use id="zoomplus" xlink:href="#zoomPlus" x="17" y="9" onmousedown="handleZoom(evt,'in')"/>
  <use id="zoomminus" xlink:href="#zoomMin" x="42" y="9" onmousedown="handleZoom(evt,'out')"/>
  <use id="reset" xlink:href="#resetDef" x="30" y="36" onmousedown="handleReset()"/>
   <use id="arrowup" xlink:href="#arrowUp" x="0" y="0" onmousedown="handlePan(0,-1)"/>
  <use id="arrowright" xlink:href="#arrowRight" x="0" y="0" onmousedown="handlePan(1,0)"/>
  <use id="arrowdown" xlink:href="#arrowDown" x="0" y="0" onmousedown="handlePan(0,1)"/>
  <use id="arrowleft" xlink:href="#arrowLeft" x="0" y="0" onmousedown="handlePan(-1,0)"/>
</g>
<svg viewBox="0 0 15 15" width="100%" height="30px" preserveAspectRatio="xMaxYMin meet">
 <g id="arrow_out" transform="scale(0.3 0.3)">
  <a xlink:href="classVariable__coll__graph_org.svg" target="_base">
   <rect id="button" ry="5" rx="5" y="6" x="6" height="38" width="38"
        fill="#f2f5e9" fill-opacity="0.5" stroke="#606060" stroke-width="1.0"/>
   <path id="arrow"
     d="M 11.500037,31.436501 C 11.940474,20.09759 22.043105,11.32322 32.158766,21.979434 L 37.068811,17.246167 C 37.068811,17.246167 37.088388,32 37.088388,32 L 22.160133,31.978069 C 22.160133,31.978069 26.997745,27.140456 26.997745,27.140456 C 18.528582,18.264221 13.291696,25.230495 11.500037,31.436501 z"
     style="fill:#404040;"/>
  </a>
 </g>
</svg>

<style type='text/css'>
<![CDATA[
[data-mouse-over-selected='false'] { opacity: 0.7; }
[data-mouse-over-selected='true']  { opacity: 1.0; }
]]>
</style>
<script type="application/ecmascript"><![CDATA[
document.addEventListener('DOMContentLoaded', (event) => {
  highlightEdges();
  highlightAdjacentNodes();
});
]]></script>
</svg>
