<?xml version="1.0" encoding="UTF-8" standalone="no"?>
<!DOCTYPE svg PUBLIC "-//W3C//DTD SVG 1.1//EN"
 "http://www.w3.org/Graphics/SVG/1.1/DTD/svg11.dtd">
<!-- Generated by graphviz version 2.43.0 (0)
 -->
<!-- Title: Print Pages: 1 -->
<svg width="341pt" height="290pt"
 viewBox="0.00 0.00 340.50 290.00" xmlns="http://www.w3.org/2000/svg" xmlns:xlink="http://www.w3.org/1999/xlink">

<svg id="main" version="1.1" xmlns="http://www.w3.org/2000/svg" xmlns:xlink="http://www.w3.org/1999/xlink" xml:space="preserve" onload="init(evt)">
<style type="text/css"><![CDATA[
.node, .edge {opacity: 0.7;}
.node.selected, .edge.selected {opacity: 1;}
.edge:hover path { stroke: red; }
.edge:hover polygon { stroke: red; fill: red; }
]]></style>
<script type="application/ecmascript" xlink:href="svg.min.js"/>
<svg id="graph" class="graph">
<g id="graph0" class="graph" transform="scale(1 1) rotate(0) translate(4 286)">
<title>Print</title>
<!-- Node1 -->
<g id="Node000001" class="node">
<title>Node1</title>
<g id="a_Node000001"><a xlink:title="Represents a print statement.">
<polygon fill="#999999" stroke="transparent" points="181.5,-79 83.5,-79 83.5,0 181.5,0 181.5,-79"/>
<text text-anchor="start" x="121" y="-66.5" font-family="Helvetica,sans-Serif" font-size="10.00">Print</text>
<text text-anchor="start" x="130.5" y="-51.5" font-family="Helvetica,sans-Serif" font-size="10.00"> </text>
<text text-anchor="start" x="87.5" y="-36.5" font-family="Helvetica,sans-Serif" font-size="10.00">+</text>
<text text-anchor="start" x="100.5" y="-36.5" font-family="Helvetica,sans-Serif" font-size="10.00">Print()</text>
<text text-anchor="start" x="87.5" y="-21.5" font-family="Helvetica,sans-Serif" font-size="10.00">+</text>
<text text-anchor="start" x="100.5" y="-21.5" font-family="Helvetica,sans-Serif" font-size="10.00">accept()</text>
<text text-anchor="start" x="87.5" y="-6.5" font-family="Helvetica,sans-Serif" font-size="10.00">+</text>
<text text-anchor="start" x="100.5" y="-6.5" font-family="Helvetica,sans-Serif" font-size="10.00">getExpression()</text>
<polygon fill="#666666" stroke="#666666" points="83.5,-61.5 83.5,-61.5 181.5,-61.5 181.5,-61.5 83.5,-61.5"/>
<polygon fill="#666666" stroke="#666666" points="83.5,-46.5 83.5,-46.5 181.5,-46.5 181.5,-46.5 83.5,-46.5"/>
<polygon fill="none" stroke="#666666" points="83.5,0 83.5,-79 181.5,-79 181.5,0 83.5,0"/>
</a>
</g>
</g>
<!-- Node2 -->
<g id="Node000002" class="node">
<title>Node2</title>
<g id="a_Node000002"><a xlink:href="classStmt.html" target="_top" xlink:title="Abstract base class for statements.">
<polygon fill="white" stroke="transparent" points="61,-180.5 0,-180.5 0,-131.5 61,-131.5 61,-180.5"/>
<text text-anchor="start" x="19" y="-168" font-family="Helvetica,sans-Serif" font-size="10.00">Stmt</text>
<text text-anchor="start" x="29" y="-153" font-family="Helvetica,sans-Serif" font-size="10.00"> </text>
<text text-anchor="start" x="4.5" y="-138" font-family="Helvetica,sans-Serif" font-size="10.00">+</text>
<text text-anchor="start" x="17.5" y="-138" font-family="Helvetica,sans-Serif" font-size="10.00">accept()</text>
<polygon fill="#666666" stroke="#666666" points="0.5,-163 0.5,-163 61.5,-163 61.5,-163 0.5,-163"/>
<polygon fill="#666666" stroke="#666666" points="0.5,-148 0.5,-148 61.5,-148 61.5,-148 0.5,-148"/>
<polygon fill="none" stroke="#666666" points="0,-131.5 0,-180.5 61,-180.5 61,-131.5 0,-131.5"/>
</a>
</g>
</g>
<!-- Node2&#45;&gt;Node1 -->
<g id="edge1_Node000001_Node000002" class="edge">
<title>Node2&#45;&gt;Node1</title>
<g id="a_edge1_Node000001_Node000002"><a xlink:title=" ">
<path fill="none" stroke="#63b8ff" d="M58.56,-123.51C70.8,-109.77 85.26,-93.52 98.14,-79.07"/>
<polygon fill="none" stroke="#63b8ff" points="55.67,-121.48 51.63,-131.28 60.9,-126.14 55.67,-121.48"/>
</a>
</g>
</g>
<!-- Node3 -->
<g id="Node000003" class="node">
<title>Node3</title>
<g id="a_Node000003"><a xlink:title=" ">
<polygon fill="white" stroke="transparent" points="186,-186 79,-186 79,-126 186,-126 186,-186"/>
<text text-anchor="start" x="84.5" y="-174" font-family="Helvetica,sans-Serif" font-size="10.00">std::enable_shared</text>
<text text-anchor="start" x="84.5" y="-163" font-family="Helvetica,sans-Serif" font-size="10.00">_from_this&lt; Print &gt;</text>
<text text-anchor="start" x="131" y="-148" font-family="Helvetica,sans-Serif" font-size="10.00"> </text>
<text text-anchor="start" x="131" y="-133" font-family="Helvetica,sans-Serif" font-size="10.00"> </text>
<polygon fill="#666666" stroke="#666666" points="79.5,-158 79.5,-158 186.5,-158 186.5,-158 79.5,-158"/>
<polygon fill="#666666" stroke="#666666" points="79.5,-143 79.5,-143 186.5,-143 186.5,-143 79.5,-143"/>
<polygon fill="none" stroke="#666666" points="79,-126 79,-186 186,-186 186,-126 79,-126"/>
</a>
</g>
</g>
<!-- Node3&#45;&gt;Node1 -->
<g id="edge2_Node000001_Node000003" class="edge">
<title>Node3&#45;&gt;Node1</title>
<g id="a_edge2_Node000001_Node000003"><a xlink:title=" ">
<path fill="none" stroke="#63b8ff" d="M132.5,-115.76C132.5,-103.93 132.5,-90.95 132.5,-79.15"/>
<polygon fill="none" stroke="#63b8ff" points="129,-115.81 132.5,-125.81 136,-115.81 129,-115.81"/>
</a>
</g>
</g>
<!-- Node4 -->
<g id="Node000004" class="node">
<title>Node4</title>
<g id="a_Node000004"><a xlink:title=" ">
<polygon fill="white" stroke="transparent" points="332.5,-180.5 204.5,-180.5 204.5,-131.5 332.5,-131.5 332.5,-180.5"/>
<text text-anchor="start" x="209.5" y="-168" font-family="Helvetica,sans-Serif" font-size="10.00">std::shared_ptr&lt; Expr &gt;</text>
<text text-anchor="start" x="266.5" y="-153" font-family="Helvetica,sans-Serif" font-size="10.00"> </text>
<text text-anchor="start" x="220" y="-138" font-family="Helvetica,sans-Serif" font-size="10.00">+</text>
<text text-anchor="start" x="244.5" y="-138" font-family="Helvetica,sans-Serif" font-size="10.00">operator&#45;&gt;()</text>
<polygon fill="#666666" stroke="#666666" points="204.5,-163 204.5,-163 332.5,-163 332.5,-163 204.5,-163"/>
<polygon fill="#666666" stroke="#666666" points="204.5,-148 204.5,-148 332.5,-148 332.5,-148 204.5,-148"/>
<polygon fill="none" stroke="#666666" points="204.5,-131.5 204.5,-180.5 332.5,-180.5 332.5,-131.5 204.5,-131.5"/>
</a>
</g>
</g>
<!-- Node4&#45;&gt;Node1 -->
<g id="edge3_Node000001_Node000004" class="edge">
<title>Node4&#45;&gt;Node1</title>
<g id="a_edge3_Node000001_Node000004"><a xlink:title=" ">
<path fill="none" stroke="#63b8ff" d="M240.32,-131.28C225.08,-118.45 205.72,-102.15 187.63,-86.91"/>
<polygon fill="none" stroke="#63b8ff" points="187.49,-86.8 180.32,-85.99 178.31,-79.07 185.48,-79.87 187.49,-86.8"/>
</a>
</g>
<text text-anchor="middle" x="239" y="-100" font-family="Helvetica,sans-Serif" font-size="10.00" fill="grey"> &#45;expression</text>
</g>
<!-- Node5 -->
<g id="Node000005" class="node">
<title>Node5</title>
<g id="a_Node000005"><a xlink:href="classExpr.html" target="_top" xlink:title="Abstract base class for expressions.">
<polygon fill="white" stroke="transparent" points="299,-282 238,-282 238,-233 299,-233 299,-282"/>
<text text-anchor="start" x="258" y="-269.5" font-family="Helvetica,sans-Serif" font-size="10.00">Expr</text>
<text text-anchor="start" x="267" y="-254.5" font-family="Helvetica,sans-Serif" font-size="10.00"> </text>
<text text-anchor="start" x="242.5" y="-239.5" font-family="Helvetica,sans-Serif" font-size="10.00">+</text>
<text text-anchor="start" x="255.5" y="-239.5" font-family="Helvetica,sans-Serif" font-size="10.00">accept()</text>
<polygon fill="#666666" stroke="#666666" points="238.5,-264.5 238.5,-264.5 299.5,-264.5 299.5,-264.5 238.5,-264.5"/>
<polygon fill="#666666" stroke="#666666" points="238.5,-249.5 238.5,-249.5 299.5,-249.5 299.5,-249.5 238.5,-249.5"/>
<polygon fill="none" stroke="#666666" points="238,-233 238,-282 299,-282 299,-233 238,-233"/>
</a>
</g>
</g>
<!-- Node5&#45;&gt;Node4 -->
<g id="edge4_Node000004_Node000005" class="edge">
<title>Node5&#45;&gt;Node4</title>
<g id="a_edge4_Node000004_Node000005"><a xlink:title=" ">
<path fill="none" stroke="#63b8ff" d="M268.5,-232.92C268.5,-220.99 268.5,-206.25 268.5,-192.94"/>
<polygon fill="none" stroke="#63b8ff" points="268.5,-192.76 264.5,-186.76 268.5,-180.76 272.5,-186.76 268.5,-192.76"/>
</a>
</g>
<text text-anchor="middle" x="281" y="-207" font-family="Helvetica,sans-Serif" font-size="10.00" fill="grey"> +ptr</text>
</g>
</g>
</svg>
</svg>

<style type='text/css'>
<![CDATA[
[data-mouse-over-selected='false'] { opacity: 0.7; }
[data-mouse-over-selected='true']  { opacity: 1.0; }
]]>
</style>
<script type="application/ecmascript"><![CDATA[
document.addEventListener('DOMContentLoaded', (event) => {
  highlightEdges();
  highlightAdjacentNodes();
});
]]></script>
</svg>
