<?xml version="1.0" encoding="UTF-8" standalone="no"?>
<!DOCTYPE svg PUBLIC "-//W3C//DTD SVG 1.1//EN"
 "http://www.w3.org/Graphics/SVG/1.1/DTD/svg11.dtd">
<!-- Generated by graphviz version 2.43.0 (0)
 -->
<!-- Title: Var Pages: 1 -->
<svg width="438pt" height="466pt"
 viewBox="0.00 0.00 437.50 466.00" xmlns="http://www.w3.org/2000/svg" xmlns:xlink="http://www.w3.org/1999/xlink">
<g id="graph0" class="graph" transform="scale(1 1) rotate(0) translate(4 462)">
<title>Var</title>
<!-- Node1 -->
<g id="Node000001" class="node">
<title>Node1</title>
<g id="a_Node000001"><a xlink:title="Represents a variable declaration statement.">
<polygon fill="#999999" stroke="transparent" points="212,-94 121,-94 121,0 212,0 212,-94"/>
<text text-anchor="start" x="159" y="-82" font-family="Helvetica,sans-Serif" font-size="10.00">Var</text>
<text text-anchor="start" x="165" y="-67" font-family="Helvetica,sans-Serif" font-size="10.00"> </text>
<text text-anchor="start" x="125.5" y="-52" font-family="Helvetica,sans-Serif" font-size="10.00">+</text>
<text text-anchor="start" x="138.5" y="-52" font-family="Helvetica,sans-Serif" font-size="10.00">Var()</text>
<text text-anchor="start" x="125.5" y="-37" font-family="Helvetica,sans-Serif" font-size="10.00">+</text>
<text text-anchor="start" x="138.5" y="-37" font-family="Helvetica,sans-Serif" font-size="10.00">accept()</text>
<text text-anchor="start" x="125.5" y="-22" font-family="Helvetica,sans-Serif" font-size="10.00">+</text>
<text text-anchor="start" x="138.5" y="-22" font-family="Helvetica,sans-Serif" font-size="10.00">getName()</text>
<text text-anchor="start" x="125.5" y="-7" font-family="Helvetica,sans-Serif" font-size="10.00">+</text>
<text text-anchor="start" x="138.5" y="-7" font-family="Helvetica,sans-Serif" font-size="10.00">getInitializer()</text>
<polygon fill="#666666" stroke="#666666" points="121.5,-77 121.5,-77 212.5,-77 212.5,-77 121.5,-77"/>
<polygon fill="#666666" stroke="#666666" points="121.5,-62 121.5,-62 212.5,-62 212.5,-62 121.5,-62"/>
<polygon fill="none" stroke="#666666" points="121,0 121,-94 212,-94 212,0 121,0"/>
</a>
</g>
</g>
<!-- Node2 -->
<g id="Node000002" class="node">
<title>Node2</title>
<g id="a_Node000002"><a xlink:href="classStmt.html" target="_top" xlink:title="Abstract base class for statements.">
<polygon fill="white" stroke="transparent" points="61,-227.5 0,-227.5 0,-178.5 61,-178.5 61,-227.5"/>
<text text-anchor="start" x="19" y="-215" font-family="Helvetica,sans-Serif" font-size="10.00">Stmt</text>
<text text-anchor="start" x="29" y="-200" font-family="Helvetica,sans-Serif" font-size="10.00"> </text>
<text text-anchor="start" x="4.5" y="-185" font-family="Helvetica,sans-Serif" font-size="10.00">+</text>
<text text-anchor="start" x="17.5" y="-185" font-family="Helvetica,sans-Serif" font-size="10.00">accept()</text>
<polygon fill="#666666" stroke="#666666" points="0.5,-210 0.5,-210 61.5,-210 61.5,-210 0.5,-210"/>
<polygon fill="#666666" stroke="#666666" points="0.5,-195 0.5,-195 61.5,-195 61.5,-195 0.5,-195"/>
<polygon fill="none" stroke="#666666" points="0,-178.5 0,-227.5 61,-227.5 61,-178.5 0,-178.5"/>
</a>
</g>
</g>
<!-- Node2&#45;&gt;Node1 -->
<g id="edge1_Node000001_Node000002" class="edge">
<title>Node2&#45;&gt;Node1</title>
<g id="a_edge1_Node000001_Node000002"><a xlink:title=" ">
<path fill="none" stroke="#63b8ff" d="M49.15,-169.69C55.2,-160.13 62.23,-149.85 69.5,-141 84.9,-122.25 103.8,-103.39 120.81,-87.6"/>
<polygon fill="none" stroke="#63b8ff" points="46.16,-167.87 43.9,-178.22 52.12,-171.54 46.16,-167.87"/>
</a>
</g>
</g>
<!-- Node3 -->
<g id="Node000003" class="node">
<title>Node3</title>
<g id="a_Node000003"><a xlink:title=" ">
<polygon fill="white" stroke="transparent" points="182,-233 79,-233 79,-173 182,-173 182,-233"/>
<text text-anchor="start" x="84.5" y="-221" font-family="Helvetica,sans-Serif" font-size="10.00">std::enable_shared</text>
<text text-anchor="start" x="85.5" y="-210" font-family="Helvetica,sans-Serif" font-size="10.00">_from_this&lt; Var &gt;</text>
<text text-anchor="start" x="129" y="-195" font-family="Helvetica,sans-Serif" font-size="10.00"> </text>
<text text-anchor="start" x="129" y="-180" font-family="Helvetica,sans-Serif" font-size="10.00"> </text>
<polygon fill="#666666" stroke="#666666" points="79.5,-205 79.5,-205 182.5,-205 182.5,-205 79.5,-205"/>
<polygon fill="#666666" stroke="#666666" points="79.5,-190 79.5,-190 182.5,-190 182.5,-190 79.5,-190"/>
<polygon fill="none" stroke="#666666" points="79,-173 79,-233 182,-233 182,-173 79,-173"/>
</a>
</g>
</g>
<!-- Node3&#45;&gt;Node1 -->
<g id="edge2_Node000001_Node000003" class="edge">
<title>Node3&#45;&gt;Node1</title>
<g id="a_edge2_Node000001_Node000003"><a xlink:title=" ">
<path fill="none" stroke="#63b8ff" d="M139.65,-162.84C144.54,-141.93 150.59,-116.07 155.7,-94.18"/>
<polygon fill="none" stroke="#63b8ff" points="136.22,-162.14 137.36,-172.67 143.04,-163.73 136.22,-162.14"/>
</a>
</g>
</g>
<!-- Node4 -->
<g id="Node000004" class="node">
<title>Node4</title>
<g id="a_Node000004"><a xlink:href="classToken.html" target="_top" xlink:title="Represents a token in the source code.">
<polygon fill="white" stroke="transparent" points="283,-265 200,-265 200,-141 283,-141 283,-265"/>
<text text-anchor="start" x="228" y="-253" font-family="Helvetica,sans-Serif" font-size="10.00">Token</text>
<text text-anchor="start" x="240" y="-238" font-family="Helvetica,sans-Serif" font-size="10.00"> </text>
<text text-anchor="start" x="204.5" y="-223" font-family="Helvetica,sans-Serif" font-size="10.00">+</text>
<text text-anchor="start" x="217.5" y="-223" font-family="Helvetica,sans-Serif" font-size="10.00">Token()</text>
<text text-anchor="start" x="204.5" y="-208" font-family="Helvetica,sans-Serif" font-size="10.00">+</text>
<text text-anchor="start" x="217.5" y="-208" font-family="Helvetica,sans-Serif" font-size="10.00">getType()</text>
<text text-anchor="start" x="204.5" y="-193" font-family="Helvetica,sans-Serif" font-size="10.00">+</text>
<text text-anchor="start" x="217.5" y="-193" font-family="Helvetica,sans-Serif" font-size="10.00">getLexeme()</text>
<text text-anchor="start" x="204.5" y="-178" font-family="Helvetica,sans-Serif" font-size="10.00">+</text>
<text text-anchor="start" x="217.5" y="-178" font-family="Helvetica,sans-Serif" font-size="10.00">getLiteral()</text>
<text text-anchor="start" x="204.5" y="-163" font-family="Helvetica,sans-Serif" font-size="10.00">+</text>
<text text-anchor="start" x="217.5" y="-163" font-family="Helvetica,sans-Serif" font-size="10.00">getLine()</text>
<text text-anchor="start" x="204.5" y="-148" font-family="Helvetica,sans-Serif" font-size="10.00">+</text>
<text text-anchor="start" x="217.5" y="-148" font-family="Helvetica,sans-Serif" font-size="10.00">toString()</text>
<polygon fill="#666666" stroke="#666666" points="200.5,-248 200.5,-248 283.5,-248 283.5,-248 200.5,-248"/>
<polygon fill="#666666" stroke="#666666" points="200.5,-233 200.5,-233 283.5,-233 283.5,-233 200.5,-233"/>
<polygon fill="none" stroke="#666666" points="200,-141 200,-265 283,-265 283,-141 200,-141"/>
</a>
</g>
</g>
<!-- Node4&#45;&gt;Node1 -->
<g id="edge3_Node000001_Node000004" class="edge">
<title>Node4&#45;&gt;Node1</title>
<g id="a_edge3_Node000001_Node000004"><a xlink:title=" ">
<path fill="none" stroke="#63b8ff" d="M211.64,-140.69C205.95,-129 200,-116.8 194.37,-105.23"/>
<polygon fill="none" stroke="#63b8ff" points="194.34,-105.17 188.12,-101.53 189.09,-94.38 195.31,-98.02 194.34,-105.17"/>
</a>
</g>
<text text-anchor="middle" x="220" y="-115" font-family="Helvetica,sans-Serif" font-size="10.00" fill="grey"> &#45;name</text>
</g>
<!-- Node5 -->
<g id="Node000005" class="node">
<title>Node5</title>
<g id="a_Node000005"><a xlink:title=" ">
<polygon fill="white" stroke="transparent" points="131.5,-361 41.5,-361 41.5,-312 131.5,-312 131.5,-361"/>
<text text-anchor="start" x="46.5" y="-348.5" font-family="Helvetica,sans-Serif" font-size="10.00">const TokenType</text>
<text text-anchor="start" x="84.5" y="-333.5" font-family="Helvetica,sans-Serif" font-size="10.00"> </text>
<text text-anchor="start" x="84.5" y="-318.5" font-family="Helvetica,sans-Serif" font-size="10.00"> </text>
<polygon fill="#666666" stroke="#666666" points="41.5,-343.5 41.5,-343.5 131.5,-343.5 131.5,-343.5 41.5,-343.5"/>
<polygon fill="#666666" stroke="#666666" points="41.5,-328.5 41.5,-328.5 131.5,-328.5 131.5,-328.5 41.5,-328.5"/>
<polygon fill="none" stroke="#666666" points="41.5,-312 41.5,-361 131.5,-361 131.5,-312 41.5,-312"/>
</a>
</g>
</g>
<!-- Node5&#45;&gt;Node4 -->
<g id="edge4_Node000004_Node000005" class="edge">
<title>Node5&#45;&gt;Node4</title>
<g id="a_edge4_Node000004_Node000005"><a xlink:title=" ">
<path fill="none" stroke="#63b8ff" d="M118.55,-311.96C131.43,-302.7 146.52,-292.13 160.5,-283 173.52,-274.5 178.68,-275.11 190.5,-265 190.6,-264.92 190.7,-264.83 190.79,-264.75"/>
<polygon fill="none" stroke="#63b8ff" points="191,-264.56 192.68,-257.54 199.8,-256.39 198.12,-263.4 191,-264.56"/>
</a>
</g>
<text text-anchor="middle" x="175" y="-286" font-family="Helvetica,sans-Serif" font-size="10.00" fill="grey"> &#45;type</text>
</g>
<!-- Node6 -->
<g id="Node000006" class="node">
<title>Node6</title>
<g id="a_Node000006"><a xlink:title=" ">
<polygon fill="white" stroke="transparent" points="209,-361 150,-361 150,-312 209,-312 209,-361"/>
<text text-anchor="start" x="155.5" y="-348.5" font-family="Helvetica,sans-Serif" font-size="10.00">std::string</text>
<text text-anchor="start" x="178" y="-333.5" font-family="Helvetica,sans-Serif" font-size="10.00"> </text>
<text text-anchor="start" x="178" y="-318.5" font-family="Helvetica,sans-Serif" font-size="10.00"> </text>
<polygon fill="#666666" stroke="#666666" points="150.5,-343.5 150.5,-343.5 209.5,-343.5 209.5,-343.5 150.5,-343.5"/>
<polygon fill="#666666" stroke="#666666" points="150.5,-328.5 150.5,-328.5 209.5,-328.5 209.5,-328.5 150.5,-328.5"/>
<polygon fill="none" stroke="#666666" points="150,-312 150,-361 209,-361 209,-312 150,-312"/>
</a>
</g>
</g>
<!-- Node6&#45;&gt;Node4 -->
<g id="edge5_Node000004_Node000006" class="edge">
<title>Node6&#45;&gt;Node4</title>
<g id="a_edge5_Node000004_Node000006"><a xlink:title=" ">
<path fill="none" stroke="#63b8ff" d="M186.03,-311.86C188.85,-302.69 192.44,-292.2 196.5,-283 197.52,-280.69 198.59,-278.35 199.7,-276.01"/>
<polygon fill="none" stroke="#63b8ff" points="199.8,-275.8 198.88,-268.65 205.12,-265.04 206.05,-272.19 199.8,-275.8"/>
</a>
</g>
<text text-anchor="middle" x="218" y="-286" font-family="Helvetica,sans-Serif" font-size="10.00" fill="grey"> &#45;lexeme</text>
</g>
<!-- Node7 -->
<g id="Node000007" class="node">
<title>Node7</title>
<g id="a_Node000007"><a xlink:title=" ">
<polygon fill="white" stroke="transparent" points="228.5,-458 130.5,-458 130.5,-398 228.5,-398 228.5,-458"/>
<text text-anchor="start" x="135.5" y="-446" font-family="Helvetica,sans-Serif" font-size="10.00">std::basic_string&lt;</text>
<text text-anchor="start" x="161" y="-435" font-family="Helvetica,sans-Serif" font-size="10.00"> Char &gt;</text>
<text text-anchor="start" x="177.5" y="-420" font-family="Helvetica,sans-Serif" font-size="10.00"> </text>
<text text-anchor="start" x="177.5" y="-405" font-family="Helvetica,sans-Serif" font-size="10.00"> </text>
<polygon fill="#666666" stroke="#666666" points="130.5,-430 130.5,-430 228.5,-430 228.5,-430 130.5,-430"/>
<polygon fill="#666666" stroke="#666666" points="130.5,-415 130.5,-415 228.5,-415 228.5,-415 130.5,-415"/>
<polygon fill="none" stroke="#666666" points="130.5,-398 130.5,-458 228.5,-458 228.5,-398 130.5,-398"/>
</a>
</g>
</g>
<!-- Node7&#45;&gt;Node6 -->
<g id="edge6_Node000006_Node000007" class="edge">
<title>Node7&#45;&gt;Node6</title>
<g id="a_edge6_Node000006_Node000007"><a xlink:title=" ">
<path fill="none" stroke="#63b8ff" d="M179.5,-387.41C179.5,-378.47 179.5,-369.25 179.5,-361.21"/>
<polygon fill="none" stroke="#63b8ff" points="176,-387.69 179.5,-397.69 183,-387.69 176,-387.69"/>
</a>
</g>
</g>
<!-- Node8 -->
<g id="Node000008" class="node">
<title>Node8</title>
<g id="a_Node000008"><a xlink:title=" ">
<polygon fill="white" stroke="transparent" points="258,-361 229,-361 229,-312 258,-312 258,-361"/>
<text text-anchor="start" x="234.5" y="-348.5" font-family="Helvetica,sans-Serif" font-size="10.00">any</text>
<text text-anchor="start" x="242" y="-333.5" font-family="Helvetica,sans-Serif" font-size="10.00"> </text>
<text text-anchor="start" x="242" y="-318.5" font-family="Helvetica,sans-Serif" font-size="10.00"> </text>
<polygon fill="#666666" stroke="#666666" points="229.5,-343.5 229.5,-343.5 258.5,-343.5 258.5,-343.5 229.5,-343.5"/>
<polygon fill="#666666" stroke="#666666" points="229.5,-328.5 229.5,-328.5 258.5,-328.5 258.5,-328.5 229.5,-328.5"/>
<polygon fill="none" stroke="#666666" points="229,-312 229,-361 258,-361 258,-312 229,-312"/>
</a>
</g>
</g>
<!-- Node8&#45;&gt;Node4 -->
<g id="edge7_Node000004_Node000008" class="edge">
<title>Node8&#45;&gt;Node4</title>
<g id="a_edge7_Node000004_Node000008"><a xlink:title=" ">
<path fill="none" stroke="#63b8ff" d="M243.14,-311.99C242.99,-302.03 242.81,-289.82 242.61,-277.24"/>
<polygon fill="none" stroke="#63b8ff" points="242.61,-277.12 238.52,-271.18 242.43,-265.12 246.52,-271.06 242.61,-277.12"/>
</a>
</g>
<text text-anchor="middle" x="261.5" y="-286" font-family="Helvetica,sans-Serif" font-size="10.00" fill="grey"> &#45;literal</text>
</g>
<!-- Node9 -->
<g id="Node000009" class="node">
<title>Node9</title>
<g id="a_Node000009"><a xlink:title=" ">
<polygon fill="white" stroke="transparent" points="314,-361 291,-361 291,-312 314,-312 314,-361"/>
<text text-anchor="start" x="296.5" y="-348.5" font-family="Helvetica,sans-Serif" font-size="10.00">int</text>
<text text-anchor="start" x="301" y="-333.5" font-family="Helvetica,sans-Serif" font-size="10.00"> </text>
<text text-anchor="start" x="301" y="-318.5" font-family="Helvetica,sans-Serif" font-size="10.00"> </text>
<polygon fill="#666666" stroke="#666666" points="291.5,-343.5 291.5,-343.5 314.5,-343.5 314.5,-343.5 291.5,-343.5"/>
<polygon fill="#666666" stroke="#666666" points="291.5,-328.5 291.5,-328.5 314.5,-328.5 314.5,-328.5 291.5,-328.5"/>
<polygon fill="none" stroke="#666666" points="291,-312 291,-361 314,-361 314,-312 291,-312"/>
</a>
</g>
</g>
<!-- Node9&#45;&gt;Node4 -->
<g id="edge8_Node000004_Node000009" class="edge">
<title>Node9&#45;&gt;Node4</title>
<g id="a_edge8_Node000004_Node000009"><a xlink:title=" ">
<path fill="none" stroke="#63b8ff" d="M292.95,-311.84C289.19,-302.77 284.76,-292.35 280.5,-283 279.46,-280.72 278.39,-278.4 277.3,-276.07"/>
<polygon fill="none" stroke="#63b8ff" points="277.23,-275.92 271.05,-272.2 272.11,-265.06 278.29,-268.78 277.23,-275.92"/>
</a>
</g>
<text text-anchor="middle" x="298" y="-286" font-family="Helvetica,sans-Serif" font-size="10.00" fill="grey"> &#45;line</text>
</g>
<!-- Node10 -->
<g id="Node000010" class="node">
<title>Node10</title>
<g id="a_Node000010"><a xlink:title=" ">
<polygon fill="white" stroke="transparent" points="429.5,-227.5 301.5,-227.5 301.5,-178.5 429.5,-178.5 429.5,-227.5"/>
<text text-anchor="start" x="306.5" y="-215" font-family="Helvetica,sans-Serif" font-size="10.00">std::shared_ptr&lt; Expr &gt;</text>
<text text-anchor="start" x="363.5" y="-200" font-family="Helvetica,sans-Serif" font-size="10.00"> </text>
<text text-anchor="start" x="317" y="-185" font-family="Helvetica,sans-Serif" font-size="10.00">+</text>
<text text-anchor="start" x="341.5" y="-185" font-family="Helvetica,sans-Serif" font-size="10.00">operator&#45;&gt;()</text>
<polygon fill="#666666" stroke="#666666" points="301.5,-210 301.5,-210 429.5,-210 429.5,-210 301.5,-210"/>
<polygon fill="#666666" stroke="#666666" points="301.5,-195 301.5,-195 429.5,-195 429.5,-195 301.5,-195"/>
<polygon fill="none" stroke="#666666" points="301.5,-178.5 301.5,-227.5 429.5,-227.5 429.5,-178.5 301.5,-178.5"/>
</a>
</g>
</g>
<!-- Node10&#45;&gt;Node1 -->
<g id="edge9_Node000001_Node000010" class="edge">
<title>Node10&#45;&gt;Node1</title>
<g id="a_edge9_Node000001_Node000010"><a xlink:title=" ">
<path fill="none" stroke="#63b8ff" d="M337.66,-178.5C323.9,-167.02 306.97,-153.12 291.5,-141 268.97,-123.35 243.72,-104.41 221.83,-88.25"/>
<polygon fill="none" stroke="#63b8ff" points="221.7,-88.16 214.5,-87.82 212.04,-81.04 219.24,-81.38 221.7,-88.16"/>
</a>
</g>
<text text-anchor="middle" x="295" y="-115" font-family="Helvetica,sans-Serif" font-size="10.00" fill="grey"> &#45;initializer</text>
</g>
<!-- Node11 -->
<g id="Node000011" class="node">
<title>Node11</title>
<g id="a_Node000011"><a xlink:href="classExpr.html" target="_top" xlink:title="Abstract base class for expressions.">
<polygon fill="white" stroke="transparent" points="396,-361 335,-361 335,-312 396,-312 396,-361"/>
<text text-anchor="start" x="355" y="-348.5" font-family="Helvetica,sans-Serif" font-size="10.00">Expr</text>
<text text-anchor="start" x="364" y="-333.5" font-family="Helvetica,sans-Serif" font-size="10.00"> </text>
<text text-anchor="start" x="339.5" y="-318.5" font-family="Helvetica,sans-Serif" font-size="10.00">+</text>
<text text-anchor="start" x="352.5" y="-318.5" font-family="Helvetica,sans-Serif" font-size="10.00">accept()</text>
<polygon fill="#666666" stroke="#666666" points="335.5,-343.5 335.5,-343.5 396.5,-343.5 396.5,-343.5 335.5,-343.5"/>
<polygon fill="#666666" stroke="#666666" points="335.5,-328.5 335.5,-328.5 396.5,-328.5 396.5,-328.5 335.5,-328.5"/>
<polygon fill="none" stroke="#666666" points="335,-312 335,-361 396,-361 396,-312 335,-312"/>
</a>
</g>
</g>
<!-- Node11&#45;&gt;Node10 -->
<g id="edge10_Node000010_Node000011" class="edge">
<title>Node11&#45;&gt;Node10</title>
<g id="a_edge10_Node000010_Node000011"><a xlink:title=" ">
<path fill="none" stroke="#63b8ff" d="M365.5,-311.99C365.5,-291.92 365.5,-262.74 365.5,-239.77"/>
<polygon fill="none" stroke="#63b8ff" points="365.5,-239.75 361.5,-233.75 365.5,-227.75 369.5,-233.75 365.5,-239.75"/>
</a>
</g>
<text text-anchor="middle" x="378" y="-286" font-family="Helvetica,sans-Serif" font-size="10.00" fill="grey"> +ptr</text>
</g>
</g>
</svg>
