<?xml version="1.0" encoding="UTF-8" standalone="no"?>
<!DOCTYPE svg PUBLIC "-//W3C//DTD SVG 1.1//EN"
 "http://www.w3.org/Graphics/SVG/1.1/DTD/svg11.dtd">
<!-- Generated by graphviz version 2.43.0 (0)
 -->
<!-- Title: Unary Pages: 1 -->
<!--zoomable 466 -->

<svg id="main" version="1.1" xmlns="http://www.w3.org/2000/svg" xmlns:xlink="http://www.w3.org/1999/xlink" xml:space="preserve" onload="init(evt)">
<style type="text/css"><![CDATA[
.node, .edge {opacity: 0.7;}
.node.selected, .edge.selected {opacity: 1;}
.edge:hover path { stroke: red; }
.edge:hover polygon { stroke: red; fill: red; }
]]></style>

<defs>
  <circle id="rim" cx="0" cy="0" r="7"/>
  <circle id="rim2" cx="0" cy="0" r="3.5"/>
  <g id="zoomPlus">
    <use xlink:href="#rim" fill="#404040"><set attributeName="fill" to="#808080" begin="zoomplus.mouseover" end="zoomplus.mouseout"/></use>
    <path d="M-4,0h8M0,-4v8" fill="none" stroke="white" stroke-width="1.5" pointer-events="none"/>
  </g>
  <g id="zoomMin">
    <use xlink:href="#rim" fill="#404040"><set attributeName="fill" to="#808080" begin="zoomminus.mouseover" end="zoomminus.mouseout"/></use>
    <path d="M-4,0h8" fill="none" stroke="white" stroke-width="1.5" pointer-events="none"/>
  </g>
  <g id="arrowUp" transform="translate(30 24)">
    <use xlink:href="#rim"/>
    <path pointer-events="none" fill="none" stroke="white" stroke-width="1.5" d="M0,-3.0v7 M-2.5,-0.5L0,-3.0L2.5,-0.5"/>
  </g>
  <g id="arrowRight" transform="rotate(90) translate(36 -43)">
    <use xlink:href="#rim"/>
    <path pointer-events="none" fill="none" stroke="white" stroke-width="1.5" d="M0,-3.0v7 M-2.5,-0.5L0,-3.0L2.5,-0.5"/>
  </g>
  <g id="arrowDown" transform="rotate(180) translate(-30 -48)">
    <use xlink:href="#rim"/>
    <path pointer-events="none" fill="none" stroke="white" stroke-width="1.5" d="M0,-3.0v7 M-2.5,-0.5L0,-3.0L2.5,-0.5"/>
  </g>
  <g id="arrowLeft" transform="rotate(270) translate(-36 17)">
    <use xlink:href="#rim"/>
    <path pointer-events="none" fill="none" stroke="white" stroke-width="1.5" d="M0,-3.0v7 M-2.5,-0.5L0,-3.0L2.5,-0.5"/>
  </g>
  <g id="resetDef">
    <use xlink:href="#rim2" fill="#404040"><set attributeName="fill" to="#808080" begin="reset.mouseover" end="reset.mouseout"/></use>
  </g>
</defs>
<script type="application/ecmascript">
var viewWidth = 467;
var viewHeight = 466;
var sectionId = 'dynsection-1';
</script>
<script type="application/ecmascript" xlink:href="svg.min.js"/>
<svg id="graph" class="graph">
<g id="viewport">
<title>Unary</title>
<!-- Node1 -->
<g id="Node000001" class="node">
<title>Node1</title>
<g id="a_Node000001"><a xlink:title="Class representing a unary expression.">
<polygon fill="#999999" stroke="transparent" points="238.5,-94 168.5,-94 168.5,0 238.5,0 238.5,-94"/>
<text text-anchor="start" x="188.5" y="-82" font-family="Helvetica,sans-Serif" font-size="10.00">Unary</text>
<text text-anchor="start" x="201.5" y="-67" font-family="Helvetica,sans-Serif" font-size="10.00"> </text>
<text text-anchor="start" x="172.5" y="-52" font-family="Helvetica,sans-Serif" font-size="10.00">+</text>
<text text-anchor="start" x="185.5" y="-52" font-family="Helvetica,sans-Serif" font-size="10.00">Unary()</text>
<text text-anchor="start" x="172.5" y="-37" font-family="Helvetica,sans-Serif" font-size="10.00">+</text>
<text text-anchor="start" x="185.5" y="-37" font-family="Helvetica,sans-Serif" font-size="10.00">accept()</text>
<text text-anchor="start" x="172.5" y="-22" font-family="Helvetica,sans-Serif" font-size="10.00">+</text>
<text text-anchor="start" x="185.5" y="-22" font-family="Helvetica,sans-Serif" font-size="10.00">getRight()</text>
<text text-anchor="start" x="172.5" y="-7" font-family="Helvetica,sans-Serif" font-size="10.00">+</text>
<text text-anchor="start" x="185.5" y="-7" font-family="Helvetica,sans-Serif" font-size="10.00">getOp()</text>
<polygon fill="#666666" stroke="#666666" points="168.5,-77 168.5,-77 238.5,-77 238.5,-77 168.5,-77"/>
<polygon fill="#666666" stroke="#666666" points="168.5,-62 168.5,-62 238.5,-62 238.5,-62 168.5,-62"/>
<polygon fill="none" stroke="#666666" points="168.5,0 168.5,-94 238.5,-94 238.5,0 168.5,0"/>
</a>
</g>
</g>
<!-- Node2 -->
<g id="Node000002" class="node">
<title>Node2</title>
<g id="a_Node000002"><a xlink:href="classExpr.html" target="_top" xlink:title="Abstract base class for expressions.">
<polygon fill="white" stroke="transparent" points="61,-361 0,-361 0,-312 61,-312 61,-361"/>
<text text-anchor="start" x="20" y="-348.5" font-family="Helvetica,sans-Serif" font-size="10.00">Expr</text>
<text text-anchor="start" x="29" y="-333.5" font-family="Helvetica,sans-Serif" font-size="10.00"> </text>
<text text-anchor="start" x="4.5" y="-318.5" font-family="Helvetica,sans-Serif" font-size="10.00">+</text>
<text text-anchor="start" x="17.5" y="-318.5" font-family="Helvetica,sans-Serif" font-size="10.00">accept()</text>
<polygon fill="#666666" stroke="#666666" points="0.5,-343.5 0.5,-343.5 61.5,-343.5 61.5,-343.5 0.5,-343.5"/>
<polygon fill="#666666" stroke="#666666" points="0.5,-328.5 0.5,-328.5 61.5,-328.5 61.5,-328.5 0.5,-328.5"/>
<polygon fill="none" stroke="#666666" points="0,-312 0,-361 61,-361 61,-312 0,-312"/>
</a>
</g>
</g>
<!-- Node2&#45;&gt;Node1 -->
<g id="edge1_Node000001_Node000002" class="edge">
<title>Node2&#45;&gt;Node1</title>
<g id="a_edge1_Node000001_Node000002"><a xlink:title=" ">
<path fill="none" stroke="#63b8ff" d="M19.68,-302.1C8.52,-260.99 -3.45,-190.57 26.5,-141 57.29,-90.05 126.26,-65.62 168.44,-55.05"/>
<polygon fill="none" stroke="#63b8ff" points="16.37,-303.23 22.48,-311.89 23.1,-301.31 16.37,-303.23"/>
</a>
</g>
</g>
<!-- Node10 -->
<g id="Node000010" class="node">
<title>Node10</title>
<g id="a_Node000010"><a xlink:title=" ">
<polygon fill="white" stroke="transparent" points="163.5,-227.5 35.5,-227.5 35.5,-178.5 163.5,-178.5 163.5,-227.5"/>
<text text-anchor="start" x="40.5" y="-215" font-family="Helvetica,sans-Serif" font-size="10.00">std::shared_ptr&lt; Expr &gt;</text>
<text text-anchor="start" x="97.5" y="-200" font-family="Helvetica,sans-Serif" font-size="10.00"> </text>
<text text-anchor="start" x="51" y="-185" font-family="Helvetica,sans-Serif" font-size="10.00">+</text>
<text text-anchor="start" x="75.5" y="-185" font-family="Helvetica,sans-Serif" font-size="10.00">operator&#45;&gt;()</text>
<polygon fill="#666666" stroke="#666666" points="35.5,-210 35.5,-210 163.5,-210 163.5,-210 35.5,-210"/>
<polygon fill="#666666" stroke="#666666" points="35.5,-195 35.5,-195 163.5,-195 163.5,-195 35.5,-195"/>
<polygon fill="none" stroke="#666666" points="35.5,-178.5 35.5,-227.5 163.5,-227.5 163.5,-178.5 35.5,-178.5"/>
</a>
</g>
</g>
<!-- Node2&#45;&gt;Node10 -->
<g id="edge10_Node000010_Node000002" class="edge">
<title>Node2&#45;&gt;Node10</title>
<g id="a_edge10_Node000010_Node000002"><a xlink:title=" ">
<path fill="none" stroke="#63b8ff" d="M42.84,-311.99C53.56,-291.55 69.25,-261.66 81.4,-238.5"/>
<polygon fill="none" stroke="#63b8ff" points="81.46,-238.38 80.71,-231.2 87.04,-227.75 87.79,-234.92 81.46,-238.38"/>
</a>
</g>
<text text-anchor="middle" x="70" y="-286" font-family="Helvetica,sans-Serif" font-size="10.00" fill="grey"> +ptr</text>
</g>
<!-- Node3 -->
<g id="Node000003" class="node">
<title>Node3</title>
<g id="a_Node000003"><a xlink:title=" ">
<polygon fill="white" stroke="transparent" points="295.5,-233 181.5,-233 181.5,-173 295.5,-173 295.5,-233"/>
<text text-anchor="start" x="186.5" y="-221" font-family="Helvetica,sans-Serif" font-size="10.00">std::enable_shared</text>
<text text-anchor="start" x="186.5" y="-210" font-family="Helvetica,sans-Serif" font-size="10.00">_from_this&lt; Unary &gt;</text>
<text text-anchor="start" x="236.5" y="-195" font-family="Helvetica,sans-Serif" font-size="10.00"> </text>
<text text-anchor="start" x="236.5" y="-180" font-family="Helvetica,sans-Serif" font-size="10.00"> </text>
<polygon fill="#666666" stroke="#666666" points="181.5,-205 181.5,-205 295.5,-205 295.5,-205 181.5,-205"/>
<polygon fill="#666666" stroke="#666666" points="181.5,-190 181.5,-190 295.5,-190 295.5,-190 181.5,-190"/>
<polygon fill="none" stroke="#666666" points="181.5,-173 181.5,-233 295.5,-233 295.5,-173 181.5,-173"/>
</a>
</g>
</g>
<!-- Node3&#45;&gt;Node1 -->
<g id="edge2_Node000001_Node000003" class="edge">
<title>Node3&#45;&gt;Node1</title>
<g id="a_edge2_Node000001_Node000003"><a xlink:title=" ">
<path fill="none" stroke="#63b8ff" d="M229.6,-162.84C224.85,-141.93 218.97,-116.07 214,-94.18"/>
<polygon fill="none" stroke="#63b8ff" points="226.21,-163.7 231.83,-172.67 233.03,-162.14 226.21,-163.7"/>
</a>
</g>
</g>
<!-- Node4 -->
<g id="Node000004" class="node">
<title>Node4</title>
<g id="a_Node000004"><a xlink:href="classToken.html" target="_top" xlink:title="Represents a token in the source code.">
<polygon fill="white" stroke="transparent" points="397,-265 314,-265 314,-141 397,-141 397,-265"/>
<text text-anchor="start" x="342" y="-253" font-family="Helvetica,sans-Serif" font-size="10.00">Token</text>
<text text-anchor="start" x="354" y="-238" font-family="Helvetica,sans-Serif" font-size="10.00"> </text>
<text text-anchor="start" x="318.5" y="-223" font-family="Helvetica,sans-Serif" font-size="10.00">+</text>
<text text-anchor="start" x="331.5" y="-223" font-family="Helvetica,sans-Serif" font-size="10.00">Token()</text>
<text text-anchor="start" x="318.5" y="-208" font-family="Helvetica,sans-Serif" font-size="10.00">+</text>
<text text-anchor="start" x="331.5" y="-208" font-family="Helvetica,sans-Serif" font-size="10.00">getType()</text>
<text text-anchor="start" x="318.5" y="-193" font-family="Helvetica,sans-Serif" font-size="10.00">+</text>
<text text-anchor="start" x="331.5" y="-193" font-family="Helvetica,sans-Serif" font-size="10.00">getLexeme()</text>
<text text-anchor="start" x="318.5" y="-178" font-family="Helvetica,sans-Serif" font-size="10.00">+</text>
<text text-anchor="start" x="331.5" y="-178" font-family="Helvetica,sans-Serif" font-size="10.00">getLiteral()</text>
<text text-anchor="start" x="318.5" y="-163" font-family="Helvetica,sans-Serif" font-size="10.00">+</text>
<text text-anchor="start" x="331.5" y="-163" font-family="Helvetica,sans-Serif" font-size="10.00">getLine()</text>
<text text-anchor="start" x="318.5" y="-148" font-family="Helvetica,sans-Serif" font-size="10.00">+</text>
<text text-anchor="start" x="331.5" y="-148" font-family="Helvetica,sans-Serif" font-size="10.00">toString()</text>
<polygon fill="#666666" stroke="#666666" points="314.5,-248 314.5,-248 397.5,-248 397.5,-248 314.5,-248"/>
<polygon fill="#666666" stroke="#666666" points="314.5,-233 314.5,-233 397.5,-233 397.5,-233 314.5,-233"/>
<polygon fill="none" stroke="#666666" points="314,-141 314,-265 397,-265 397,-141 314,-141"/>
</a>
</g>
</g>
<!-- Node4&#45;&gt;Node1 -->
<g id="edge3_Node000001_Node000004" class="edge">
<title>Node4&#45;&gt;Node1</title>
<g id="a_edge3_Node000001_Node000004"><a xlink:title=" ">
<path fill="none" stroke="#63b8ff" d="M313.98,-151.29C310.82,-147.76 307.64,-144.3 304.5,-141 286.71,-122.34 265.93,-102.85 247.86,-86.56"/>
<polygon fill="none" stroke="#63b8ff" points="247.62,-86.35 240.49,-85.34 238.68,-78.35 245.82,-79.37 247.62,-86.35"/>
</a>
</g>
<text text-anchor="middle" x="296" y="-115" font-family="Helvetica,sans-Serif" font-size="10.00" fill="grey"> &#45;op</text>
</g>
<!-- Node5 -->
<g id="Node000005" class="node">
<title>Node5</title>
<g id="a_Node000005"><a xlink:title=" ">
<polygon fill="white" stroke="transparent" points="276.5,-361 186.5,-361 186.5,-312 276.5,-312 276.5,-361"/>
<text text-anchor="start" x="191.5" y="-348.5" font-family="Helvetica,sans-Serif" font-size="10.00">const TokenType</text>
<text text-anchor="start" x="229.5" y="-333.5" font-family="Helvetica,sans-Serif" font-size="10.00"> </text>
<text text-anchor="start" x="229.5" y="-318.5" font-family="Helvetica,sans-Serif" font-size="10.00"> </text>
<polygon fill="#666666" stroke="#666666" points="186.5,-343.5 186.5,-343.5 276.5,-343.5 276.5,-343.5 186.5,-343.5"/>
<polygon fill="#666666" stroke="#666666" points="186.5,-328.5 186.5,-328.5 276.5,-328.5 276.5,-328.5 186.5,-328.5"/>
<polygon fill="none" stroke="#666666" points="186.5,-312 186.5,-361 276.5,-361 276.5,-312 186.5,-312"/>
</a>
</g>
</g>
<!-- Node5&#45;&gt;Node4 -->
<g id="edge4_Node000004_Node000005" class="edge">
<title>Node5&#45;&gt;Node4</title>
<g id="a_edge4_Node000004_Node000005"><a xlink:title=" ">
<path fill="none" stroke="#63b8ff" d="M257.15,-312C271.45,-298.58 289.37,-281.25 304.5,-265 304.89,-264.58 305.28,-264.16 305.67,-263.74"/>
<polygon fill="none" stroke="#63b8ff" points="305.85,-263.54 306.9,-256.4 313.89,-254.63 312.84,-261.76 305.85,-263.54"/>
</a>
</g>
<text text-anchor="middle" x="302" y="-286" font-family="Helvetica,sans-Serif" font-size="10.00" fill="grey"> &#45;type</text>
</g>
<!-- Node6 -->
<g id="Node000006" class="node">
<title>Node6</title>
<g id="a_Node000006"><a xlink:title=" ">
<polygon fill="white" stroke="transparent" points="354,-361 295,-361 295,-312 354,-312 354,-361"/>
<text text-anchor="start" x="300.5" y="-348.5" font-family="Helvetica,sans-Serif" font-size="10.00">std::string</text>
<text text-anchor="start" x="323" y="-333.5" font-family="Helvetica,sans-Serif" font-size="10.00"> </text>
<text text-anchor="start" x="323" y="-318.5" font-family="Helvetica,sans-Serif" font-size="10.00"> </text>
<polygon fill="#666666" stroke="#666666" points="295.5,-343.5 295.5,-343.5 354.5,-343.5 354.5,-343.5 295.5,-343.5"/>
<polygon fill="#666666" stroke="#666666" points="295.5,-328.5 295.5,-328.5 354.5,-328.5 354.5,-328.5 295.5,-328.5"/>
<polygon fill="none" stroke="#666666" points="295,-312 295,-361 354,-361 354,-312 295,-312"/>
</a>
</g>
</g>
<!-- Node6&#45;&gt;Node4 -->
<g id="edge5_Node000004_Node000006" class="edge">
<title>Node6&#45;&gt;Node4</title>
<g id="a_edge5_Node000004_Node000006"><a xlink:title=" ">
<path fill="none" stroke="#63b8ff" d="M323.83,-311.8C323.69,-305.98 323.57,-299.77 323.5,-294 323.44,-289.11 322.57,-287.8 323.5,-283 323.89,-281 324.33,-278.99 324.81,-276.98"/>
<polygon fill="none" stroke="#63b8ff" points="324.81,-276.97 322.56,-270.12 328.02,-265.41 330.27,-272.26 324.81,-276.97"/>
</a>
</g>
<text text-anchor="middle" x="345" y="-286" font-family="Helvetica,sans-Serif" font-size="10.00" fill="grey"> &#45;lexeme</text>
</g>
<!-- Node7 -->
<g id="Node000007" class="node">
<title>Node7</title>
<g id="a_Node000007"><a xlink:title=" ">
<polygon fill="white" stroke="transparent" points="373.5,-458 275.5,-458 275.5,-398 373.5,-398 373.5,-458"/>
<text text-anchor="start" x="280.5" y="-446" font-family="Helvetica,sans-Serif" font-size="10.00">std::basic_string&lt;</text>
<text text-anchor="start" x="306" y="-435" font-family="Helvetica,sans-Serif" font-size="10.00"> Char &gt;</text>
<text text-anchor="start" x="322.5" y="-420" font-family="Helvetica,sans-Serif" font-size="10.00"> </text>
<text text-anchor="start" x="322.5" y="-405" font-family="Helvetica,sans-Serif" font-size="10.00"> </text>
<polygon fill="#666666" stroke="#666666" points="275.5,-430 275.5,-430 373.5,-430 373.5,-430 275.5,-430"/>
<polygon fill="#666666" stroke="#666666" points="275.5,-415 275.5,-415 373.5,-415 373.5,-415 275.5,-415"/>
<polygon fill="none" stroke="#666666" points="275.5,-398 275.5,-458 373.5,-458 373.5,-398 275.5,-398"/>
</a>
</g>
</g>
<!-- Node7&#45;&gt;Node6 -->
<g id="edge6_Node000006_Node000007" class="edge">
<title>Node7&#45;&gt;Node6</title>
<g id="a_edge6_Node000006_Node000007"><a xlink:title=" ">
<path fill="none" stroke="#63b8ff" d="M324.5,-387.41C324.5,-378.47 324.5,-369.25 324.5,-361.21"/>
<polygon fill="none" stroke="#63b8ff" points="321,-387.69 324.5,-397.69 328,-387.69 321,-387.69"/>
</a>
</g>
</g>
<!-- Node8 -->
<g id="Node000008" class="node">
<title>Node8</title>
<g id="a_Node000008"><a xlink:title=" ">
<polygon fill="white" stroke="transparent" points="403,-361 374,-361 374,-312 403,-312 403,-361"/>
<text text-anchor="start" x="379.5" y="-348.5" font-family="Helvetica,sans-Serif" font-size="10.00">any</text>
<text text-anchor="start" x="387" y="-333.5" font-family="Helvetica,sans-Serif" font-size="10.00"> </text>
<text text-anchor="start" x="387" y="-318.5" font-family="Helvetica,sans-Serif" font-size="10.00"> </text>
<polygon fill="#666666" stroke="#666666" points="374.5,-343.5 374.5,-343.5 403.5,-343.5 403.5,-343.5 374.5,-343.5"/>
<polygon fill="#666666" stroke="#666666" points="374.5,-328.5 374.5,-328.5 403.5,-328.5 403.5,-328.5 374.5,-328.5"/>
<polygon fill="none" stroke="#666666" points="374,-312 374,-361 403,-361 403,-312 374,-312"/>
</a>
</g>
</g>
<!-- Node8&#45;&gt;Node4 -->
<g id="edge7_Node000004_Node000008" class="edge">
<title>Node8&#45;&gt;Node4</title>
<g id="a_edge7_Node000004_Node000008"><a xlink:title=" ">
<path fill="none" stroke="#63b8ff" d="M382.6,-311.99C380.07,-301.92 376.97,-289.56 373.78,-276.85"/>
<polygon fill="none" stroke="#63b8ff" points="373.76,-276.76 368.42,-271.91 370.84,-265.12 376.18,-269.97 373.76,-276.76"/>
</a>
</g>
<text text-anchor="middle" x="396.5" y="-286" font-family="Helvetica,sans-Serif" font-size="10.00" fill="grey"> &#45;literal</text>
</g>
<!-- Node9 -->
<g id="Node000009" class="node">
<title>Node9</title>
<g id="a_Node000009"><a xlink:title=" ">
<polygon fill="white" stroke="transparent" points="459,-361 436,-361 436,-312 459,-312 459,-361"/>
<text text-anchor="start" x="441.5" y="-348.5" font-family="Helvetica,sans-Serif" font-size="10.00">int</text>
<text text-anchor="start" x="446" y="-333.5" font-family="Helvetica,sans-Serif" font-size="10.00"> </text>
<text text-anchor="start" x="446" y="-318.5" font-family="Helvetica,sans-Serif" font-size="10.00"> </text>
<polygon fill="#666666" stroke="#666666" points="436.5,-343.5 436.5,-343.5 459.5,-343.5 459.5,-343.5 436.5,-343.5"/>
<polygon fill="#666666" stroke="#666666" points="436.5,-328.5 436.5,-328.5 459.5,-328.5 459.5,-328.5 436.5,-328.5"/>
<polygon fill="none" stroke="#666666" points="436,-312 436,-361 459,-361 459,-312 436,-312"/>
</a>
</g>
</g>
<!-- Node9&#45;&gt;Node4 -->
<g id="edge8_Node000004_Node000009" class="edge">
<title>Node9&#45;&gt;Node4</title>
<g id="a_edge8_Node000004_Node000009"><a xlink:title=" ">
<path fill="none" stroke="#63b8ff" d="M435.89,-312.52C430.88,-303.16 424.75,-292.35 418.5,-283 414.22,-276.59 409.54,-270.05 404.75,-263.61"/>
<polygon fill="none" stroke="#63b8ff" points="404.41,-263.16 397.59,-260.81 397.14,-253.62 403.95,-255.97 404.41,-263.16"/>
</a>
</g>
<text text-anchor="middle" x="438" y="-286" font-family="Helvetica,sans-Serif" font-size="10.00" fill="grey"> &#45;line</text>
</g>
<!-- Node10&#45;&gt;Node1 -->
<g id="edge9_Node000001_Node000010" class="edge">
<title>Node10&#45;&gt;Node1</title>
<g id="a_edge9_Node000001_Node000010"><a xlink:title=" ">
<path fill="none" stroke="#63b8ff" d="M115.52,-178.27C128.85,-158.54 148.37,-129.64 165.63,-104.07"/>
<polygon fill="none" stroke="#63b8ff" points="165.66,-104.04 165.7,-96.83 172.37,-94.09 172.33,-101.3 165.66,-104.04"/>
</a>
</g>
<text text-anchor="middle" x="173.5" y="-115" font-family="Helvetica,sans-Serif" font-size="10.00" fill="grey"> &#45;right</text>
</g>
</g>
</svg>

<g id="navigator" transform="translate(0 0)" fill="#404254">
  <rect fill="#f2f5e9" fill-opacity="0.5" stroke="#606060" stroke-width=".5" x="0" y="0" width="60" height="60"/>
  <use id="zoomplus" xlink:href="#zoomPlus" x="17" y="9" onmousedown="handleZoom(evt,'in')"/>
  <use id="zoomminus" xlink:href="#zoomMin" x="42" y="9" onmousedown="handleZoom(evt,'out')"/>
  <use id="reset" xlink:href="#resetDef" x="30" y="36" onmousedown="handleReset()"/>
   <use id="arrowup" xlink:href="#arrowUp" x="0" y="0" onmousedown="handlePan(0,-1)"/>
  <use id="arrowright" xlink:href="#arrowRight" x="0" y="0" onmousedown="handlePan(1,0)"/>
  <use id="arrowdown" xlink:href="#arrowDown" x="0" y="0" onmousedown="handlePan(0,1)"/>
  <use id="arrowleft" xlink:href="#arrowLeft" x="0" y="0" onmousedown="handlePan(-1,0)"/>
</g>
<svg viewBox="0 0 15 15" width="100%" height="30px" preserveAspectRatio="xMaxYMin meet">
 <g id="arrow_out" transform="scale(0.3 0.3)">
  <a xlink:href="classUnary__coll__graph_org.svg" target="_base">
   <rect id="button" ry="5" rx="5" y="6" x="6" height="38" width="38"
        fill="#f2f5e9" fill-opacity="0.5" stroke="#606060" stroke-width="1.0"/>
   <path id="arrow"
     d="M 11.500037,31.436501 C 11.940474,20.09759 22.043105,11.32322 32.158766,21.979434 L 37.068811,17.246167 C 37.068811,17.246167 37.088388,32 37.088388,32 L 22.160133,31.978069 C 22.160133,31.978069 26.997745,27.140456 26.997745,27.140456 C 18.528582,18.264221 13.291696,25.230495 11.500037,31.436501 z"
     style="fill:#404040;"/>
  </a>
 </g>
</svg>

<style type='text/css'>
<![CDATA[
[data-mouse-over-selected='false'] { opacity: 0.7; }
[data-mouse-over-selected='true']  { opacity: 1.0; }
]]>
</style>
<script type="application/ecmascript"><![CDATA[
document.addEventListener('DOMContentLoaded', (event) => {
  highlightEdges();
  highlightAdjacentNodes();
});
]]></script>
</svg>
