<?xml version="1.0" encoding="UTF-8" standalone="no"?>
<!DOCTYPE svg PUBLIC "-//W3C//DTD SVG 1.1//EN"
 "http://www.w3.org/Graphics/SVG/1.1/DTD/svg11.dtd">
<!-- Generated by graphviz version 2.43.0 (0)
 -->
<!-- Title: Variable Pages: 1 -->
<svg width="375pt" height="451pt"
 viewBox="0.00 0.00 375.00 451.00" xmlns="http://www.w3.org/2000/svg" xmlns:xlink="http://www.w3.org/1999/xlink">
<g id="graph0" class="graph" transform="scale(1 1) rotate(0) translate(4 447)">
<title>Variable</title>
<!-- Node1 -->
<g id="Node000001" class="node">
<title>Node1</title>
<g id="a_Node000001"><a xlink:title="Class representing a variable expression.">
<polygon fill="#999999" stroke="transparent" points="178.5,-79 104.5,-79 104.5,0 178.5,0 178.5,-79"/>
<text text-anchor="start" x="121.5" y="-66.5" font-family="Helvetica,sans-Serif" font-size="10.00">Variable</text>
<text text-anchor="start" x="139.5" y="-51.5" font-family="Helvetica,sans-Serif" font-size="10.00"> </text>
<text text-anchor="start" x="108.5" y="-36.5" font-family="Helvetica,sans-Serif" font-size="10.00">+</text>
<text text-anchor="start" x="121.5" y="-36.5" font-family="Helvetica,sans-Serif" font-size="10.00">Variable()</text>
<text text-anchor="start" x="108.5" y="-21.5" font-family="Helvetica,sans-Serif" font-size="10.00">+</text>
<text text-anchor="start" x="121.5" y="-21.5" font-family="Helvetica,sans-Serif" font-size="10.00">accept()</text>
<text text-anchor="start" x="108.5" y="-6.5" font-family="Helvetica,sans-Serif" font-size="10.00">+</text>
<text text-anchor="start" x="121.5" y="-6.5" font-family="Helvetica,sans-Serif" font-size="10.00">getName()</text>
<polygon fill="#666666" stroke="#666666" points="104.5,-61.5 104.5,-61.5 178.5,-61.5 178.5,-61.5 104.5,-61.5"/>
<polygon fill="#666666" stroke="#666666" points="104.5,-46.5 104.5,-46.5 178.5,-46.5 178.5,-46.5 104.5,-46.5"/>
<polygon fill="none" stroke="#666666" points="104.5,0 104.5,-79 178.5,-79 178.5,0 104.5,0"/>
</a>
</g>
</g>
<!-- Node2 -->
<g id="Node000002" class="node">
<title>Node2</title>
<g id="a_Node000002"><a xlink:href="classExpr.html" target="_top" xlink:title="Abstract base class for expressions.">
<polygon fill="white" stroke="transparent" points="61,-212.5 0,-212.5 0,-163.5 61,-163.5 61,-212.5"/>
<text text-anchor="start" x="20" y="-200" font-family="Helvetica,sans-Serif" font-size="10.00">Expr</text>
<text text-anchor="start" x="29" y="-185" font-family="Helvetica,sans-Serif" font-size="10.00"> </text>
<text text-anchor="start" x="4.5" y="-170" font-family="Helvetica,sans-Serif" font-size="10.00">+</text>
<text text-anchor="start" x="17.5" y="-170" font-family="Helvetica,sans-Serif" font-size="10.00">accept()</text>
<polygon fill="#666666" stroke="#666666" points="0.5,-195 0.5,-195 61.5,-195 61.5,-195 0.5,-195"/>
<polygon fill="#666666" stroke="#666666" points="0.5,-180 0.5,-180 61.5,-180 61.5,-180 0.5,-180"/>
<polygon fill="none" stroke="#666666" points="0,-163.5 0,-212.5 61,-212.5 61,-163.5 0,-163.5"/>
</a>
</g>
</g>
<!-- Node2&#45;&gt;Node1 -->
<g id="edge1_Node000001_Node000002" class="edge">
<title>Node2&#45;&gt;Node1</title>
<g id="a_edge1_Node000001_Node000002"><a xlink:title=" ">
<path fill="none" stroke="#63b8ff" d="M50.09,-154.63C56.07,-145.22 62.84,-135.05 69.5,-126 81.12,-110.21 94.77,-93.57 107.05,-79.21"/>
<polygon fill="none" stroke="#63b8ff" points="46.97,-153.02 44.62,-163.35 52.9,-156.74 46.97,-153.02"/>
</a>
</g>
</g>
<!-- Node3 -->
<g id="Node000003" class="node">
<title>Node3</title>
<g id="a_Node000003"><a xlink:title=" ">
<polygon fill="white" stroke="transparent" points="204,-218 79,-218 79,-158 204,-158 204,-218"/>
<text text-anchor="start" x="84.5" y="-206" font-family="Helvetica,sans-Serif" font-size="10.00">std::enable_shared</text>
<text text-anchor="start" x="84.5" y="-195" font-family="Helvetica,sans-Serif" font-size="10.00">_from_this&lt; Variable &gt;</text>
<text text-anchor="start" x="140" y="-180" font-family="Helvetica,sans-Serif" font-size="10.00"> </text>
<text text-anchor="start" x="140" y="-165" font-family="Helvetica,sans-Serif" font-size="10.00"> </text>
<polygon fill="#666666" stroke="#666666" points="79.5,-190 79.5,-190 204.5,-190 204.5,-190 79.5,-190"/>
<polygon fill="#666666" stroke="#666666" points="79.5,-175 79.5,-175 204.5,-175 204.5,-175 79.5,-175"/>
<polygon fill="none" stroke="#666666" points="79,-158 79,-218 204,-218 204,-158 79,-158"/>
</a>
</g>
</g>
<!-- Node3&#45;&gt;Node1 -->
<g id="edge2_Node000001_Node000003" class="edge">
<title>Node3&#45;&gt;Node1</title>
<g id="a_edge2_Node000001_Node000003"><a xlink:title=" ">
<path fill="none" stroke="#63b8ff" d="M141.5,-147.42C141.5,-126.24 141.5,-100.24 141.5,-79.19"/>
<polygon fill="none" stroke="#63b8ff" points="138,-147.71 141.5,-157.71 145,-147.71 138,-147.71"/>
</a>
</g>
</g>
<!-- Node4 -->
<g id="Node000004" class="node">
<title>Node4</title>
<g id="a_Node000004"><a xlink:href="classToken.html" target="_top" xlink:title="Represents a token in the source code.">
<polygon fill="white" stroke="transparent" points="305,-250 222,-250 222,-126 305,-126 305,-250"/>
<text text-anchor="start" x="250" y="-238" font-family="Helvetica,sans-Serif" font-size="10.00">Token</text>
<text text-anchor="start" x="262" y="-223" font-family="Helvetica,sans-Serif" font-size="10.00"> </text>
<text text-anchor="start" x="226.5" y="-208" font-family="Helvetica,sans-Serif" font-size="10.00">+</text>
<text text-anchor="start" x="239.5" y="-208" font-family="Helvetica,sans-Serif" font-size="10.00">Token()</text>
<text text-anchor="start" x="226.5" y="-193" font-family="Helvetica,sans-Serif" font-size="10.00">+</text>
<text text-anchor="start" x="239.5" y="-193" font-family="Helvetica,sans-Serif" font-size="10.00">getType()</text>
<text text-anchor="start" x="226.5" y="-178" font-family="Helvetica,sans-Serif" font-size="10.00">+</text>
<text text-anchor="start" x="239.5" y="-178" font-family="Helvetica,sans-Serif" font-size="10.00">getLexeme()</text>
<text text-anchor="start" x="226.5" y="-163" font-family="Helvetica,sans-Serif" font-size="10.00">+</text>
<text text-anchor="start" x="239.5" y="-163" font-family="Helvetica,sans-Serif" font-size="10.00">getLiteral()</text>
<text text-anchor="start" x="226.5" y="-148" font-family="Helvetica,sans-Serif" font-size="10.00">+</text>
<text text-anchor="start" x="239.5" y="-148" font-family="Helvetica,sans-Serif" font-size="10.00">getLine()</text>
<text text-anchor="start" x="226.5" y="-133" font-family="Helvetica,sans-Serif" font-size="10.00">+</text>
<text text-anchor="start" x="239.5" y="-133" font-family="Helvetica,sans-Serif" font-size="10.00">toString()</text>
<polygon fill="#666666" stroke="#666666" points="222.5,-233 222.5,-233 305.5,-233 305.5,-233 222.5,-233"/>
<polygon fill="#666666" stroke="#666666" points="222.5,-218 222.5,-218 305.5,-218 305.5,-218 222.5,-218"/>
<polygon fill="none" stroke="#666666" points="222,-126 222,-250 305,-250 305,-126 222,-126"/>
</a>
</g>
</g>
<!-- Node4&#45;&gt;Node1 -->
<g id="edge3_Node000001_Node000004" class="edge">
<title>Node4&#45;&gt;Node1</title>
<g id="a_edge3_Node000001_Node000004"><a xlink:title=" ">
<path fill="none" stroke="#63b8ff" d="M221.86,-136.99C208.82,-121.34 194.47,-104.11 181.55,-88.6"/>
<polygon fill="none" stroke="#63b8ff" points="181.4,-88.41 174.48,-86.36 173.72,-79.19 180.63,-81.24 181.4,-88.41"/>
</a>
</g>
<text text-anchor="middle" x="213" y="-100" font-family="Helvetica,sans-Serif" font-size="10.00" fill="grey"> &#45;name</text>
</g>
<!-- Node5 -->
<g id="Node000005" class="node">
<title>Node5</title>
<g id="a_Node000005"><a xlink:title=" ">
<polygon fill="white" stroke="transparent" points="184.5,-346 94.5,-346 94.5,-297 184.5,-297 184.5,-346"/>
<text text-anchor="start" x="99.5" y="-333.5" font-family="Helvetica,sans-Serif" font-size="10.00">const TokenType</text>
<text text-anchor="start" x="137.5" y="-318.5" font-family="Helvetica,sans-Serif" font-size="10.00"> </text>
<text text-anchor="start" x="137.5" y="-303.5" font-family="Helvetica,sans-Serif" font-size="10.00"> </text>
<polygon fill="#666666" stroke="#666666" points="94.5,-328.5 94.5,-328.5 184.5,-328.5 184.5,-328.5 94.5,-328.5"/>
<polygon fill="#666666" stroke="#666666" points="94.5,-313.5 94.5,-313.5 184.5,-313.5 184.5,-313.5 94.5,-313.5"/>
<polygon fill="none" stroke="#666666" points="94.5,-297 94.5,-346 184.5,-346 184.5,-297 94.5,-297"/>
</a>
</g>
</g>
<!-- Node5&#45;&gt;Node4 -->
<g id="edge4_Node000004_Node000005" class="edge">
<title>Node5&#45;&gt;Node4</title>
<g id="a_edge4_Node000004_Node000005"><a xlink:title=" ">
<path fill="none" stroke="#63b8ff" d="M165.15,-297C179.45,-283.58 197.37,-266.25 212.5,-250 212.89,-249.58 213.28,-249.16 213.67,-248.74"/>
<polygon fill="none" stroke="#63b8ff" points="213.85,-248.54 214.9,-241.4 221.89,-239.63 220.84,-246.76 213.85,-248.54"/>
</a>
</g>
<text text-anchor="middle" x="210" y="-271" font-family="Helvetica,sans-Serif" font-size="10.00" fill="grey"> &#45;type</text>
</g>
<!-- Node6 -->
<g id="Node000006" class="node">
<title>Node6</title>
<g id="a_Node000006"><a xlink:title=" ">
<polygon fill="white" stroke="transparent" points="262,-346 203,-346 203,-297 262,-297 262,-346"/>
<text text-anchor="start" x="208.5" y="-333.5" font-family="Helvetica,sans-Serif" font-size="10.00">std::string</text>
<text text-anchor="start" x="231" y="-318.5" font-family="Helvetica,sans-Serif" font-size="10.00"> </text>
<text text-anchor="start" x="231" y="-303.5" font-family="Helvetica,sans-Serif" font-size="10.00"> </text>
<polygon fill="#666666" stroke="#666666" points="203.5,-328.5 203.5,-328.5 262.5,-328.5 262.5,-328.5 203.5,-328.5"/>
<polygon fill="#666666" stroke="#666666" points="203.5,-313.5 203.5,-313.5 262.5,-313.5 262.5,-313.5 203.5,-313.5"/>
<polygon fill="none" stroke="#666666" points="203,-297 203,-346 262,-346 262,-297 203,-297"/>
</a>
</g>
</g>
<!-- Node6&#45;&gt;Node4 -->
<g id="edge5_Node000004_Node000006" class="edge">
<title>Node6&#45;&gt;Node4</title>
<g id="a_edge5_Node000004_Node000006"><a xlink:title=" ">
<path fill="none" stroke="#63b8ff" d="M231.83,-296.8C231.69,-290.98 231.57,-284.77 231.5,-279 231.44,-274.11 230.57,-272.8 231.5,-268 231.89,-266 232.33,-263.99 232.81,-261.98"/>
<polygon fill="none" stroke="#63b8ff" points="232.81,-261.97 230.56,-255.12 236.02,-250.41 238.27,-257.26 232.81,-261.97"/>
</a>
</g>
<text text-anchor="middle" x="253" y="-271" font-family="Helvetica,sans-Serif" font-size="10.00" fill="grey"> &#45;lexeme</text>
</g>
<!-- Node7 -->
<g id="Node000007" class="node">
<title>Node7</title>
<g id="a_Node000007"><a xlink:title=" ">
<polygon fill="white" stroke="transparent" points="281.5,-443 183.5,-443 183.5,-383 281.5,-383 281.5,-443"/>
<text text-anchor="start" x="188.5" y="-431" font-family="Helvetica,sans-Serif" font-size="10.00">std::basic_string&lt;</text>
<text text-anchor="start" x="214" y="-420" font-family="Helvetica,sans-Serif" font-size="10.00"> Char &gt;</text>
<text text-anchor="start" x="230.5" y="-405" font-family="Helvetica,sans-Serif" font-size="10.00"> </text>
<text text-anchor="start" x="230.5" y="-390" font-family="Helvetica,sans-Serif" font-size="10.00"> </text>
<polygon fill="#666666" stroke="#666666" points="183.5,-415 183.5,-415 281.5,-415 281.5,-415 183.5,-415"/>
<polygon fill="#666666" stroke="#666666" points="183.5,-400 183.5,-400 281.5,-400 281.5,-400 183.5,-400"/>
<polygon fill="none" stroke="#666666" points="183.5,-383 183.5,-443 281.5,-443 281.5,-383 183.5,-383"/>
</a>
</g>
</g>
<!-- Node7&#45;&gt;Node6 -->
<g id="edge6_Node000006_Node000007" class="edge">
<title>Node7&#45;&gt;Node6</title>
<g id="a_edge6_Node000006_Node000007"><a xlink:title=" ">
<path fill="none" stroke="#63b8ff" d="M232.5,-372.41C232.5,-363.47 232.5,-354.25 232.5,-346.21"/>
<polygon fill="none" stroke="#63b8ff" points="229,-372.69 232.5,-382.69 236,-372.69 229,-372.69"/>
</a>
</g>
</g>
<!-- Node8 -->
<g id="Node000008" class="node">
<title>Node8</title>
<g id="a_Node000008"><a xlink:title=" ">
<polygon fill="white" stroke="transparent" points="311,-346 282,-346 282,-297 311,-297 311,-346"/>
<text text-anchor="start" x="287.5" y="-333.5" font-family="Helvetica,sans-Serif" font-size="10.00">any</text>
<text text-anchor="start" x="295" y="-318.5" font-family="Helvetica,sans-Serif" font-size="10.00"> </text>
<text text-anchor="start" x="295" y="-303.5" font-family="Helvetica,sans-Serif" font-size="10.00"> </text>
<polygon fill="#666666" stroke="#666666" points="282.5,-328.5 282.5,-328.5 311.5,-328.5 311.5,-328.5 282.5,-328.5"/>
<polygon fill="#666666" stroke="#666666" points="282.5,-313.5 282.5,-313.5 311.5,-313.5 311.5,-313.5 282.5,-313.5"/>
<polygon fill="none" stroke="#666666" points="282,-297 282,-346 311,-346 311,-297 282,-297"/>
</a>
</g>
</g>
<!-- Node8&#45;&gt;Node4 -->
<g id="edge7_Node000004_Node000008" class="edge">
<title>Node8&#45;&gt;Node4</title>
<g id="a_edge7_Node000004_Node000008"><a xlink:title=" ">
<path fill="none" stroke="#63b8ff" d="M290.6,-296.99C288.07,-286.92 284.97,-274.56 281.78,-261.85"/>
<polygon fill="none" stroke="#63b8ff" points="281.76,-261.76 276.42,-256.91 278.84,-250.12 284.18,-254.97 281.76,-261.76"/>
</a>
</g>
<text text-anchor="middle" x="304.5" y="-271" font-family="Helvetica,sans-Serif" font-size="10.00" fill="grey"> &#45;literal</text>
</g>
<!-- Node9 -->
<g id="Node000009" class="node">
<title>Node9</title>
<g id="a_Node000009"><a xlink:title=" ">
<polygon fill="white" stroke="transparent" points="367,-346 344,-346 344,-297 367,-297 367,-346"/>
<text text-anchor="start" x="349.5" y="-333.5" font-family="Helvetica,sans-Serif" font-size="10.00">int</text>
<text text-anchor="start" x="354" y="-318.5" font-family="Helvetica,sans-Serif" font-size="10.00"> </text>
<text text-anchor="start" x="354" y="-303.5" font-family="Helvetica,sans-Serif" font-size="10.00"> </text>
<polygon fill="#666666" stroke="#666666" points="344.5,-328.5 344.5,-328.5 367.5,-328.5 367.5,-328.5 344.5,-328.5"/>
<polygon fill="#666666" stroke="#666666" points="344.5,-313.5 344.5,-313.5 367.5,-313.5 367.5,-313.5 344.5,-313.5"/>
<polygon fill="none" stroke="#666666" points="344,-297 344,-346 367,-346 367,-297 344,-297"/>
</a>
</g>
</g>
<!-- Node9&#45;&gt;Node4 -->
<g id="edge8_Node000004_Node000009" class="edge">
<title>Node9&#45;&gt;Node4</title>
<g id="a_edge8_Node000004_Node000009"><a xlink:title=" ">
<path fill="none" stroke="#63b8ff" d="M343.89,-297.52C338.88,-288.16 332.75,-277.35 326.5,-268 322.22,-261.59 317.54,-255.05 312.75,-248.61"/>
<polygon fill="none" stroke="#63b8ff" points="312.41,-248.16 305.59,-245.81 305.14,-238.62 311.95,-240.97 312.41,-248.16"/>
</a>
</g>
<text text-anchor="middle" x="345" y="-271" font-family="Helvetica,sans-Serif" font-size="10.00" fill="grey"> &#45;line</text>
</g>
</g>
</svg>
