<?xml version="1.0" encoding="UTF-8" standalone="no"?>
<!DOCTYPE svg PUBLIC "-//W3C//DTD SVG 1.1//EN"
 "http://www.w3.org/Graphics/SVG/1.1/DTD/svg11.dtd">
<!-- Generated by graphviz version 2.43.0 (0)
 -->
<!-- Title: Expr Pages: 1 -->
<!--zoomable 232 -->

<svg id="main" version="1.1" xmlns="http://www.w3.org/2000/svg" xmlns:xlink="http://www.w3.org/1999/xlink" xml:space="preserve" onload="init(evt)">
<style type="text/css"><![CDATA[
.node, .edge {opacity: 0.7;}
.node.selected, .edge.selected {opacity: 1;}
.edge:hover path { stroke: red; }
.edge:hover polygon { stroke: red; fill: red; }
]]></style>

<defs>
  <circle id="rim" cx="0" cy="0" r="7"/>
  <circle id="rim2" cx="0" cy="0" r="3.5"/>
  <g id="zoomPlus">
    <use xlink:href="#rim" fill="#404040"><set attributeName="fill" to="#808080" begin="zoomplus.mouseover" end="zoomplus.mouseout"/></use>
    <path d="M-4,0h8M0,-4v8" fill="none" stroke="white" stroke-width="1.5" pointer-events="none"/>
  </g>
  <g id="zoomMin">
    <use xlink:href="#rim" fill="#404040"><set attributeName="fill" to="#808080" begin="zoomminus.mouseover" end="zoomminus.mouseout"/></use>
    <path d="M-4,0h8" fill="none" stroke="white" stroke-width="1.5" pointer-events="none"/>
  </g>
  <g id="arrowUp" transform="translate(30 24)">
    <use xlink:href="#rim"/>
    <path pointer-events="none" fill="none" stroke="white" stroke-width="1.5" d="M0,-3.0v7 M-2.5,-0.5L0,-3.0L2.5,-0.5"/>
  </g>
  <g id="arrowRight" transform="rotate(90) translate(36 -43)">
    <use xlink:href="#rim"/>
    <path pointer-events="none" fill="none" stroke="white" stroke-width="1.5" d="M0,-3.0v7 M-2.5,-0.5L0,-3.0L2.5,-0.5"/>
  </g>
  <g id="arrowDown" transform="rotate(180) translate(-30 -48)">
    <use xlink:href="#rim"/>
    <path pointer-events="none" fill="none" stroke="white" stroke-width="1.5" d="M0,-3.0v7 M-2.5,-0.5L0,-3.0L2.5,-0.5"/>
  </g>
  <g id="arrowLeft" transform="rotate(270) translate(-36 17)">
    <use xlink:href="#rim"/>
    <path pointer-events="none" fill="none" stroke="white" stroke-width="1.5" d="M0,-3.0v7 M-2.5,-0.5L0,-3.0L2.5,-0.5"/>
  </g>
  <g id="resetDef">
    <use xlink:href="#rim2" fill="#404040"><set attributeName="fill" to="#808080" begin="reset.mouseover" end="reset.mouseout"/></use>
  </g>
</defs>
<script type="application/ecmascript">
var viewWidth = 644;
var viewHeight = 232;
var sectionId = 'dynsection-0';
</script>
<script type="application/ecmascript" xlink:href="svg.min.js"/>
<svg id="graph" class="graph">
<g id="viewport">
<title>Expr</title>
<!-- Node1 -->
<g id="Node000001" class="node">
<title>Node1</title>
<g id="a_Node000001"><a xlink:title="Abstract base class for expressions.">
<polygon fill="#999999" stroke="transparent" points="362.5,-224 301.5,-224 301.5,-175 362.5,-175 362.5,-224"/>
<text text-anchor="start" x="321.5" y="-211.5" font-family="Helvetica,sans-Serif" font-size="10.00">Expr</text>
<text text-anchor="start" x="330.5" y="-196.5" font-family="Helvetica,sans-Serif" font-size="10.00"> </text>
<text text-anchor="start" x="306" y="-181.5" font-family="Helvetica,sans-Serif" font-size="10.00">+</text>
<text text-anchor="start" x="319" y="-181.5" font-family="Helvetica,sans-Serif" font-size="10.00">accept()</text>
<polygon fill="#666666" stroke="#666666" points="302,-206.5 302,-206.5 363,-206.5 363,-206.5 302,-206.5"/>
<polygon fill="#666666" stroke="#666666" points="302,-191.5 302,-191.5 363,-191.5 363,-191.5 302,-191.5"/>
<polygon fill="none" stroke="#666666" points="301.5,-175 301.5,-224 362.5,-224 362.5,-175 301.5,-175"/>
</a>
</g>
</g>
<!-- Node2 -->
<g id="Node000002" class="node">
<title>Node2</title>
<g id="a_Node000002"><a xlink:href="classAssign.html" target="_top" xlink:title="Class representing an assignment expression.">
<polygon fill="white" stroke="transparent" points="74,-124 0,-124 0,-15 74,-15 74,-124"/>
<text text-anchor="start" x="20.5" y="-111.5" font-family="Helvetica,sans-Serif" font-size="10.00">Assign</text>
<text text-anchor="start" x="6.5" y="-96.5" font-family="Helvetica,sans-Serif" font-size="10.00">&#45;</text>
<text text-anchor="start" x="17" y="-96.5" font-family="Helvetica,sans-Serif" font-size="10.00">name</text>
<text text-anchor="start" x="6.5" y="-81.5" font-family="Helvetica,sans-Serif" font-size="10.00">&#45;</text>
<text text-anchor="start" x="17" y="-81.5" font-family="Helvetica,sans-Serif" font-size="10.00">value</text>
<text text-anchor="start" x="4" y="-66.5" font-family="Helvetica,sans-Serif" font-size="10.00">+</text>
<text text-anchor="start" x="17" y="-66.5" font-family="Helvetica,sans-Serif" font-size="10.00">Assign()</text>
<text text-anchor="start" x="4" y="-51.5" font-family="Helvetica,sans-Serif" font-size="10.00">+</text>
<text text-anchor="start" x="17" y="-51.5" font-family="Helvetica,sans-Serif" font-size="10.00">accept()</text>
<text text-anchor="start" x="4" y="-36.5" font-family="Helvetica,sans-Serif" font-size="10.00">+</text>
<text text-anchor="start" x="17" y="-36.5" font-family="Helvetica,sans-Serif" font-size="10.00">getName()</text>
<text text-anchor="start" x="4" y="-21.5" font-family="Helvetica,sans-Serif" font-size="10.00">+</text>
<text text-anchor="start" x="17" y="-21.5" font-family="Helvetica,sans-Serif" font-size="10.00">getValue()</text>
<polygon fill="#666666" stroke="#666666" points="0,-106.5 0,-106.5 74,-106.5 74,-106.5 0,-106.5"/>
<polygon fill="#666666" stroke="#666666" points="0,-76.5 0,-76.5 15,-76.5 15,-76.5 0,-76.5"/>
<polygon fill="#666666" stroke="#666666" points="15,-76.5 15,-76.5 74,-76.5 74,-76.5 15,-76.5"/>
<polygon fill="none" stroke="#666666" points="0,-15 0,-124 74,-124 74,-15 0,-15"/>
</a>
</g>
</g>
<!-- Node1&#45;&gt;Node2 -->
<g id="edge1_Node000001_Node000002" class="edge">
<title>Node1&#45;&gt;Node2</title>
<g id="a_edge1_Node000001_Node000002"><a xlink:title=" ">
<path fill="none" stroke="#63b8ff" d="M290.86,-197.65C238.24,-194.69 146.36,-183 83,-139 77.12,-134.91 71.78,-129.81 66.99,-124.25"/>
<polygon fill="none" stroke="#63b8ff" points="291,-201.16 301.16,-198.15 291.34,-194.17 291,-201.16"/>
</a>
</g>
</g>
<!-- Node3 -->
<g id="Node000003" class="node">
<title>Node3</title>
<g id="a_Node000003"><a xlink:href="classBinary.html" target="_top" xlink:title="Class representing a binary expression.">
<polygon fill="white" stroke="transparent" points="162,-139 92,-139 92,0 162,0 162,-139"/>
<text text-anchor="start" x="111" y="-126.5" font-family="Helvetica,sans-Serif" font-size="10.00">Binary</text>
<text text-anchor="start" x="98.5" y="-111.5" font-family="Helvetica,sans-Serif" font-size="10.00">&#45;</text>
<text text-anchor="start" x="109" y="-111.5" font-family="Helvetica,sans-Serif" font-size="10.00">left</text>
<text text-anchor="start" x="98.5" y="-96.5" font-family="Helvetica,sans-Serif" font-size="10.00">&#45;</text>
<text text-anchor="start" x="109" y="-96.5" font-family="Helvetica,sans-Serif" font-size="10.00">op</text>
<text text-anchor="start" x="98.5" y="-81.5" font-family="Helvetica,sans-Serif" font-size="10.00">&#45;</text>
<text text-anchor="start" x="109" y="-81.5" font-family="Helvetica,sans-Serif" font-size="10.00">right</text>
<text text-anchor="start" x="96" y="-66.5" font-family="Helvetica,sans-Serif" font-size="10.00">+</text>
<text text-anchor="start" x="109" y="-66.5" font-family="Helvetica,sans-Serif" font-size="10.00">Binary()</text>
<text text-anchor="start" x="96" y="-51.5" font-family="Helvetica,sans-Serif" font-size="10.00">+</text>
<text text-anchor="start" x="109" y="-51.5" font-family="Helvetica,sans-Serif" font-size="10.00">accept()</text>
<text text-anchor="start" x="96" y="-36.5" font-family="Helvetica,sans-Serif" font-size="10.00">+</text>
<text text-anchor="start" x="109" y="-36.5" font-family="Helvetica,sans-Serif" font-size="10.00">getLeft()</text>
<text text-anchor="start" x="96" y="-21.5" font-family="Helvetica,sans-Serif" font-size="10.00">+</text>
<text text-anchor="start" x="109" y="-21.5" font-family="Helvetica,sans-Serif" font-size="10.00">getRight()</text>
<text text-anchor="start" x="96" y="-6.5" font-family="Helvetica,sans-Serif" font-size="10.00">+</text>
<text text-anchor="start" x="109" y="-6.5" font-family="Helvetica,sans-Serif" font-size="10.00">getOp()</text>
<polygon fill="#666666" stroke="#666666" points="92,-121.5 92,-121.5 162,-121.5 162,-121.5 92,-121.5"/>
<polygon fill="#666666" stroke="#666666" points="92,-76.5 92,-76.5 107,-76.5 107,-76.5 92,-76.5"/>
<polygon fill="#666666" stroke="#666666" points="107,-76.5 107,-76.5 162,-76.5 162,-76.5 107,-76.5"/>
<polygon fill="none" stroke="#666666" points="92,0 92,-139 162,-139 162,0 92,0"/>
</a>
</g>
</g>
<!-- Node1&#45;&gt;Node3 -->
<g id="edge2_Node000001_Node000003" class="edge">
<title>Node1&#45;&gt;Node3</title>
<g id="a_edge2_Node000001_Node000003"><a xlink:title=" ">
<path fill="none" stroke="#63b8ff" d="M291.35,-191.07C256.44,-183.03 206.31,-167.37 171,-139 167.91,-136.52 164.98,-133.76 162.19,-130.82"/>
<polygon fill="none" stroke="#63b8ff" points="290.7,-194.51 301.22,-193.23 292.2,-187.67 290.7,-194.51"/>
</a>
</g>
</g>
<!-- Node4 -->
<g id="Node000004" class="node">
<title>Node4</title>
<g id="a_Node000004"><a xlink:href="classGrouping.html" target="_top" xlink:title="Class representing a grouping expression.">
<polygon fill="white" stroke="transparent" points="278,-109 180,-109 180,-30 278,-30 278,-109"/>
<text text-anchor="start" x="206.5" y="-96.5" font-family="Helvetica,sans-Serif" font-size="10.00">Grouping</text>
<text text-anchor="start" x="186.5" y="-81.5" font-family="Helvetica,sans-Serif" font-size="10.00">&#45;</text>
<text text-anchor="start" x="197" y="-81.5" font-family="Helvetica,sans-Serif" font-size="10.00">expression</text>
<text text-anchor="start" x="184" y="-66.5" font-family="Helvetica,sans-Serif" font-size="10.00">+</text>
<text text-anchor="start" x="197" y="-66.5" font-family="Helvetica,sans-Serif" font-size="10.00">Grouping()</text>
<text text-anchor="start" x="184" y="-51.5" font-family="Helvetica,sans-Serif" font-size="10.00">+</text>
<text text-anchor="start" x="197" y="-51.5" font-family="Helvetica,sans-Serif" font-size="10.00">accept()</text>
<text text-anchor="start" x="184" y="-36.5" font-family="Helvetica,sans-Serif" font-size="10.00">+</text>
<text text-anchor="start" x="197" y="-36.5" font-family="Helvetica,sans-Serif" font-size="10.00">getExpression()</text>
<polygon fill="#666666" stroke="#666666" points="180,-91.5 180,-91.5 278,-91.5 278,-91.5 180,-91.5"/>
<polygon fill="#666666" stroke="#666666" points="180,-76.5 180,-76.5 195,-76.5 195,-76.5 180,-76.5"/>
<polygon fill="#666666" stroke="#666666" points="195,-76.5 195,-76.5 278,-76.5 278,-76.5 195,-76.5"/>
<polygon fill="none" stroke="#666666" points="180,-30 180,-109 278,-109 278,-30 180,-30"/>
</a>
</g>
</g>
<!-- Node1&#45;&gt;Node4 -->
<g id="edge3_Node000001_Node000004" class="edge">
<title>Node1&#45;&gt;Node4</title>
<g id="a_edge3_Node000001_Node000004"><a xlink:title=" ">
<path fill="none" stroke="#63b8ff" d="M306.31,-166.57C292.32,-149.19 274.92,-127.57 260.17,-109.23"/>
<polygon fill="none" stroke="#63b8ff" points="303.87,-169.13 312.87,-174.72 309.33,-164.74 303.87,-169.13"/>
</a>
</g>
</g>
<!-- Node5 -->
<g id="Node000005" class="node">
<title>Node5</title>
<g id="a_Node000005"><a xlink:href="classLiteral.html" target="_top" xlink:title="Class representing a literal expression.">
<polygon fill="white" stroke="transparent" points="368,-109 296,-109 296,-30 368,-30 368,-109"/>
<text text-anchor="start" x="316.5" y="-96.5" font-family="Helvetica,sans-Serif" font-size="10.00">Literal</text>
<text text-anchor="start" x="302.5" y="-81.5" font-family="Helvetica,sans-Serif" font-size="10.00">&#45;</text>
<text text-anchor="start" x="313" y="-81.5" font-family="Helvetica,sans-Serif" font-size="10.00">value</text>
<text text-anchor="start" x="300" y="-66.5" font-family="Helvetica,sans-Serif" font-size="10.00">+</text>
<text text-anchor="start" x="313" y="-66.5" font-family="Helvetica,sans-Serif" font-size="10.00">Literal()</text>
<text text-anchor="start" x="300" y="-51.5" font-family="Helvetica,sans-Serif" font-size="10.00">+</text>
<text text-anchor="start" x="313" y="-51.5" font-family="Helvetica,sans-Serif" font-size="10.00">accept()</text>
<text text-anchor="start" x="300" y="-36.5" font-family="Helvetica,sans-Serif" font-size="10.00">+</text>
<text text-anchor="start" x="313" y="-36.5" font-family="Helvetica,sans-Serif" font-size="10.00">getValue()</text>
<polygon fill="#666666" stroke="#666666" points="296,-91.5 296,-91.5 368,-91.5 368,-91.5 296,-91.5"/>
<polygon fill="#666666" stroke="#666666" points="296,-76.5 296,-76.5 311,-76.5 311,-76.5 296,-76.5"/>
<polygon fill="#666666" stroke="#666666" points="311,-76.5 311,-76.5 368,-76.5 368,-76.5 311,-76.5"/>
<polygon fill="none" stroke="#666666" points="296,-30 296,-109 368,-109 368,-30 296,-30"/>
</a>
</g>
</g>
<!-- Node1&#45;&gt;Node5 -->
<g id="edge4_Node000001_Node000005" class="edge">
<title>Node1&#45;&gt;Node5</title>
<g id="a_edge4_Node000001_Node000005"><a xlink:title=" ">
<path fill="none" stroke="#63b8ff" d="M332,-164.66C332,-147.63 332,-126.9 332,-109.23"/>
<polygon fill="none" stroke="#63b8ff" points="328.5,-164.72 332,-174.72 335.5,-164.72 328.5,-164.72"/>
</a>
</g>
</g>
<!-- Node6 -->
<g id="Node000006" class="node">
<title>Node6</title>
<g id="a_Node000006"><a xlink:href="classLogical.html" target="_top" xlink:title="Class representing a logical expression.">
<polygon fill="white" stroke="transparent" points="456,-139 386,-139 386,0 456,0 456,-139"/>
<text text-anchor="start" x="403.5" y="-126.5" font-family="Helvetica,sans-Serif" font-size="10.00">Logical</text>
<text text-anchor="start" x="392.5" y="-111.5" font-family="Helvetica,sans-Serif" font-size="10.00">&#45;</text>
<text text-anchor="start" x="403" y="-111.5" font-family="Helvetica,sans-Serif" font-size="10.00">left</text>
<text text-anchor="start" x="392.5" y="-96.5" font-family="Helvetica,sans-Serif" font-size="10.00">&#45;</text>
<text text-anchor="start" x="403" y="-96.5" font-family="Helvetica,sans-Serif" font-size="10.00">op</text>
<text text-anchor="start" x="392.5" y="-81.5" font-family="Helvetica,sans-Serif" font-size="10.00">&#45;</text>
<text text-anchor="start" x="403" y="-81.5" font-family="Helvetica,sans-Serif" font-size="10.00">right</text>
<text text-anchor="start" x="390" y="-66.5" font-family="Helvetica,sans-Serif" font-size="10.00">+</text>
<text text-anchor="start" x="403" y="-66.5" font-family="Helvetica,sans-Serif" font-size="10.00">Logical()</text>
<text text-anchor="start" x="390" y="-51.5" font-family="Helvetica,sans-Serif" font-size="10.00">+</text>
<text text-anchor="start" x="403" y="-51.5" font-family="Helvetica,sans-Serif" font-size="10.00">accept()</text>
<text text-anchor="start" x="390" y="-36.5" font-family="Helvetica,sans-Serif" font-size="10.00">+</text>
<text text-anchor="start" x="403" y="-36.5" font-family="Helvetica,sans-Serif" font-size="10.00">getLeft()</text>
<text text-anchor="start" x="390" y="-21.5" font-family="Helvetica,sans-Serif" font-size="10.00">+</text>
<text text-anchor="start" x="403" y="-21.5" font-family="Helvetica,sans-Serif" font-size="10.00">getRight()</text>
<text text-anchor="start" x="390" y="-6.5" font-family="Helvetica,sans-Serif" font-size="10.00">+</text>
<text text-anchor="start" x="403" y="-6.5" font-family="Helvetica,sans-Serif" font-size="10.00">getOp()</text>
<polygon fill="#666666" stroke="#666666" points="386,-121.5 386,-121.5 456,-121.5 456,-121.5 386,-121.5"/>
<polygon fill="#666666" stroke="#666666" points="386,-76.5 386,-76.5 401,-76.5 401,-76.5 386,-76.5"/>
<polygon fill="#666666" stroke="#666666" points="401,-76.5 401,-76.5 456,-76.5 456,-76.5 401,-76.5"/>
<polygon fill="none" stroke="#666666" points="386,0 386,-139 456,-139 456,0 386,0"/>
</a>
</g>
</g>
<!-- Node1&#45;&gt;Node6 -->
<g id="edge5_Node000001_Node000006" class="edge">
<title>Node1&#45;&gt;Node6</title>
<g id="a_edge5_Node000001_Node000006"><a xlink:title=" ">
<path fill="none" stroke="#63b8ff" d="M356.83,-166.6C363.52,-157.76 370.65,-148.1 377,-139 379.91,-134.83 382.87,-130.47 385.82,-126.07"/>
<polygon fill="none" stroke="#63b8ff" points="353.88,-164.7 350.6,-174.78 359.44,-168.95 353.88,-164.7"/>
</a>
</g>
</g>
<!-- Node7 -->
<g id="Node000007" class="node">
<title>Node7</title>
<g id="a_Node000007"><a xlink:href="classUnary.html" target="_top" xlink:title="Class representing a unary expression.">
<polygon fill="white" stroke="transparent" points="544,-124 474,-124 474,-15 544,-15 544,-124"/>
<text text-anchor="start" x="494" y="-111.5" font-family="Helvetica,sans-Serif" font-size="10.00">Unary</text>
<text text-anchor="start" x="480.5" y="-96.5" font-family="Helvetica,sans-Serif" font-size="10.00">&#45;</text>
<text text-anchor="start" x="491" y="-96.5" font-family="Helvetica,sans-Serif" font-size="10.00">op</text>
<text text-anchor="start" x="480.5" y="-81.5" font-family="Helvetica,sans-Serif" font-size="10.00">&#45;</text>
<text text-anchor="start" x="491" y="-81.5" font-family="Helvetica,sans-Serif" font-size="10.00">right</text>
<text text-anchor="start" x="478" y="-66.5" font-family="Helvetica,sans-Serif" font-size="10.00">+</text>
<text text-anchor="start" x="491" y="-66.5" font-family="Helvetica,sans-Serif" font-size="10.00">Unary()</text>
<text text-anchor="start" x="478" y="-51.5" font-family="Helvetica,sans-Serif" font-size="10.00">+</text>
<text text-anchor="start" x="491" y="-51.5" font-family="Helvetica,sans-Serif" font-size="10.00">accept()</text>
<text text-anchor="start" x="478" y="-36.5" font-family="Helvetica,sans-Serif" font-size="10.00">+</text>
<text text-anchor="start" x="491" y="-36.5" font-family="Helvetica,sans-Serif" font-size="10.00">getRight()</text>
<text text-anchor="start" x="478" y="-21.5" font-family="Helvetica,sans-Serif" font-size="10.00">+</text>
<text text-anchor="start" x="491" y="-21.5" font-family="Helvetica,sans-Serif" font-size="10.00">getOp()</text>
<polygon fill="#666666" stroke="#666666" points="474,-106.5 474,-106.5 544,-106.5 544,-106.5 474,-106.5"/>
<polygon fill="#666666" stroke="#666666" points="474,-76.5 474,-76.5 489,-76.5 489,-76.5 474,-76.5"/>
<polygon fill="#666666" stroke="#666666" points="489,-76.5 489,-76.5 544,-76.5 544,-76.5 489,-76.5"/>
<polygon fill="none" stroke="#666666" points="474,-15 474,-124 544,-124 544,-15 474,-15"/>
</a>
</g>
</g>
<!-- Node1&#45;&gt;Node7 -->
<g id="edge6_Node000001_Node000007" class="edge">
<title>Node1&#45;&gt;Node7</title>
<g id="a_edge6_Node000001_Node000007"><a xlink:title=" ">
<path fill="none" stroke="#63b8ff" d="M372.1,-187.32C400.42,-177.92 437.98,-162.24 465,-139 470.04,-134.67 474.71,-129.62 478.98,-124.26"/>
<polygon fill="none" stroke="#63b8ff" points="370.96,-184.01 362.5,-190.39 373.09,-190.68 370.96,-184.01"/>
</a>
</g>
</g>
<!-- Node8 -->
<g id="Node000008" class="node">
<title>Node8</title>
<g id="a_Node000008"><a xlink:href="classVariable.html" target="_top" xlink:title="Class representing a variable expression.">
<polygon fill="white" stroke="transparent" points="636,-109 562,-109 562,-30 636,-30 636,-109"/>
<text text-anchor="start" x="579" y="-96.5" font-family="Helvetica,sans-Serif" font-size="10.00">Variable</text>
<text text-anchor="start" x="568.5" y="-81.5" font-family="Helvetica,sans-Serif" font-size="10.00">&#45;</text>
<text text-anchor="start" x="579" y="-81.5" font-family="Helvetica,sans-Serif" font-size="10.00">name</text>
<text text-anchor="start" x="566" y="-66.5" font-family="Helvetica,sans-Serif" font-size="10.00">+</text>
<text text-anchor="start" x="579" y="-66.5" font-family="Helvetica,sans-Serif" font-size="10.00">Variable()</text>
<text text-anchor="start" x="566" y="-51.5" font-family="Helvetica,sans-Serif" font-size="10.00">+</text>
<text text-anchor="start" x="579" y="-51.5" font-family="Helvetica,sans-Serif" font-size="10.00">accept()</text>
<text text-anchor="start" x="566" y="-36.5" font-family="Helvetica,sans-Serif" font-size="10.00">+</text>
<text text-anchor="start" x="579" y="-36.5" font-family="Helvetica,sans-Serif" font-size="10.00">getName()</text>
<polygon fill="#666666" stroke="#666666" points="562,-91.5 562,-91.5 636,-91.5 636,-91.5 562,-91.5"/>
<polygon fill="#666666" stroke="#666666" points="562,-76.5 562,-76.5 577,-76.5 577,-76.5 562,-76.5"/>
<polygon fill="#666666" stroke="#666666" points="577,-76.5 577,-76.5 636,-76.5 636,-76.5 577,-76.5"/>
<polygon fill="none" stroke="#666666" points="562,-30 562,-109 636,-109 636,-30 562,-30"/>
</a>
</g>
</g>
<!-- Node1&#45;&gt;Node8 -->
<g id="edge7_Node000001_Node000008" class="edge">
<title>Node1&#45;&gt;Node8</title>
<g id="a_edge7_Node000001_Node000008"><a xlink:title=" ">
<path fill="none" stroke="#63b8ff" d="M372.92,-196.04C420.25,-191.38 498.63,-177.92 553,-139 563.83,-131.25 572.87,-120.09 579.98,-109.02"/>
<polygon fill="none" stroke="#63b8ff" points="372.38,-192.57 362.73,-196.95 373.01,-199.54 372.38,-192.57"/>
</a>
</g>
</g>
</g>
</svg>

<g id="navigator" transform="translate(0 0)" fill="#404254">
  <rect fill="#f2f5e9" fill-opacity="0.5" stroke="#606060" stroke-width=".5" x="0" y="0" width="60" height="60"/>
  <use id="zoomplus" xlink:href="#zoomPlus" x="17" y="9" onmousedown="handleZoom(evt,'in')"/>
  <use id="zoomminus" xlink:href="#zoomMin" x="42" y="9" onmousedown="handleZoom(evt,'out')"/>
  <use id="reset" xlink:href="#resetDef" x="30" y="36" onmousedown="handleReset()"/>
   <use id="arrowup" xlink:href="#arrowUp" x="0" y="0" onmousedown="handlePan(0,-1)"/>
  <use id="arrowright" xlink:href="#arrowRight" x="0" y="0" onmousedown="handlePan(1,0)"/>
  <use id="arrowdown" xlink:href="#arrowDown" x="0" y="0" onmousedown="handlePan(0,1)"/>
  <use id="arrowleft" xlink:href="#arrowLeft" x="0" y="0" onmousedown="handlePan(-1,0)"/>
</g>
<svg viewBox="0 0 15 15" width="100%" height="30px" preserveAspectRatio="xMaxYMin meet">
 <g id="arrow_out" transform="scale(0.3 0.3)">
  <a xlink:href="classExpr__inherit__graph_org.svg" target="_base">
   <rect id="button" ry="5" rx="5" y="6" x="6" height="38" width="38"
        fill="#f2f5e9" fill-opacity="0.5" stroke="#606060" stroke-width="1.0"/>
   <path id="arrow"
     d="M 11.500037,31.436501 C 11.940474,20.09759 22.043105,11.32322 32.158766,21.979434 L 37.068811,17.246167 C 37.068811,17.246167 37.088388,32 37.088388,32 L 22.160133,31.978069 C 22.160133,31.978069 26.997745,27.140456 26.997745,27.140456 C 18.528582,18.264221 13.291696,25.230495 11.500037,31.436501 z"
     style="fill:#404040;"/>
  </a>
 </g>
</svg>

<style type='text/css'>
<![CDATA[
[data-mouse-over-selected='false'] { opacity: 0.7; }
[data-mouse-over-selected='true']  { opacity: 1.0; }
]]>
</style>
<script type="application/ecmascript"><![CDATA[
document.addEventListener('DOMContentLoaded', (event) => {
  highlightEdges();
  highlightAdjacentNodes();
});
]]></script>
</svg>
