<?xml version="1.0" encoding="UTF-8" standalone="no"?>
<!DOCTYPE svg PUBLIC "-//W3C//DTD SVG 1.1//EN"
 "http://www.w3.org/Graphics/SVG/1.1/DTD/svg11.dtd">
<!-- Generated by graphviz version 2.43.0 (0)
 -->
<!-- Title: While Pages: 1 -->
<svg width="200pt" height="213pt"
 viewBox="0.00 0.00 200.00 213.00" xmlns="http://www.w3.org/2000/svg" xmlns:xlink="http://www.w3.org/1999/xlink">
<g id="graph0" class="graph" transform="scale(1 1) rotate(0) translate(4 209)">
<title>While</title>
<!-- Node1 -->
<g id="Node000001" class="node">
<title>Node1</title>
<g id="a_Node000001"><a xlink:title=" ">
<polygon fill="#999999" stroke="transparent" points="128,-109 37,-109 37,0 128,0 128,-109"/>
<text text-anchor="start" x="69" y="-96.5" font-family="Helvetica,sans-Serif" font-size="10.00">While</text>
<text text-anchor="start" x="44" y="-81.5" font-family="Helvetica,sans-Serif" font-size="10.00">&#45;</text>
<text text-anchor="start" x="54.5" y="-81.5" font-family="Helvetica,sans-Serif" font-size="10.00">condition</text>
<text text-anchor="start" x="44" y="-66.5" font-family="Helvetica,sans-Serif" font-size="10.00">&#45;</text>
<text text-anchor="start" x="54.5" y="-66.5" font-family="Helvetica,sans-Serif" font-size="10.00">body</text>
<text text-anchor="start" x="41.5" y="-51.5" font-family="Helvetica,sans-Serif" font-size="10.00">+</text>
<text text-anchor="start" x="54.5" y="-51.5" font-family="Helvetica,sans-Serif" font-size="10.00">While()</text>
<text text-anchor="start" x="41.5" y="-36.5" font-family="Helvetica,sans-Serif" font-size="10.00">+</text>
<text text-anchor="start" x="54.5" y="-36.5" font-family="Helvetica,sans-Serif" font-size="10.00">accept()</text>
<text text-anchor="start" x="41.5" y="-21.5" font-family="Helvetica,sans-Serif" font-size="10.00">+</text>
<text text-anchor="start" x="54.5" y="-21.5" font-family="Helvetica,sans-Serif" font-size="10.00">getCondition()</text>
<text text-anchor="start" x="41.5" y="-6.5" font-family="Helvetica,sans-Serif" font-size="10.00">+</text>
<text text-anchor="start" x="54.5" y="-6.5" font-family="Helvetica,sans-Serif" font-size="10.00">getBody()</text>
<polygon fill="#666666" stroke="#666666" points="37.5,-91.5 37.5,-91.5 128.5,-91.5 128.5,-91.5 37.5,-91.5"/>
<polygon fill="#666666" stroke="#666666" points="37.5,-61.5 37.5,-61.5 52.5,-61.5 52.5,-61.5 37.5,-61.5"/>
<polygon fill="#666666" stroke="#666666" points="52.5,-61.5 52.5,-61.5 128.5,-61.5 128.5,-61.5 52.5,-61.5"/>
<polygon fill="none" stroke="#666666" points="37,0 37,-109 128,-109 128,0 37,0"/>
</a>
</g>
</g>
<!-- Node2 -->
<g id="Node000002" class="node">
<title>Node2</title>
<g id="a_Node000002"><a xlink:href="classStmt.html" target="_top" xlink:title="Abstract base class for statements.">
<polygon fill="white" stroke="transparent" points="61,-199.5 0,-199.5 0,-150.5 61,-150.5 61,-199.5"/>
<text text-anchor="start" x="19" y="-187" font-family="Helvetica,sans-Serif" font-size="10.00">Stmt</text>
<text text-anchor="start" x="29" y="-172" font-family="Helvetica,sans-Serif" font-size="10.00"> </text>
<text text-anchor="start" x="4.5" y="-157" font-family="Helvetica,sans-Serif" font-size="10.00">+</text>
<text text-anchor="start" x="17.5" y="-157" font-family="Helvetica,sans-Serif" font-size="10.00">accept()</text>
<polygon fill="#666666" stroke="#666666" points="0.5,-182 0.5,-182 61.5,-182 61.5,-182 0.5,-182"/>
<polygon fill="#666666" stroke="#666666" points="0.5,-167 0.5,-167 61.5,-167 61.5,-167 0.5,-167"/>
<polygon fill="none" stroke="#666666" points="0,-150.5 0,-199.5 61,-199.5 61,-150.5 0,-150.5"/>
</a>
</g>
</g>
<!-- Node2&#45;&gt;Node1 -->
<g id="edge1_Node000001_Node000002" class="edge">
<title>Node2&#45;&gt;Node1</title>
<g id="a_edge1_Node000001_Node000002"><a xlink:title=" ">
<path fill="none" stroke="#63b8ff" d="M45.04,-140.88C49.37,-130.99 54.25,-119.89 59.01,-109.04"/>
<polygon fill="none" stroke="#63b8ff" points="41.71,-139.74 40.9,-150.3 48.12,-142.55 41.71,-139.74"/>
</a>
</g>
</g>
<!-- Node3 -->
<g id="Node000003" class="node">
<title>Node3</title>
<g id="a_Node000003"><a xlink:title=" ">
<polygon fill="white" stroke="transparent" points="192,-205 79,-205 79,-145 192,-145 192,-205"/>
<text text-anchor="start" x="84.5" y="-193" font-family="Helvetica,sans-Serif" font-size="10.00">std::enable_shared</text>
<text text-anchor="start" x="84.5" y="-182" font-family="Helvetica,sans-Serif" font-size="10.00">_from_this&lt; While &gt;</text>
<text text-anchor="start" x="134" y="-167" font-family="Helvetica,sans-Serif" font-size="10.00"> </text>
<text text-anchor="start" x="134" y="-152" font-family="Helvetica,sans-Serif" font-size="10.00"> </text>
<polygon fill="#666666" stroke="#666666" points="79.5,-177 79.5,-177 192.5,-177 192.5,-177 79.5,-177"/>
<polygon fill="#666666" stroke="#666666" points="79.5,-162 79.5,-162 192.5,-162 192.5,-162 79.5,-162"/>
<polygon fill="none" stroke="#666666" points="79,-145 79,-205 192,-205 192,-145 79,-145"/>
</a>
</g>
</g>
<!-- Node3&#45;&gt;Node1 -->
<g id="edge2_Node000001_Node000003" class="edge">
<title>Node3&#45;&gt;Node1</title>
<g id="a_edge2_Node000001_Node000003"><a xlink:title=" ">
<path fill="none" stroke="#63b8ff" d="M118.2,-135.31C114.49,-127.03 110.52,-118.14 106.61,-109.4"/>
<polygon fill="none" stroke="#63b8ff" points="115.12,-137.01 122.4,-144.71 121.51,-134.15 115.12,-137.01"/>
</a>
</g>
</g>
</g>
</svg>
