<?xml version="1.0" encoding="UTF-8" standalone="no"?>
<!DOCTYPE svg PUBLIC "-//W3C//DTD SVG 1.1//EN"
 "http://www.w3.org/Graphics/SVG/1.1/DTD/svg11.dtd">
<!-- Generated by graphviz version 2.43.0 (0)
 -->
<!-- Title: Variable Pages: 1 -->
<svg width="212pt" height="183pt"
 viewBox="0.00 0.00 212.00 183.00" xmlns="http://www.w3.org/2000/svg" xmlns:xlink="http://www.w3.org/1999/xlink">
<g id="graph0" class="graph" transform="scale(1 1) rotate(0) translate(4 179)">
<title>Variable</title>
<!-- Node1 -->
<g id="Node000001" class="node">
<title>Node1</title>
<g id="a_Node000001"><a xlink:title="Class representing a variable expression.">
<polygon fill="#999999" stroke="transparent" points="122.5,-79 48.5,-79 48.5,0 122.5,0 122.5,-79"/>
<text text-anchor="start" x="65.5" y="-66.5" font-family="Helvetica,sans-Serif" font-size="10.00">Variable</text>
<text text-anchor="start" x="55" y="-51.5" font-family="Helvetica,sans-Serif" font-size="10.00">&#45;</text>
<text text-anchor="start" x="65.5" y="-51.5" font-family="Helvetica,sans-Serif" font-size="10.00">name</text>
<text text-anchor="start" x="52.5" y="-36.5" font-family="Helvetica,sans-Serif" font-size="10.00">+</text>
<text text-anchor="start" x="65.5" y="-36.5" font-family="Helvetica,sans-Serif" font-size="10.00">Variable()</text>
<text text-anchor="start" x="52.5" y="-21.5" font-family="Helvetica,sans-Serif" font-size="10.00">+</text>
<text text-anchor="start" x="65.5" y="-21.5" font-family="Helvetica,sans-Serif" font-size="10.00">accept()</text>
<text text-anchor="start" x="52.5" y="-6.5" font-family="Helvetica,sans-Serif" font-size="10.00">+</text>
<text text-anchor="start" x="65.5" y="-6.5" font-family="Helvetica,sans-Serif" font-size="10.00">getName()</text>
<polygon fill="#666666" stroke="#666666" points="48.5,-61.5 48.5,-61.5 122.5,-61.5 122.5,-61.5 48.5,-61.5"/>
<polygon fill="#666666" stroke="#666666" points="48.5,-46.5 48.5,-46.5 63.5,-46.5 63.5,-46.5 48.5,-46.5"/>
<polygon fill="#666666" stroke="#666666" points="63.5,-46.5 63.5,-46.5 122.5,-46.5 122.5,-46.5 63.5,-46.5"/>
<polygon fill="none" stroke="#666666" points="48.5,0 48.5,-79 122.5,-79 122.5,0 48.5,0"/>
</a>
</g>
</g>
<!-- Node2 -->
<g id="Node000002" class="node">
<title>Node2</title>
<g id="a_Node000002"><a xlink:href="classExpr.html" target="_top" xlink:title="Abstract base class for expressions.">
<polygon fill="white" stroke="transparent" points="61,-169.5 0,-169.5 0,-120.5 61,-120.5 61,-169.5"/>
<text text-anchor="start" x="20" y="-157" font-family="Helvetica,sans-Serif" font-size="10.00">Expr</text>
<text text-anchor="start" x="29" y="-142" font-family="Helvetica,sans-Serif" font-size="10.00"> </text>
<text text-anchor="start" x="4.5" y="-127" font-family="Helvetica,sans-Serif" font-size="10.00">+</text>
<text text-anchor="start" x="17.5" y="-127" font-family="Helvetica,sans-Serif" font-size="10.00">accept()</text>
<polygon fill="#666666" stroke="#666666" points="0.5,-152 0.5,-152 61.5,-152 61.5,-152 0.5,-152"/>
<polygon fill="#666666" stroke="#666666" points="0.5,-137 0.5,-137 61.5,-137 61.5,-137 0.5,-137"/>
<polygon fill="none" stroke="#666666" points="0,-120.5 0,-169.5 61,-169.5 61,-120.5 0,-120.5"/>
</a>
</g>
</g>
<!-- Node2&#45;&gt;Node1 -->
<g id="edge1_Node000001_Node000002" class="edge">
<title>Node2&#45;&gt;Node1</title>
<g id="a_edge1_Node000001_Node000002"><a xlink:title=" ">
<path fill="none" stroke="#63b8ff" d="M47.9,-111.26C53.32,-101.06 59.35,-89.71 64.97,-79.14"/>
<polygon fill="none" stroke="#63b8ff" points="44.72,-109.78 43.12,-120.26 50.9,-113.07 44.72,-109.78"/>
</a>
</g>
</g>
<!-- Node3 -->
<g id="Node000003" class="node">
<title>Node3</title>
<g id="a_Node000003"><a xlink:title=" ">
<polygon fill="white" stroke="transparent" points="204,-175 79,-175 79,-115 204,-115 204,-175"/>
<text text-anchor="start" x="84.5" y="-163" font-family="Helvetica,sans-Serif" font-size="10.00">std::enable_shared</text>
<text text-anchor="start" x="84.5" y="-152" font-family="Helvetica,sans-Serif" font-size="10.00">_from_this&lt; Variable &gt;</text>
<text text-anchor="start" x="140" y="-137" font-family="Helvetica,sans-Serif" font-size="10.00"> </text>
<text text-anchor="start" x="140" y="-122" font-family="Helvetica,sans-Serif" font-size="10.00"> </text>
<polygon fill="#666666" stroke="#666666" points="79.5,-147 79.5,-147 204.5,-147 204.5,-147 79.5,-147"/>
<polygon fill="#666666" stroke="#666666" points="79.5,-132 79.5,-132 204.5,-132 204.5,-132 79.5,-132"/>
<polygon fill="none" stroke="#666666" points="79,-115 79,-175 204,-175 204,-115 79,-115"/>
</a>
</g>
</g>
<!-- Node3&#45;&gt;Node1 -->
<g id="edge2_Node000001_Node000003" class="edge">
<title>Node3&#45;&gt;Node1</title>
<g id="a_edge2_Node000001_Node000003"><a xlink:title=" ">
<path fill="none" stroke="#63b8ff" d="M120.94,-105.99C116.18,-97.21 111.12,-87.85 106.36,-79.05"/>
<polygon fill="none" stroke="#63b8ff" points="117.91,-107.76 125.75,-114.89 124.07,-104.43 117.91,-107.76"/>
</a>
</g>
</g>
</g>
</svg>
