<?xml version="1.0" encoding="UTF-8" standalone="no"?>
<!DOCTYPE svg PUBLIC "-//W3C//DTD SVG 1.1//EN"
 "http://www.w3.org/Graphics/SVG/1.1/DTD/svg11.dtd">
<!-- Generated by graphviz version 2.43.0 (0)
 -->
<!-- Title: Logical Pages: 1 -->
<svg width="472pt" height="492pt"
 viewBox="0.00 0.00 472.00 492.00" xmlns="http://www.w3.org/2000/svg" xmlns:xlink="http://www.w3.org/1999/xlink">
<g id="graph0" class="graph" transform="scale(1 1) rotate(0) translate(4 488)">
<title>Logical</title>
<!-- Node1 -->
<g id="Node000001" class="node">
<title>Node1</title>
<g id="a_Node000001"><a xlink:title="Class representing a logical expression.">
<polygon fill="#999999" stroke="transparent" points="240.5,-109 170.5,-109 170.5,0 240.5,0 240.5,-109"/>
<text text-anchor="start" x="188" y="-96.5" font-family="Helvetica,sans-Serif" font-size="10.00">Logical</text>
<text text-anchor="start" x="203.5" y="-81.5" font-family="Helvetica,sans-Serif" font-size="10.00"> </text>
<text text-anchor="start" x="174.5" y="-66.5" font-family="Helvetica,sans-Serif" font-size="10.00">+</text>
<text text-anchor="start" x="187.5" y="-66.5" font-family="Helvetica,sans-Serif" font-size="10.00">Logical()</text>
<text text-anchor="start" x="174.5" y="-51.5" font-family="Helvetica,sans-Serif" font-size="10.00">+</text>
<text text-anchor="start" x="187.5" y="-51.5" font-family="Helvetica,sans-Serif" font-size="10.00">accept()</text>
<text text-anchor="start" x="174.5" y="-36.5" font-family="Helvetica,sans-Serif" font-size="10.00">+</text>
<text text-anchor="start" x="187.5" y="-36.5" font-family="Helvetica,sans-Serif" font-size="10.00">getLeft()</text>
<text text-anchor="start" x="174.5" y="-21.5" font-family="Helvetica,sans-Serif" font-size="10.00">+</text>
<text text-anchor="start" x="187.5" y="-21.5" font-family="Helvetica,sans-Serif" font-size="10.00">getRight()</text>
<text text-anchor="start" x="174.5" y="-6.5" font-family="Helvetica,sans-Serif" font-size="10.00">+</text>
<text text-anchor="start" x="187.5" y="-6.5" font-family="Helvetica,sans-Serif" font-size="10.00">getOp()</text>
<polygon fill="#666666" stroke="#666666" points="170.5,-91.5 170.5,-91.5 240.5,-91.5 240.5,-91.5 170.5,-91.5"/>
<polygon fill="#666666" stroke="#666666" points="170.5,-76.5 170.5,-76.5 240.5,-76.5 240.5,-76.5 170.5,-76.5"/>
<polygon fill="none" stroke="#666666" points="170.5,0 170.5,-109 240.5,-109 240.5,0 170.5,0"/>
</a>
</g>
</g>
<!-- Node2 -->
<g id="Node000002" class="node">
<title>Node2</title>
<g id="a_Node000002"><a xlink:href="classExpr.html" target="_top" xlink:title="Abstract base class for expressions.">
<polygon fill="white" stroke="transparent" points="61,-387 0,-387 0,-338 61,-338 61,-387"/>
<text text-anchor="start" x="20" y="-374.5" font-family="Helvetica,sans-Serif" font-size="10.00">Expr</text>
<text text-anchor="start" x="29" y="-359.5" font-family="Helvetica,sans-Serif" font-size="10.00"> </text>
<text text-anchor="start" x="4.5" y="-344.5" font-family="Helvetica,sans-Serif" font-size="10.00">+</text>
<text text-anchor="start" x="17.5" y="-344.5" font-family="Helvetica,sans-Serif" font-size="10.00">accept()</text>
<polygon fill="#666666" stroke="#666666" points="0.5,-369.5 0.5,-369.5 61.5,-369.5 61.5,-369.5 0.5,-369.5"/>
<polygon fill="#666666" stroke="#666666" points="0.5,-354.5 0.5,-354.5 61.5,-354.5 61.5,-354.5 0.5,-354.5"/>
<polygon fill="none" stroke="#666666" points="0,-338 0,-387 61,-387 61,-338 0,-338"/>
</a>
</g>
</g>
<!-- Node2&#45;&gt;Node1 -->
<g id="edge1_Node000001_Node000002" class="edge">
<title>Node2&#45;&gt;Node1</title>
<g id="a_edge1_Node000001_Node000002"><a xlink:title=" ">
<path fill="none" stroke="#63b8ff" d="M20.2,-328.12C9.67,-287.32 -1.54,-217.5 26.5,-167 57.07,-111.94 127.36,-80.54 170.2,-65.85"/>
<polygon fill="none" stroke="#63b8ff" points="16.84,-329.1 22.84,-337.83 23.59,-327.27 16.84,-329.1"/>
</a>
</g>
</g>
<!-- Node4 -->
<g id="Node000004" class="node">
<title>Node4</title>
<g id="a_Node000004"><a xlink:title=" ">
<polygon fill="white" stroke="transparent" points="163.5,-253.5 35.5,-253.5 35.5,-204.5 163.5,-204.5 163.5,-253.5"/>
<text text-anchor="start" x="40.5" y="-241" font-family="Helvetica,sans-Serif" font-size="10.00">std::shared_ptr&lt; Expr &gt;</text>
<text text-anchor="start" x="97.5" y="-226" font-family="Helvetica,sans-Serif" font-size="10.00"> </text>
<text text-anchor="start" x="51" y="-211" font-family="Helvetica,sans-Serif" font-size="10.00">+</text>
<text text-anchor="start" x="75.5" y="-211" font-family="Helvetica,sans-Serif" font-size="10.00">operator&#45;&gt;()</text>
<polygon fill="#666666" stroke="#666666" points="35.5,-236 35.5,-236 163.5,-236 163.5,-236 35.5,-236"/>
<polygon fill="#666666" stroke="#666666" points="35.5,-221 35.5,-221 163.5,-221 163.5,-221 35.5,-221"/>
<polygon fill="none" stroke="#666666" points="35.5,-204.5 35.5,-253.5 163.5,-253.5 163.5,-204.5 35.5,-204.5"/>
</a>
</g>
</g>
<!-- Node2&#45;&gt;Node4 -->
<g id="edge4_Node000004_Node000002" class="edge">
<title>Node2&#45;&gt;Node4</title>
<g id="a_edge4_Node000004_Node000002"><a xlink:title=" ">
<path fill="none" stroke="#63b8ff" d="M42.84,-337.99C53.56,-317.55 69.25,-287.66 81.4,-264.5"/>
<polygon fill="none" stroke="#63b8ff" points="81.46,-264.38 80.71,-257.2 87.04,-253.75 87.79,-260.92 81.46,-264.38"/>
</a>
</g>
<text text-anchor="middle" x="70" y="-312" font-family="Helvetica,sans-Serif" font-size="10.00" fill="grey"> +ptr</text>
</g>
<!-- Node3 -->
<g id="Node000003" class="node">
<title>Node3</title>
<g id="a_Node000003"><a xlink:title=" ">
<polygon fill="white" stroke="transparent" points="301,-259 182,-259 182,-199 301,-199 301,-259"/>
<text text-anchor="start" x="187.5" y="-247" font-family="Helvetica,sans-Serif" font-size="10.00">std::enable_shared</text>
<text text-anchor="start" x="187.5" y="-236" font-family="Helvetica,sans-Serif" font-size="10.00">_from_this&lt; Logical &gt;</text>
<text text-anchor="start" x="240" y="-221" font-family="Helvetica,sans-Serif" font-size="10.00"> </text>
<text text-anchor="start" x="240" y="-206" font-family="Helvetica,sans-Serif" font-size="10.00"> </text>
<polygon fill="#666666" stroke="#666666" points="182.5,-231 182.5,-231 301.5,-231 301.5,-231 182.5,-231"/>
<polygon fill="#666666" stroke="#666666" points="182.5,-216 182.5,-216 301.5,-216 301.5,-216 182.5,-216"/>
<polygon fill="none" stroke="#666666" points="182,-199 182,-259 301,-259 301,-199 182,-199"/>
</a>
</g>
</g>
<!-- Node3&#45;&gt;Node1 -->
<g id="edge2_Node000001_Node000003" class="edge">
<title>Node3&#45;&gt;Node1</title>
<g id="a_edge2_Node000001_Node000003"><a xlink:title=" ">
<path fill="none" stroke="#63b8ff" d="M233.31,-188.74C228.38,-165.14 222.05,-134.79 216.67,-109.01"/>
<polygon fill="none" stroke="#63b8ff" points="229.92,-189.66 235.39,-198.74 236.78,-188.23 229.92,-189.66"/>
</a>
</g>
</g>
<!-- Node4&#45;&gt;Node1 -->
<g id="edge3_Node000001_Node000004" class="edge">
<title>Node4&#45;&gt;Node1</title>
<g id="a_edge3_Node000001_Node000004"><a xlink:title=" ">
<path fill="none" stroke="#63b8ff" d="M114.02,-204.38C127.41,-182.59 147.91,-149.22 166.11,-119.6"/>
<polygon fill="none" stroke="#63b8ff" points="166.16,-119.53 165.89,-112.32 172.44,-109.3 172.7,-116.51 166.16,-119.53"/>
</a>
</g>
<text text-anchor="middle" x="173" y="-141" font-family="Helvetica,sans-Serif" font-size="10.00" fill="grey"> &#45;left</text>
<text text-anchor="middle" x="173" y="-130" font-family="Helvetica,sans-Serif" font-size="10.00" fill="grey">&#45;right</text>
</g>
<!-- Node5 -->
<g id="Node000005" class="node">
<title>Node5</title>
<g id="a_Node000005"><a xlink:href="classToken.html" target="_top" xlink:title="Represents a token in the source code.">
<polygon fill="white" stroke="transparent" points="402,-291 319,-291 319,-167 402,-167 402,-291"/>
<text text-anchor="start" x="347" y="-279" font-family="Helvetica,sans-Serif" font-size="10.00">Token</text>
<text text-anchor="start" x="359" y="-264" font-family="Helvetica,sans-Serif" font-size="10.00"> </text>
<text text-anchor="start" x="323.5" y="-249" font-family="Helvetica,sans-Serif" font-size="10.00">+</text>
<text text-anchor="start" x="336.5" y="-249" font-family="Helvetica,sans-Serif" font-size="10.00">Token()</text>
<text text-anchor="start" x="323.5" y="-234" font-family="Helvetica,sans-Serif" font-size="10.00">+</text>
<text text-anchor="start" x="336.5" y="-234" font-family="Helvetica,sans-Serif" font-size="10.00">getType()</text>
<text text-anchor="start" x="323.5" y="-219" font-family="Helvetica,sans-Serif" font-size="10.00">+</text>
<text text-anchor="start" x="336.5" y="-219" font-family="Helvetica,sans-Serif" font-size="10.00">getLexeme()</text>
<text text-anchor="start" x="323.5" y="-204" font-family="Helvetica,sans-Serif" font-size="10.00">+</text>
<text text-anchor="start" x="336.5" y="-204" font-family="Helvetica,sans-Serif" font-size="10.00">getLiteral()</text>
<text text-anchor="start" x="323.5" y="-189" font-family="Helvetica,sans-Serif" font-size="10.00">+</text>
<text text-anchor="start" x="336.5" y="-189" font-family="Helvetica,sans-Serif" font-size="10.00">getLine()</text>
<text text-anchor="start" x="323.5" y="-174" font-family="Helvetica,sans-Serif" font-size="10.00">+</text>
<text text-anchor="start" x="336.5" y="-174" font-family="Helvetica,sans-Serif" font-size="10.00">toString()</text>
<polygon fill="#666666" stroke="#666666" points="319.5,-274 319.5,-274 402.5,-274 402.5,-274 319.5,-274"/>
<polygon fill="#666666" stroke="#666666" points="319.5,-259 319.5,-259 402.5,-259 402.5,-259 319.5,-259"/>
<polygon fill="none" stroke="#666666" points="319,-167 319,-291 402,-291 402,-167 319,-167"/>
</a>
</g>
</g>
<!-- Node5&#45;&gt;Node1 -->
<g id="edge5_Node000001_Node000005" class="edge">
<title>Node5&#45;&gt;Node1</title>
<g id="a_edge5_Node000001_Node000005"><a xlink:title=" ">
<path fill="none" stroke="#63b8ff" d="M318.97,-177.88C315.79,-174.18 312.61,-170.52 309.5,-167 290.05,-144.98 267.91,-121.09 249.08,-101.1"/>
<polygon fill="none" stroke="#63b8ff" points="248.92,-100.93 241.89,-99.31 240.68,-92.2 247.71,-93.82 248.92,-100.93"/>
</a>
</g>
<text text-anchor="middle" x="303" y="-135.5" font-family="Helvetica,sans-Serif" font-size="10.00" fill="grey"> &#45;op</text>
</g>
<!-- Node6 -->
<g id="Node000006" class="node">
<title>Node6</title>
<g id="a_Node000006"><a xlink:title=" ">
<polygon fill="white" stroke="transparent" points="281.5,-387 191.5,-387 191.5,-338 281.5,-338 281.5,-387"/>
<text text-anchor="start" x="196.5" y="-374.5" font-family="Helvetica,sans-Serif" font-size="10.00">const TokenType</text>
<text text-anchor="start" x="234.5" y="-359.5" font-family="Helvetica,sans-Serif" font-size="10.00"> </text>
<text text-anchor="start" x="234.5" y="-344.5" font-family="Helvetica,sans-Serif" font-size="10.00"> </text>
<polygon fill="#666666" stroke="#666666" points="191.5,-369.5 191.5,-369.5 281.5,-369.5 281.5,-369.5 191.5,-369.5"/>
<polygon fill="#666666" stroke="#666666" points="191.5,-354.5 191.5,-354.5 281.5,-354.5 281.5,-354.5 191.5,-354.5"/>
<polygon fill="none" stroke="#666666" points="191.5,-338 191.5,-387 281.5,-387 281.5,-338 191.5,-338"/>
</a>
</g>
</g>
<!-- Node6&#45;&gt;Node5 -->
<g id="edge6_Node000005_Node000006" class="edge">
<title>Node6&#45;&gt;Node5</title>
<g id="a_edge6_Node000005_Node000006"><a xlink:title=" ">
<path fill="none" stroke="#63b8ff" d="M262.15,-338C276.45,-324.58 294.37,-307.25 309.5,-291 309.89,-290.58 310.28,-290.16 310.67,-289.74"/>
<polygon fill="none" stroke="#63b8ff" points="310.85,-289.54 311.9,-282.4 318.89,-280.63 317.84,-287.76 310.85,-289.54"/>
</a>
</g>
<text text-anchor="middle" x="307" y="-312" font-family="Helvetica,sans-Serif" font-size="10.00" fill="grey"> &#45;type</text>
</g>
<!-- Node7 -->
<g id="Node000007" class="node">
<title>Node7</title>
<g id="a_Node000007"><a xlink:title=" ">
<polygon fill="white" stroke="transparent" points="359,-387 300,-387 300,-338 359,-338 359,-387"/>
<text text-anchor="start" x="305.5" y="-374.5" font-family="Helvetica,sans-Serif" font-size="10.00">std::string</text>
<text text-anchor="start" x="328" y="-359.5" font-family="Helvetica,sans-Serif" font-size="10.00"> </text>
<text text-anchor="start" x="328" y="-344.5" font-family="Helvetica,sans-Serif" font-size="10.00"> </text>
<polygon fill="#666666" stroke="#666666" points="300.5,-369.5 300.5,-369.5 359.5,-369.5 359.5,-369.5 300.5,-369.5"/>
<polygon fill="#666666" stroke="#666666" points="300.5,-354.5 300.5,-354.5 359.5,-354.5 359.5,-354.5 300.5,-354.5"/>
<polygon fill="none" stroke="#666666" points="300,-338 300,-387 359,-387 359,-338 300,-338"/>
</a>
</g>
</g>
<!-- Node7&#45;&gt;Node5 -->
<g id="edge7_Node000005_Node000007" class="edge">
<title>Node7&#45;&gt;Node5</title>
<g id="a_edge7_Node000005_Node000007"><a xlink:title=" ">
<path fill="none" stroke="#63b8ff" d="M328.83,-337.8C328.69,-331.98 328.57,-325.77 328.5,-320 328.44,-315.11 327.57,-313.8 328.5,-309 328.89,-307 329.33,-304.99 329.81,-302.98"/>
<polygon fill="none" stroke="#63b8ff" points="329.81,-302.97 327.56,-296.12 333.02,-291.41 335.27,-298.26 329.81,-302.97"/>
</a>
</g>
<text text-anchor="middle" x="350" y="-312" font-family="Helvetica,sans-Serif" font-size="10.00" fill="grey"> &#45;lexeme</text>
</g>
<!-- Node8 -->
<g id="Node000008" class="node">
<title>Node8</title>
<g id="a_Node000008"><a xlink:title=" ">
<polygon fill="white" stroke="transparent" points="378.5,-484 280.5,-484 280.5,-424 378.5,-424 378.5,-484"/>
<text text-anchor="start" x="285.5" y="-472" font-family="Helvetica,sans-Serif" font-size="10.00">std::basic_string&lt;</text>
<text text-anchor="start" x="311" y="-461" font-family="Helvetica,sans-Serif" font-size="10.00"> Char &gt;</text>
<text text-anchor="start" x="327.5" y="-446" font-family="Helvetica,sans-Serif" font-size="10.00"> </text>
<text text-anchor="start" x="327.5" y="-431" font-family="Helvetica,sans-Serif" font-size="10.00"> </text>
<polygon fill="#666666" stroke="#666666" points="280.5,-456 280.5,-456 378.5,-456 378.5,-456 280.5,-456"/>
<polygon fill="#666666" stroke="#666666" points="280.5,-441 280.5,-441 378.5,-441 378.5,-441 280.5,-441"/>
<polygon fill="none" stroke="#666666" points="280.5,-424 280.5,-484 378.5,-484 378.5,-424 280.5,-424"/>
</a>
</g>
</g>
<!-- Node8&#45;&gt;Node7 -->
<g id="edge8_Node000007_Node000008" class="edge">
<title>Node8&#45;&gt;Node7</title>
<g id="a_edge8_Node000007_Node000008"><a xlink:title=" ">
<path fill="none" stroke="#63b8ff" d="M329.5,-413.41C329.5,-404.47 329.5,-395.25 329.5,-387.21"/>
<polygon fill="none" stroke="#63b8ff" points="326,-413.69 329.5,-423.69 333,-413.69 326,-413.69"/>
</a>
</g>
</g>
<!-- Node9 -->
<g id="Node000009" class="node">
<title>Node9</title>
<g id="a_Node000009"><a xlink:title=" ">
<polygon fill="white" stroke="transparent" points="408,-387 379,-387 379,-338 408,-338 408,-387"/>
<text text-anchor="start" x="384.5" y="-374.5" font-family="Helvetica,sans-Serif" font-size="10.00">any</text>
<text text-anchor="start" x="392" y="-359.5" font-family="Helvetica,sans-Serif" font-size="10.00"> </text>
<text text-anchor="start" x="392" y="-344.5" font-family="Helvetica,sans-Serif" font-size="10.00"> </text>
<polygon fill="#666666" stroke="#666666" points="379.5,-369.5 379.5,-369.5 408.5,-369.5 408.5,-369.5 379.5,-369.5"/>
<polygon fill="#666666" stroke="#666666" points="379.5,-354.5 379.5,-354.5 408.5,-354.5 408.5,-354.5 379.5,-354.5"/>
<polygon fill="none" stroke="#666666" points="379,-338 379,-387 408,-387 408,-338 379,-338"/>
</a>
</g>
</g>
<!-- Node9&#45;&gt;Node5 -->
<g id="edge9_Node000005_Node000009" class="edge">
<title>Node9&#45;&gt;Node5</title>
<g id="a_edge9_Node000005_Node000009"><a xlink:title=" ">
<path fill="none" stroke="#63b8ff" d="M387.6,-337.99C385.07,-327.92 381.97,-315.56 378.78,-302.85"/>
<polygon fill="none" stroke="#63b8ff" points="378.76,-302.76 373.42,-297.91 375.84,-291.12 381.18,-295.97 378.76,-302.76"/>
</a>
</g>
<text text-anchor="middle" x="401.5" y="-312" font-family="Helvetica,sans-Serif" font-size="10.00" fill="grey"> &#45;literal</text>
</g>
<!-- Node10 -->
<g id="Node000010" class="node">
<title>Node10</title>
<g id="a_Node000010"><a xlink:title=" ">
<polygon fill="white" stroke="transparent" points="464,-387 441,-387 441,-338 464,-338 464,-387"/>
<text text-anchor="start" x="446.5" y="-374.5" font-family="Helvetica,sans-Serif" font-size="10.00">int</text>
<text text-anchor="start" x="451" y="-359.5" font-family="Helvetica,sans-Serif" font-size="10.00"> </text>
<text text-anchor="start" x="451" y="-344.5" font-family="Helvetica,sans-Serif" font-size="10.00"> </text>
<polygon fill="#666666" stroke="#666666" points="441.5,-369.5 441.5,-369.5 464.5,-369.5 464.5,-369.5 441.5,-369.5"/>
<polygon fill="#666666" stroke="#666666" points="441.5,-354.5 441.5,-354.5 464.5,-354.5 464.5,-354.5 441.5,-354.5"/>
<polygon fill="none" stroke="#666666" points="441,-338 441,-387 464,-387 464,-338 441,-338"/>
</a>
</g>
</g>
<!-- Node10&#45;&gt;Node5 -->
<g id="edge10_Node000005_Node000010" class="edge">
<title>Node10&#45;&gt;Node5</title>
<g id="a_edge10_Node000005_Node000010"><a xlink:title=" ">
<path fill="none" stroke="#63b8ff" d="M440.89,-338.52C435.88,-329.16 429.75,-318.35 423.5,-309 419.22,-302.59 414.54,-296.05 409.75,-289.61"/>
<polygon fill="none" stroke="#63b8ff" points="409.41,-289.16 402.59,-286.81 402.14,-279.62 408.95,-281.97 409.41,-289.16"/>
</a>
</g>
<text text-anchor="middle" x="443" y="-312" font-family="Helvetica,sans-Serif" font-size="10.00" fill="grey"> &#45;line</text>
</g>
</g>
</svg>
