<?xml version="1.0" encoding="UTF-8" standalone="no"?>
<!DOCTYPE svg PUBLIC "-//W3C//DTD SVG 1.1//EN"
 "http://www.w3.org/Graphics/SVG/1.1/DTD/svg11.dtd">
<!-- Generated by graphviz version 2.43.0 (0)
 -->
<!-- Title: Assign Pages: 1 -->
<svg width="204pt" height="213pt"
 viewBox="0.00 0.00 204.00 213.00" xmlns="http://www.w3.org/2000/svg" xmlns:xlink="http://www.w3.org/1999/xlink">
<g id="graph0" class="graph" transform="scale(1 1) rotate(0) translate(4 209)">
<title>Assign</title>
<!-- Node1 -->
<g id="Node000001" class="node">
<title>Node1</title>
<g id="a_Node000001"><a xlink:title="Class representing an assignment expression.">
<polygon fill="#999999" stroke="transparent" points="120.5,-109 46.5,-109 46.5,0 120.5,0 120.5,-109"/>
<text text-anchor="start" x="67" y="-96.5" font-family="Helvetica,sans-Serif" font-size="10.00">Assign</text>
<text text-anchor="start" x="53" y="-81.5" font-family="Helvetica,sans-Serif" font-size="10.00">&#45;</text>
<text text-anchor="start" x="63.5" y="-81.5" font-family="Helvetica,sans-Serif" font-size="10.00">name</text>
<text text-anchor="start" x="53" y="-66.5" font-family="Helvetica,sans-Serif" font-size="10.00">&#45;</text>
<text text-anchor="start" x="63.5" y="-66.5" font-family="Helvetica,sans-Serif" font-size="10.00">value</text>
<text text-anchor="start" x="50.5" y="-51.5" font-family="Helvetica,sans-Serif" font-size="10.00">+</text>
<text text-anchor="start" x="63.5" y="-51.5" font-family="Helvetica,sans-Serif" font-size="10.00">Assign()</text>
<text text-anchor="start" x="50.5" y="-36.5" font-family="Helvetica,sans-Serif" font-size="10.00">+</text>
<text text-anchor="start" x="63.5" y="-36.5" font-family="Helvetica,sans-Serif" font-size="10.00">accept()</text>
<text text-anchor="start" x="50.5" y="-21.5" font-family="Helvetica,sans-Serif" font-size="10.00">+</text>
<text text-anchor="start" x="63.5" y="-21.5" font-family="Helvetica,sans-Serif" font-size="10.00">getName()</text>
<text text-anchor="start" x="50.5" y="-6.5" font-family="Helvetica,sans-Serif" font-size="10.00">+</text>
<text text-anchor="start" x="63.5" y="-6.5" font-family="Helvetica,sans-Serif" font-size="10.00">getValue()</text>
<polygon fill="#666666" stroke="#666666" points="46.5,-91.5 46.5,-91.5 120.5,-91.5 120.5,-91.5 46.5,-91.5"/>
<polygon fill="#666666" stroke="#666666" points="46.5,-61.5 46.5,-61.5 61.5,-61.5 61.5,-61.5 46.5,-61.5"/>
<polygon fill="#666666" stroke="#666666" points="61.5,-61.5 61.5,-61.5 120.5,-61.5 120.5,-61.5 61.5,-61.5"/>
<polygon fill="none" stroke="#666666" points="46.5,0 46.5,-109 120.5,-109 120.5,0 46.5,0"/>
</a>
</g>
</g>
<!-- Node2 -->
<g id="Node000002" class="node">
<title>Node2</title>
<g id="a_Node000002"><a xlink:href="classExpr.html" target="_top" xlink:title="Abstract base class for expressions.">
<polygon fill="white" stroke="transparent" points="61,-199.5 0,-199.5 0,-150.5 61,-150.5 61,-199.5"/>
<text text-anchor="start" x="20" y="-187" font-family="Helvetica,sans-Serif" font-size="10.00">Expr</text>
<text text-anchor="start" x="29" y="-172" font-family="Helvetica,sans-Serif" font-size="10.00"> </text>
<text text-anchor="start" x="4.5" y="-157" font-family="Helvetica,sans-Serif" font-size="10.00">+</text>
<text text-anchor="start" x="17.5" y="-157" font-family="Helvetica,sans-Serif" font-size="10.00">accept()</text>
<polygon fill="#666666" stroke="#666666" points="0.5,-182 0.5,-182 61.5,-182 61.5,-182 0.5,-182"/>
<polygon fill="#666666" stroke="#666666" points="0.5,-167 0.5,-167 61.5,-167 61.5,-167 0.5,-167"/>
<polygon fill="none" stroke="#666666" points="0,-150.5 0,-199.5 61,-199.5 61,-150.5 0,-150.5"/>
</a>
</g>
</g>
<!-- Node2&#45;&gt;Node1 -->
<g id="edge1_Node000001_Node000002" class="edge">
<title>Node2&#45;&gt;Node1</title>
<g id="a_edge1_Node000001_Node000002"><a xlink:title=" ">
<path fill="none" stroke="#63b8ff" d="M45.32,-140.88C49.74,-130.99 54.7,-119.89 59.55,-109.04"/>
<polygon fill="none" stroke="#63b8ff" points="41.99,-139.75 41.1,-150.3 48.38,-142.6 41.99,-139.75"/>
</a>
</g>
</g>
<!-- Node3 -->
<g id="Node000003" class="node">
<title>Node3</title>
<g id="a_Node000003"><a xlink:title=" ">
<polygon fill="white" stroke="transparent" points="196,-205 79,-205 79,-145 196,-145 196,-205"/>
<text text-anchor="start" x="84.5" y="-193" font-family="Helvetica,sans-Serif" font-size="10.00">std::enable_shared</text>
<text text-anchor="start" x="84.5" y="-182" font-family="Helvetica,sans-Serif" font-size="10.00">_from_this&lt; Assign &gt;</text>
<text text-anchor="start" x="136" y="-167" font-family="Helvetica,sans-Serif" font-size="10.00"> </text>
<text text-anchor="start" x="136" y="-152" font-family="Helvetica,sans-Serif" font-size="10.00"> </text>
<polygon fill="#666666" stroke="#666666" points="79.5,-177 79.5,-177 196.5,-177 196.5,-177 79.5,-177"/>
<polygon fill="#666666" stroke="#666666" points="79.5,-162 79.5,-162 196.5,-162 196.5,-162 79.5,-162"/>
<polygon fill="none" stroke="#666666" points="79,-145 79,-205 196,-205 196,-145 79,-145"/>
</a>
</g>
</g>
<!-- Node3&#45;&gt;Node1 -->
<g id="edge2_Node000001_Node000003" class="edge">
<title>Node3&#45;&gt;Node1</title>
<g id="a_edge2_Node000001_Node000003"><a xlink:title=" ">
<path fill="none" stroke="#63b8ff" d="M119.99,-135.58C116.19,-127.23 112.09,-118.23 108.06,-109.4"/>
<polygon fill="none" stroke="#63b8ff" points="116.82,-137.06 124.15,-144.71 123.19,-134.16 116.82,-137.06"/>
</a>
</g>
</g>
</g>
</svg>
