<?xml version="1.0" encoding="UTF-8" standalone="no"?>
<!DOCTYPE svg PUBLIC "-//W3C//DTD SVG 1.1//EN"
 "http://www.w3.org/Graphics/SVG/1.1/DTD/svg11.dtd">
<!-- Generated by graphviz version 2.43.0 (0)
 -->
<!-- Title: Interpreter Pages: 1 -->
<svg width="270pt" height="412pt"
 viewBox="0.00 0.00 269.50 412.00" xmlns="http://www.w3.org/2000/svg" xmlns:xlink="http://www.w3.org/1999/xlink">

<svg id="main" version="1.1" xmlns="http://www.w3.org/2000/svg" xmlns:xlink="http://www.w3.org/1999/xlink" xml:space="preserve" onload="init(evt)">
<style type="text/css"><![CDATA[
.node, .edge {opacity: 0.7;}
.node.selected, .edge.selected {opacity: 1;}
.edge:hover path { stroke: red; }
.edge:hover polygon { stroke: red; fill: red; }
]]></style>
<script type="application/ecmascript" xlink:href="svg.min.js"/>
<svg id="graph" class="graph">
<g id="graph0" class="graph" transform="scale(1 1) rotate(0) translate(4 408)">
<title>Interpreter</title>
<!-- Node1 -->
<g id="Node000001" class="node">
<title>Node1</title>
<g id="a_Node000001"><a xlink:title="The Interpreter class evaluates statements and expressions in the GSC.">
<polygon fill="#999999" stroke="transparent" points="186,-214 70,-214 70,0 186,0 186,-214"/>
<text text-anchor="start" x="102" y="-202" font-family="Helvetica,sans-Serif" font-size="10.00">Interpreter</text>
<text text-anchor="start" x="76.5" y="-187" font-family="Helvetica,sans-Serif" font-size="10.00">&#45;</text>
<text text-anchor="start" x="87" y="-187" font-family="Helvetica,sans-Serif" font-size="10.00">environment</text>
<text text-anchor="start" x="74" y="-172" font-family="Helvetica,sans-Serif" font-size="10.00">+</text>
<text text-anchor="start" x="87" y="-172" font-family="Helvetica,sans-Serif" font-size="10.00">interpret()</text>
<text text-anchor="start" x="76.5" y="-157" font-family="Helvetica,sans-Serif" font-size="10.00">&#45;</text>
<text text-anchor="start" x="87" y="-157" font-family="Helvetica,sans-Serif" font-size="10.00">evaluate()</text>
<text text-anchor="start" x="76.5" y="-142" font-family="Helvetica,sans-Serif" font-size="10.00">&#45;</text>
<text text-anchor="start" x="87" y="-142" font-family="Helvetica,sans-Serif" font-size="10.00">execute()</text>
<text text-anchor="start" x="76.5" y="-127" font-family="Helvetica,sans-Serif" font-size="10.00">&#45;</text>
<text text-anchor="start" x="87" y="-127" font-family="Helvetica,sans-Serif" font-size="10.00">executeBlock()</text>
<text text-anchor="start" x="76.5" y="-112" font-family="Helvetica,sans-Serif" font-size="10.00">&#45;</text>
<text text-anchor="start" x="87" y="-112" font-family="Helvetica,sans-Serif" font-size="10.00">visitBinaryExpr()</text>
<text text-anchor="start" x="76.5" y="-97" font-family="Helvetica,sans-Serif" font-size="10.00">&#45;</text>
<text text-anchor="start" x="87" y="-97" font-family="Helvetica,sans-Serif" font-size="10.00">visitLogicalExpr()</text>
<text text-anchor="start" x="76.5" y="-82" font-family="Helvetica,sans-Serif" font-size="10.00">&#45;</text>
<text text-anchor="start" x="87" y="-82" font-family="Helvetica,sans-Serif" font-size="10.00">visitGroupingExpr()</text>
<text text-anchor="start" x="76.5" y="-67" font-family="Helvetica,sans-Serif" font-size="10.00">&#45;</text>
<text text-anchor="start" x="87" y="-67" font-family="Helvetica,sans-Serif" font-size="10.00">visitLiteralExpr()</text>
<text text-anchor="start" x="76.5" y="-52" font-family="Helvetica,sans-Serif" font-size="10.00">&#45;</text>
<text text-anchor="start" x="87" y="-52" font-family="Helvetica,sans-Serif" font-size="10.00">visitUnaryExpr()</text>
<text text-anchor="start" x="76.5" y="-37" font-family="Helvetica,sans-Serif" font-size="10.00">&#45;</text>
<text text-anchor="start" x="87" y="-37" font-family="Helvetica,sans-Serif" font-size="10.00">visitAssignExpr()</text>
<text text-anchor="start" x="76.5" y="-22" font-family="Helvetica,sans-Serif" font-size="10.00">&#45;</text>
<text text-anchor="start" x="87" y="-22" font-family="Helvetica,sans-Serif" font-size="10.00">visitVariableExpr()</text>
<text text-anchor="start" x="87" y="-7" font-family="Helvetica,sans-Serif" font-size="10.00">and 10 more...</text>
<polygon fill="#666666" stroke="#666666" points="70,-197 70,-197 186,-197 186,-197 70,-197"/>
<polygon fill="#666666" stroke="#666666" points="70,-182 70,-182 85,-182 85,-182 70,-182"/>
<polygon fill="#666666" stroke="#666666" points="85,-182 85,-182 186,-182 186,-182 85,-182"/>
<polygon fill="none" stroke="#666666" points="70,0 70,-214 186,-214 186,0 70,0"/>
</a>
</g>
</g>
<!-- Node2 -->
<g id="Node000002" class="node">
<title>Node2</title>
<g id="a_Node000002"><a xlink:href="classExprVisitor.html" target="_top" xlink:title="Abstract base class for expression visitors.">
<polygon fill="white" stroke="transparent" points="116,-404 0,-404 0,-250 116,-250 116,-404"/>
<text text-anchor="start" x="31" y="-392" font-family="Helvetica,sans-Serif" font-size="10.00">ExprVisitor</text>
<text text-anchor="start" x="56" y="-377" font-family="Helvetica,sans-Serif" font-size="10.00"> </text>
<text text-anchor="start" x="4" y="-362" font-family="Helvetica,sans-Serif" font-size="10.00">+</text>
<text text-anchor="start" x="17" y="-362" font-family="Helvetica,sans-Serif" font-size="10.00">visitBinaryExpr()</text>
<text text-anchor="start" x="4" y="-347" font-family="Helvetica,sans-Serif" font-size="10.00">+</text>
<text text-anchor="start" x="17" y="-347" font-family="Helvetica,sans-Serif" font-size="10.00">visitGroupingExpr()</text>
<text text-anchor="start" x="4" y="-332" font-family="Helvetica,sans-Serif" font-size="10.00">+</text>
<text text-anchor="start" x="17" y="-332" font-family="Helvetica,sans-Serif" font-size="10.00">visitLiteralExpr()</text>
<text text-anchor="start" x="4" y="-317" font-family="Helvetica,sans-Serif" font-size="10.00">+</text>
<text text-anchor="start" x="17" y="-317" font-family="Helvetica,sans-Serif" font-size="10.00">visitUnaryExpr()</text>
<text text-anchor="start" x="4" y="-302" font-family="Helvetica,sans-Serif" font-size="10.00">+</text>
<text text-anchor="start" x="17" y="-302" font-family="Helvetica,sans-Serif" font-size="10.00">visitAssignExpr()</text>
<text text-anchor="start" x="4" y="-287" font-family="Helvetica,sans-Serif" font-size="10.00">+</text>
<text text-anchor="start" x="17" y="-287" font-family="Helvetica,sans-Serif" font-size="10.00">visitVariableExpr()</text>
<text text-anchor="start" x="4" y="-272" font-family="Helvetica,sans-Serif" font-size="10.00">+</text>
<text text-anchor="start" x="17" y="-272" font-family="Helvetica,sans-Serif" font-size="10.00">visitLogicalExpr()</text>
<text text-anchor="start" x="4" y="-257" font-family="Helvetica,sans-Serif" font-size="10.00">+</text>
<text text-anchor="start" x="17" y="-257" font-family="Helvetica,sans-Serif" font-size="10.00">~ExprVisitor()</text>
<polygon fill="#666666" stroke="#666666" points="0,-387 0,-387 116,-387 116,-387 0,-387"/>
<polygon fill="#666666" stroke="#666666" points="0,-372 0,-372 116,-372 116,-372 0,-372"/>
<polygon fill="none" stroke="#666666" points="0,-250 0,-404 116,-404 116,-250 0,-250"/>
</a>
</g>
</g>
<!-- Node2&#45;&gt;Node1 -->
<g id="edge1_Node000001_Node000002" class="edge">
<title>Node2&#45;&gt;Node1</title>
<g id="a_edge1_Node000001_Node000002"><a xlink:title=" ">
<path fill="none" stroke="#63b8ff" d="M85.56,-240.18C88.31,-231.61 91.12,-222.84 93.93,-214.1"/>
<polygon fill="none" stroke="#63b8ff" points="82.21,-239.16 82.48,-249.75 88.87,-241.3 82.21,-239.16"/>
</a>
</g>
</g>
<!-- Node3 -->
<g id="Node000003" class="node">
<title>Node3</title>
<g id="a_Node000003"><a xlink:href="classStmtVisitor.html" target="_top" xlink:title="Abstract base class for statement visitors.">
<polygon fill="white" stroke="transparent" points="261.5,-396.5 134.5,-396.5 134.5,-257.5 261.5,-257.5 261.5,-396.5"/>
<text text-anchor="start" x="171" y="-384" font-family="Helvetica,sans-Serif" font-size="10.00">StmtVisitor</text>
<text text-anchor="start" x="196.5" y="-369" font-family="Helvetica,sans-Serif" font-size="10.00"> </text>
<text text-anchor="start" x="139" y="-354" font-family="Helvetica,sans-Serif" font-size="10.00">+</text>
<text text-anchor="start" x="152" y="-354" font-family="Helvetica,sans-Serif" font-size="10.00">visitBlockStmt()</text>
<text text-anchor="start" x="139" y="-339" font-family="Helvetica,sans-Serif" font-size="10.00">+</text>
<text text-anchor="start" x="152" y="-339" font-family="Helvetica,sans-Serif" font-size="10.00">visitExpressionStmt()</text>
<text text-anchor="start" x="139" y="-324" font-family="Helvetica,sans-Serif" font-size="10.00">+</text>
<text text-anchor="start" x="152" y="-324" font-family="Helvetica,sans-Serif" font-size="10.00">visitPrintStmt()</text>
<text text-anchor="start" x="139" y="-309" font-family="Helvetica,sans-Serif" font-size="10.00">+</text>
<text text-anchor="start" x="152" y="-309" font-family="Helvetica,sans-Serif" font-size="10.00">visitVarStmt()</text>
<text text-anchor="start" x="139" y="-294" font-family="Helvetica,sans-Serif" font-size="10.00">+</text>
<text text-anchor="start" x="152" y="-294" font-family="Helvetica,sans-Serif" font-size="10.00">visitIfStmt()</text>
<text text-anchor="start" x="139" y="-279" font-family="Helvetica,sans-Serif" font-size="10.00">+</text>
<text text-anchor="start" x="152" y="-279" font-family="Helvetica,sans-Serif" font-size="10.00">visitWhileStmt()</text>
<text text-anchor="start" x="139" y="-264" font-family="Helvetica,sans-Serif" font-size="10.00">+</text>
<text text-anchor="start" x="152" y="-264" font-family="Helvetica,sans-Serif" font-size="10.00">~StmtVisitor()</text>
<polygon fill="#666666" stroke="#666666" points="135,-379 135,-379 262,-379 262,-379 135,-379"/>
<polygon fill="#666666" stroke="#666666" points="135,-364 135,-364 262,-364 262,-364 135,-364"/>
<polygon fill="none" stroke="#666666" points="134.5,-257.5 134.5,-396.5 261.5,-396.5 261.5,-257.5 134.5,-257.5"/>
</a>
</g>
</g>
<!-- Node3&#45;&gt;Node1 -->
<g id="edge2_Node000001_Node000003" class="edge">
<title>Node3&#45;&gt;Node1</title>
<g id="a_edge2_Node000001_Node000003"><a xlink:title=" ">
<path fill="none" stroke="#63b8ff" d="M172.8,-247.52C169.32,-236.7 165.71,-225.44 162.11,-214.22"/>
<polygon fill="none" stroke="#63b8ff" points="169.56,-248.87 175.95,-257.32 176.22,-246.73 169.56,-248.87"/>
</a>
</g>
</g>
</g>
</svg>
</svg>

<style type='text/css'>
<![CDATA[
[data-mouse-over-selected='false'] { opacity: 0.7; }
[data-mouse-over-selected='true']  { opacity: 1.0; }
]]>
</style>
<script type="application/ecmascript"><![CDATA[
document.addEventListener('DOMContentLoaded', (event) => {
  highlightEdges();
  highlightAdjacentNodes();
});
]]></script>
</svg>
