<?xml version="1.0" encoding="UTF-8" standalone="no"?>
<!DOCTYPE svg PUBLIC "-//W3C//DTD SVG 1.1//EN"
 "http://www.w3.org/Graphics/SVG/1.1/DTD/svg11.dtd">
<!-- Generated by graphviz version 2.43.0 (0)
 -->
<!-- Title: Logical Pages: 1 -->
<svg width="206pt" height="243pt"
 viewBox="0.00 0.00 206.00 243.00" xmlns="http://www.w3.org/2000/svg" xmlns:xlink="http://www.w3.org/1999/xlink">
<g id="graph0" class="graph" transform="scale(1 1) rotate(0) translate(4 239)">
<title>Logical</title>
<!-- Node1 -->
<g id="Node000001" class="node">
<title>Node1</title>
<g id="a_Node000001"><a xlink:title="Class representing a logical expression.">
<polygon fill="#999999" stroke="transparent" points="119.5,-139 49.5,-139 49.5,0 119.5,0 119.5,-139"/>
<text text-anchor="start" x="67" y="-126.5" font-family="Helvetica,sans-Serif" font-size="10.00">Logical</text>
<text text-anchor="start" x="56" y="-111.5" font-family="Helvetica,sans-Serif" font-size="10.00">&#45;</text>
<text text-anchor="start" x="66.5" y="-111.5" font-family="Helvetica,sans-Serif" font-size="10.00">left</text>
<text text-anchor="start" x="56" y="-96.5" font-family="Helvetica,sans-Serif" font-size="10.00">&#45;</text>
<text text-anchor="start" x="66.5" y="-96.5" font-family="Helvetica,sans-Serif" font-size="10.00">op</text>
<text text-anchor="start" x="56" y="-81.5" font-family="Helvetica,sans-Serif" font-size="10.00">&#45;</text>
<text text-anchor="start" x="66.5" y="-81.5" font-family="Helvetica,sans-Serif" font-size="10.00">right</text>
<text text-anchor="start" x="53.5" y="-66.5" font-family="Helvetica,sans-Serif" font-size="10.00">+</text>
<text text-anchor="start" x="66.5" y="-66.5" font-family="Helvetica,sans-Serif" font-size="10.00">Logical()</text>
<text text-anchor="start" x="53.5" y="-51.5" font-family="Helvetica,sans-Serif" font-size="10.00">+</text>
<text text-anchor="start" x="66.5" y="-51.5" font-family="Helvetica,sans-Serif" font-size="10.00">accept()</text>
<text text-anchor="start" x="53.5" y="-36.5" font-family="Helvetica,sans-Serif" font-size="10.00">+</text>
<text text-anchor="start" x="66.5" y="-36.5" font-family="Helvetica,sans-Serif" font-size="10.00">getLeft()</text>
<text text-anchor="start" x="53.5" y="-21.5" font-family="Helvetica,sans-Serif" font-size="10.00">+</text>
<text text-anchor="start" x="66.5" y="-21.5" font-family="Helvetica,sans-Serif" font-size="10.00">getRight()</text>
<text text-anchor="start" x="53.5" y="-6.5" font-family="Helvetica,sans-Serif" font-size="10.00">+</text>
<text text-anchor="start" x="66.5" y="-6.5" font-family="Helvetica,sans-Serif" font-size="10.00">getOp()</text>
<polygon fill="#666666" stroke="#666666" points="49.5,-121.5 49.5,-121.5 119.5,-121.5 119.5,-121.5 49.5,-121.5"/>
<polygon fill="#666666" stroke="#666666" points="49.5,-76.5 49.5,-76.5 64.5,-76.5 64.5,-76.5 49.5,-76.5"/>
<polygon fill="#666666" stroke="#666666" points="64.5,-76.5 64.5,-76.5 119.5,-76.5 119.5,-76.5 64.5,-76.5"/>
<polygon fill="none" stroke="#666666" points="49.5,0 49.5,-139 119.5,-139 119.5,0 49.5,0"/>
</a>
</g>
</g>
<!-- Node2 -->
<g id="Node000002" class="node">
<title>Node2</title>
<g id="a_Node000002"><a xlink:href="classExpr.html" target="_top" xlink:title="Abstract base class for expressions.">
<polygon fill="white" stroke="transparent" points="61,-229.5 0,-229.5 0,-180.5 61,-180.5 61,-229.5"/>
<text text-anchor="start" x="20" y="-217" font-family="Helvetica,sans-Serif" font-size="10.00">Expr</text>
<text text-anchor="start" x="29" y="-202" font-family="Helvetica,sans-Serif" font-size="10.00"> </text>
<text text-anchor="start" x="4.5" y="-187" font-family="Helvetica,sans-Serif" font-size="10.00">+</text>
<text text-anchor="start" x="17.5" y="-187" font-family="Helvetica,sans-Serif" font-size="10.00">accept()</text>
<polygon fill="#666666" stroke="#666666" points="0.5,-212 0.5,-212 61.5,-212 61.5,-212 0.5,-212"/>
<polygon fill="#666666" stroke="#666666" points="0.5,-197 0.5,-197 61.5,-197 61.5,-197 0.5,-197"/>
<polygon fill="none" stroke="#666666" points="0,-180.5 0,-229.5 61,-229.5 61,-180.5 0,-180.5"/>
</a>
</g>
</g>
<!-- Node2&#45;&gt;Node1 -->
<g id="edge1_Node000001_Node000002" class="edge">
<title>Node2&#45;&gt;Node1</title>
<g id="a_edge1_Node000001_Node000002"><a xlink:title=" ">
<path fill="none" stroke="#63b8ff" d="M43.79,-171.15C47.74,-161.37 52.23,-150.27 56.75,-139.1"/>
<polygon fill="none" stroke="#63b8ff" points="40.54,-169.86 40.03,-180.44 47.02,-172.48 40.54,-169.86"/>
</a>
</g>
</g>
<!-- Node3 -->
<g id="Node000003" class="node">
<title>Node3</title>
<g id="a_Node000003"><a xlink:title=" ">
<polygon fill="white" stroke="transparent" points="198,-235 79,-235 79,-175 198,-175 198,-235"/>
<text text-anchor="start" x="84.5" y="-223" font-family="Helvetica,sans-Serif" font-size="10.00">std::enable_shared</text>
<text text-anchor="start" x="84.5" y="-212" font-family="Helvetica,sans-Serif" font-size="10.00">_from_this&lt; Logical &gt;</text>
<text text-anchor="start" x="137" y="-197" font-family="Helvetica,sans-Serif" font-size="10.00"> </text>
<text text-anchor="start" x="137" y="-182" font-family="Helvetica,sans-Serif" font-size="10.00"> </text>
<polygon fill="#666666" stroke="#666666" points="79.5,-207 79.5,-207 198.5,-207 198.5,-207 79.5,-207"/>
<polygon fill="#666666" stroke="#666666" points="79.5,-192 79.5,-192 198.5,-192 198.5,-192 79.5,-192"/>
<polygon fill="none" stroke="#666666" points="79,-175 79,-235 198,-235 198,-175 79,-175"/>
</a>
</g>
</g>
<!-- Node3&#45;&gt;Node1 -->
<g id="edge2_Node000001_Node000003" class="edge">
<title>Node3&#45;&gt;Node1</title>
<g id="a_edge2_Node000001_Node000003"><a xlink:title=" ">
<path fill="none" stroke="#63b8ff" d="M122.87,-165.36C119.53,-157.1 115.9,-148.13 112.26,-139.12"/>
<polygon fill="none" stroke="#63b8ff" points="119.65,-166.74 126.65,-174.7 126.14,-164.12 119.65,-166.74"/>
</a>
</g>
</g>
</g>
</svg>
