<?xml version="1.0" encoding="UTF-8" standalone="no"?>
<!DOCTYPE svg PUBLIC "-//W3C//DTD SVG 1.1//EN"
 "http://www.w3.org/Graphics/SVG/1.1/DTD/svg11.dtd">
<!-- Generated by graphviz version 2.43.0 (0)
 -->
<!-- Title: RuntimeError Pages: 1 -->
<svg width="106pt" height="257pt"
 viewBox="0.00 0.00 106.00 257.00" xmlns="http://www.w3.org/2000/svg" xmlns:xlink="http://www.w3.org/1999/xlink">
<g id="graph0" class="graph" transform="scale(1 1) rotate(0) translate(4 253)">
<title>RuntimeError</title>
<!-- Node1 -->
<g id="Node000001" class="node">
<title>Node1</title>
<g id="a_Node000001"><a xlink:title="Represents a runtime error in the GSC interpreter.">
<polygon fill="#999999" stroke="transparent" points="96,-79 2,-79 2,0 96,0 96,-79"/>
<text text-anchor="start" x="16.5" y="-66.5" font-family="Helvetica,sans-Serif" font-size="10.00">RuntimeError</text>
<text text-anchor="start" x="8.5" y="-51.5" font-family="Helvetica,sans-Serif" font-size="10.00">&#45;</text>
<text text-anchor="start" x="19" y="-51.5" font-family="Helvetica,sans-Serif" font-size="10.00">token</text>
<text text-anchor="start" x="6" y="-36.5" font-family="Helvetica,sans-Serif" font-size="10.00">+</text>
<text text-anchor="start" x="19" y="-36.5" font-family="Helvetica,sans-Serif" font-size="10.00">RuntimeError()</text>
<text text-anchor="start" x="6" y="-21.5" font-family="Helvetica,sans-Serif" font-size="10.00">+</text>
<text text-anchor="start" x="19" y="-21.5" font-family="Helvetica,sans-Serif" font-size="10.00">getToken()</text>
<text text-anchor="start" x="6" y="-6.5" font-family="Helvetica,sans-Serif" font-size="10.00">+</text>
<text text-anchor="start" x="19" y="-6.5" font-family="Helvetica,sans-Serif" font-size="10.00">getMessage()</text>
<polygon fill="#666666" stroke="#666666" points="2,-61.5 2,-61.5 96,-61.5 96,-61.5 2,-61.5"/>
<polygon fill="#666666" stroke="#666666" points="2,-46.5 2,-46.5 17,-46.5 17,-46.5 2,-46.5"/>
<polygon fill="#666666" stroke="#666666" points="17,-46.5 17,-46.5 96,-46.5 96,-46.5 17,-46.5"/>
<polygon fill="none" stroke="#666666" points="2,0 2,-79 96,-79 96,0 2,0"/>
</a>
</g>
</g>
<!-- Node2 -->
<g id="Node000002" class="node">
<title>Node2</title>
<g id="a_Node000002"><a xlink:title=" ">
<polygon fill="white" stroke="transparent" points="98,-164 0,-164 0,-115 98,-115 98,-164"/>
<text text-anchor="start" x="5" y="-151.5" font-family="Helvetica,sans-Serif" font-size="10.00">std::runtime_error</text>
<text text-anchor="start" x="47" y="-136.5" font-family="Helvetica,sans-Serif" font-size="10.00"> </text>
<text text-anchor="start" x="47" y="-121.5" font-family="Helvetica,sans-Serif" font-size="10.00"> </text>
<polygon fill="#666666" stroke="#666666" points="0,-146.5 0,-146.5 98,-146.5 98,-146.5 0,-146.5"/>
<polygon fill="#666666" stroke="#666666" points="0,-131.5 0,-131.5 98,-131.5 98,-131.5 0,-131.5"/>
<polygon fill="none" stroke="#666666" points="0,-115 0,-164 98,-164 98,-115 0,-115"/>
</a>
</g>
</g>
<!-- Node2&#45;&gt;Node1 -->
<g id="edge1_Node000001_Node000002" class="edge">
<title>Node2&#45;&gt;Node1</title>
<g id="a_edge1_Node000001_Node000002"><a xlink:title=" ">
<path fill="none" stroke="#63b8ff" d="M49,-104.52C49,-96.38 49,-87.63 49,-79.29"/>
<polygon fill="none" stroke="#63b8ff" points="45.5,-104.78 49,-114.78 52.5,-104.78 45.5,-104.78"/>
</a>
</g>
</g>
<!-- Node3 -->
<g id="Node000003" class="node">
<title>Node3</title>
<g id="a_Node000003"><a xlink:title=" ">
<polygon fill="white" stroke="transparent" points="89,-249 9,-249 9,-200 89,-200 89,-249"/>
<text text-anchor="start" x="14" y="-236.5" font-family="Helvetica,sans-Serif" font-size="10.00">std::exception</text>
<text text-anchor="start" x="47" y="-221.5" font-family="Helvetica,sans-Serif" font-size="10.00"> </text>
<text text-anchor="start" x="47" y="-206.5" font-family="Helvetica,sans-Serif" font-size="10.00"> </text>
<polygon fill="#666666" stroke="#666666" points="9,-231.5 9,-231.5 89,-231.5 89,-231.5 9,-231.5"/>
<polygon fill="#666666" stroke="#666666" points="9,-216.5 9,-216.5 89,-216.5 89,-216.5 9,-216.5"/>
<polygon fill="none" stroke="#666666" points="9,-200 9,-249 89,-249 89,-200 9,-200"/>
</a>
</g>
</g>
<!-- Node3&#45;&gt;Node2 -->
<g id="edge2_Node000002_Node000003" class="edge">
<title>Node3&#45;&gt;Node2</title>
<g id="a_edge2_Node000002_Node000003"><a xlink:title=" ">
<path fill="none" stroke="#63b8ff" d="M49,-189.77C49,-181.17 49,-172.1 49,-164.12"/>
<polygon fill="none" stroke="#63b8ff" points="45.5,-189.94 49,-199.94 52.5,-189.94 45.5,-189.94"/>
</a>
</g>
</g>
</g>
</svg>
