<?xml version="1.0" encoding="UTF-8" standalone="no"?>
<!DOCTYPE svg PUBLIC "-//W3C//DTD SVG 1.1//EN"
 "http://www.w3.org/Graphics/SVG/1.1/DTD/svg11.dtd">
<!-- Generated by graphviz version 2.43.0 (0)
 -->
<!-- Title: Token Pages: 1 -->
<svg width="281pt" height="325pt"
 viewBox="0.00 0.00 280.50 325.00" xmlns="http://www.w3.org/2000/svg" xmlns:xlink="http://www.w3.org/1999/xlink">

<svg id="main" version="1.1" xmlns="http://www.w3.org/2000/svg" xmlns:xlink="http://www.w3.org/1999/xlink" xml:space="preserve" onload="init(evt)">
<style type="text/css"><![CDATA[
.node, .edge {opacity: 0.7;}
.node.selected, .edge.selected {opacity: 1;}
.edge:hover path { stroke: red; }
.edge:hover polygon { stroke: red; fill: red; }
]]></style>
<script type="application/ecmascript" xlink:href="svg.min.js"/>
<svg id="graph" class="graph">
<g id="graph0" class="graph" transform="scale(1 1) rotate(0) translate(4 321)">
<title>Token</title>
<!-- Node1 -->
<g id="Node000001" class="node">
<title>Node1</title>
<g id="a_Node000001"><a xlink:title="Represents a token in the source code.">
<polygon fill="#999999" stroke="transparent" points="210.5,-124 127.5,-124 127.5,0 210.5,0 210.5,-124"/>
<text text-anchor="start" x="155.5" y="-112" font-family="Helvetica,sans-Serif" font-size="10.00">Token</text>
<text text-anchor="start" x="167.5" y="-97" font-family="Helvetica,sans-Serif" font-size="10.00"> </text>
<text text-anchor="start" x="132" y="-82" font-family="Helvetica,sans-Serif" font-size="10.00">+</text>
<text text-anchor="start" x="145" y="-82" font-family="Helvetica,sans-Serif" font-size="10.00">Token()</text>
<text text-anchor="start" x="132" y="-67" font-family="Helvetica,sans-Serif" font-size="10.00">+</text>
<text text-anchor="start" x="145" y="-67" font-family="Helvetica,sans-Serif" font-size="10.00">getType()</text>
<text text-anchor="start" x="132" y="-52" font-family="Helvetica,sans-Serif" font-size="10.00">+</text>
<text text-anchor="start" x="145" y="-52" font-family="Helvetica,sans-Serif" font-size="10.00">getLexeme()</text>
<text text-anchor="start" x="132" y="-37" font-family="Helvetica,sans-Serif" font-size="10.00">+</text>
<text text-anchor="start" x="145" y="-37" font-family="Helvetica,sans-Serif" font-size="10.00">getLiteral()</text>
<text text-anchor="start" x="132" y="-22" font-family="Helvetica,sans-Serif" font-size="10.00">+</text>
<text text-anchor="start" x="145" y="-22" font-family="Helvetica,sans-Serif" font-size="10.00">getLine()</text>
<text text-anchor="start" x="132" y="-7" font-family="Helvetica,sans-Serif" font-size="10.00">+</text>
<text text-anchor="start" x="145" y="-7" font-family="Helvetica,sans-Serif" font-size="10.00">toString()</text>
<polygon fill="#666666" stroke="#666666" points="128,-107 128,-107 211,-107 211,-107 128,-107"/>
<polygon fill="#666666" stroke="#666666" points="128,-92 128,-92 211,-92 211,-92 128,-92"/>
<polygon fill="none" stroke="#666666" points="127.5,0 127.5,-124 210.5,-124 210.5,0 127.5,0"/>
</a>
</g>
</g>
<!-- Node2 -->
<g id="Node000002" class="node">
<title>Node2</title>
<g id="a_Node000002"><a xlink:title=" ">
<polygon fill="white" stroke="transparent" points="90,-220 0,-220 0,-171 90,-171 90,-220"/>
<text text-anchor="start" x="5" y="-207.5" font-family="Helvetica,sans-Serif" font-size="10.00">const TokenType</text>
<text text-anchor="start" x="43" y="-192.5" font-family="Helvetica,sans-Serif" font-size="10.00"> </text>
<text text-anchor="start" x="43" y="-177.5" font-family="Helvetica,sans-Serif" font-size="10.00"> </text>
<polygon fill="#666666" stroke="#666666" points="0,-202.5 0,-202.5 90,-202.5 90,-202.5 0,-202.5"/>
<polygon fill="#666666" stroke="#666666" points="0,-187.5 0,-187.5 90,-187.5 90,-187.5 0,-187.5"/>
<polygon fill="none" stroke="#666666" points="0,-171 0,-220 90,-220 90,-171 0,-171"/>
</a>
</g>
</g>
<!-- Node2&#45;&gt;Node1 -->
<g id="edge1_Node000001_Node000002" class="edge">
<title>Node2&#45;&gt;Node1</title>
<g id="a_edge1_Node000001_Node000002"><a xlink:title=" ">
<path fill="none" stroke="#63b8ff" d="M67.17,-170.99C81.6,-155.68 101.03,-135.08 119.04,-115.98"/>
<polygon fill="none" stroke="#63b8ff" points="119.24,-115.77 120.45,-108.66 127.47,-107.04 126.27,-114.15 119.24,-115.77"/>
</a>
</g>
<text text-anchor="middle" x="107.5" y="-145" font-family="Helvetica,sans-Serif" font-size="10.00" fill="grey"> &#45;type</text>
</g>
<!-- Node3 -->
<g id="Node000003" class="node">
<title>Node3</title>
<g id="a_Node000003"><a xlink:title=" ">
<polygon fill="white" stroke="transparent" points="167.5,-220 108.5,-220 108.5,-171 167.5,-171 167.5,-220"/>
<text text-anchor="start" x="114" y="-207.5" font-family="Helvetica,sans-Serif" font-size="10.00">std::string</text>
<text text-anchor="start" x="136.5" y="-192.5" font-family="Helvetica,sans-Serif" font-size="10.00"> </text>
<text text-anchor="start" x="136.5" y="-177.5" font-family="Helvetica,sans-Serif" font-size="10.00"> </text>
<polygon fill="#666666" stroke="#666666" points="109,-202.5 109,-202.5 168,-202.5 168,-202.5 109,-202.5"/>
<polygon fill="#666666" stroke="#666666" points="109,-187.5 109,-187.5 168,-187.5 168,-187.5 109,-187.5"/>
<polygon fill="none" stroke="#666666" points="108.5,-171 108.5,-220 167.5,-220 167.5,-171 108.5,-171"/>
</a>
</g>
</g>
<!-- Node3&#45;&gt;Node1 -->
<g id="edge2_Node000001_Node000003" class="edge">
<title>Node3&#45;&gt;Node1</title>
<g id="a_edge2_Node000001_Node000003"><a xlink:title=" ">
<path fill="none" stroke="#63b8ff" d="M137.33,-170.8C137.19,-164.98 137.07,-158.77 137,-153 136.94,-148.11 136.07,-146.8 137,-142 137.39,-140 137.83,-137.99 138.31,-135.98"/>
<polygon fill="none" stroke="#63b8ff" points="138.31,-135.97 136.06,-129.12 141.52,-124.41 143.77,-131.26 138.31,-135.97"/>
</a>
</g>
<text text-anchor="middle" x="158.5" y="-145" font-family="Helvetica,sans-Serif" font-size="10.00" fill="grey"> &#45;lexeme</text>
</g>
<!-- Node4 -->
<g id="Node000004" class="node">
<title>Node4</title>
<g id="a_Node000004"><a xlink:title=" ">
<polygon fill="white" stroke="transparent" points="187,-317 89,-317 89,-257 187,-257 187,-317"/>
<text text-anchor="start" x="94" y="-305" font-family="Helvetica,sans-Serif" font-size="10.00">std::basic_string&lt;</text>
<text text-anchor="start" x="119.5" y="-294" font-family="Helvetica,sans-Serif" font-size="10.00"> Char &gt;</text>
<text text-anchor="start" x="136" y="-279" font-family="Helvetica,sans-Serif" font-size="10.00"> </text>
<text text-anchor="start" x="136" y="-264" font-family="Helvetica,sans-Serif" font-size="10.00"> </text>
<polygon fill="#666666" stroke="#666666" points="89,-289 89,-289 187,-289 187,-289 89,-289"/>
<polygon fill="#666666" stroke="#666666" points="89,-274 89,-274 187,-274 187,-274 89,-274"/>
<polygon fill="none" stroke="#666666" points="89,-257 89,-317 187,-317 187,-257 89,-257"/>
</a>
</g>
</g>
<!-- Node4&#45;&gt;Node3 -->
<g id="edge3_Node000003_Node000004" class="edge">
<title>Node4&#45;&gt;Node3</title>
<g id="a_edge3_Node000003_Node000004"><a xlink:title=" ">
<path fill="none" stroke="#63b8ff" d="M138,-246.41C138,-237.47 138,-228.25 138,-220.21"/>
<polygon fill="none" stroke="#63b8ff" points="134.5,-246.69 138,-256.69 141.5,-246.69 134.5,-246.69"/>
</a>
</g>
</g>
<!-- Node5 -->
<g id="Node000005" class="node">
<title>Node5</title>
<g id="a_Node000005"><a xlink:title=" ">
<polygon fill="white" stroke="transparent" points="216.5,-220 187.5,-220 187.5,-171 216.5,-171 216.5,-220"/>
<text text-anchor="start" x="193" y="-207.5" font-family="Helvetica,sans-Serif" font-size="10.00">any</text>
<text text-anchor="start" x="200.5" y="-192.5" font-family="Helvetica,sans-Serif" font-size="10.00"> </text>
<text text-anchor="start" x="200.5" y="-177.5" font-family="Helvetica,sans-Serif" font-size="10.00"> </text>
<polygon fill="#666666" stroke="#666666" points="188,-202.5 188,-202.5 217,-202.5 217,-202.5 188,-202.5"/>
<polygon fill="#666666" stroke="#666666" points="188,-187.5 188,-187.5 217,-187.5 217,-187.5 188,-187.5"/>
<polygon fill="none" stroke="#666666" points="187.5,-171 187.5,-220 216.5,-220 216.5,-171 187.5,-171"/>
</a>
</g>
</g>
<!-- Node5&#45;&gt;Node1 -->
<g id="edge4_Node000001_Node000005" class="edge">
<title>Node5&#45;&gt;Node1</title>
<g id="a_edge4_Node000001_Node000005"><a xlink:title=" ">
<path fill="none" stroke="#63b8ff" d="M196.1,-170.99C193.57,-160.92 190.47,-148.56 187.28,-135.85"/>
<polygon fill="none" stroke="#63b8ff" points="187.26,-135.76 181.92,-130.91 184.34,-124.12 189.68,-128.97 187.26,-135.76"/>
</a>
</g>
<text text-anchor="middle" x="209" y="-145" font-family="Helvetica,sans-Serif" font-size="10.00" fill="grey"> &#45;literal</text>
</g>
<!-- Node6 -->
<g id="Node000006" class="node">
<title>Node6</title>
<g id="a_Node000006"><a xlink:title=" ">
<polygon fill="white" stroke="transparent" points="272.5,-220 249.5,-220 249.5,-171 272.5,-171 272.5,-220"/>
<text text-anchor="start" x="255" y="-207.5" font-family="Helvetica,sans-Serif" font-size="10.00">int</text>
<text text-anchor="start" x="259.5" y="-192.5" font-family="Helvetica,sans-Serif" font-size="10.00"> </text>
<text text-anchor="start" x="259.5" y="-177.5" font-family="Helvetica,sans-Serif" font-size="10.00"> </text>
<polygon fill="#666666" stroke="#666666" points="250,-202.5 250,-202.5 273,-202.5 273,-202.5 250,-202.5"/>
<polygon fill="#666666" stroke="#666666" points="250,-187.5 250,-187.5 273,-187.5 273,-187.5 250,-187.5"/>
<polygon fill="none" stroke="#666666" points="249.5,-171 249.5,-220 272.5,-220 272.5,-171 249.5,-171"/>
</a>
</g>
</g>
<!-- Node6&#45;&gt;Node1 -->
<g id="edge5_Node000001_Node000006" class="edge">
<title>Node6&#45;&gt;Node1</title>
<g id="a_edge5_Node000001_Node000006"><a xlink:title=" ">
<path fill="none" stroke="#63b8ff" d="M249.43,-172.61C244.13,-163.02 237.56,-151.75 231,-142 227.01,-136.07 222.71,-130.01 218.29,-124.02"/>
<polygon fill="none" stroke="#63b8ff" points="218,-123.63 211.2,-121.23 210.8,-114.03 217.6,-116.43 218,-123.63"/>
</a>
</g>
<text text-anchor="middle" x="249.5" y="-145" font-family="Helvetica,sans-Serif" font-size="10.00" fill="grey"> &#45;line</text>
</g>
</g>
</svg>
</svg>

<style type='text/css'>
<![CDATA[
[data-mouse-over-selected='false'] { opacity: 0.7; }
[data-mouse-over-selected='true']  { opacity: 1.0; }
]]>
</style>
<script type="application/ecmascript"><![CDATA[
document.addEventListener('DOMContentLoaded', (event) => {
  highlightEdges();
  highlightAdjacentNodes();
});
]]></script>
</svg>
