<?xml version="1.0" encoding="UTF-8" standalone="no"?>
<!DOCTYPE svg PUBLIC "-//W3C//DTD SVG 1.1//EN"
 "http://www.w3.org/Graphics/SVG/1.1/DTD/svg11.dtd">
<!-- Generated by graphviz version 2.43.0 (0)
 -->
<!-- Title: If Pages: 1 -->
<svg width="432pt" height="331pt"
 viewBox="0.00 0.00 431.50 331.00" xmlns="http://www.w3.org/2000/svg" xmlns:xlink="http://www.w3.org/1999/xlink">

<svg id="main" version="1.1" xmlns="http://www.w3.org/2000/svg" xmlns:xlink="http://www.w3.org/1999/xlink" xml:space="preserve" onload="init(evt)">
<style type="text/css"><![CDATA[
.node, .edge {opacity: 0.7;}
.node.selected, .edge.selected {opacity: 1;}
.edge:hover path { stroke: red; }
.edge:hover polygon { stroke: red; fill: red; }
]]></style>
<script type="application/ecmascript" xlink:href="svg.min.js"/>
<svg id="graph" class="graph">
<g id="graph0" class="graph" transform="scale(1 1) rotate(0) translate(4 327)">
<title>If</title>
<!-- Node1 -->
<g id="Node000001" class="node">
<title>Node1</title>
<g id="a_Node000001"><a xlink:title="Represents an if statement.">
<polygon fill="#999999" stroke="transparent" points="239,-109 136,-109 136,0 239,0 239,-109"/>
<text text-anchor="start" x="184.5" y="-96.5" font-family="Helvetica,sans-Serif" font-size="10.00">If</text>
<text text-anchor="start" x="186" y="-81.5" font-family="Helvetica,sans-Serif" font-size="10.00"> </text>
<text text-anchor="start" x="140.5" y="-66.5" font-family="Helvetica,sans-Serif" font-size="10.00">+</text>
<text text-anchor="start" x="153.5" y="-66.5" font-family="Helvetica,sans-Serif" font-size="10.00">If()</text>
<text text-anchor="start" x="140.5" y="-51.5" font-family="Helvetica,sans-Serif" font-size="10.00">+</text>
<text text-anchor="start" x="153.5" y="-51.5" font-family="Helvetica,sans-Serif" font-size="10.00">accept()</text>
<text text-anchor="start" x="140.5" y="-36.5" font-family="Helvetica,sans-Serif" font-size="10.00">+</text>
<text text-anchor="start" x="153.5" y="-36.5" font-family="Helvetica,sans-Serif" font-size="10.00">getCondition()</text>
<text text-anchor="start" x="140.5" y="-21.5" font-family="Helvetica,sans-Serif" font-size="10.00">+</text>
<text text-anchor="start" x="153.5" y="-21.5" font-family="Helvetica,sans-Serif" font-size="10.00">getThenBranch()</text>
<text text-anchor="start" x="140.5" y="-6.5" font-family="Helvetica,sans-Serif" font-size="10.00">+</text>
<text text-anchor="start" x="153.5" y="-6.5" font-family="Helvetica,sans-Serif" font-size="10.00">getElseBranch()</text>
<polygon fill="#666666" stroke="#666666" points="136.5,-91.5 136.5,-91.5 239.5,-91.5 239.5,-91.5 136.5,-91.5"/>
<polygon fill="#666666" stroke="#666666" points="136.5,-76.5 136.5,-76.5 239.5,-76.5 239.5,-76.5 136.5,-76.5"/>
<polygon fill="none" stroke="#666666" points="136,0 136,-109 239,-109 239,0 136,0"/>
</a>
</g>
</g>
<!-- Node2 -->
<g id="Node000002" class="node">
<title>Node2</title>
<g id="a_Node000002"><a xlink:href="classStmt.html" target="_top" xlink:title="Abstract base class for statements.">
<polygon fill="white" stroke="transparent" points="61,-323 0,-323 0,-274 61,-274 61,-323"/>
<text text-anchor="start" x="19" y="-310.5" font-family="Helvetica,sans-Serif" font-size="10.00">Stmt</text>
<text text-anchor="start" x="29" y="-295.5" font-family="Helvetica,sans-Serif" font-size="10.00"> </text>
<text text-anchor="start" x="4.5" y="-280.5" font-family="Helvetica,sans-Serif" font-size="10.00">+</text>
<text text-anchor="start" x="17.5" y="-280.5" font-family="Helvetica,sans-Serif" font-size="10.00">accept()</text>
<polygon fill="#666666" stroke="#666666" points="0.5,-305.5 0.5,-305.5 61.5,-305.5 61.5,-305.5 0.5,-305.5"/>
<polygon fill="#666666" stroke="#666666" points="0.5,-290.5 0.5,-290.5 61.5,-290.5 61.5,-290.5 0.5,-290.5"/>
<polygon fill="none" stroke="#666666" points="0,-274 0,-323 61,-323 61,-274 0,-274"/>
</a>
</g>
</g>
<!-- Node2&#45;&gt;Node1 -->
<g id="edge1_Node000001_Node000002" class="edge">
<title>Node2&#45;&gt;Node1</title>
<g id="a_edge1_Node000001_Node000002"><a xlink:title=" ">
<path fill="none" stroke="#63b8ff" d="M17.25,-264.16C8.49,-236.49 1.31,-196.98 17.5,-167 42.41,-120.88 95.62,-90.75 135.92,-73.57"/>
<polygon fill="none" stroke="#63b8ff" points="13.98,-265.42 20.5,-273.77 20.61,-263.18 13.98,-265.42"/>
</a>
</g>
</g>
<!-- Node6 -->
<g id="Node000006" class="node">
<title>Node6</title>
<g id="a_Node000006"><a xlink:title=" ">
<polygon fill="white" stroke="transparent" points="156,-221.5 27,-221.5 27,-172.5 156,-172.5 156,-221.5"/>
<text text-anchor="start" x="32.5" y="-209" font-family="Helvetica,sans-Serif" font-size="10.00">std::shared_ptr&lt; Stmt &gt;</text>
<text text-anchor="start" x="90" y="-194" font-family="Helvetica,sans-Serif" font-size="10.00"> </text>
<text text-anchor="start" x="43" y="-179" font-family="Helvetica,sans-Serif" font-size="10.00">+</text>
<text text-anchor="start" x="67.5" y="-179" font-family="Helvetica,sans-Serif" font-size="10.00">operator&#45;&gt;()</text>
<polygon fill="#666666" stroke="#666666" points="27.5,-204 27.5,-204 156.5,-204 156.5,-204 27.5,-204"/>
<polygon fill="#666666" stroke="#666666" points="27.5,-189 27.5,-189 156.5,-189 156.5,-189 27.5,-189"/>
<polygon fill="none" stroke="#666666" points="27,-172.5 27,-221.5 156,-221.5 156,-172.5 27,-172.5"/>
</a>
</g>
</g>
<!-- Node2&#45;&gt;Node6 -->
<g id="edge6_Node000006_Node000002" class="edge">
<title>Node2&#45;&gt;Node6</title>
<g id="a_edge6_Node000006_Node000002"><a xlink:title=" ">
<path fill="none" stroke="#63b8ff" d="M44.96,-273.92C52.57,-261.5 62.06,-246.03 70.47,-232.3"/>
<polygon fill="none" stroke="#63b8ff" points="70.66,-231.99 70.39,-224.78 76.94,-221.76 77.21,-228.96 70.66,-231.99"/>
</a>
</g>
<text text-anchor="middle" x="74" y="-248" font-family="Helvetica,sans-Serif" font-size="10.00" fill="grey"> +ptr</text>
</g>
<!-- Node3 -->
<g id="Node000003" class="node">
<title>Node3</title>
<g id="a_Node000003"><a xlink:title=" ">
<polygon fill="white" stroke="transparent" points="277,-227 174,-227 174,-167 277,-167 277,-227"/>
<text text-anchor="start" x="179.5" y="-215" font-family="Helvetica,sans-Serif" font-size="10.00">std::enable_shared</text>
<text text-anchor="start" x="185" y="-204" font-family="Helvetica,sans-Serif" font-size="10.00">_from_this&lt; If &gt;</text>
<text text-anchor="start" x="224" y="-189" font-family="Helvetica,sans-Serif" font-size="10.00"> </text>
<text text-anchor="start" x="224" y="-174" font-family="Helvetica,sans-Serif" font-size="10.00"> </text>
<polygon fill="#666666" stroke="#666666" points="174.5,-199 174.5,-199 277.5,-199 277.5,-199 174.5,-199"/>
<polygon fill="#666666" stroke="#666666" points="174.5,-184 174.5,-184 277.5,-184 277.5,-184 174.5,-184"/>
<polygon fill="none" stroke="#666666" points="174,-167 174,-227 277,-227 277,-167 174,-167"/>
</a>
</g>
</g>
<!-- Node3&#45;&gt;Node1 -->
<g id="edge2_Node000001_Node000003" class="edge">
<title>Node3&#45;&gt;Node1</title>
<g id="a_edge2_Node000001_Node000003"><a xlink:title=" ">
<path fill="none" stroke="#63b8ff" d="M214.97,-157.07C210.97,-142.29 206.35,-125.19 202.04,-109.28"/>
<polygon fill="none" stroke="#63b8ff" points="211.64,-158.15 217.63,-166.89 218.39,-156.32 211.64,-158.15"/>
</a>
</g>
</g>
<!-- Node4 -->
<g id="Node000004" class="node">
<title>Node4</title>
<g id="a_Node000004"><a xlink:title=" ">
<polygon fill="white" stroke="transparent" points="423.5,-221.5 295.5,-221.5 295.5,-172.5 423.5,-172.5 423.5,-221.5"/>
<text text-anchor="start" x="300.5" y="-209" font-family="Helvetica,sans-Serif" font-size="10.00">std::shared_ptr&lt; Expr &gt;</text>
<text text-anchor="start" x="357.5" y="-194" font-family="Helvetica,sans-Serif" font-size="10.00"> </text>
<text text-anchor="start" x="311" y="-179" font-family="Helvetica,sans-Serif" font-size="10.00">+</text>
<text text-anchor="start" x="335.5" y="-179" font-family="Helvetica,sans-Serif" font-size="10.00">operator&#45;&gt;()</text>
<polygon fill="#666666" stroke="#666666" points="295.5,-204 295.5,-204 423.5,-204 423.5,-204 295.5,-204"/>
<polygon fill="#666666" stroke="#666666" points="295.5,-189 295.5,-189 423.5,-189 423.5,-189 295.5,-189"/>
<polygon fill="none" stroke="#666666" points="295.5,-172.5 295.5,-221.5 423.5,-221.5 423.5,-172.5 295.5,-172.5"/>
</a>
</g>
</g>
<!-- Node4&#45;&gt;Node1 -->
<g id="edge3_Node000001_Node000004" class="edge">
<title>Node4&#45;&gt;Node1</title>
<g id="a_edge3_Node000001_Node000004"><a xlink:title=" ">
<path fill="none" stroke="#63b8ff" d="M330.71,-172.48C308.29,-154.17 276.36,-128.09 248.34,-105.2"/>
<polygon fill="none" stroke="#63b8ff" points="248.31,-105.17 241.13,-104.47 239.01,-97.58 246.19,-98.28 248.31,-105.17"/>
</a>
</g>
<text text-anchor="middle" x="325.5" y="-135.5" font-family="Helvetica,sans-Serif" font-size="10.00" fill="grey"> &#45;condition</text>
</g>
<!-- Node5 -->
<g id="Node000005" class="node">
<title>Node5</title>
<g id="a_Node000005"><a xlink:href="classExpr.html" target="_top" xlink:title="Abstract base class for expressions.">
<polygon fill="white" stroke="transparent" points="390,-323 329,-323 329,-274 390,-274 390,-323"/>
<text text-anchor="start" x="349" y="-310.5" font-family="Helvetica,sans-Serif" font-size="10.00">Expr</text>
<text text-anchor="start" x="358" y="-295.5" font-family="Helvetica,sans-Serif" font-size="10.00"> </text>
<text text-anchor="start" x="333.5" y="-280.5" font-family="Helvetica,sans-Serif" font-size="10.00">+</text>
<text text-anchor="start" x="346.5" y="-280.5" font-family="Helvetica,sans-Serif" font-size="10.00">accept()</text>
<polygon fill="#666666" stroke="#666666" points="329.5,-305.5 329.5,-305.5 390.5,-305.5 390.5,-305.5 329.5,-305.5"/>
<polygon fill="#666666" stroke="#666666" points="329.5,-290.5 329.5,-290.5 390.5,-290.5 390.5,-290.5 329.5,-290.5"/>
<polygon fill="none" stroke="#666666" points="329,-274 329,-323 390,-323 390,-274 329,-274"/>
</a>
</g>
</g>
<!-- Node5&#45;&gt;Node4 -->
<g id="edge4_Node000004_Node000005" class="edge">
<title>Node5&#45;&gt;Node4</title>
<g id="a_edge4_Node000004_Node000005"><a xlink:title=" ">
<path fill="none" stroke="#63b8ff" d="M359.5,-273.92C359.5,-261.99 359.5,-247.25 359.5,-233.94"/>
<polygon fill="none" stroke="#63b8ff" points="359.5,-233.76 355.5,-227.76 359.5,-221.76 363.5,-227.76 359.5,-233.76"/>
</a>
</g>
<text text-anchor="middle" x="372" y="-248" font-family="Helvetica,sans-Serif" font-size="10.00" fill="grey"> +ptr</text>
</g>
<!-- Node6&#45;&gt;Node1 -->
<g id="edge5_Node000001_Node000006" class="edge">
<title>Node6&#45;&gt;Node1</title>
<g id="a_edge5_Node000001_Node000006"><a xlink:title=" ">
<path fill="none" stroke="#63b8ff" d="M107.57,-172.48C117.57,-157.85 130.95,-138.26 143.9,-119.31"/>
<polygon fill="none" stroke="#63b8ff" points="144.05,-119.09 144.13,-111.88 150.82,-109.18 150.74,-116.39 144.05,-119.09"/>
</a>
</g>
<text text-anchor="middle" x="168" y="-141" font-family="Helvetica,sans-Serif" font-size="10.00" fill="grey"> &#45;elseBranch</text>
<text text-anchor="middle" x="168" y="-130" font-family="Helvetica,sans-Serif" font-size="10.00" fill="grey">&#45;thenBranch</text>
</g>
</g>
</svg>
</svg>

<style type='text/css'>
<![CDATA[
[data-mouse-over-selected='false'] { opacity: 0.7; }
[data-mouse-over-selected='true']  { opacity: 1.0; }
]]>
</style>
<script type="application/ecmascript"><![CDATA[
document.addEventListener('DOMContentLoaded', (event) => {
  highlightEdges();
  highlightAdjacentNodes();
});
]]></script>
</svg>
