<?xml version="1.0" encoding="UTF-8" standalone="no"?>
<!DOCTYPE svg PUBLIC "-//W3C//DTD SVG 1.1//EN"
 "http://www.w3.org/Graphics/SVG/1.1/DTD/svg11.dtd">
<!-- Generated by graphviz version 2.43.0 (0)
 -->
<!-- Title: RuntimeError Pages: 1 -->
<svg width="295pt" height="547pt"
 viewBox="0.00 0.00 294.50 547.00" xmlns="http://www.w3.org/2000/svg" xmlns:xlink="http://www.w3.org/1999/xlink">
<g id="graph0" class="graph" transform="scale(1 1) rotate(0) translate(4 543)">
<title>RuntimeError</title>
<!-- Node1 -->
<g id="Node000001" class="node">
<title>Node1</title>
<g id="a_Node000001"><a xlink:title="Represents a runtime error in the GSC interpreter.">
<polygon fill="#999999" stroke="transparent" points="162,-79 68,-79 68,0 162,0 162,-79"/>
<text text-anchor="start" x="82.5" y="-66.5" font-family="Helvetica,sans-Serif" font-size="10.00">RuntimeError</text>
<text text-anchor="start" x="113" y="-51.5" font-family="Helvetica,sans-Serif" font-size="10.00"> </text>
<text text-anchor="start" x="72" y="-36.5" font-family="Helvetica,sans-Serif" font-size="10.00">+</text>
<text text-anchor="start" x="85" y="-36.5" font-family="Helvetica,sans-Serif" font-size="10.00">RuntimeError()</text>
<text text-anchor="start" x="72" y="-21.5" font-family="Helvetica,sans-Serif" font-size="10.00">+</text>
<text text-anchor="start" x="85" y="-21.5" font-family="Helvetica,sans-Serif" font-size="10.00">getToken()</text>
<text text-anchor="start" x="72" y="-6.5" font-family="Helvetica,sans-Serif" font-size="10.00">+</text>
<text text-anchor="start" x="85" y="-6.5" font-family="Helvetica,sans-Serif" font-size="10.00">getMessage()</text>
<polygon fill="#666666" stroke="#666666" points="68,-61.5 68,-61.5 162,-61.5 162,-61.5 68,-61.5"/>
<polygon fill="#666666" stroke="#666666" points="68,-46.5 68,-46.5 162,-46.5 162,-46.5 68,-46.5"/>
<polygon fill="none" stroke="#666666" points="68,0 68,-79 162,-79 162,0 68,0"/>
</a>
</g>
</g>
<!-- Node2 -->
<g id="Node000002" class="node">
<title>Node2</title>
<g id="a_Node000002"><a xlink:title=" ">
<polygon fill="white" stroke="transparent" points="98,-175 0,-175 0,-126 98,-126 98,-175"/>
<text text-anchor="start" x="5" y="-162.5" font-family="Helvetica,sans-Serif" font-size="10.00">std::runtime_error</text>
<text text-anchor="start" x="47" y="-147.5" font-family="Helvetica,sans-Serif" font-size="10.00"> </text>
<text text-anchor="start" x="47" y="-132.5" font-family="Helvetica,sans-Serif" font-size="10.00"> </text>
<polygon fill="#666666" stroke="#666666" points="0,-157.5 0,-157.5 98,-157.5 98,-157.5 0,-157.5"/>
<polygon fill="#666666" stroke="#666666" points="0,-142.5 0,-142.5 98,-142.5 98,-142.5 0,-142.5"/>
<polygon fill="none" stroke="#666666" points="0,-126 0,-175 98,-175 98,-126 0,-126"/>
</a>
</g>
</g>
<!-- Node2&#45;&gt;Node1 -->
<g id="edge1_Node000001_Node000002" class="edge">
<title>Node2&#45;&gt;Node1</title>
<g id="a_edge1_Node000001_Node000002"><a xlink:title=" ">
<path fill="none" stroke="#63b8ff" d="M68.62,-117.1C75.84,-105.17 84.1,-91.53 91.62,-79.1"/>
<polygon fill="none" stroke="#63b8ff" points="65.51,-115.48 63.32,-125.85 71.49,-119.11 65.51,-115.48"/>
</a>
</g>
</g>
<!-- Node3 -->
<g id="Node000003" class="node">
<title>Node3</title>
<g id="a_Node000003"><a xlink:title=" ">
<polygon fill="white" stroke="transparent" points="89,-308.5 9,-308.5 9,-259.5 89,-259.5 89,-308.5"/>
<text text-anchor="start" x="14" y="-296" font-family="Helvetica,sans-Serif" font-size="10.00">std::exception</text>
<text text-anchor="start" x="47" y="-281" font-family="Helvetica,sans-Serif" font-size="10.00"> </text>
<text text-anchor="start" x="47" y="-266" font-family="Helvetica,sans-Serif" font-size="10.00"> </text>
<polygon fill="#666666" stroke="#666666" points="9,-291 9,-291 89,-291 89,-291 9,-291"/>
<polygon fill="#666666" stroke="#666666" points="9,-276 9,-276 89,-276 89,-276 9,-276"/>
<polygon fill="none" stroke="#666666" points="9,-259.5 9,-308.5 89,-308.5 89,-259.5 9,-259.5"/>
</a>
</g>
</g>
<!-- Node3&#45;&gt;Node2 -->
<g id="edge2_Node000002_Node000003" class="edge">
<title>Node3&#45;&gt;Node2</title>
<g id="a_edge2_Node000002_Node000003"><a xlink:title=" ">
<path fill="none" stroke="#63b8ff" d="M49,-249.4C49,-226.21 49,-195.95 49,-175.25"/>
<polygon fill="none" stroke="#63b8ff" points="45.5,-249.49 49,-259.49 52.5,-249.49 45.5,-249.49"/>
</a>
</g>
</g>
<!-- Node4 -->
<g id="Node000004" class="node">
<title>Node4</title>
<g id="a_Node000004"><a xlink:title=" ">
<polygon fill="white" stroke="transparent" points="250,-175 116,-175 116,-126 250,-126 250,-175"/>
<text text-anchor="start" x="121" y="-162.5" font-family="Helvetica,sans-Serif" font-size="10.00">std::shared_ptr&lt; Token &gt;</text>
<text text-anchor="start" x="181" y="-147.5" font-family="Helvetica,sans-Serif" font-size="10.00"> </text>
<text text-anchor="start" x="133" y="-132.5" font-family="Helvetica,sans-Serif" font-size="10.00">+</text>
<text text-anchor="start" x="159" y="-132.5" font-family="Helvetica,sans-Serif" font-size="10.00">operator&#45;&gt;()</text>
<polygon fill="#666666" stroke="#666666" points="116,-157.5 116,-157.5 250,-157.5 250,-157.5 116,-157.5"/>
<polygon fill="#666666" stroke="#666666" points="116,-142.5 116,-142.5 250,-142.5 250,-142.5 116,-142.5"/>
<polygon fill="none" stroke="#666666" points="116,-126 116,-175 250,-175 250,-126 116,-126"/>
</a>
</g>
</g>
<!-- Node4&#45;&gt;Node1 -->
<g id="edge3_Node000001_Node000004" class="edge">
<title>Node4&#45;&gt;Node1</title>
<g id="a_edge3_Node000001_Node000004"><a xlink:title=" ">
<path fill="none" stroke="#63b8ff" d="M168.25,-125.85C161.59,-115.18 153.47,-102.17 145.6,-89.55"/>
<polygon fill="none" stroke="#63b8ff" points="145.44,-89.29 138.87,-86.31 139.08,-79.1 145.65,-82.08 145.44,-89.29"/>
</a>
</g>
<text text-anchor="middle" x="174" y="-100" font-family="Helvetica,sans-Serif" font-size="10.00" fill="grey"> &#45;token</text>
</g>
<!-- Node5 -->
<g id="Node000005" class="node">
<title>Node5</title>
<g id="a_Node000005"><a xlink:href="classToken.html" target="_top" xlink:title="Represents a token in the source code.">
<polygon fill="white" stroke="transparent" points="224.5,-346 141.5,-346 141.5,-222 224.5,-222 224.5,-346"/>
<text text-anchor="start" x="169.5" y="-334" font-family="Helvetica,sans-Serif" font-size="10.00">Token</text>
<text text-anchor="start" x="181.5" y="-319" font-family="Helvetica,sans-Serif" font-size="10.00"> </text>
<text text-anchor="start" x="146" y="-304" font-family="Helvetica,sans-Serif" font-size="10.00">+</text>
<text text-anchor="start" x="159" y="-304" font-family="Helvetica,sans-Serif" font-size="10.00">Token()</text>
<text text-anchor="start" x="146" y="-289" font-family="Helvetica,sans-Serif" font-size="10.00">+</text>
<text text-anchor="start" x="159" y="-289" font-family="Helvetica,sans-Serif" font-size="10.00">getType()</text>
<text text-anchor="start" x="146" y="-274" font-family="Helvetica,sans-Serif" font-size="10.00">+</text>
<text text-anchor="start" x="159" y="-274" font-family="Helvetica,sans-Serif" font-size="10.00">getLexeme()</text>
<text text-anchor="start" x="146" y="-259" font-family="Helvetica,sans-Serif" font-size="10.00">+</text>
<text text-anchor="start" x="159" y="-259" font-family="Helvetica,sans-Serif" font-size="10.00">getLiteral()</text>
<text text-anchor="start" x="146" y="-244" font-family="Helvetica,sans-Serif" font-size="10.00">+</text>
<text text-anchor="start" x="159" y="-244" font-family="Helvetica,sans-Serif" font-size="10.00">getLine()</text>
<text text-anchor="start" x="146" y="-229" font-family="Helvetica,sans-Serif" font-size="10.00">+</text>
<text text-anchor="start" x="159" y="-229" font-family="Helvetica,sans-Serif" font-size="10.00">toString()</text>
<polygon fill="#666666" stroke="#666666" points="142,-329 142,-329 225,-329 225,-329 142,-329"/>
<polygon fill="#666666" stroke="#666666" points="142,-314 142,-314 225,-314 225,-314 142,-314"/>
<polygon fill="none" stroke="#666666" points="141.5,-222 141.5,-346 224.5,-346 224.5,-222 141.5,-222"/>
</a>
</g>
</g>
<!-- Node5&#45;&gt;Node4 -->
<g id="edge4_Node000004_Node000005" class="edge">
<title>Node5&#45;&gt;Node4</title>
<g id="a_edge4_Node000004_Node000005"><a xlink:title=" ">
<path fill="none" stroke="#63b8ff" d="M183,-221.87C183,-210.04 183,-198.02 183,-187.33"/>
<polygon fill="none" stroke="#63b8ff" points="183,-187.07 179,-181.07 183,-175.07 187,-181.07 183,-187.07"/>
</a>
</g>
<text text-anchor="middle" x="195.5" y="-196" font-family="Helvetica,sans-Serif" font-size="10.00" fill="grey"> +ptr</text>
</g>
<!-- Node6 -->
<g id="Node000006" class="node">
<title>Node6</title>
<g id="a_Node000006"><a xlink:title=" ">
<polygon fill="white" stroke="transparent" points="104,-442 14,-442 14,-393 104,-393 104,-442"/>
<text text-anchor="start" x="19" y="-429.5" font-family="Helvetica,sans-Serif" font-size="10.00">const TokenType</text>
<text text-anchor="start" x="57" y="-414.5" font-family="Helvetica,sans-Serif" font-size="10.00"> </text>
<text text-anchor="start" x="57" y="-399.5" font-family="Helvetica,sans-Serif" font-size="10.00"> </text>
<polygon fill="#666666" stroke="#666666" points="14,-424.5 14,-424.5 104,-424.5 104,-424.5 14,-424.5"/>
<polygon fill="#666666" stroke="#666666" points="14,-409.5 14,-409.5 104,-409.5 104,-409.5 14,-409.5"/>
<polygon fill="none" stroke="#666666" points="14,-393 14,-442 104,-442 104,-393 14,-393"/>
</a>
</g>
</g>
<!-- Node6&#45;&gt;Node5 -->
<g id="edge5_Node000005_Node000006" class="edge">
<title>Node6&#45;&gt;Node5</title>
<g id="a_edge5_Node000005_Node000006"><a xlink:title=" ">
<path fill="none" stroke="#63b8ff" d="M81.17,-392.99C95.6,-377.68 115.03,-357.08 133.04,-337.98"/>
<polygon fill="none" stroke="#63b8ff" points="133.24,-337.77 134.45,-330.66 141.47,-329.04 140.27,-336.15 133.24,-337.77"/>
</a>
</g>
<text text-anchor="middle" x="120.5" y="-367" font-family="Helvetica,sans-Serif" font-size="10.00" fill="grey"> &#45;type</text>
</g>
<!-- Node7 -->
<g id="Node000007" class="node">
<title>Node7</title>
<g id="a_Node000007"><a xlink:title=" ">
<polygon fill="white" stroke="transparent" points="181.5,-442 122.5,-442 122.5,-393 181.5,-393 181.5,-442"/>
<text text-anchor="start" x="128" y="-429.5" font-family="Helvetica,sans-Serif" font-size="10.00">std::string</text>
<text text-anchor="start" x="150.5" y="-414.5" font-family="Helvetica,sans-Serif" font-size="10.00"> </text>
<text text-anchor="start" x="150.5" y="-399.5" font-family="Helvetica,sans-Serif" font-size="10.00"> </text>
<polygon fill="#666666" stroke="#666666" points="123,-424.5 123,-424.5 182,-424.5 182,-424.5 123,-424.5"/>
<polygon fill="#666666" stroke="#666666" points="123,-409.5 123,-409.5 182,-409.5 182,-409.5 123,-409.5"/>
<polygon fill="none" stroke="#666666" points="122.5,-393 122.5,-442 181.5,-442 181.5,-393 122.5,-393"/>
</a>
</g>
</g>
<!-- Node7&#45;&gt;Node5 -->
<g id="edge6_Node000005_Node000007" class="edge">
<title>Node7&#45;&gt;Node5</title>
<g id="a_edge6_Node000005_Node000007"><a xlink:title=" ">
<path fill="none" stroke="#63b8ff" d="M151.33,-392.8C151.19,-386.98 151.07,-380.77 151,-375 150.94,-370.11 150.07,-368.8 151,-364 151.39,-362 151.83,-359.99 152.31,-357.98"/>
<polygon fill="none" stroke="#63b8ff" points="152.31,-357.97 150.06,-351.12 155.52,-346.41 157.77,-353.26 152.31,-357.97"/>
</a>
</g>
<text text-anchor="middle" x="172.5" y="-367" font-family="Helvetica,sans-Serif" font-size="10.00" fill="grey"> &#45;lexeme</text>
</g>
<!-- Node8 -->
<g id="Node000008" class="node">
<title>Node8</title>
<g id="a_Node000008"><a xlink:title=" ">
<polygon fill="white" stroke="transparent" points="201,-539 103,-539 103,-479 201,-479 201,-539"/>
<text text-anchor="start" x="108" y="-527" font-family="Helvetica,sans-Serif" font-size="10.00">std::basic_string&lt;</text>
<text text-anchor="start" x="133.5" y="-516" font-family="Helvetica,sans-Serif" font-size="10.00"> Char &gt;</text>
<text text-anchor="start" x="150" y="-501" font-family="Helvetica,sans-Serif" font-size="10.00"> </text>
<text text-anchor="start" x="150" y="-486" font-family="Helvetica,sans-Serif" font-size="10.00"> </text>
<polygon fill="#666666" stroke="#666666" points="103,-511 103,-511 201,-511 201,-511 103,-511"/>
<polygon fill="#666666" stroke="#666666" points="103,-496 103,-496 201,-496 201,-496 103,-496"/>
<polygon fill="none" stroke="#666666" points="103,-479 103,-539 201,-539 201,-479 103,-479"/>
</a>
</g>
</g>
<!-- Node8&#45;&gt;Node7 -->
<g id="edge7_Node000007_Node000008" class="edge">
<title>Node8&#45;&gt;Node7</title>
<g id="a_edge7_Node000007_Node000008"><a xlink:title=" ">
<path fill="none" stroke="#63b8ff" d="M152,-468.41C152,-459.47 152,-450.25 152,-442.21"/>
<polygon fill="none" stroke="#63b8ff" points="148.5,-468.69 152,-478.69 155.5,-468.69 148.5,-468.69"/>
</a>
</g>
</g>
<!-- Node9 -->
<g id="Node000009" class="node">
<title>Node9</title>
<g id="a_Node000009"><a xlink:title=" ">
<polygon fill="white" stroke="transparent" points="230.5,-442 201.5,-442 201.5,-393 230.5,-393 230.5,-442"/>
<text text-anchor="start" x="207" y="-429.5" font-family="Helvetica,sans-Serif" font-size="10.00">any</text>
<text text-anchor="start" x="214.5" y="-414.5" font-family="Helvetica,sans-Serif" font-size="10.00"> </text>
<text text-anchor="start" x="214.5" y="-399.5" font-family="Helvetica,sans-Serif" font-size="10.00"> </text>
<polygon fill="#666666" stroke="#666666" points="202,-424.5 202,-424.5 231,-424.5 231,-424.5 202,-424.5"/>
<polygon fill="#666666" stroke="#666666" points="202,-409.5 202,-409.5 231,-409.5 231,-409.5 202,-409.5"/>
<polygon fill="none" stroke="#666666" points="201.5,-393 201.5,-442 230.5,-442 230.5,-393 201.5,-393"/>
</a>
</g>
</g>
<!-- Node9&#45;&gt;Node5 -->
<g id="edge8_Node000005_Node000009" class="edge">
<title>Node9&#45;&gt;Node5</title>
<g id="a_edge8_Node000005_Node000009"><a xlink:title=" ">
<path fill="none" stroke="#63b8ff" d="M210.1,-392.99C207.57,-382.92 204.47,-370.56 201.28,-357.85"/>
<polygon fill="none" stroke="#63b8ff" points="201.26,-357.76 195.92,-352.91 198.34,-346.12 203.68,-350.97 201.26,-357.76"/>
</a>
</g>
<text text-anchor="middle" x="223" y="-367" font-family="Helvetica,sans-Serif" font-size="10.00" fill="grey"> &#45;literal</text>
</g>
<!-- Node10 -->
<g id="Node000010" class="node">
<title>Node10</title>
<g id="a_Node000010"><a xlink:title=" ">
<polygon fill="white" stroke="transparent" points="286.5,-442 263.5,-442 263.5,-393 286.5,-393 286.5,-442"/>
<text text-anchor="start" x="269" y="-429.5" font-family="Helvetica,sans-Serif" font-size="10.00">int</text>
<text text-anchor="start" x="273.5" y="-414.5" font-family="Helvetica,sans-Serif" font-size="10.00"> </text>
<text text-anchor="start" x="273.5" y="-399.5" font-family="Helvetica,sans-Serif" font-size="10.00"> </text>
<polygon fill="#666666" stroke="#666666" points="264,-424.5 264,-424.5 287,-424.5 287,-424.5 264,-424.5"/>
<polygon fill="#666666" stroke="#666666" points="264,-409.5 264,-409.5 287,-409.5 287,-409.5 264,-409.5"/>
<polygon fill="none" stroke="#666666" points="263.5,-393 263.5,-442 286.5,-442 286.5,-393 263.5,-393"/>
</a>
</g>
</g>
<!-- Node10&#45;&gt;Node5 -->
<g id="edge9_Node000005_Node000010" class="edge">
<title>Node10&#45;&gt;Node5</title>
<g id="a_edge9_Node000005_Node000010"><a xlink:title=" ">
<path fill="none" stroke="#63b8ff" d="M263.43,-394.61C258.13,-385.02 251.56,-373.75 245,-364 241.01,-358.07 236.71,-352.01 232.29,-346.02"/>
<polygon fill="none" stroke="#63b8ff" points="232,-345.63 225.2,-343.23 224.8,-336.03 231.6,-338.43 232,-345.63"/>
</a>
</g>
<text text-anchor="middle" x="263.5" y="-367" font-family="Helvetica,sans-Serif" font-size="10.00" fill="grey"> &#45;line</text>
</g>
</g>
</svg>
