<?xml version="1.0" encoding="UTF-8" standalone="no"?>
<!DOCTYPE svg PUBLIC "-//W3C//DTD SVG 1.1//EN"
 "http://www.w3.org/Graphics/SVG/1.1/DTD/svg11.dtd">
<!-- Generated by graphviz version 2.43.0 (0)
 -->
<!-- Title: While Pages: 1 -->
<svg width="442pt" height="305pt"
 viewBox="0.00 0.00 441.50 305.00" xmlns="http://www.w3.org/2000/svg" xmlns:xlink="http://www.w3.org/1999/xlink">

<svg id="main" version="1.1" xmlns="http://www.w3.org/2000/svg" xmlns:xlink="http://www.w3.org/1999/xlink" xml:space="preserve" onload="init(evt)">
<style type="text/css"><![CDATA[
.node, .edge {opacity: 0.7;}
.node.selected, .edge.selected {opacity: 1;}
.edge:hover path { stroke: red; }
.edge:hover polygon { stroke: red; fill: red; }
]]></style>
<script type="application/ecmascript" xlink:href="svg.min.js"/>
<svg id="graph" class="graph">
<g id="graph0" class="graph" transform="scale(1 1) rotate(0) translate(4 301)">
<title>While</title>
<!-- Node1 -->
<g id="Node000001" class="node">
<title>Node1</title>
<g id="a_Node000001"><a xlink:title=" ">
<polygon fill="#999999" stroke="transparent" points="241,-94 150,-94 150,0 241,0 241,-94"/>
<text text-anchor="start" x="182" y="-82" font-family="Helvetica,sans-Serif" font-size="10.00">While</text>
<text text-anchor="start" x="194" y="-67" font-family="Helvetica,sans-Serif" font-size="10.00"> </text>
<text text-anchor="start" x="154.5" y="-52" font-family="Helvetica,sans-Serif" font-size="10.00">+</text>
<text text-anchor="start" x="167.5" y="-52" font-family="Helvetica,sans-Serif" font-size="10.00">While()</text>
<text text-anchor="start" x="154.5" y="-37" font-family="Helvetica,sans-Serif" font-size="10.00">+</text>
<text text-anchor="start" x="167.5" y="-37" font-family="Helvetica,sans-Serif" font-size="10.00">accept()</text>
<text text-anchor="start" x="154.5" y="-22" font-family="Helvetica,sans-Serif" font-size="10.00">+</text>
<text text-anchor="start" x="167.5" y="-22" font-family="Helvetica,sans-Serif" font-size="10.00">getCondition()</text>
<text text-anchor="start" x="154.5" y="-7" font-family="Helvetica,sans-Serif" font-size="10.00">+</text>
<text text-anchor="start" x="167.5" y="-7" font-family="Helvetica,sans-Serif" font-size="10.00">getBody()</text>
<polygon fill="#666666" stroke="#666666" points="150.5,-77 150.5,-77 241.5,-77 241.5,-77 150.5,-77"/>
<polygon fill="#666666" stroke="#666666" points="150.5,-62 150.5,-62 241.5,-62 241.5,-62 150.5,-62"/>
<polygon fill="none" stroke="#666666" points="150,0 150,-94 241,-94 241,0 150,0"/>
</a>
</g>
</g>
<!-- Node2 -->
<g id="Node000002" class="node">
<title>Node2</title>
<g id="a_Node000002"><a xlink:href="classStmt.html" target="_top" xlink:title="Abstract base class for statements.">
<polygon fill="white" stroke="transparent" points="61,-297 0,-297 0,-248 61,-248 61,-297"/>
<text text-anchor="start" x="19" y="-284.5" font-family="Helvetica,sans-Serif" font-size="10.00">Stmt</text>
<text text-anchor="start" x="29" y="-269.5" font-family="Helvetica,sans-Serif" font-size="10.00"> </text>
<text text-anchor="start" x="4.5" y="-254.5" font-family="Helvetica,sans-Serif" font-size="10.00">+</text>
<text text-anchor="start" x="17.5" y="-254.5" font-family="Helvetica,sans-Serif" font-size="10.00">accept()</text>
<polygon fill="#666666" stroke="#666666" points="0.5,-279.5 0.5,-279.5 61.5,-279.5 61.5,-279.5 0.5,-279.5"/>
<polygon fill="#666666" stroke="#666666" points="0.5,-264.5 0.5,-264.5 61.5,-264.5 61.5,-264.5 0.5,-264.5"/>
<polygon fill="none" stroke="#666666" points="0,-248 0,-297 61,-297 61,-248 0,-248"/>
</a>
</g>
</g>
<!-- Node2&#45;&gt;Node1 -->
<g id="edge1_Node000001_Node000002" class="edge">
<title>Node2&#45;&gt;Node1</title>
<g id="a_edge1_Node000001_Node000002"><a xlink:title=" ">
<path fill="none" stroke="#63b8ff" d="M16.65,-238.22C7.36,-210.27 -0.26,-170.31 17.5,-141 46.04,-93.88 107.16,-69.5 149.76,-57.74"/>
<polygon fill="none" stroke="#63b8ff" points="13.46,-239.68 20.11,-247.93 20.05,-237.34 13.46,-239.68"/>
</a>
</g>
</g>
<!-- Node6 -->
<g id="Node000006" class="node">
<title>Node6</title>
<g id="a_Node000006"><a xlink:title=" ">
<polygon fill="white" stroke="transparent" points="156,-195.5 27,-195.5 27,-146.5 156,-146.5 156,-195.5"/>
<text text-anchor="start" x="32.5" y="-183" font-family="Helvetica,sans-Serif" font-size="10.00">std::shared_ptr&lt; Stmt &gt;</text>
<text text-anchor="start" x="90" y="-168" font-family="Helvetica,sans-Serif" font-size="10.00"> </text>
<text text-anchor="start" x="43" y="-153" font-family="Helvetica,sans-Serif" font-size="10.00">+</text>
<text text-anchor="start" x="67.5" y="-153" font-family="Helvetica,sans-Serif" font-size="10.00">operator&#45;&gt;()</text>
<polygon fill="#666666" stroke="#666666" points="27.5,-178 27.5,-178 156.5,-178 156.5,-178 27.5,-178"/>
<polygon fill="#666666" stroke="#666666" points="27.5,-163 27.5,-163 156.5,-163 156.5,-163 27.5,-163"/>
<polygon fill="none" stroke="#666666" points="27,-146.5 27,-195.5 156,-195.5 156,-146.5 27,-146.5"/>
</a>
</g>
</g>
<!-- Node2&#45;&gt;Node6 -->
<g id="edge6_Node000006_Node000002" class="edge">
<title>Node2&#45;&gt;Node6</title>
<g id="a_edge6_Node000006_Node000002"><a xlink:title=" ">
<path fill="none" stroke="#63b8ff" d="M44.96,-247.92C52.57,-235.5 62.06,-220.03 70.47,-206.3"/>
<polygon fill="none" stroke="#63b8ff" points="70.66,-205.99 70.39,-198.78 76.94,-195.76 77.21,-202.96 70.66,-205.99"/>
</a>
</g>
<text text-anchor="middle" x="74" y="-222" font-family="Helvetica,sans-Serif" font-size="10.00" fill="grey"> +ptr</text>
</g>
<!-- Node3 -->
<g id="Node000003" class="node">
<title>Node3</title>
<g id="a_Node000003"><a xlink:title=" ">
<polygon fill="white" stroke="transparent" points="287,-201 174,-201 174,-141 287,-141 287,-201"/>
<text text-anchor="start" x="179.5" y="-189" font-family="Helvetica,sans-Serif" font-size="10.00">std::enable_shared</text>
<text text-anchor="start" x="179.5" y="-178" font-family="Helvetica,sans-Serif" font-size="10.00">_from_this&lt; While &gt;</text>
<text text-anchor="start" x="229" y="-163" font-family="Helvetica,sans-Serif" font-size="10.00"> </text>
<text text-anchor="start" x="229" y="-148" font-family="Helvetica,sans-Serif" font-size="10.00"> </text>
<polygon fill="#666666" stroke="#666666" points="174.5,-173 174.5,-173 287.5,-173 287.5,-173 174.5,-173"/>
<polygon fill="#666666" stroke="#666666" points="174.5,-158 174.5,-158 287.5,-158 287.5,-158 174.5,-158"/>
<polygon fill="none" stroke="#666666" points="174,-141 174,-201 287,-201 287,-141 174,-141"/>
</a>
</g>
</g>
<!-- Node3&#45;&gt;Node1 -->
<g id="edge2_Node000001_Node000003" class="edge">
<title>Node3&#45;&gt;Node1</title>
<g id="a_edge2_Node000001_Node000003"><a xlink:title=" ">
<path fill="none" stroke="#63b8ff" d="M219.27,-130.87C215.92,-119.17 212.21,-106.24 208.74,-94.14"/>
<polygon fill="none" stroke="#63b8ff" points="215.99,-132.13 222.12,-140.78 222.72,-130.2 215.99,-132.13"/>
</a>
</g>
</g>
<!-- Node4 -->
<g id="Node000004" class="node">
<title>Node4</title>
<g id="a_Node000004"><a xlink:title=" ">
<polygon fill="white" stroke="transparent" points="433.5,-195.5 305.5,-195.5 305.5,-146.5 433.5,-146.5 433.5,-195.5"/>
<text text-anchor="start" x="310.5" y="-183" font-family="Helvetica,sans-Serif" font-size="10.00">std::shared_ptr&lt; Expr &gt;</text>
<text text-anchor="start" x="367.5" y="-168" font-family="Helvetica,sans-Serif" font-size="10.00"> </text>
<text text-anchor="start" x="321" y="-153" font-family="Helvetica,sans-Serif" font-size="10.00">+</text>
<text text-anchor="start" x="345.5" y="-153" font-family="Helvetica,sans-Serif" font-size="10.00">operator&#45;&gt;()</text>
<polygon fill="#666666" stroke="#666666" points="305.5,-178 305.5,-178 433.5,-178 433.5,-178 305.5,-178"/>
<polygon fill="#666666" stroke="#666666" points="305.5,-163 305.5,-163 433.5,-163 433.5,-163 305.5,-163"/>
<polygon fill="none" stroke="#666666" points="305.5,-146.5 305.5,-195.5 433.5,-195.5 433.5,-146.5 305.5,-146.5"/>
</a>
</g>
</g>
<!-- Node4&#45;&gt;Node1 -->
<g id="edge3_Node000001_Node000004" class="edge">
<title>Node4&#45;&gt;Node1</title>
<g id="a_edge3_Node000001_Node000004"><a xlink:title=" ">
<path fill="none" stroke="#63b8ff" d="M335.95,-146.48C311.94,-129.64 279.06,-106.59 251.15,-87.02"/>
<polygon fill="none" stroke="#63b8ff" points="250.94,-86.87 243.73,-86.7 241.12,-79.98 248.33,-80.15 250.94,-86.87"/>
</a>
</g>
<text text-anchor="middle" x="324.5" y="-115" font-family="Helvetica,sans-Serif" font-size="10.00" fill="grey"> &#45;condition</text>
</g>
<!-- Node5 -->
<g id="Node000005" class="node">
<title>Node5</title>
<g id="a_Node000005"><a xlink:href="classExpr.html" target="_top" xlink:title="Abstract base class for expressions.">
<polygon fill="white" stroke="transparent" points="400,-297 339,-297 339,-248 400,-248 400,-297"/>
<text text-anchor="start" x="359" y="-284.5" font-family="Helvetica,sans-Serif" font-size="10.00">Expr</text>
<text text-anchor="start" x="368" y="-269.5" font-family="Helvetica,sans-Serif" font-size="10.00"> </text>
<text text-anchor="start" x="343.5" y="-254.5" font-family="Helvetica,sans-Serif" font-size="10.00">+</text>
<text text-anchor="start" x="356.5" y="-254.5" font-family="Helvetica,sans-Serif" font-size="10.00">accept()</text>
<polygon fill="#666666" stroke="#666666" points="339.5,-279.5 339.5,-279.5 400.5,-279.5 400.5,-279.5 339.5,-279.5"/>
<polygon fill="#666666" stroke="#666666" points="339.5,-264.5 339.5,-264.5 400.5,-264.5 400.5,-264.5 339.5,-264.5"/>
<polygon fill="none" stroke="#666666" points="339,-248 339,-297 400,-297 400,-248 339,-248"/>
</a>
</g>
</g>
<!-- Node5&#45;&gt;Node4 -->
<g id="edge4_Node000004_Node000005" class="edge">
<title>Node5&#45;&gt;Node4</title>
<g id="a_edge4_Node000004_Node000005"><a xlink:title=" ">
<path fill="none" stroke="#63b8ff" d="M369.5,-247.92C369.5,-235.99 369.5,-221.25 369.5,-207.94"/>
<polygon fill="none" stroke="#63b8ff" points="369.5,-207.76 365.5,-201.76 369.5,-195.76 373.5,-201.76 369.5,-207.76"/>
</a>
</g>
<text text-anchor="middle" x="382" y="-222" font-family="Helvetica,sans-Serif" font-size="10.00" fill="grey"> +ptr</text>
</g>
<!-- Node6&#45;&gt;Node1 -->
<g id="edge5_Node000001_Node000006" class="edge">
<title>Node6&#45;&gt;Node1</title>
<g id="a_edge5_Node000001_Node000006"><a xlink:title=" ">
<path fill="none" stroke="#63b8ff" d="M111.55,-146.48C122.01,-134.21 135.29,-118.63 148.18,-103.51"/>
<polygon fill="none" stroke="#63b8ff" points="148.34,-103.32 149.19,-96.16 156.13,-94.19 155.28,-101.35 148.34,-103.32"/>
</a>
</g>
<text text-anchor="middle" x="156" y="-115" font-family="Helvetica,sans-Serif" font-size="10.00" fill="grey"> &#45;body</text>
</g>
</g>
</svg>
</svg>

<style type='text/css'>
<![CDATA[
[data-mouse-over-selected='false'] { opacity: 0.7; }
[data-mouse-over-selected='true']  { opacity: 1.0; }
]]>
</style>
<script type="application/ecmascript"><![CDATA[
document.addEventListener('DOMContentLoaded', (event) => {
  highlightEdges();
  highlightAdjacentNodes();
});
]]></script>
</svg>
