<?xml version="1.0" encoding="UTF-8" standalone="no"?>
<!DOCTYPE svg PUBLIC "-//W3C//DTD SVG 1.1//EN"
 "http://www.w3.org/Graphics/SVG/1.1/DTD/svg11.dtd">
<!-- Generated by graphviz version 2.43.0 (0)
 -->
<!-- Title: Print Pages: 1 -->
<svg width="194pt" height="183pt"
 viewBox="0.00 0.00 194.00 183.00" xmlns="http://www.w3.org/2000/svg" xmlns:xlink="http://www.w3.org/1999/xlink">

<svg id="main" version="1.1" xmlns="http://www.w3.org/2000/svg" xmlns:xlink="http://www.w3.org/1999/xlink" xml:space="preserve" onload="init(evt)">
<style type="text/css"><![CDATA[
.node, .edge {opacity: 0.7;}
.node.selected, .edge.selected {opacity: 1;}
.edge:hover path { stroke: red; }
.edge:hover polygon { stroke: red; fill: red; }
]]></style>
<script type="application/ecmascript" xlink:href="svg.min.js"/>
<svg id="graph" class="graph">
<g id="graph0" class="graph" transform="scale(1 1) rotate(0) translate(4 179)">
<title>Print</title>
<!-- Node1 -->
<g id="Node000001" class="node">
<title>Node1</title>
<g id="a_Node000001"><a xlink:title="Represents a print statement.">
<polygon fill="#999999" stroke="transparent" points="130.5,-79 32.5,-79 32.5,0 130.5,0 130.5,-79"/>
<text text-anchor="start" x="70" y="-66.5" font-family="Helvetica,sans-Serif" font-size="10.00">Print</text>
<text text-anchor="start" x="39" y="-51.5" font-family="Helvetica,sans-Serif" font-size="10.00">&#45;</text>
<text text-anchor="start" x="49.5" y="-51.5" font-family="Helvetica,sans-Serif" font-size="10.00">expression</text>
<text text-anchor="start" x="36.5" y="-36.5" font-family="Helvetica,sans-Serif" font-size="10.00">+</text>
<text text-anchor="start" x="49.5" y="-36.5" font-family="Helvetica,sans-Serif" font-size="10.00">Print()</text>
<text text-anchor="start" x="36.5" y="-21.5" font-family="Helvetica,sans-Serif" font-size="10.00">+</text>
<text text-anchor="start" x="49.5" y="-21.5" font-family="Helvetica,sans-Serif" font-size="10.00">accept()</text>
<text text-anchor="start" x="36.5" y="-6.5" font-family="Helvetica,sans-Serif" font-size="10.00">+</text>
<text text-anchor="start" x="49.5" y="-6.5" font-family="Helvetica,sans-Serif" font-size="10.00">getExpression()</text>
<polygon fill="#666666" stroke="#666666" points="32.5,-61.5 32.5,-61.5 130.5,-61.5 130.5,-61.5 32.5,-61.5"/>
<polygon fill="#666666" stroke="#666666" points="32.5,-46.5 32.5,-46.5 47.5,-46.5 47.5,-46.5 32.5,-46.5"/>
<polygon fill="#666666" stroke="#666666" points="47.5,-46.5 47.5,-46.5 130.5,-46.5 130.5,-46.5 47.5,-46.5"/>
<polygon fill="none" stroke="#666666" points="32.5,0 32.5,-79 130.5,-79 130.5,0 32.5,0"/>
</a>
</g>
</g>
<!-- Node2 -->
<g id="Node000002" class="node">
<title>Node2</title>
<g id="a_Node000002"><a xlink:href="classStmt.html" target="_top" xlink:title="Abstract base class for statements.">
<polygon fill="white" stroke="transparent" points="61,-169.5 0,-169.5 0,-120.5 61,-120.5 61,-169.5"/>
<text text-anchor="start" x="19" y="-157" font-family="Helvetica,sans-Serif" font-size="10.00">Stmt</text>
<text text-anchor="start" x="29" y="-142" font-family="Helvetica,sans-Serif" font-size="10.00"> </text>
<text text-anchor="start" x="4.5" y="-127" font-family="Helvetica,sans-Serif" font-size="10.00">+</text>
<text text-anchor="start" x="17.5" y="-127" font-family="Helvetica,sans-Serif" font-size="10.00">accept()</text>
<polygon fill="#666666" stroke="#666666" points="0.5,-152 0.5,-152 61.5,-152 61.5,-152 0.5,-152"/>
<polygon fill="#666666" stroke="#666666" points="0.5,-137 0.5,-137 61.5,-137 61.5,-137 0.5,-137"/>
<polygon fill="none" stroke="#666666" points="0,-120.5 0,-169.5 61,-169.5 61,-120.5 0,-120.5"/>
</a>
</g>
</g>
<!-- Node2&#45;&gt;Node1 -->
<g id="edge1_Node000001_Node000002" class="edge">
<title>Node2&#45;&gt;Node1</title>
<g id="a_edge1_Node000001_Node000002"><a xlink:title=" ">
<path fill="none" stroke="#63b8ff" d="M46.63,-111.26C51.66,-101.06 57.25,-89.71 62.46,-79.14"/>
<polygon fill="none" stroke="#63b8ff" points="43.48,-109.74 42.2,-120.26 49.76,-112.83 43.48,-109.74"/>
</a>
</g>
</g>
<!-- Node3 -->
<g id="Node000003" class="node">
<title>Node3</title>
<g id="a_Node000003"><a xlink:title=" ">
<polygon fill="white" stroke="transparent" points="186,-175 79,-175 79,-115 186,-115 186,-175"/>
<text text-anchor="start" x="84.5" y="-163" font-family="Helvetica,sans-Serif" font-size="10.00">std::enable_shared</text>
<text text-anchor="start" x="84.5" y="-152" font-family="Helvetica,sans-Serif" font-size="10.00">_from_this&lt; Print &gt;</text>
<text text-anchor="start" x="131" y="-137" font-family="Helvetica,sans-Serif" font-size="10.00"> </text>
<text text-anchor="start" x="131" y="-122" font-family="Helvetica,sans-Serif" font-size="10.00"> </text>
<polygon fill="#666666" stroke="#666666" points="79.5,-147 79.5,-147 186.5,-147 186.5,-147 79.5,-147"/>
<polygon fill="#666666" stroke="#666666" points="79.5,-132 79.5,-132 186.5,-132 186.5,-132 79.5,-132"/>
<polygon fill="none" stroke="#666666" points="79,-115 79,-175 186,-175 186,-115 79,-115"/>
</a>
</g>
</g>
<!-- Node3&#45;&gt;Node1 -->
<g id="edge2_Node000001_Node000003" class="edge">
<title>Node3&#45;&gt;Node1</title>
<g id="a_edge2_Node000001_Node000003"><a xlink:title=" ">
<path fill="none" stroke="#63b8ff" d="M113.64,-105.72C109.35,-97.01 104.79,-87.76 100.49,-79.05"/>
<polygon fill="none" stroke="#63b8ff" points="110.6,-107.47 118.16,-114.89 116.88,-104.38 110.6,-107.47"/>
</a>
</g>
</g>
</g>
</svg>
</svg>

<style type='text/css'>
<![CDATA[
[data-mouse-over-selected='false'] { opacity: 0.7; }
[data-mouse-over-selected='true']  { opacity: 1.0; }
]]>
</style>
<script type="application/ecmascript"><![CDATA[
document.addEventListener('DOMContentLoaded', (event) => {
  highlightEdges();
  highlightAdjacentNodes();
});
]]></script>
</svg>
