<?xml version="1.0" encoding="UTF-8" standalone="no"?>
<!DOCTYPE svg PUBLIC "-//W3C//DTD SVG 1.1//EN"
 "http://www.w3.org/Graphics/SVG/1.1/DTD/svg11.dtd">
<!-- Generated by graphviz version 2.43.0 (0)
 -->
<!-- Title: Scanner Pages: 1 -->
<svg width="333pt" height="734pt"
 viewBox="0.00 0.00 333.00 734.00" xmlns="http://www.w3.org/2000/svg" xmlns:xlink="http://www.w3.org/1999/xlink">
<g id="graph0" class="graph" transform="scale(1 1) rotate(0) translate(4 730)">
<title>Scanner</title>
<!-- Node1 -->
<g id="Node000001" class="node">
<title>Node1</title>
<g id="a_Node000001"><a xlink:title="Lexical analyzer for the GSC programming language.">
<polygon fill="#999999" stroke="transparent" points="244.5,-244 159.5,-244 159.5,0 244.5,0 244.5,-244"/>
<text text-anchor="start" x="182.5" y="-232" font-family="Helvetica,sans-Serif" font-size="10.00">Scanner</text>
<text text-anchor="start" x="200.5" y="-217" font-family="Helvetica,sans-Serif" font-size="10.00"> </text>
<text text-anchor="start" x="164" y="-202" font-family="Helvetica,sans-Serif" font-size="10.00">+</text>
<text text-anchor="start" x="177" y="-202" font-family="Helvetica,sans-Serif" font-size="10.00">Scanner()</text>
<text text-anchor="start" x="164" y="-187" font-family="Helvetica,sans-Serif" font-size="10.00">+</text>
<text text-anchor="start" x="177" y="-187" font-family="Helvetica,sans-Serif" font-size="10.00">scanTokens()</text>
<text text-anchor="start" x="164" y="-172" font-family="Helvetica,sans-Serif" font-size="10.00">+</text>
<text text-anchor="start" x="177" y="-172" font-family="Helvetica,sans-Serif" font-size="10.00">getTokens()</text>
<text text-anchor="start" x="166.5" y="-157" font-family="Helvetica,sans-Serif" font-size="10.00">&#45;</text>
<text text-anchor="start" x="177" y="-157" font-family="Helvetica,sans-Serif" font-size="10.00">addToken()</text>
<text text-anchor="start" x="166.5" y="-142" font-family="Helvetica,sans-Serif" font-size="10.00">&#45;</text>
<text text-anchor="start" x="177" y="-142" font-family="Helvetica,sans-Serif" font-size="10.00">addToken()</text>
<text text-anchor="start" x="166.5" y="-127" font-family="Helvetica,sans-Serif" font-size="10.00">&#45;</text>
<text text-anchor="start" x="177" y="-127" font-family="Helvetica,sans-Serif" font-size="10.00">scanToken()</text>
<text text-anchor="start" x="166.5" y="-112" font-family="Helvetica,sans-Serif" font-size="10.00">&#45;</text>
<text text-anchor="start" x="177" y="-112" font-family="Helvetica,sans-Serif" font-size="10.00">identifier()</text>
<text text-anchor="start" x="166.5" y="-97" font-family="Helvetica,sans-Serif" font-size="10.00">&#45;</text>
<text text-anchor="start" x="177" y="-97" font-family="Helvetica,sans-Serif" font-size="10.00">number()</text>
<text text-anchor="start" x="166.5" y="-82" font-family="Helvetica,sans-Serif" font-size="10.00">&#45;</text>
<text text-anchor="start" x="177" y="-82" font-family="Helvetica,sans-Serif" font-size="10.00">string()</text>
<text text-anchor="start" x="166.5" y="-67" font-family="Helvetica,sans-Serif" font-size="10.00">&#45;</text>
<text text-anchor="start" x="177" y="-67" font-family="Helvetica,sans-Serif" font-size="10.00">match()</text>
<text text-anchor="start" x="166.5" y="-52" font-family="Helvetica,sans-Serif" font-size="10.00">&#45;</text>
<text text-anchor="start" x="177" y="-52" font-family="Helvetica,sans-Serif" font-size="10.00">peek()</text>
<text text-anchor="start" x="166.5" y="-37" font-family="Helvetica,sans-Serif" font-size="10.00">&#45;</text>
<text text-anchor="start" x="177" y="-37" font-family="Helvetica,sans-Serif" font-size="10.00">peekNext()</text>
<text text-anchor="start" x="166.5" y="-22" font-family="Helvetica,sans-Serif" font-size="10.00">&#45;</text>
<text text-anchor="start" x="177" y="-22" font-family="Helvetica,sans-Serif" font-size="10.00">isAtEnd()</text>
<text text-anchor="start" x="166.5" y="-7" font-family="Helvetica,sans-Serif" font-size="10.00">&#45;</text>
<text text-anchor="start" x="177" y="-7" font-family="Helvetica,sans-Serif" font-size="10.00">advance()</text>
<polygon fill="#666666" stroke="#666666" points="160,-227 160,-227 245,-227 245,-227 160,-227"/>
<polygon fill="#666666" stroke="#666666" points="160,-212 160,-212 245,-212 245,-212 160,-212"/>
<polygon fill="none" stroke="#666666" points="159.5,0 159.5,-244 244.5,-244 244.5,0 159.5,0"/>
</a>
</g>
</g>
<!-- Node2 -->
<g id="Node000002" class="node">
<title>Node2</title>
<g id="a_Node000002"><a xlink:title=" ">
<polygon fill="white" stroke="transparent" points="127,-340 39,-340 39,-291 127,-291 127,-340"/>
<text text-anchor="start" x="44" y="-327.5" font-family="Helvetica,sans-Serif" font-size="10.00">std::string_view</text>
<text text-anchor="start" x="81" y="-312.5" font-family="Helvetica,sans-Serif" font-size="10.00"> </text>
<text text-anchor="start" x="81" y="-297.5" font-family="Helvetica,sans-Serif" font-size="10.00"> </text>
<polygon fill="#666666" stroke="#666666" points="39,-322.5 39,-322.5 127,-322.5 127,-322.5 39,-322.5"/>
<polygon fill="#666666" stroke="#666666" points="39,-307.5 39,-307.5 127,-307.5 127,-307.5 39,-307.5"/>
<polygon fill="none" stroke="#666666" points="39,-291 39,-340 127,-340 127,-291 39,-291"/>
</a>
</g>
</g>
<!-- Node2&#45;&gt;Node1 -->
<g id="edge1_Node000001_Node000002" class="edge">
<title>Node2&#45;&gt;Node1</title>
<g id="a_edge1_Node000001_Node000002"><a xlink:title=" ">
<path fill="none" stroke="#63b8ff" d="M97.83,-290.63C111.66,-268.38 133.08,-233.91 152.91,-202"/>
<polygon fill="none" stroke="#63b8ff" points="152.94,-201.95 152.71,-194.74 159.28,-191.75 159.51,-198.96 152.94,-201.95"/>
</a>
</g>
<text text-anchor="middle" x="139.5" y="-265" font-family="Helvetica,sans-Serif" font-size="10.00" fill="grey"> &#45;program</text>
</g>
<!-- Node3 -->
<g id="Node000003" class="node">
<title>Node3</title>
<g id="a_Node000003"><a xlink:title=" ">
<polygon fill="white" stroke="transparent" points="142.5,-501 23.5,-501 23.5,-441 142.5,-441 142.5,-501"/>
<text text-anchor="start" x="29" y="-489" font-family="Helvetica,sans-Serif" font-size="10.00">std::basic_string_view</text>
<text text-anchor="start" x="60.5" y="-478" font-family="Helvetica,sans-Serif" font-size="10.00">&lt; Char &gt;</text>
<text text-anchor="start" x="81.5" y="-463" font-family="Helvetica,sans-Serif" font-size="10.00"> </text>
<text text-anchor="start" x="81.5" y="-448" font-family="Helvetica,sans-Serif" font-size="10.00"> </text>
<polygon fill="#666666" stroke="#666666" points="24,-473 24,-473 143,-473 143,-473 24,-473"/>
<polygon fill="#666666" stroke="#666666" points="24,-458 24,-458 143,-458 143,-458 24,-458"/>
<polygon fill="none" stroke="#666666" points="23.5,-441 23.5,-501 142.5,-501 142.5,-441 23.5,-441"/>
</a>
</g>
</g>
<!-- Node3&#45;&gt;Node2 -->
<g id="edge2_Node000002_Node000003" class="edge">
<title>Node3&#45;&gt;Node2</title>
<g id="a_edge2_Node000002_Node000003"><a xlink:title=" ">
<path fill="none" stroke="#63b8ff" d="M83,-430.67C83,-402.04 83,-364.2 83,-340.1"/>
<polygon fill="none" stroke="#63b8ff" points="79.5,-430.77 83,-440.77 86.5,-430.77 79.5,-430.77"/>
</a>
</g>
</g>
<!-- Node4 -->
<g id="Node000004" class="node">
<title>Node4</title>
<g id="a_Node000004"><a xlink:title=" ">
<polygon fill="white" stroke="transparent" points="258.5,-340 145.5,-340 145.5,-291 258.5,-291 258.5,-340"/>
<text text-anchor="start" x="151" y="-327.5" font-family="Helvetica,sans-Serif" font-size="10.00">std::vector&lt; Token &gt;</text>
<text text-anchor="start" x="200.5" y="-312.5" font-family="Helvetica,sans-Serif" font-size="10.00"> </text>
<text text-anchor="start" x="200.5" y="-297.5" font-family="Helvetica,sans-Serif" font-size="10.00"> </text>
<polygon fill="#666666" stroke="#666666" points="146,-322.5 146,-322.5 259,-322.5 259,-322.5 146,-322.5"/>
<polygon fill="#666666" stroke="#666666" points="146,-307.5 146,-307.5 259,-307.5 259,-307.5 146,-307.5"/>
<polygon fill="none" stroke="#666666" points="145.5,-291 145.5,-340 258.5,-340 258.5,-291 145.5,-291"/>
</a>
</g>
</g>
<!-- Node4&#45;&gt;Node1 -->
<g id="edge3_Node000001_Node000004" class="edge">
<title>Node4&#45;&gt;Node1</title>
<g id="a_edge3_Node000001_Node000004"><a xlink:title=" ">
<path fill="none" stroke="#63b8ff" d="M202,-290.63C202,-281.04 202,-269.17 202,-256.22"/>
<polygon fill="none" stroke="#63b8ff" points="202,-256.06 198,-250.06 202,-244.06 206,-250.06 202,-256.06"/>
</a>
</g>
<text text-anchor="middle" x="222" y="-265" font-family="Helvetica,sans-Serif" font-size="10.00" fill="grey"> &#45;tokens</text>
</g>
<!-- Node5 -->
<g id="Node000005" class="node">
<title>Node5</title>
<g id="a_Node000005"><a xlink:href="classToken.html" target="_top" xlink:title="Represents a token in the source code.">
<polygon fill="white" stroke="transparent" points="243.5,-533 160.5,-533 160.5,-409 243.5,-409 243.5,-533"/>
<text text-anchor="start" x="188.5" y="-521" font-family="Helvetica,sans-Serif" font-size="10.00">Token</text>
<text text-anchor="start" x="200.5" y="-506" font-family="Helvetica,sans-Serif" font-size="10.00"> </text>
<text text-anchor="start" x="165" y="-491" font-family="Helvetica,sans-Serif" font-size="10.00">+</text>
<text text-anchor="start" x="178" y="-491" font-family="Helvetica,sans-Serif" font-size="10.00">Token()</text>
<text text-anchor="start" x="165" y="-476" font-family="Helvetica,sans-Serif" font-size="10.00">+</text>
<text text-anchor="start" x="178" y="-476" font-family="Helvetica,sans-Serif" font-size="10.00">getType()</text>
<text text-anchor="start" x="165" y="-461" font-family="Helvetica,sans-Serif" font-size="10.00">+</text>
<text text-anchor="start" x="178" y="-461" font-family="Helvetica,sans-Serif" font-size="10.00">getLexeme()</text>
<text text-anchor="start" x="165" y="-446" font-family="Helvetica,sans-Serif" font-size="10.00">+</text>
<text text-anchor="start" x="178" y="-446" font-family="Helvetica,sans-Serif" font-size="10.00">getLiteral()</text>
<text text-anchor="start" x="165" y="-431" font-family="Helvetica,sans-Serif" font-size="10.00">+</text>
<text text-anchor="start" x="178" y="-431" font-family="Helvetica,sans-Serif" font-size="10.00">getLine()</text>
<text text-anchor="start" x="165" y="-416" font-family="Helvetica,sans-Serif" font-size="10.00">+</text>
<text text-anchor="start" x="178" y="-416" font-family="Helvetica,sans-Serif" font-size="10.00">toString()</text>
<polygon fill="#666666" stroke="#666666" points="161,-516 161,-516 244,-516 244,-516 161,-516"/>
<polygon fill="#666666" stroke="#666666" points="161,-501 161,-501 244,-501 244,-501 161,-501"/>
<polygon fill="none" stroke="#666666" points="160.5,-409 160.5,-533 243.5,-533 243.5,-409 160.5,-409"/>
</a>
</g>
</g>
<!-- Node5&#45;&gt;Node4 -->
<g id="edge4_Node000004_Node000005" class="edge">
<title>Node5&#45;&gt;Node4</title>
<g id="a_edge4_Node000004_Node000005"><a xlink:title=" ">
<path fill="none" stroke="#63b8ff" d="M202,-408.89C202,-389.7 202,-369.15 202,-352.32"/>
<polygon fill="none" stroke="#63b8ff" points="202,-352.25 198,-346.25 202,-340.25 206,-346.25 202,-352.25"/>
</a>
</g>
<text text-anchor="middle" x="231" y="-372" font-family="Helvetica,sans-Serif" font-size="10.00" fill="grey"> +elements</text>
</g>
<!-- Node6 -->
<g id="Node000006" class="node">
<title>Node6</title>
<g id="a_Node000006"><a xlink:title=" ">
<polygon fill="white" stroke="transparent" points="90,-629 0,-629 0,-580 90,-580 90,-629"/>
<text text-anchor="start" x="5" y="-616.5" font-family="Helvetica,sans-Serif" font-size="10.00">const TokenType</text>
<text text-anchor="start" x="43" y="-601.5" font-family="Helvetica,sans-Serif" font-size="10.00"> </text>
<text text-anchor="start" x="43" y="-586.5" font-family="Helvetica,sans-Serif" font-size="10.00"> </text>
<polygon fill="#666666" stroke="#666666" points="0,-611.5 0,-611.5 90,-611.5 90,-611.5 0,-611.5"/>
<polygon fill="#666666" stroke="#666666" points="0,-596.5 0,-596.5 90,-596.5 90,-596.5 0,-596.5"/>
<polygon fill="none" stroke="#666666" points="0,-580 0,-629 90,-629 90,-580 0,-580"/>
</a>
</g>
</g>
<!-- Node6&#45;&gt;Node5 -->
<g id="edge5_Node000005_Node000006" class="edge">
<title>Node6&#45;&gt;Node5</title>
<g id="a_edge5_Node000005_Node000006"><a xlink:title=" ">
<path fill="none" stroke="#63b8ff" d="M76.03,-579.89C88.79,-570.52 103.86,-559.89 118,-551 132.14,-542.11 138.08,-543.59 151,-533 151.1,-532.92 151.2,-532.84 151.3,-532.75"/>
<polygon fill="none" stroke="#63b8ff" points="151.5,-532.57 153.29,-525.58 160.42,-524.54 158.64,-531.53 151.5,-532.57"/>
</a>
</g>
<text text-anchor="middle" x="132.5" y="-554" font-family="Helvetica,sans-Serif" font-size="10.00" fill="grey"> &#45;type</text>
</g>
<!-- Node7 -->
<g id="Node000007" class="node">
<title>Node7</title>
<g id="a_Node000007"><a xlink:title=" ">
<polygon fill="white" stroke="transparent" points="167.5,-629 108.5,-629 108.5,-580 167.5,-580 167.5,-629"/>
<text text-anchor="start" x="114" y="-616.5" font-family="Helvetica,sans-Serif" font-size="10.00">std::string</text>
<text text-anchor="start" x="136.5" y="-601.5" font-family="Helvetica,sans-Serif" font-size="10.00"> </text>
<text text-anchor="start" x="136.5" y="-586.5" font-family="Helvetica,sans-Serif" font-size="10.00"> </text>
<polygon fill="#666666" stroke="#666666" points="109,-611.5 109,-611.5 168,-611.5 168,-611.5 109,-611.5"/>
<polygon fill="#666666" stroke="#666666" points="109,-596.5 109,-596.5 168,-596.5 168,-596.5 109,-596.5"/>
<polygon fill="none" stroke="#666666" points="108.5,-580 108.5,-629 167.5,-629 167.5,-580 108.5,-580"/>
</a>
</g>
</g>
<!-- Node7&#45;&gt;Node5 -->
<g id="edge6_Node000005_Node000007" class="edge">
<title>Node7&#45;&gt;Node5</title>
<g id="a_edge6_Node000005_Node000007"><a xlink:title=" ">
<path fill="none" stroke="#63b8ff" d="M144.44,-579.82C147.25,-570.64 150.85,-560.16 155,-551 156.03,-548.73 157.11,-546.44 158.22,-544.14"/>
<polygon fill="none" stroke="#63b8ff" points="158.25,-544.09 157.42,-536.92 163.7,-533.4 164.54,-540.56 158.25,-544.09"/>
</a>
</g>
<text text-anchor="middle" x="176.5" y="-554" font-family="Helvetica,sans-Serif" font-size="10.00" fill="grey"> &#45;lexeme</text>
</g>
<!-- Node8 -->
<g id="Node000008" class="node">
<title>Node8</title>
<g id="a_Node000008"><a xlink:title=" ">
<polygon fill="white" stroke="transparent" points="187,-726 89,-726 89,-666 187,-666 187,-726"/>
<text text-anchor="start" x="94" y="-714" font-family="Helvetica,sans-Serif" font-size="10.00">std::basic_string&lt;</text>
<text text-anchor="start" x="119.5" y="-703" font-family="Helvetica,sans-Serif" font-size="10.00"> Char &gt;</text>
<text text-anchor="start" x="136" y="-688" font-family="Helvetica,sans-Serif" font-size="10.00"> </text>
<text text-anchor="start" x="136" y="-673" font-family="Helvetica,sans-Serif" font-size="10.00"> </text>
<polygon fill="#666666" stroke="#666666" points="89,-698 89,-698 187,-698 187,-698 89,-698"/>
<polygon fill="#666666" stroke="#666666" points="89,-683 89,-683 187,-683 187,-683 89,-683"/>
<polygon fill="none" stroke="#666666" points="89,-666 89,-726 187,-726 187,-666 89,-666"/>
</a>
</g>
</g>
<!-- Node8&#45;&gt;Node7 -->
<g id="edge7_Node000007_Node000008" class="edge">
<title>Node8&#45;&gt;Node7</title>
<g id="a_edge7_Node000007_Node000008"><a xlink:title=" ">
<path fill="none" stroke="#63b8ff" d="M138,-655.41C138,-646.47 138,-637.25 138,-629.21"/>
<polygon fill="none" stroke="#63b8ff" points="134.5,-655.69 138,-665.69 141.5,-655.69 134.5,-655.69"/>
</a>
</g>
</g>
<!-- Node9 -->
<g id="Node000009" class="node">
<title>Node9</title>
<g id="a_Node000009"><a xlink:title=" ">
<polygon fill="white" stroke="transparent" points="216.5,-629 187.5,-629 187.5,-580 216.5,-580 216.5,-629"/>
<text text-anchor="start" x="193" y="-616.5" font-family="Helvetica,sans-Serif" font-size="10.00">any</text>
<text text-anchor="start" x="200.5" y="-601.5" font-family="Helvetica,sans-Serif" font-size="10.00"> </text>
<text text-anchor="start" x="200.5" y="-586.5" font-family="Helvetica,sans-Serif" font-size="10.00"> </text>
<polygon fill="#666666" stroke="#666666" points="188,-611.5 188,-611.5 217,-611.5 217,-611.5 188,-611.5"/>
<polygon fill="#666666" stroke="#666666" points="188,-596.5 188,-596.5 217,-596.5 217,-596.5 188,-596.5"/>
<polygon fill="none" stroke="#666666" points="187.5,-580 187.5,-629 216.5,-629 216.5,-580 187.5,-580"/>
</a>
</g>
</g>
<!-- Node9&#45;&gt;Node5 -->
<g id="edge8_Node000005_Node000009" class="edge">
<title>Node9&#45;&gt;Node5</title>
<g id="a_edge8_Node000005_Node000009"><a xlink:title=" ">
<path fill="none" stroke="#63b8ff" d="M202,-579.99C202,-570.03 202,-557.82 202,-545.24"/>
<polygon fill="none" stroke="#63b8ff" points="202,-545.12 198,-539.12 202,-533.12 206,-539.12 202,-545.12"/>
</a>
</g>
<text text-anchor="middle" x="220" y="-554" font-family="Helvetica,sans-Serif" font-size="10.00" fill="grey"> &#45;literal</text>
</g>
<!-- Node10 -->
<g id="Node000010" class="node">
<title>Node10</title>
<g id="a_Node000010"><a xlink:title=" ">
<polygon fill="white" stroke="transparent" points="292.5,-629 269.5,-629 269.5,-580 292.5,-580 292.5,-629"/>
<text text-anchor="start" x="275" y="-616.5" font-family="Helvetica,sans-Serif" font-size="10.00">int</text>
<text text-anchor="start" x="279.5" y="-601.5" font-family="Helvetica,sans-Serif" font-size="10.00"> </text>
<text text-anchor="start" x="279.5" y="-586.5" font-family="Helvetica,sans-Serif" font-size="10.00"> </text>
<polygon fill="#666666" stroke="#666666" points="270,-611.5 270,-611.5 293,-611.5 293,-611.5 270,-611.5"/>
<polygon fill="#666666" stroke="#666666" points="270,-596.5 270,-596.5 293,-596.5 293,-596.5 270,-596.5"/>
<polygon fill="none" stroke="#666666" points="269.5,-580 269.5,-629 292.5,-629 292.5,-580 269.5,-580"/>
</a>
</g>
</g>
<!-- Node10&#45;&gt;Node1 -->
<g id="edge10_Node000001_Node000010" class="edge">
<title>Node10&#45;&gt;Node1</title>
<g id="a_edge10_Node000001_Node000010"><a xlink:title=" ">
<path fill="none" stroke="#63b8ff" d="M283.93,-579.74C284.74,-570.75 285.33,-560.41 285,-551 281,-435.24 292.18,-404.06 267,-291 262.49,-270.75 255.95,-249.71 248.74,-229.65"/>
<polygon fill="none" stroke="#63b8ff" points="248.7,-229.55 242.87,-225.31 244.55,-218.29 250.38,-222.54 248.7,-229.55"/>
</a>
</g>
<text text-anchor="middle" x="304" y="-383" font-family="Helvetica,sans-Serif" font-size="10.00" fill="grey"> &#45;current</text>
<text text-anchor="middle" x="304" y="-372" font-family="Helvetica,sans-Serif" font-size="10.00" fill="grey">&#45;line</text>
<text text-anchor="middle" x="304" y="-361" font-family="Helvetica,sans-Serif" font-size="10.00" fill="grey">&#45;start</text>
</g>
<!-- Node10&#45;&gt;Node5 -->
<g id="edge9_Node000005_Node000010" class="edge">
<title>Node10&#45;&gt;Node5</title>
<g id="a_edge9_Node000005_Node000010"><a xlink:title=" ">
<path fill="none" stroke="#63b8ff" d="M269.34,-584.1C262.72,-573.07 253.96,-558.5 244.97,-543.53"/>
<polygon fill="none" stroke="#63b8ff" points="244.91,-543.42 238.39,-540.34 238.73,-533.14 245.25,-536.22 244.91,-543.42"/>
</a>
</g>
<text text-anchor="middle" x="268.5" y="-554" font-family="Helvetica,sans-Serif" font-size="10.00" fill="grey"> &#45;line</text>
</g>
</g>
</svg>
