<?xml version="1.0" encoding="UTF-8" standalone="no"?>
<!DOCTYPE svg PUBLIC "-//W3C//DTD SVG 1.1//EN"
 "http://www.w3.org/Graphics/SVG/1.1/DTD/svg11.dtd">
<!-- Generated by graphviz version 2.43.0 (0)
 -->
<!-- Title: Expression Pages: 1 -->
<svg width="226pt" height="183pt"
 viewBox="0.00 0.00 225.50 183.00" xmlns="http://www.w3.org/2000/svg" xmlns:xlink="http://www.w3.org/1999/xlink">
<g id="graph0" class="graph" transform="scale(1 1) rotate(0) translate(4 179)">
<title>Expression</title>
<!-- Node1 -->
<g id="Node000001" class="node">
<title>Node1</title>
<g id="a_Node000001"><a xlink:title="Represents an expression statement.">
<polygon fill="#999999" stroke="transparent" points="138.5,-79 40.5,-79 40.5,0 138.5,0 138.5,-79"/>
<text text-anchor="start" x="62.5" y="-66.5" font-family="Helvetica,sans-Serif" font-size="10.00">Expression</text>
<text text-anchor="start" x="47" y="-51.5" font-family="Helvetica,sans-Serif" font-size="10.00">&#45;</text>
<text text-anchor="start" x="57.5" y="-51.5" font-family="Helvetica,sans-Serif" font-size="10.00">expression</text>
<text text-anchor="start" x="44.5" y="-36.5" font-family="Helvetica,sans-Serif" font-size="10.00">+</text>
<text text-anchor="start" x="57.5" y="-36.5" font-family="Helvetica,sans-Serif" font-size="10.00">Expression()</text>
<text text-anchor="start" x="44.5" y="-21.5" font-family="Helvetica,sans-Serif" font-size="10.00">+</text>
<text text-anchor="start" x="57.5" y="-21.5" font-family="Helvetica,sans-Serif" font-size="10.00">accept()</text>
<text text-anchor="start" x="44.5" y="-6.5" font-family="Helvetica,sans-Serif" font-size="10.00">+</text>
<text text-anchor="start" x="57.5" y="-6.5" font-family="Helvetica,sans-Serif" font-size="10.00">getExpression()</text>
<polygon fill="#666666" stroke="#666666" points="40.5,-61.5 40.5,-61.5 138.5,-61.5 138.5,-61.5 40.5,-61.5"/>
<polygon fill="#666666" stroke="#666666" points="40.5,-46.5 40.5,-46.5 55.5,-46.5 55.5,-46.5 40.5,-46.5"/>
<polygon fill="#666666" stroke="#666666" points="55.5,-46.5 55.5,-46.5 138.5,-46.5 138.5,-46.5 55.5,-46.5"/>
<polygon fill="none" stroke="#666666" points="40.5,0 40.5,-79 138.5,-79 138.5,0 40.5,0"/>
</a>
</g>
</g>
<!-- Node2 -->
<g id="Node000002" class="node">
<title>Node2</title>
<g id="a_Node000002"><a xlink:href="classStmt.html" target="_top" xlink:title="Abstract base class for statements.">
<polygon fill="white" stroke="transparent" points="61,-169.5 0,-169.5 0,-120.5 61,-120.5 61,-169.5"/>
<text text-anchor="start" x="19" y="-157" font-family="Helvetica,sans-Serif" font-size="10.00">Stmt</text>
<text text-anchor="start" x="29" y="-142" font-family="Helvetica,sans-Serif" font-size="10.00"> </text>
<text text-anchor="start" x="4.5" y="-127" font-family="Helvetica,sans-Serif" font-size="10.00">+</text>
<text text-anchor="start" x="17.5" y="-127" font-family="Helvetica,sans-Serif" font-size="10.00">accept()</text>
<polygon fill="#666666" stroke="#666666" points="0.5,-152 0.5,-152 61.5,-152 61.5,-152 0.5,-152"/>
<polygon fill="#666666" stroke="#666666" points="0.5,-137 0.5,-137 61.5,-137 61.5,-137 0.5,-137"/>
<polygon fill="none" stroke="#666666" points="0,-120.5 0,-169.5 61,-169.5 61,-120.5 0,-120.5"/>
</a>
</g>
</g>
<!-- Node2&#45;&gt;Node1 -->
<g id="edge1_Node000001_Node000002" class="edge">
<title>Node2&#45;&gt;Node1</title>
<g id="a_edge1_Node000001_Node000002"><a xlink:title=" ">
<path fill="none" stroke="#63b8ff" d="M49.16,-111.26C54.98,-101.06 61.45,-89.71 67.47,-79.14"/>
<polygon fill="none" stroke="#63b8ff" points="45.95,-109.83 44.04,-120.26 52.03,-113.3 45.95,-109.83"/>
</a>
</g>
</g>
<!-- Node3 -->
<g id="Node000003" class="node">
<title>Node3</title>
<g id="a_Node000003"><a xlink:title=" ">
<polygon fill="white" stroke="transparent" points="217.5,-175 79.5,-175 79.5,-115 217.5,-115 217.5,-175"/>
<text text-anchor="start" x="84.5" y="-163" font-family="Helvetica,sans-Serif" font-size="10.00">std::enable_shared</text>
<text text-anchor="start" x="84.5" y="-152" font-family="Helvetica,sans-Serif" font-size="10.00">_from_this&lt; Expression &gt;</text>
<text text-anchor="start" x="146.5" y="-137" font-family="Helvetica,sans-Serif" font-size="10.00"> </text>
<text text-anchor="start" x="146.5" y="-122" font-family="Helvetica,sans-Serif" font-size="10.00"> </text>
<polygon fill="#666666" stroke="#666666" points="79.5,-147 79.5,-147 217.5,-147 217.5,-147 79.5,-147"/>
<polygon fill="#666666" stroke="#666666" points="79.5,-132 79.5,-132 217.5,-132 217.5,-132 79.5,-132"/>
<polygon fill="none" stroke="#666666" points="79.5,-115 79.5,-175 217.5,-175 217.5,-115 79.5,-115"/>
</a>
</g>
</g>
<!-- Node3&#45;&gt;Node1 -->
<g id="edge2_Node000001_Node000003" class="edge">
<title>Node3&#45;&gt;Node1</title>
<g id="a_edge2_Node000001_Node000003"><a xlink:title=" ">
<path fill="none" stroke="#63b8ff" d="M126.83,-105.99C121.83,-97.21 116.49,-87.85 111.47,-79.05"/>
<polygon fill="none" stroke="#63b8ff" points="123.92,-107.94 131.91,-114.89 130,-104.47 123.92,-107.94"/>
</a>
</g>
</g>
</g>
</svg>
