<?xml version="1.0" encoding="UTF-8" standalone="no"?>
<!DOCTYPE svg PUBLIC "-//W3C//DTD SVG 1.1//EN"
 "http://www.w3.org/Graphics/SVG/1.1/DTD/svg11.dtd">
<!-- Generated by graphviz version 2.43.0 (0)
 -->
<!-- Title: Expression Pages: 1 -->
<svg width="372pt" height="290pt"
 viewBox="0.00 0.00 371.50 290.00" xmlns="http://www.w3.org/2000/svg" xmlns:xlink="http://www.w3.org/1999/xlink">
<g id="graph0" class="graph" transform="scale(1 1) rotate(0) translate(4 286)">
<title>Expression</title>
<!-- Node1 -->
<g id="Node000001" class="node">
<title>Node1</title>
<g id="a_Node000001"><a xlink:title="Represents an expression statement.">
<polygon fill="#999999" stroke="transparent" points="197.5,-79 99.5,-79 99.5,0 197.5,0 197.5,-79"/>
<text text-anchor="start" x="121.5" y="-66.5" font-family="Helvetica,sans-Serif" font-size="10.00">Expression</text>
<text text-anchor="start" x="146.5" y="-51.5" font-family="Helvetica,sans-Serif" font-size="10.00"> </text>
<text text-anchor="start" x="103.5" y="-36.5" font-family="Helvetica,sans-Serif" font-size="10.00">+</text>
<text text-anchor="start" x="116.5" y="-36.5" font-family="Helvetica,sans-Serif" font-size="10.00">Expression()</text>
<text text-anchor="start" x="103.5" y="-21.5" font-family="Helvetica,sans-Serif" font-size="10.00">+</text>
<text text-anchor="start" x="116.5" y="-21.5" font-family="Helvetica,sans-Serif" font-size="10.00">accept()</text>
<text text-anchor="start" x="103.5" y="-6.5" font-family="Helvetica,sans-Serif" font-size="10.00">+</text>
<text text-anchor="start" x="116.5" y="-6.5" font-family="Helvetica,sans-Serif" font-size="10.00">getExpression()</text>
<polygon fill="#666666" stroke="#666666" points="99.5,-61.5 99.5,-61.5 197.5,-61.5 197.5,-61.5 99.5,-61.5"/>
<polygon fill="#666666" stroke="#666666" points="99.5,-46.5 99.5,-46.5 197.5,-46.5 197.5,-46.5 99.5,-46.5"/>
<polygon fill="none" stroke="#666666" points="99.5,0 99.5,-79 197.5,-79 197.5,0 99.5,0"/>
</a>
</g>
</g>
<!-- Node2 -->
<g id="Node000002" class="node">
<title>Node2</title>
<g id="a_Node000002"><a xlink:href="classStmt.html" target="_top" xlink:title="Abstract base class for statements.">
<polygon fill="white" stroke="transparent" points="61,-180.5 0,-180.5 0,-131.5 61,-131.5 61,-180.5"/>
<text text-anchor="start" x="19" y="-168" font-family="Helvetica,sans-Serif" font-size="10.00">Stmt</text>
<text text-anchor="start" x="29" y="-153" font-family="Helvetica,sans-Serif" font-size="10.00"> </text>
<text text-anchor="start" x="4.5" y="-138" font-family="Helvetica,sans-Serif" font-size="10.00">+</text>
<text text-anchor="start" x="17.5" y="-138" font-family="Helvetica,sans-Serif" font-size="10.00">accept()</text>
<polygon fill="#666666" stroke="#666666" points="0.5,-163 0.5,-163 61.5,-163 61.5,-163 0.5,-163"/>
<polygon fill="#666666" stroke="#666666" points="0.5,-148 0.5,-148 61.5,-148 61.5,-148 0.5,-148"/>
<polygon fill="none" stroke="#666666" points="0,-131.5 0,-180.5 61,-180.5 61,-131.5 0,-131.5"/>
</a>
</g>
</g>
<!-- Node2&#45;&gt;Node1 -->
<g id="edge1_Node000001_Node000002" class="edge">
<title>Node2&#45;&gt;Node1</title>
<g id="a_edge1_Node000001_Node000002"><a xlink:title=" ">
<path fill="none" stroke="#63b8ff" d="M62.16,-124.27C76.49,-110.37 93.58,-93.79 108.75,-79.07"/>
<polygon fill="none" stroke="#63b8ff" points="59.69,-121.8 54.95,-131.28 64.56,-126.82 59.69,-121.8"/>
</a>
</g>
</g>
<!-- Node3 -->
<g id="Node000003" class="node">
<title>Node3</title>
<g id="a_Node000003"><a xlink:title=" ">
<polygon fill="white" stroke="transparent" points="217.5,-186 79.5,-186 79.5,-126 217.5,-126 217.5,-186"/>
<text text-anchor="start" x="84.5" y="-174" font-family="Helvetica,sans-Serif" font-size="10.00">std::enable_shared</text>
<text text-anchor="start" x="84.5" y="-163" font-family="Helvetica,sans-Serif" font-size="10.00">_from_this&lt; Expression &gt;</text>
<text text-anchor="start" x="146.5" y="-148" font-family="Helvetica,sans-Serif" font-size="10.00"> </text>
<text text-anchor="start" x="146.5" y="-133" font-family="Helvetica,sans-Serif" font-size="10.00"> </text>
<polygon fill="#666666" stroke="#666666" points="79.5,-158 79.5,-158 217.5,-158 217.5,-158 79.5,-158"/>
<polygon fill="#666666" stroke="#666666" points="79.5,-143 79.5,-143 217.5,-143 217.5,-143 79.5,-143"/>
<polygon fill="none" stroke="#666666" points="79.5,-126 79.5,-186 217.5,-186 217.5,-126 79.5,-126"/>
</a>
</g>
</g>
<!-- Node3&#45;&gt;Node1 -->
<g id="edge2_Node000001_Node000003" class="edge">
<title>Node3&#45;&gt;Node1</title>
<g id="a_edge2_Node000001_Node000003"><a xlink:title=" ">
<path fill="none" stroke="#63b8ff" d="M148.5,-115.76C148.5,-103.93 148.5,-90.95 148.5,-79.15"/>
<polygon fill="none" stroke="#63b8ff" points="145,-115.81 148.5,-125.81 152,-115.81 145,-115.81"/>
</a>
</g>
</g>
<!-- Node4 -->
<g id="Node000004" class="node">
<title>Node4</title>
<g id="a_Node000004"><a xlink:title=" ">
<polygon fill="white" stroke="transparent" points="363.5,-180.5 235.5,-180.5 235.5,-131.5 363.5,-131.5 363.5,-180.5"/>
<text text-anchor="start" x="240.5" y="-168" font-family="Helvetica,sans-Serif" font-size="10.00">std::shared_ptr&lt; Expr &gt;</text>
<text text-anchor="start" x="297.5" y="-153" font-family="Helvetica,sans-Serif" font-size="10.00"> </text>
<text text-anchor="start" x="251" y="-138" font-family="Helvetica,sans-Serif" font-size="10.00">+</text>
<text text-anchor="start" x="275.5" y="-138" font-family="Helvetica,sans-Serif" font-size="10.00">operator&#45;&gt;()</text>
<polygon fill="#666666" stroke="#666666" points="235.5,-163 235.5,-163 363.5,-163 363.5,-163 235.5,-163"/>
<polygon fill="#666666" stroke="#666666" points="235.5,-148 235.5,-148 363.5,-148 363.5,-148 235.5,-148"/>
<polygon fill="none" stroke="#666666" points="235.5,-131.5 235.5,-180.5 363.5,-180.5 363.5,-131.5 235.5,-131.5"/>
</a>
</g>
</g>
<!-- Node4&#45;&gt;Node1 -->
<g id="edge3_Node000001_Node000004" class="edge">
<title>Node4&#45;&gt;Node1</title>
<g id="a_edge3_Node000001_Node000004"><a xlink:title=" ">
<path fill="none" stroke="#63b8ff" d="M268.21,-131.28C250.61,-117.93 228.06,-100.83 207.29,-85.08"/>
<polygon fill="none" stroke="#63b8ff" points="207.15,-84.97 199.95,-84.53 197.58,-77.72 204.78,-78.16 207.15,-84.97"/>
</a>
</g>
<text text-anchor="middle" x="263" y="-100" font-family="Helvetica,sans-Serif" font-size="10.00" fill="grey"> &#45;expression</text>
</g>
<!-- Node5 -->
<g id="Node000005" class="node">
<title>Node5</title>
<g id="a_Node000005"><a xlink:href="classExpr.html" target="_top" xlink:title="Abstract base class for expressions.">
<polygon fill="white" stroke="transparent" points="330,-282 269,-282 269,-233 330,-233 330,-282"/>
<text text-anchor="start" x="289" y="-269.5" font-family="Helvetica,sans-Serif" font-size="10.00">Expr</text>
<text text-anchor="start" x="298" y="-254.5" font-family="Helvetica,sans-Serif" font-size="10.00"> </text>
<text text-anchor="start" x="273.5" y="-239.5" font-family="Helvetica,sans-Serif" font-size="10.00">+</text>
<text text-anchor="start" x="286.5" y="-239.5" font-family="Helvetica,sans-Serif" font-size="10.00">accept()</text>
<polygon fill="#666666" stroke="#666666" points="269.5,-264.5 269.5,-264.5 330.5,-264.5 330.5,-264.5 269.5,-264.5"/>
<polygon fill="#666666" stroke="#666666" points="269.5,-249.5 269.5,-249.5 330.5,-249.5 330.5,-249.5 269.5,-249.5"/>
<polygon fill="none" stroke="#666666" points="269,-233 269,-282 330,-282 330,-233 269,-233"/>
</a>
</g>
</g>
<!-- Node5&#45;&gt;Node4 -->
<g id="edge4_Node000004_Node000005" class="edge">
<title>Node5&#45;&gt;Node4</title>
<g id="a_edge4_Node000004_Node000005"><a xlink:title=" ">
<path fill="none" stroke="#63b8ff" d="M299.5,-232.92C299.5,-220.99 299.5,-206.25 299.5,-192.94"/>
<polygon fill="none" stroke="#63b8ff" points="299.5,-192.76 295.5,-186.76 299.5,-180.76 303.5,-186.76 299.5,-192.76"/>
</a>
</g>
<text text-anchor="middle" x="312" y="-207" font-family="Helvetica,sans-Serif" font-size="10.00" fill="grey"> +ptr</text>
</g>
</g>
</svg>
