<?xml version="1.0" encoding="UTF-8" standalone="no"?>
<!DOCTYPE svg PUBLIC "-//W3C//DTD SVG 1.1//EN"
 "http://www.w3.org/Graphics/SVG/1.1/DTD/svg11.dtd">
<!-- Generated by graphviz version 2.43.0 (0)
 -->
<!-- Title: Block Pages: 1 -->
<svg width="309pt" height="386pt"
 viewBox="0.00 0.00 308.50 386.00" xmlns="http://www.w3.org/2000/svg" xmlns:xlink="http://www.w3.org/1999/xlink">

<svg id="main" version="1.1" xmlns="http://www.w3.org/2000/svg" xmlns:xlink="http://www.w3.org/1999/xlink" xml:space="preserve" onload="init(evt)">
<style type="text/css"><![CDATA[
.node, .edge {opacity: 0.7;}
.node.selected, .edge.selected {opacity: 1;}
.edge:hover path { stroke: red; }
.edge:hover polygon { stroke: red; fill: red; }
]]></style>
<script type="application/ecmascript" xlink:href="svg.min.js"/>
<svg id="graph" class="graph">
<g id="graph0" class="graph" transform="scale(1 1) rotate(0) translate(4 382)">
<title>Block</title>
<!-- Node1 -->
<g id="Node000001" class="node">
<title>Node1</title>
<g id="a_Node000001"><a xlink:title="Represents a block of statements.">
<polygon fill="#999999" stroke="transparent" points="157,-79 56,-79 56,0 157,0 157,-79"/>
<text text-anchor="start" x="93" y="-66.5" font-family="Helvetica,sans-Serif" font-size="10.00">Block</text>
<text text-anchor="start" x="105" y="-51.5" font-family="Helvetica,sans-Serif" font-size="10.00"> </text>
<text text-anchor="start" x="60.5" y="-36.5" font-family="Helvetica,sans-Serif" font-size="10.00">+</text>
<text text-anchor="start" x="73.5" y="-36.5" font-family="Helvetica,sans-Serif" font-size="10.00">Block()</text>
<text text-anchor="start" x="60.5" y="-21.5" font-family="Helvetica,sans-Serif" font-size="10.00">+</text>
<text text-anchor="start" x="73.5" y="-21.5" font-family="Helvetica,sans-Serif" font-size="10.00">accept()</text>
<text text-anchor="start" x="60.5" y="-6.5" font-family="Helvetica,sans-Serif" font-size="10.00">+</text>
<text text-anchor="start" x="73.5" y="-6.5" font-family="Helvetica,sans-Serif" font-size="10.00">getStatements()</text>
<polygon fill="#666666" stroke="#666666" points="56.5,-61.5 56.5,-61.5 157.5,-61.5 157.5,-61.5 56.5,-61.5"/>
<polygon fill="#666666" stroke="#666666" points="56.5,-46.5 56.5,-46.5 157.5,-46.5 157.5,-46.5 56.5,-46.5"/>
<polygon fill="none" stroke="#666666" points="56,0 56,-79 157,-79 157,0 56,0"/>
</a>
</g>
</g>
<!-- Node2 -->
<g id="Node000002" class="node">
<title>Node2</title>
<g id="a_Node000002"><a xlink:href="classStmt.html" target="_top" xlink:title="Abstract base class for statements.">
<polygon fill="white" stroke="transparent" points="61,-378 0,-378 0,-329 61,-329 61,-378"/>
<text text-anchor="start" x="19" y="-365.5" font-family="Helvetica,sans-Serif" font-size="10.00">Stmt</text>
<text text-anchor="start" x="29" y="-350.5" font-family="Helvetica,sans-Serif" font-size="10.00"> </text>
<text text-anchor="start" x="4.5" y="-335.5" font-family="Helvetica,sans-Serif" font-size="10.00">+</text>
<text text-anchor="start" x="17.5" y="-335.5" font-family="Helvetica,sans-Serif" font-size="10.00">accept()</text>
<polygon fill="#666666" stroke="#666666" points="0.5,-360.5 0.5,-360.5 61.5,-360.5 61.5,-360.5 0.5,-360.5"/>
<polygon fill="#666666" stroke="#666666" points="0.5,-345.5 0.5,-345.5 61.5,-345.5 61.5,-345.5 0.5,-345.5"/>
<polygon fill="none" stroke="#666666" points="0,-329 0,-378 61,-378 61,-329 0,-329"/>
</a>
</g>
</g>
<!-- Node2&#45;&gt;Node1 -->
<g id="edge1_Node000001_Node000002" class="edge">
<title>Node2&#45;&gt;Node1</title>
<g id="a_edge1_Node000001_Node000002"><a xlink:title=" ">
<path fill="none" stroke="#63b8ff" d="M24.03,-318.79C16.83,-273.36 9.15,-190.71 33.5,-126 39.96,-108.83 51.52,-92.74 63.56,-79.25"/>
<polygon fill="none" stroke="#63b8ff" points="20.59,-319.42 25.69,-328.71 27.49,-318.27 20.59,-319.42"/>
</a>
</g>
</g>
<!-- Node5 -->
<g id="Node000005" class="node">
<title>Node5</title>
<g id="a_Node000005"><a xlink:title=" ">
<polygon fill="white" stroke="transparent" points="172,-282 43,-282 43,-233 172,-233 172,-282"/>
<text text-anchor="start" x="48.5" y="-269.5" font-family="Helvetica,sans-Serif" font-size="10.00">std::shared_ptr&lt; Stmt &gt;</text>
<text text-anchor="start" x="106" y="-254.5" font-family="Helvetica,sans-Serif" font-size="10.00"> </text>
<text text-anchor="start" x="59" y="-239.5" font-family="Helvetica,sans-Serif" font-size="10.00">+</text>
<text text-anchor="start" x="83.5" y="-239.5" font-family="Helvetica,sans-Serif" font-size="10.00">operator&#45;&gt;()</text>
<polygon fill="#666666" stroke="#666666" points="43.5,-264.5 43.5,-264.5 172.5,-264.5 172.5,-264.5 43.5,-264.5"/>
<polygon fill="#666666" stroke="#666666" points="43.5,-249.5 43.5,-249.5 172.5,-249.5 172.5,-249.5 43.5,-249.5"/>
<polygon fill="none" stroke="#666666" points="43,-233 43,-282 172,-282 172,-233 43,-233"/>
</a>
</g>
</g>
<!-- Node2&#45;&gt;Node5 -->
<g id="edge5_Node000005_Node000002" class="edge">
<title>Node2&#45;&gt;Node5</title>
<g id="a_edge5_Node000005_Node000002"><a xlink:title=" ">
<path fill="none" stroke="#63b8ff" d="M49.93,-328.78C59.14,-317.54 70.3,-303.91 80.33,-291.67"/>
<polygon fill="none" stroke="#63b8ff" points="80.47,-291.5 81.18,-284.32 88.08,-282.21 87.37,-289.39 80.47,-291.5"/>
</a>
</g>
<text text-anchor="middle" x="84" y="-303" font-family="Helvetica,sans-Serif" font-size="10.00" fill="grey"> +ptr</text>
</g>
<!-- Node3 -->
<g id="Node000003" class="node">
<title>Node3</title>
<g id="a_Node000003"><a xlink:title=" ">
<polygon fill="white" stroke="transparent" points="300.5,-186 188.5,-186 188.5,-126 300.5,-126 300.5,-186"/>
<text text-anchor="start" x="193.5" y="-174" font-family="Helvetica,sans-Serif" font-size="10.00">std::enable_shared</text>
<text text-anchor="start" x="193.5" y="-163" font-family="Helvetica,sans-Serif" font-size="10.00">_from_this&lt; Block &gt;</text>
<text text-anchor="start" x="242.5" y="-148" font-family="Helvetica,sans-Serif" font-size="10.00"> </text>
<text text-anchor="start" x="242.5" y="-133" font-family="Helvetica,sans-Serif" font-size="10.00"> </text>
<polygon fill="#666666" stroke="#666666" points="188.5,-158 188.5,-158 300.5,-158 300.5,-158 188.5,-158"/>
<polygon fill="#666666" stroke="#666666" points="188.5,-143 188.5,-143 300.5,-143 300.5,-143 188.5,-143"/>
<polygon fill="none" stroke="#666666" points="188.5,-126 188.5,-186 300.5,-186 300.5,-126 188.5,-126"/>
</a>
</g>
</g>
<!-- Node3&#45;&gt;Node1 -->
<g id="edge2_Node000001_Node000003" class="edge">
<title>Node3&#45;&gt;Node1</title>
<g id="a_edge2_Node000001_Node000003"><a xlink:title=" ">
<path fill="none" stroke="#63b8ff" d="M201.49,-119.31C186.12,-106.56 168.74,-92.14 153.08,-79.15"/>
<polygon fill="none" stroke="#63b8ff" points="199.39,-122.12 209.32,-125.81 203.86,-116.73 199.39,-122.12"/>
</a>
</g>
</g>
<!-- Node4 -->
<g id="Node000004" class="node">
<title>Node4</title>
<g id="a_Node000004"><a xlink:title=" ">
<polygon fill="white" stroke="transparent" points="170.5,-186 42.5,-186 42.5,-126 170.5,-126 170.5,-186"/>
<text text-anchor="start" x="47.5" y="-174" font-family="Helvetica,sans-Serif" font-size="10.00">std::vector&lt; std::shared</text>
<text text-anchor="start" x="68.5" y="-163" font-family="Helvetica,sans-Serif" font-size="10.00">_ptr&lt; Stmt &gt; &gt;</text>
<text text-anchor="start" x="104.5" y="-148" font-family="Helvetica,sans-Serif" font-size="10.00"> </text>
<text text-anchor="start" x="104.5" y="-133" font-family="Helvetica,sans-Serif" font-size="10.00"> </text>
<polygon fill="#666666" stroke="#666666" points="42.5,-158 42.5,-158 170.5,-158 170.5,-158 42.5,-158"/>
<polygon fill="#666666" stroke="#666666" points="42.5,-143 42.5,-143 170.5,-143 170.5,-143 42.5,-143"/>
<polygon fill="none" stroke="#666666" points="42.5,-126 42.5,-186 170.5,-186 170.5,-126 42.5,-126"/>
</a>
</g>
</g>
<!-- Node4&#45;&gt;Node1 -->
<g id="edge3_Node000001_Node000004" class="edge">
<title>Node4&#45;&gt;Node1</title>
<g id="a_edge3_Node000001_Node000004"><a xlink:title=" ">
<path fill="none" stroke="#63b8ff" d="M106.5,-125.81C106.5,-115.29 106.5,-103.08 106.5,-91.25"/>
<polygon fill="none" stroke="#63b8ff" points="106.5,-91.15 102.5,-85.15 106.5,-79.15 110.5,-85.15 106.5,-91.15"/>
</a>
</g>
<text text-anchor="middle" x="138" y="-100" font-family="Helvetica,sans-Serif" font-size="10.00" fill="grey"> &#45;statements</text>
</g>
<!-- Node5&#45;&gt;Node4 -->
<g id="edge4_Node000004_Node000005" class="edge">
<title>Node5&#45;&gt;Node4</title>
<g id="a_edge4_Node000004_Node000005"><a xlink:title=" ">
<path fill="none" stroke="#63b8ff" d="M107.26,-232.92C107.16,-222.51 107.03,-209.97 106.91,-198.1"/>
<polygon fill="none" stroke="#63b8ff" points="106.91,-198.1 102.85,-192.14 106.79,-186.1 110.85,-192.06 106.91,-198.1"/>
</a>
</g>
<text text-anchor="middle" x="136.5" y="-207" font-family="Helvetica,sans-Serif" font-size="10.00" fill="grey"> +elements</text>
</g>
</g>
</svg>
</svg>

<style type='text/css'>
<![CDATA[
[data-mouse-over-selected='false'] { opacity: 0.7; }
[data-mouse-over-selected='true']  { opacity: 1.0; }
]]>
</style>
<script type="application/ecmascript"><![CDATA[
document.addEventListener('DOMContentLoaded', (event) => {
  highlightEdges();
  highlightAdjacentNodes();
});
]]></script>
</svg>
