<?xml version="1.0" encoding="UTF-8" standalone="no"?>
<!DOCTYPE svg PUBLIC "-//W3C//DTD SVG 1.1//EN"
 "http://www.w3.org/Graphics/SVG/1.1/DTD/svg11.dtd">
<!-- Generated by graphviz version 2.43.0 (0)
 -->
<!-- Title: Binary Pages: 1 -->
<svg width="469pt" height="492pt"
 viewBox="0.00 0.00 469.00 492.00" xmlns="http://www.w3.org/2000/svg" xmlns:xlink="http://www.w3.org/1999/xlink">
<g id="graph0" class="graph" transform="scale(1 1) rotate(0) translate(4 488)">
<title>Binary</title>
<!-- Node1 -->
<g id="Node000001" class="node">
<title>Node1</title>
<g id="a_Node000001"><a xlink:title="Class representing a binary expression.">
<polygon fill="#999999" stroke="transparent" points="239.5,-109 169.5,-109 169.5,0 239.5,0 239.5,-109"/>
<text text-anchor="start" x="188.5" y="-96.5" font-family="Helvetica,sans-Serif" font-size="10.00">Binary</text>
<text text-anchor="start" x="202.5" y="-81.5" font-family="Helvetica,sans-Serif" font-size="10.00"> </text>
<text text-anchor="start" x="173.5" y="-66.5" font-family="Helvetica,sans-Serif" font-size="10.00">+</text>
<text text-anchor="start" x="186.5" y="-66.5" font-family="Helvetica,sans-Serif" font-size="10.00">Binary()</text>
<text text-anchor="start" x="173.5" y="-51.5" font-family="Helvetica,sans-Serif" font-size="10.00">+</text>
<text text-anchor="start" x="186.5" y="-51.5" font-family="Helvetica,sans-Serif" font-size="10.00">accept()</text>
<text text-anchor="start" x="173.5" y="-36.5" font-family="Helvetica,sans-Serif" font-size="10.00">+</text>
<text text-anchor="start" x="186.5" y="-36.5" font-family="Helvetica,sans-Serif" font-size="10.00">getLeft()</text>
<text text-anchor="start" x="173.5" y="-21.5" font-family="Helvetica,sans-Serif" font-size="10.00">+</text>
<text text-anchor="start" x="186.5" y="-21.5" font-family="Helvetica,sans-Serif" font-size="10.00">getRight()</text>
<text text-anchor="start" x="173.5" y="-6.5" font-family="Helvetica,sans-Serif" font-size="10.00">+</text>
<text text-anchor="start" x="186.5" y="-6.5" font-family="Helvetica,sans-Serif" font-size="10.00">getOp()</text>
<polygon fill="#666666" stroke="#666666" points="169.5,-91.5 169.5,-91.5 239.5,-91.5 239.5,-91.5 169.5,-91.5"/>
<polygon fill="#666666" stroke="#666666" points="169.5,-76.5 169.5,-76.5 239.5,-76.5 239.5,-76.5 169.5,-76.5"/>
<polygon fill="none" stroke="#666666" points="169.5,0 169.5,-109 239.5,-109 239.5,0 169.5,0"/>
</a>
</g>
</g>
<!-- Node2 -->
<g id="Node000002" class="node">
<title>Node2</title>
<g id="a_Node000002"><a xlink:href="classExpr.html" target="_top" xlink:title="Abstract base class for expressions.">
<polygon fill="white" stroke="transparent" points="61,-387 0,-387 0,-338 61,-338 61,-387"/>
<text text-anchor="start" x="20" y="-374.5" font-family="Helvetica,sans-Serif" font-size="10.00">Expr</text>
<text text-anchor="start" x="29" y="-359.5" font-family="Helvetica,sans-Serif" font-size="10.00"> </text>
<text text-anchor="start" x="4.5" y="-344.5" font-family="Helvetica,sans-Serif" font-size="10.00">+</text>
<text text-anchor="start" x="17.5" y="-344.5" font-family="Helvetica,sans-Serif" font-size="10.00">accept()</text>
<polygon fill="#666666" stroke="#666666" points="0.5,-369.5 0.5,-369.5 61.5,-369.5 61.5,-369.5 0.5,-369.5"/>
<polygon fill="#666666" stroke="#666666" points="0.5,-354.5 0.5,-354.5 61.5,-354.5 61.5,-354.5 0.5,-354.5"/>
<polygon fill="none" stroke="#666666" points="0,-338 0,-387 61,-387 61,-338 0,-338"/>
</a>
</g>
</g>
<!-- Node2&#45;&gt;Node1 -->
<g id="edge1_Node000001_Node000002" class="edge">
<title>Node2&#45;&gt;Node1</title>
<g id="a_edge1_Node000001_Node000002"><a xlink:title=" ">
<path fill="none" stroke="#63b8ff" d="M20.22,-328.13C9.71,-287.34 -1.47,-217.53 26.5,-167 56.88,-112.13 126.79,-80.66 169.39,-65.91"/>
<polygon fill="none" stroke="#63b8ff" points="16.86,-329.11 22.85,-337.84 23.62,-327.28 16.86,-329.11"/>
</a>
</g>
</g>
<!-- Node4 -->
<g id="Node000004" class="node">
<title>Node4</title>
<g id="a_Node000004"><a xlink:title=" ">
<polygon fill="white" stroke="transparent" points="163.5,-253.5 35.5,-253.5 35.5,-204.5 163.5,-204.5 163.5,-253.5"/>
<text text-anchor="start" x="40.5" y="-241" font-family="Helvetica,sans-Serif" font-size="10.00">std::shared_ptr&lt; Expr &gt;</text>
<text text-anchor="start" x="97.5" y="-226" font-family="Helvetica,sans-Serif" font-size="10.00"> </text>
<text text-anchor="start" x="51" y="-211" font-family="Helvetica,sans-Serif" font-size="10.00">+</text>
<text text-anchor="start" x="75.5" y="-211" font-family="Helvetica,sans-Serif" font-size="10.00">operator&#45;&gt;()</text>
<polygon fill="#666666" stroke="#666666" points="35.5,-236 35.5,-236 163.5,-236 163.5,-236 35.5,-236"/>
<polygon fill="#666666" stroke="#666666" points="35.5,-221 35.5,-221 163.5,-221 163.5,-221 35.5,-221"/>
<polygon fill="none" stroke="#666666" points="35.5,-204.5 35.5,-253.5 163.5,-253.5 163.5,-204.5 35.5,-204.5"/>
</a>
</g>
</g>
<!-- Node2&#45;&gt;Node4 -->
<g id="edge4_Node000004_Node000002" class="edge">
<title>Node2&#45;&gt;Node4</title>
<g id="a_edge4_Node000004_Node000002"><a xlink:title=" ">
<path fill="none" stroke="#63b8ff" d="M42.84,-337.99C53.56,-317.55 69.25,-287.66 81.4,-264.5"/>
<polygon fill="none" stroke="#63b8ff" points="81.46,-264.38 80.71,-257.2 87.04,-253.75 87.79,-260.92 81.46,-264.38"/>
</a>
</g>
<text text-anchor="middle" x="70" y="-312" font-family="Helvetica,sans-Serif" font-size="10.00" fill="grey"> +ptr</text>
</g>
<!-- Node3 -->
<g id="Node000003" class="node">
<title>Node3</title>
<g id="a_Node000003"><a xlink:title=" ">
<polygon fill="white" stroke="transparent" points="297.5,-259 181.5,-259 181.5,-199 297.5,-199 297.5,-259"/>
<text text-anchor="start" x="186.5" y="-247" font-family="Helvetica,sans-Serif" font-size="10.00">std::enable_shared</text>
<text text-anchor="start" x="186.5" y="-236" font-family="Helvetica,sans-Serif" font-size="10.00">_from_this&lt; Binary &gt;</text>
<text text-anchor="start" x="237.5" y="-221" font-family="Helvetica,sans-Serif" font-size="10.00"> </text>
<text text-anchor="start" x="237.5" y="-206" font-family="Helvetica,sans-Serif" font-size="10.00"> </text>
<polygon fill="#666666" stroke="#666666" points="181.5,-231 181.5,-231 297.5,-231 297.5,-231 181.5,-231"/>
<polygon fill="#666666" stroke="#666666" points="181.5,-216 181.5,-216 297.5,-216 297.5,-216 181.5,-216"/>
<polygon fill="none" stroke="#666666" points="181.5,-199 181.5,-259 297.5,-259 297.5,-199 181.5,-199"/>
</a>
</g>
</g>
<!-- Node3&#45;&gt;Node1 -->
<g id="edge2_Node000001_Node000003" class="edge">
<title>Node3&#45;&gt;Node1</title>
<g id="a_edge2_Node000001_Node000003"><a xlink:title=" ">
<path fill="none" stroke="#63b8ff" d="M231.53,-188.74C226.75,-165.14 220.59,-134.79 215.36,-109.01"/>
<polygon fill="none" stroke="#63b8ff" points="228.14,-189.63 233.56,-198.74 235,-188.24 228.14,-189.63"/>
</a>
</g>
</g>
<!-- Node4&#45;&gt;Node1 -->
<g id="edge3_Node000001_Node000004" class="edge">
<title>Node4&#45;&gt;Node1</title>
<g id="a_edge3_Node000001_Node000004"><a xlink:title=" ">
<path fill="none" stroke="#63b8ff" d="M113.88,-204.38C127.14,-182.59 147.45,-149.22 165.48,-119.6"/>
<polygon fill="none" stroke="#63b8ff" points="165.51,-119.55 165.21,-112.35 171.75,-109.3 172.05,-116.51 165.51,-119.55"/>
</a>
</g>
<text text-anchor="middle" x="172" y="-141" font-family="Helvetica,sans-Serif" font-size="10.00" fill="grey"> &#45;left</text>
<text text-anchor="middle" x="172" y="-130" font-family="Helvetica,sans-Serif" font-size="10.00" fill="grey">&#45;right</text>
</g>
<!-- Node5 -->
<g id="Node000005" class="node">
<title>Node5</title>
<g id="a_Node000005"><a xlink:href="classToken.html" target="_top" xlink:title="Represents a token in the source code.">
<polygon fill="white" stroke="transparent" points="399,-291 316,-291 316,-167 399,-167 399,-291"/>
<text text-anchor="start" x="344" y="-279" font-family="Helvetica,sans-Serif" font-size="10.00">Token</text>
<text text-anchor="start" x="356" y="-264" font-family="Helvetica,sans-Serif" font-size="10.00"> </text>
<text text-anchor="start" x="320.5" y="-249" font-family="Helvetica,sans-Serif" font-size="10.00">+</text>
<text text-anchor="start" x="333.5" y="-249" font-family="Helvetica,sans-Serif" font-size="10.00">Token()</text>
<text text-anchor="start" x="320.5" y="-234" font-family="Helvetica,sans-Serif" font-size="10.00">+</text>
<text text-anchor="start" x="333.5" y="-234" font-family="Helvetica,sans-Serif" font-size="10.00">getType()</text>
<text text-anchor="start" x="320.5" y="-219" font-family="Helvetica,sans-Serif" font-size="10.00">+</text>
<text text-anchor="start" x="333.5" y="-219" font-family="Helvetica,sans-Serif" font-size="10.00">getLexeme()</text>
<text text-anchor="start" x="320.5" y="-204" font-family="Helvetica,sans-Serif" font-size="10.00">+</text>
<text text-anchor="start" x="333.5" y="-204" font-family="Helvetica,sans-Serif" font-size="10.00">getLiteral()</text>
<text text-anchor="start" x="320.5" y="-189" font-family="Helvetica,sans-Serif" font-size="10.00">+</text>
<text text-anchor="start" x="333.5" y="-189" font-family="Helvetica,sans-Serif" font-size="10.00">getLine()</text>
<text text-anchor="start" x="320.5" y="-174" font-family="Helvetica,sans-Serif" font-size="10.00">+</text>
<text text-anchor="start" x="333.5" y="-174" font-family="Helvetica,sans-Serif" font-size="10.00">toString()</text>
<polygon fill="#666666" stroke="#666666" points="316.5,-274 316.5,-274 399.5,-274 399.5,-274 316.5,-274"/>
<polygon fill="#666666" stroke="#666666" points="316.5,-259 316.5,-259 399.5,-259 399.5,-259 316.5,-259"/>
<polygon fill="none" stroke="#666666" points="316,-167 316,-291 399,-291 399,-167 316,-167"/>
</a>
</g>
</g>
<!-- Node5&#45;&gt;Node1 -->
<g id="edge5_Node000001_Node000005" class="edge">
<title>Node5&#45;&gt;Node1</title>
<g id="a_edge5_Node000001_Node000005"><a xlink:title=" ">
<path fill="none" stroke="#63b8ff" d="M315.93,-177.91C312.76,-174.2 309.59,-170.53 306.5,-167 287.55,-145.34 266.11,-121.77 247.8,-101.9"/>
<polygon fill="none" stroke="#63b8ff" points="247.77,-101.87 240.76,-100.17 239.62,-93.05 246.63,-94.74 247.77,-101.87"/>
</a>
</g>
<text text-anchor="middle" x="300" y="-135.5" font-family="Helvetica,sans-Serif" font-size="10.00" fill="grey"> &#45;op</text>
</g>
<!-- Node6 -->
<g id="Node000006" class="node">
<title>Node6</title>
<g id="a_Node000006"><a xlink:title=" ">
<polygon fill="white" stroke="transparent" points="278.5,-387 188.5,-387 188.5,-338 278.5,-338 278.5,-387"/>
<text text-anchor="start" x="193.5" y="-374.5" font-family="Helvetica,sans-Serif" font-size="10.00">const TokenType</text>
<text text-anchor="start" x="231.5" y="-359.5" font-family="Helvetica,sans-Serif" font-size="10.00"> </text>
<text text-anchor="start" x="231.5" y="-344.5" font-family="Helvetica,sans-Serif" font-size="10.00"> </text>
<polygon fill="#666666" stroke="#666666" points="188.5,-369.5 188.5,-369.5 278.5,-369.5 278.5,-369.5 188.5,-369.5"/>
<polygon fill="#666666" stroke="#666666" points="188.5,-354.5 188.5,-354.5 278.5,-354.5 278.5,-354.5 188.5,-354.5"/>
<polygon fill="none" stroke="#666666" points="188.5,-338 188.5,-387 278.5,-387 278.5,-338 188.5,-338"/>
</a>
</g>
</g>
<!-- Node6&#45;&gt;Node5 -->
<g id="edge6_Node000005_Node000006" class="edge">
<title>Node6&#45;&gt;Node5</title>
<g id="a_edge6_Node000005_Node000006"><a xlink:title=" ">
<path fill="none" stroke="#63b8ff" d="M259.15,-338C273.45,-324.58 291.37,-307.25 306.5,-291 306.89,-290.58 307.28,-290.16 307.67,-289.74"/>
<polygon fill="none" stroke="#63b8ff" points="307.85,-289.54 308.9,-282.4 315.89,-280.63 314.84,-287.76 307.85,-289.54"/>
</a>
</g>
<text text-anchor="middle" x="304" y="-312" font-family="Helvetica,sans-Serif" font-size="10.00" fill="grey"> &#45;type</text>
</g>
<!-- Node7 -->
<g id="Node000007" class="node">
<title>Node7</title>
<g id="a_Node000007"><a xlink:title=" ">
<polygon fill="white" stroke="transparent" points="356,-387 297,-387 297,-338 356,-338 356,-387"/>
<text text-anchor="start" x="302.5" y="-374.5" font-family="Helvetica,sans-Serif" font-size="10.00">std::string</text>
<text text-anchor="start" x="325" y="-359.5" font-family="Helvetica,sans-Serif" font-size="10.00"> </text>
<text text-anchor="start" x="325" y="-344.5" font-family="Helvetica,sans-Serif" font-size="10.00"> </text>
<polygon fill="#666666" stroke="#666666" points="297.5,-369.5 297.5,-369.5 356.5,-369.5 356.5,-369.5 297.5,-369.5"/>
<polygon fill="#666666" stroke="#666666" points="297.5,-354.5 297.5,-354.5 356.5,-354.5 356.5,-354.5 297.5,-354.5"/>
<polygon fill="none" stroke="#666666" points="297,-338 297,-387 356,-387 356,-338 297,-338"/>
</a>
</g>
</g>
<!-- Node7&#45;&gt;Node5 -->
<g id="edge7_Node000005_Node000007" class="edge">
<title>Node7&#45;&gt;Node5</title>
<g id="a_edge7_Node000005_Node000007"><a xlink:title=" ">
<path fill="none" stroke="#63b8ff" d="M325.83,-337.8C325.69,-331.98 325.57,-325.77 325.5,-320 325.44,-315.11 324.57,-313.8 325.5,-309 325.89,-307 326.33,-304.99 326.81,-302.98"/>
<polygon fill="none" stroke="#63b8ff" points="326.81,-302.97 324.56,-296.12 330.02,-291.41 332.27,-298.26 326.81,-302.97"/>
</a>
</g>
<text text-anchor="middle" x="347" y="-312" font-family="Helvetica,sans-Serif" font-size="10.00" fill="grey"> &#45;lexeme</text>
</g>
<!-- Node8 -->
<g id="Node000008" class="node">
<title>Node8</title>
<g id="a_Node000008"><a xlink:title=" ">
<polygon fill="white" stroke="transparent" points="375.5,-484 277.5,-484 277.5,-424 375.5,-424 375.5,-484"/>
<text text-anchor="start" x="282.5" y="-472" font-family="Helvetica,sans-Serif" font-size="10.00">std::basic_string&lt;</text>
<text text-anchor="start" x="308" y="-461" font-family="Helvetica,sans-Serif" font-size="10.00"> Char &gt;</text>
<text text-anchor="start" x="324.5" y="-446" font-family="Helvetica,sans-Serif" font-size="10.00"> </text>
<text text-anchor="start" x="324.5" y="-431" font-family="Helvetica,sans-Serif" font-size="10.00"> </text>
<polygon fill="#666666" stroke="#666666" points="277.5,-456 277.5,-456 375.5,-456 375.5,-456 277.5,-456"/>
<polygon fill="#666666" stroke="#666666" points="277.5,-441 277.5,-441 375.5,-441 375.5,-441 277.5,-441"/>
<polygon fill="none" stroke="#666666" points="277.5,-424 277.5,-484 375.5,-484 375.5,-424 277.5,-424"/>
</a>
</g>
</g>
<!-- Node8&#45;&gt;Node7 -->
<g id="edge8_Node000007_Node000008" class="edge">
<title>Node8&#45;&gt;Node7</title>
<g id="a_edge8_Node000007_Node000008"><a xlink:title=" ">
<path fill="none" stroke="#63b8ff" d="M326.5,-413.41C326.5,-404.47 326.5,-395.25 326.5,-387.21"/>
<polygon fill="none" stroke="#63b8ff" points="323,-413.69 326.5,-423.69 330,-413.69 323,-413.69"/>
</a>
</g>
</g>
<!-- Node9 -->
<g id="Node000009" class="node">
<title>Node9</title>
<g id="a_Node000009"><a xlink:title=" ">
<polygon fill="white" stroke="transparent" points="405,-387 376,-387 376,-338 405,-338 405,-387"/>
<text text-anchor="start" x="381.5" y="-374.5" font-family="Helvetica,sans-Serif" font-size="10.00">any</text>
<text text-anchor="start" x="389" y="-359.5" font-family="Helvetica,sans-Serif" font-size="10.00"> </text>
<text text-anchor="start" x="389" y="-344.5" font-family="Helvetica,sans-Serif" font-size="10.00"> </text>
<polygon fill="#666666" stroke="#666666" points="376.5,-369.5 376.5,-369.5 405.5,-369.5 405.5,-369.5 376.5,-369.5"/>
<polygon fill="#666666" stroke="#666666" points="376.5,-354.5 376.5,-354.5 405.5,-354.5 405.5,-354.5 376.5,-354.5"/>
<polygon fill="none" stroke="#666666" points="376,-338 376,-387 405,-387 405,-338 376,-338"/>
</a>
</g>
</g>
<!-- Node9&#45;&gt;Node5 -->
<g id="edge9_Node000005_Node000009" class="edge">
<title>Node9&#45;&gt;Node5</title>
<g id="a_edge9_Node000005_Node000009"><a xlink:title=" ">
<path fill="none" stroke="#63b8ff" d="M384.6,-337.99C382.07,-327.92 378.97,-315.56 375.78,-302.85"/>
<polygon fill="none" stroke="#63b8ff" points="375.76,-302.76 370.42,-297.91 372.84,-291.12 378.18,-295.97 375.76,-302.76"/>
</a>
</g>
<text text-anchor="middle" x="398.5" y="-312" font-family="Helvetica,sans-Serif" font-size="10.00" fill="grey"> &#45;literal</text>
</g>
<!-- Node10 -->
<g id="Node000010" class="node">
<title>Node10</title>
<g id="a_Node000010"><a xlink:title=" ">
<polygon fill="white" stroke="transparent" points="461,-387 438,-387 438,-338 461,-338 461,-387"/>
<text text-anchor="start" x="443.5" y="-374.5" font-family="Helvetica,sans-Serif" font-size="10.00">int</text>
<text text-anchor="start" x="448" y="-359.5" font-family="Helvetica,sans-Serif" font-size="10.00"> </text>
<text text-anchor="start" x="448" y="-344.5" font-family="Helvetica,sans-Serif" font-size="10.00"> </text>
<polygon fill="#666666" stroke="#666666" points="438.5,-369.5 438.5,-369.5 461.5,-369.5 461.5,-369.5 438.5,-369.5"/>
<polygon fill="#666666" stroke="#666666" points="438.5,-354.5 438.5,-354.5 461.5,-354.5 461.5,-354.5 438.5,-354.5"/>
<polygon fill="none" stroke="#666666" points="438,-338 438,-387 461,-387 461,-338 438,-338"/>
</a>
</g>
</g>
<!-- Node10&#45;&gt;Node5 -->
<g id="edge10_Node000005_Node000010" class="edge">
<title>Node10&#45;&gt;Node5</title>
<g id="a_edge10_Node000005_Node000010"><a xlink:title=" ">
<path fill="none" stroke="#63b8ff" d="M437.89,-338.52C432.88,-329.16 426.75,-318.35 420.5,-309 416.22,-302.59 411.54,-296.05 406.75,-289.61"/>
<polygon fill="none" stroke="#63b8ff" points="406.41,-289.16 399.59,-286.81 399.14,-279.62 405.95,-281.97 406.41,-289.16"/>
</a>
</g>
<text text-anchor="middle" x="440" y="-312" font-family="Helvetica,sans-Serif" font-size="10.00" fill="grey"> &#45;line</text>
</g>
</g>
</svg>
