<?xml version="1.0" encoding="UTF-8" standalone="no"?>
<!DOCTYPE svg PUBLIC "-//W3C//DTD SVG 1.1//EN"
 "http://www.w3.org/Graphics/SVG/1.1/DTD/svg11.dtd">
<!-- Generated by graphviz version 2.43.0 (0)
 -->
<!-- Title: If Pages: 1 -->
<svg width="190pt" height="243pt"
 viewBox="0.00 0.00 190.00 243.00" xmlns="http://www.w3.org/2000/svg" xmlns:xlink="http://www.w3.org/1999/xlink">
<g id="graph0" class="graph" transform="scale(1 1) rotate(0) translate(4 239)">
<title>If</title>
<!-- Node1 -->
<g id="Node000001" class="node">
<title>Node1</title>
<g id="a_Node000001"><a xlink:title="Represents an if statement.">
<polygon fill="#999999" stroke="transparent" points="132,-139 29,-139 29,0 132,0 132,-139"/>
<text text-anchor="start" x="77.5" y="-126.5" font-family="Helvetica,sans-Serif" font-size="10.00">If</text>
<text text-anchor="start" x="36" y="-111.5" font-family="Helvetica,sans-Serif" font-size="10.00">&#45;</text>
<text text-anchor="start" x="46.5" y="-111.5" font-family="Helvetica,sans-Serif" font-size="10.00">condition</text>
<text text-anchor="start" x="36" y="-96.5" font-family="Helvetica,sans-Serif" font-size="10.00">&#45;</text>
<text text-anchor="start" x="46.5" y="-96.5" font-family="Helvetica,sans-Serif" font-size="10.00">thenBranch</text>
<text text-anchor="start" x="36" y="-81.5" font-family="Helvetica,sans-Serif" font-size="10.00">&#45;</text>
<text text-anchor="start" x="46.5" y="-81.5" font-family="Helvetica,sans-Serif" font-size="10.00">elseBranch</text>
<text text-anchor="start" x="33.5" y="-66.5" font-family="Helvetica,sans-Serif" font-size="10.00">+</text>
<text text-anchor="start" x="46.5" y="-66.5" font-family="Helvetica,sans-Serif" font-size="10.00">If()</text>
<text text-anchor="start" x="33.5" y="-51.5" font-family="Helvetica,sans-Serif" font-size="10.00">+</text>
<text text-anchor="start" x="46.5" y="-51.5" font-family="Helvetica,sans-Serif" font-size="10.00">accept()</text>
<text text-anchor="start" x="33.5" y="-36.5" font-family="Helvetica,sans-Serif" font-size="10.00">+</text>
<text text-anchor="start" x="46.5" y="-36.5" font-family="Helvetica,sans-Serif" font-size="10.00">getCondition()</text>
<text text-anchor="start" x="33.5" y="-21.5" font-family="Helvetica,sans-Serif" font-size="10.00">+</text>
<text text-anchor="start" x="46.5" y="-21.5" font-family="Helvetica,sans-Serif" font-size="10.00">getThenBranch()</text>
<text text-anchor="start" x="33.5" y="-6.5" font-family="Helvetica,sans-Serif" font-size="10.00">+</text>
<text text-anchor="start" x="46.5" y="-6.5" font-family="Helvetica,sans-Serif" font-size="10.00">getElseBranch()</text>
<polygon fill="#666666" stroke="#666666" points="29.5,-121.5 29.5,-121.5 132.5,-121.5 132.5,-121.5 29.5,-121.5"/>
<polygon fill="#666666" stroke="#666666" points="29.5,-76.5 29.5,-76.5 44.5,-76.5 44.5,-76.5 29.5,-76.5"/>
<polygon fill="#666666" stroke="#666666" points="44.5,-76.5 44.5,-76.5 132.5,-76.5 132.5,-76.5 44.5,-76.5"/>
<polygon fill="none" stroke="#666666" points="29,0 29,-139 132,-139 132,0 29,0"/>
</a>
</g>
</g>
<!-- Node2 -->
<g id="Node000002" class="node">
<title>Node2</title>
<g id="a_Node000002"><a xlink:href="classStmt.html" target="_top" xlink:title="Abstract base class for statements.">
<polygon fill="white" stroke="transparent" points="61,-229.5 0,-229.5 0,-180.5 61,-180.5 61,-229.5"/>
<text text-anchor="start" x="19" y="-217" font-family="Helvetica,sans-Serif" font-size="10.00">Stmt</text>
<text text-anchor="start" x="29" y="-202" font-family="Helvetica,sans-Serif" font-size="10.00"> </text>
<text text-anchor="start" x="4.5" y="-187" font-family="Helvetica,sans-Serif" font-size="10.00">+</text>
<text text-anchor="start" x="17.5" y="-187" font-family="Helvetica,sans-Serif" font-size="10.00">accept()</text>
<polygon fill="#666666" stroke="#666666" points="0.5,-212 0.5,-212 61.5,-212 61.5,-212 0.5,-212"/>
<polygon fill="#666666" stroke="#666666" points="0.5,-197 0.5,-197 61.5,-197 61.5,-197 0.5,-197"/>
<polygon fill="none" stroke="#666666" points="0,-180.5 0,-229.5 61,-229.5 61,-180.5 0,-180.5"/>
</a>
</g>
</g>
<!-- Node2&#45;&gt;Node1 -->
<g id="edge1_Node000001_Node000002" class="edge">
<title>Node2&#45;&gt;Node1</title>
<g id="a_edge1_Node000001_Node000002"><a xlink:title=" ">
<path fill="none" stroke="#63b8ff" d="M42.92,-170.84C46.55,-161.14 50.67,-150.16 54.81,-139.1"/>
<polygon fill="none" stroke="#63b8ff" points="39.55,-169.85 39.32,-180.44 46.11,-172.3 39.55,-169.85"/>
</a>
</g>
</g>
<!-- Node3 -->
<g id="Node000003" class="node">
<title>Node3</title>
<g id="a_Node000003"><a xlink:title=" ">
<polygon fill="white" stroke="transparent" points="182,-235 79,-235 79,-175 182,-175 182,-235"/>
<text text-anchor="start" x="84.5" y="-223" font-family="Helvetica,sans-Serif" font-size="10.00">std::enable_shared</text>
<text text-anchor="start" x="90" y="-212" font-family="Helvetica,sans-Serif" font-size="10.00">_from_this&lt; If &gt;</text>
<text text-anchor="start" x="129" y="-197" font-family="Helvetica,sans-Serif" font-size="10.00"> </text>
<text text-anchor="start" x="129" y="-182" font-family="Helvetica,sans-Serif" font-size="10.00"> </text>
<polygon fill="#666666" stroke="#666666" points="79.5,-207 79.5,-207 182.5,-207 182.5,-207 79.5,-207"/>
<polygon fill="#666666" stroke="#666666" points="79.5,-192 79.5,-192 182.5,-192 182.5,-192 79.5,-192"/>
<polygon fill="none" stroke="#666666" points="79,-175 79,-235 182,-235 182,-175 79,-175"/>
</a>
</g>
</g>
<!-- Node3&#45;&gt;Node1 -->
<g id="edge2_Node000001_Node000003" class="edge">
<title>Node3&#45;&gt;Node1</title>
<g id="a_edge2_Node000001_Node000003"><a xlink:title=" ">
<path fill="none" stroke="#63b8ff" d="M115.93,-165.09C112.86,-156.9 109.54,-148.03 106.2,-139.12"/>
<polygon fill="none" stroke="#63b8ff" points="112.74,-166.57 119.53,-174.7 119.3,-164.11 112.74,-166.57"/>
</a>
</g>
</g>
</g>
</svg>
