<?xml version="1.0" encoding="UTF-8" standalone="no"?>
<!DOCTYPE svg PUBLIC "-//W3C//DTD SVG 1.1//EN"
 "http://www.w3.org/Graphics/SVG/1.1/DTD/svg11.dtd">
<!-- Generated by graphviz version 2.43.0 (0)
 -->
<!-- Title: Assign Pages: 1 -->
<svg width="470pt" height="466pt"
 viewBox="0.00 0.00 470.00 466.00" xmlns="http://www.w3.org/2000/svg" xmlns:xlink="http://www.w3.org/1999/xlink">
<g id="graph0" class="graph" transform="scale(1 1) rotate(0) translate(4 462)">
<title>Assign</title>
<!-- Node1 -->
<g id="Node000001" class="node">
<title>Node1</title>
<g id="a_Node000001"><a xlink:title="Class representing an assignment expression.">
<polygon fill="#999999" stroke="transparent" points="241.5,-94 167.5,-94 167.5,0 241.5,0 241.5,-94"/>
<text text-anchor="start" x="188" y="-82" font-family="Helvetica,sans-Serif" font-size="10.00">Assign</text>
<text text-anchor="start" x="202.5" y="-67" font-family="Helvetica,sans-Serif" font-size="10.00"> </text>
<text text-anchor="start" x="171.5" y="-52" font-family="Helvetica,sans-Serif" font-size="10.00">+</text>
<text text-anchor="start" x="184.5" y="-52" font-family="Helvetica,sans-Serif" font-size="10.00">Assign()</text>
<text text-anchor="start" x="171.5" y="-37" font-family="Helvetica,sans-Serif" font-size="10.00">+</text>
<text text-anchor="start" x="184.5" y="-37" font-family="Helvetica,sans-Serif" font-size="10.00">accept()</text>
<text text-anchor="start" x="171.5" y="-22" font-family="Helvetica,sans-Serif" font-size="10.00">+</text>
<text text-anchor="start" x="184.5" y="-22" font-family="Helvetica,sans-Serif" font-size="10.00">getName()</text>
<text text-anchor="start" x="171.5" y="-7" font-family="Helvetica,sans-Serif" font-size="10.00">+</text>
<text text-anchor="start" x="184.5" y="-7" font-family="Helvetica,sans-Serif" font-size="10.00">getValue()</text>
<polygon fill="#666666" stroke="#666666" points="167.5,-77 167.5,-77 241.5,-77 241.5,-77 167.5,-77"/>
<polygon fill="#666666" stroke="#666666" points="167.5,-62 167.5,-62 241.5,-62 241.5,-62 167.5,-62"/>
<polygon fill="none" stroke="#666666" points="167.5,0 167.5,-94 241.5,-94 241.5,0 167.5,0"/>
</a>
</g>
</g>
<!-- Node2 -->
<g id="Node000002" class="node">
<title>Node2</title>
<g id="a_Node000002"><a xlink:href="classExpr.html" target="_top" xlink:title="Abstract base class for expressions.">
<polygon fill="white" stroke="transparent" points="61,-361 0,-361 0,-312 61,-312 61,-361"/>
<text text-anchor="start" x="20" y="-348.5" font-family="Helvetica,sans-Serif" font-size="10.00">Expr</text>
<text text-anchor="start" x="29" y="-333.5" font-family="Helvetica,sans-Serif" font-size="10.00"> </text>
<text text-anchor="start" x="4.5" y="-318.5" font-family="Helvetica,sans-Serif" font-size="10.00">+</text>
<text text-anchor="start" x="17.5" y="-318.5" font-family="Helvetica,sans-Serif" font-size="10.00">accept()</text>
<polygon fill="#666666" stroke="#666666" points="0.5,-343.5 0.5,-343.5 61.5,-343.5 61.5,-343.5 0.5,-343.5"/>
<polygon fill="#666666" stroke="#666666" points="0.5,-328.5 0.5,-328.5 61.5,-328.5 61.5,-328.5 0.5,-328.5"/>
<polygon fill="none" stroke="#666666" points="0,-312 0,-361 61,-361 61,-312 0,-312"/>
</a>
</g>
</g>
<!-- Node2&#45;&gt;Node1 -->
<g id="edge1_Node000001_Node000002" class="edge">
<title>Node2&#45;&gt;Node1</title>
<g id="a_edge1_Node000001_Node000002"><a xlink:title=" ">
<path fill="none" stroke="#63b8ff" d="M19.66,-302.09C8.48,-260.97 -3.51,-190.53 26.5,-141 57.03,-90.6 124.82,-66.22 167.38,-55.46"/>
<polygon fill="none" stroke="#63b8ff" points="16.35,-303.23 22.47,-311.88 23.08,-301.3 16.35,-303.23"/>
</a>
</g>
</g>
<!-- Node10 -->
<g id="Node000010" class="node">
<title>Node10</title>
<g id="a_Node000010"><a xlink:title=" ">
<polygon fill="white" stroke="transparent" points="163.5,-227.5 35.5,-227.5 35.5,-178.5 163.5,-178.5 163.5,-227.5"/>
<text text-anchor="start" x="40.5" y="-215" font-family="Helvetica,sans-Serif" font-size="10.00">std::shared_ptr&lt; Expr &gt;</text>
<text text-anchor="start" x="97.5" y="-200" font-family="Helvetica,sans-Serif" font-size="10.00"> </text>
<text text-anchor="start" x="51" y="-185" font-family="Helvetica,sans-Serif" font-size="10.00">+</text>
<text text-anchor="start" x="75.5" y="-185" font-family="Helvetica,sans-Serif" font-size="10.00">operator&#45;&gt;()</text>
<polygon fill="#666666" stroke="#666666" points="35.5,-210 35.5,-210 163.5,-210 163.5,-210 35.5,-210"/>
<polygon fill="#666666" stroke="#666666" points="35.5,-195 35.5,-195 163.5,-195 163.5,-195 35.5,-195"/>
<polygon fill="none" stroke="#666666" points="35.5,-178.5 35.5,-227.5 163.5,-227.5 163.5,-178.5 35.5,-178.5"/>
</a>
</g>
</g>
<!-- Node2&#45;&gt;Node10 -->
<g id="edge10_Node000010_Node000002" class="edge">
<title>Node2&#45;&gt;Node10</title>
<g id="a_edge10_Node000010_Node000002"><a xlink:title=" ">
<path fill="none" stroke="#63b8ff" d="M42.84,-311.99C53.56,-291.55 69.25,-261.66 81.4,-238.5"/>
<polygon fill="none" stroke="#63b8ff" points="81.46,-238.38 80.71,-231.2 87.04,-227.75 87.79,-234.92 81.46,-238.38"/>
</a>
</g>
<text text-anchor="middle" x="70" y="-286" font-family="Helvetica,sans-Serif" font-size="10.00" fill="grey"> +ptr</text>
</g>
<!-- Node3 -->
<g id="Node000003" class="node">
<title>Node3</title>
<g id="a_Node000003"><a xlink:title=" ">
<polygon fill="white" stroke="transparent" points="299,-233 182,-233 182,-173 299,-173 299,-233"/>
<text text-anchor="start" x="187.5" y="-221" font-family="Helvetica,sans-Serif" font-size="10.00">std::enable_shared</text>
<text text-anchor="start" x="187.5" y="-210" font-family="Helvetica,sans-Serif" font-size="10.00">_from_this&lt; Assign &gt;</text>
<text text-anchor="start" x="239" y="-195" font-family="Helvetica,sans-Serif" font-size="10.00"> </text>
<text text-anchor="start" x="239" y="-180" font-family="Helvetica,sans-Serif" font-size="10.00"> </text>
<polygon fill="#666666" stroke="#666666" points="182.5,-205 182.5,-205 299.5,-205 299.5,-205 182.5,-205"/>
<polygon fill="#666666" stroke="#666666" points="182.5,-190 182.5,-190 299.5,-190 299.5,-190 182.5,-190"/>
<polygon fill="none" stroke="#666666" points="182,-173 182,-233 299,-233 299,-173 182,-173"/>
</a>
</g>
</g>
<!-- Node3&#45;&gt;Node1 -->
<g id="edge2_Node000001_Node000003" class="edge">
<title>Node3&#45;&gt;Node1</title>
<g id="a_edge2_Node000001_Node000003"><a xlink:title=" ">
<path fill="none" stroke="#63b8ff" d="M231.35,-162.84C226.46,-141.93 220.41,-116.07 215.3,-94.18"/>
<polygon fill="none" stroke="#63b8ff" points="227.96,-163.73 233.64,-172.67 234.78,-162.14 227.96,-163.73"/>
</a>
</g>
</g>
<!-- Node4 -->
<g id="Node000004" class="node">
<title>Node4</title>
<g id="a_Node000004"><a xlink:href="classToken.html" target="_top" xlink:title="Represents a token in the source code.">
<polygon fill="white" stroke="transparent" points="400,-265 317,-265 317,-141 400,-141 400,-265"/>
<text text-anchor="start" x="345" y="-253" font-family="Helvetica,sans-Serif" font-size="10.00">Token</text>
<text text-anchor="start" x="357" y="-238" font-family="Helvetica,sans-Serif" font-size="10.00"> </text>
<text text-anchor="start" x="321.5" y="-223" font-family="Helvetica,sans-Serif" font-size="10.00">+</text>
<text text-anchor="start" x="334.5" y="-223" font-family="Helvetica,sans-Serif" font-size="10.00">Token()</text>
<text text-anchor="start" x="321.5" y="-208" font-family="Helvetica,sans-Serif" font-size="10.00">+</text>
<text text-anchor="start" x="334.5" y="-208" font-family="Helvetica,sans-Serif" font-size="10.00">getType()</text>
<text text-anchor="start" x="321.5" y="-193" font-family="Helvetica,sans-Serif" font-size="10.00">+</text>
<text text-anchor="start" x="334.5" y="-193" font-family="Helvetica,sans-Serif" font-size="10.00">getLexeme()</text>
<text text-anchor="start" x="321.5" y="-178" font-family="Helvetica,sans-Serif" font-size="10.00">+</text>
<text text-anchor="start" x="334.5" y="-178" font-family="Helvetica,sans-Serif" font-size="10.00">getLiteral()</text>
<text text-anchor="start" x="321.5" y="-163" font-family="Helvetica,sans-Serif" font-size="10.00">+</text>
<text text-anchor="start" x="334.5" y="-163" font-family="Helvetica,sans-Serif" font-size="10.00">getLine()</text>
<text text-anchor="start" x="321.5" y="-148" font-family="Helvetica,sans-Serif" font-size="10.00">+</text>
<text text-anchor="start" x="334.5" y="-148" font-family="Helvetica,sans-Serif" font-size="10.00">toString()</text>
<polygon fill="#666666" stroke="#666666" points="317.5,-248 317.5,-248 400.5,-248 400.5,-248 317.5,-248"/>
<polygon fill="#666666" stroke="#666666" points="317.5,-233 317.5,-233 400.5,-233 400.5,-233 317.5,-233"/>
<polygon fill="none" stroke="#666666" points="317,-141 317,-265 400,-265 400,-141 317,-141"/>
</a>
</g>
</g>
<!-- Node4&#45;&gt;Node1 -->
<g id="edge3_Node000001_Node000004" class="edge">
<title>Node4&#45;&gt;Node1</title>
<g id="a_edge3_Node000001_Node000004"><a xlink:title=" ">
<path fill="none" stroke="#63b8ff" d="M316.73,-150.93C313.66,-147.52 310.56,-144.18 307.5,-141 289.86,-122.67 269.24,-103.64 251.11,-87.61"/>
<polygon fill="none" stroke="#63b8ff" points="250.91,-87.43 243.76,-86.48 241.89,-79.51 249.04,-80.46 250.91,-87.43"/>
</a>
</g>
<text text-anchor="middle" x="307" y="-115" font-family="Helvetica,sans-Serif" font-size="10.00" fill="grey"> &#45;name</text>
</g>
<!-- Node5 -->
<g id="Node000005" class="node">
<title>Node5</title>
<g id="a_Node000005"><a xlink:title=" ">
<polygon fill="white" stroke="transparent" points="279.5,-361 189.5,-361 189.5,-312 279.5,-312 279.5,-361"/>
<text text-anchor="start" x="194.5" y="-348.5" font-family="Helvetica,sans-Serif" font-size="10.00">const TokenType</text>
<text text-anchor="start" x="232.5" y="-333.5" font-family="Helvetica,sans-Serif" font-size="10.00"> </text>
<text text-anchor="start" x="232.5" y="-318.5" font-family="Helvetica,sans-Serif" font-size="10.00"> </text>
<polygon fill="#666666" stroke="#666666" points="189.5,-343.5 189.5,-343.5 279.5,-343.5 279.5,-343.5 189.5,-343.5"/>
<polygon fill="#666666" stroke="#666666" points="189.5,-328.5 189.5,-328.5 279.5,-328.5 279.5,-328.5 189.5,-328.5"/>
<polygon fill="none" stroke="#666666" points="189.5,-312 189.5,-361 279.5,-361 279.5,-312 189.5,-312"/>
</a>
</g>
</g>
<!-- Node5&#45;&gt;Node4 -->
<g id="edge4_Node000004_Node000005" class="edge">
<title>Node5&#45;&gt;Node4</title>
<g id="a_edge4_Node000004_Node000005"><a xlink:title=" ">
<path fill="none" stroke="#63b8ff" d="M260.15,-312C274.45,-298.58 292.37,-281.25 307.5,-265 307.89,-264.58 308.28,-264.16 308.67,-263.74"/>
<polygon fill="none" stroke="#63b8ff" points="308.85,-263.54 309.9,-256.4 316.89,-254.63 315.84,-261.76 308.85,-263.54"/>
</a>
</g>
<text text-anchor="middle" x="305" y="-286" font-family="Helvetica,sans-Serif" font-size="10.00" fill="grey"> &#45;type</text>
</g>
<!-- Node6 -->
<g id="Node000006" class="node">
<title>Node6</title>
<g id="a_Node000006"><a xlink:title=" ">
<polygon fill="white" stroke="transparent" points="357,-361 298,-361 298,-312 357,-312 357,-361"/>
<text text-anchor="start" x="303.5" y="-348.5" font-family="Helvetica,sans-Serif" font-size="10.00">std::string</text>
<text text-anchor="start" x="326" y="-333.5" font-family="Helvetica,sans-Serif" font-size="10.00"> </text>
<text text-anchor="start" x="326" y="-318.5" font-family="Helvetica,sans-Serif" font-size="10.00"> </text>
<polygon fill="#666666" stroke="#666666" points="298.5,-343.5 298.5,-343.5 357.5,-343.5 357.5,-343.5 298.5,-343.5"/>
<polygon fill="#666666" stroke="#666666" points="298.5,-328.5 298.5,-328.5 357.5,-328.5 357.5,-328.5 298.5,-328.5"/>
<polygon fill="none" stroke="#666666" points="298,-312 298,-361 357,-361 357,-312 298,-312"/>
</a>
</g>
</g>
<!-- Node6&#45;&gt;Node4 -->
<g id="edge5_Node000004_Node000006" class="edge">
<title>Node6&#45;&gt;Node4</title>
<g id="a_edge5_Node000004_Node000006"><a xlink:title=" ">
<path fill="none" stroke="#63b8ff" d="M326.83,-311.8C326.69,-305.98 326.57,-299.77 326.5,-294 326.44,-289.11 325.57,-287.8 326.5,-283 326.89,-281 327.33,-278.99 327.81,-276.98"/>
<polygon fill="none" stroke="#63b8ff" points="327.81,-276.97 325.56,-270.12 331.02,-265.41 333.27,-272.26 327.81,-276.97"/>
</a>
</g>
<text text-anchor="middle" x="348" y="-286" font-family="Helvetica,sans-Serif" font-size="10.00" fill="grey"> &#45;lexeme</text>
</g>
<!-- Node7 -->
<g id="Node000007" class="node">
<title>Node7</title>
<g id="a_Node000007"><a xlink:title=" ">
<polygon fill="white" stroke="transparent" points="376.5,-458 278.5,-458 278.5,-398 376.5,-398 376.5,-458"/>
<text text-anchor="start" x="283.5" y="-446" font-family="Helvetica,sans-Serif" font-size="10.00">std::basic_string&lt;</text>
<text text-anchor="start" x="309" y="-435" font-family="Helvetica,sans-Serif" font-size="10.00"> Char &gt;</text>
<text text-anchor="start" x="325.5" y="-420" font-family="Helvetica,sans-Serif" font-size="10.00"> </text>
<text text-anchor="start" x="325.5" y="-405" font-family="Helvetica,sans-Serif" font-size="10.00"> </text>
<polygon fill="#666666" stroke="#666666" points="278.5,-430 278.5,-430 376.5,-430 376.5,-430 278.5,-430"/>
<polygon fill="#666666" stroke="#666666" points="278.5,-415 278.5,-415 376.5,-415 376.5,-415 278.5,-415"/>
<polygon fill="none" stroke="#666666" points="278.5,-398 278.5,-458 376.5,-458 376.5,-398 278.5,-398"/>
</a>
</g>
</g>
<!-- Node7&#45;&gt;Node6 -->
<g id="edge6_Node000006_Node000007" class="edge">
<title>Node7&#45;&gt;Node6</title>
<g id="a_edge6_Node000006_Node000007"><a xlink:title=" ">
<path fill="none" stroke="#63b8ff" d="M327.5,-387.41C327.5,-378.47 327.5,-369.25 327.5,-361.21"/>
<polygon fill="none" stroke="#63b8ff" points="324,-387.69 327.5,-397.69 331,-387.69 324,-387.69"/>
</a>
</g>
</g>
<!-- Node8 -->
<g id="Node000008" class="node">
<title>Node8</title>
<g id="a_Node000008"><a xlink:title=" ">
<polygon fill="white" stroke="transparent" points="406,-361 377,-361 377,-312 406,-312 406,-361"/>
<text text-anchor="start" x="382.5" y="-348.5" font-family="Helvetica,sans-Serif" font-size="10.00">any</text>
<text text-anchor="start" x="390" y="-333.5" font-family="Helvetica,sans-Serif" font-size="10.00"> </text>
<text text-anchor="start" x="390" y="-318.5" font-family="Helvetica,sans-Serif" font-size="10.00"> </text>
<polygon fill="#666666" stroke="#666666" points="377.5,-343.5 377.5,-343.5 406.5,-343.5 406.5,-343.5 377.5,-343.5"/>
<polygon fill="#666666" stroke="#666666" points="377.5,-328.5 377.5,-328.5 406.5,-328.5 406.5,-328.5 377.5,-328.5"/>
<polygon fill="none" stroke="#666666" points="377,-312 377,-361 406,-361 406,-312 377,-312"/>
</a>
</g>
</g>
<!-- Node8&#45;&gt;Node4 -->
<g id="edge7_Node000004_Node000008" class="edge">
<title>Node8&#45;&gt;Node4</title>
<g id="a_edge7_Node000004_Node000008"><a xlink:title=" ">
<path fill="none" stroke="#63b8ff" d="M385.6,-311.99C383.07,-301.92 379.97,-289.56 376.78,-276.85"/>
<polygon fill="none" stroke="#63b8ff" points="376.76,-276.76 371.42,-271.91 373.84,-265.12 379.18,-269.97 376.76,-276.76"/>
</a>
</g>
<text text-anchor="middle" x="399.5" y="-286" font-family="Helvetica,sans-Serif" font-size="10.00" fill="grey"> &#45;literal</text>
</g>
<!-- Node9 -->
<g id="Node000009" class="node">
<title>Node9</title>
<g id="a_Node000009"><a xlink:title=" ">
<polygon fill="white" stroke="transparent" points="462,-361 439,-361 439,-312 462,-312 462,-361"/>
<text text-anchor="start" x="444.5" y="-348.5" font-family="Helvetica,sans-Serif" font-size="10.00">int</text>
<text text-anchor="start" x="449" y="-333.5" font-family="Helvetica,sans-Serif" font-size="10.00"> </text>
<text text-anchor="start" x="449" y="-318.5" font-family="Helvetica,sans-Serif" font-size="10.00"> </text>
<polygon fill="#666666" stroke="#666666" points="439.5,-343.5 439.5,-343.5 462.5,-343.5 462.5,-343.5 439.5,-343.5"/>
<polygon fill="#666666" stroke="#666666" points="439.5,-328.5 439.5,-328.5 462.5,-328.5 462.5,-328.5 439.5,-328.5"/>
<polygon fill="none" stroke="#666666" points="439,-312 439,-361 462,-361 462,-312 439,-312"/>
</a>
</g>
</g>
<!-- Node9&#45;&gt;Node4 -->
<g id="edge8_Node000004_Node000009" class="edge">
<title>Node9&#45;&gt;Node4</title>
<g id="a_edge8_Node000004_Node000009"><a xlink:title=" ">
<path fill="none" stroke="#63b8ff" d="M438.89,-312.52C433.88,-303.16 427.75,-292.35 421.5,-283 417.22,-276.59 412.54,-270.05 407.75,-263.61"/>
<polygon fill="none" stroke="#63b8ff" points="407.41,-263.16 400.59,-260.81 400.14,-253.62 406.95,-255.97 407.41,-263.16"/>
</a>
</g>
<text text-anchor="middle" x="441" y="-286" font-family="Helvetica,sans-Serif" font-size="10.00" fill="grey"> &#45;line</text>
</g>
<!-- Node10&#45;&gt;Node1 -->
<g id="edge9_Node000001_Node000010" class="edge">
<title>Node10&#45;&gt;Node1</title>
<g id="a_edge9_Node000001_Node000010"><a xlink:title=" ">
<path fill="none" stroke="#63b8ff" d="M115.68,-178.27C129.13,-158.54 148.84,-129.64 166.27,-104.07"/>
<polygon fill="none" stroke="#63b8ff" points="166.31,-104.01 166.39,-96.8 173.07,-94.09 173,-101.3 166.31,-104.01"/>
</a>
</g>
<text text-anchor="middle" x="175.5" y="-115" font-family="Helvetica,sans-Serif" font-size="10.00" fill="grey"> &#45;value</text>
</g>
</g>
</svg>
