<?xml version="1.0" encoding="UTF-8" standalone="no"?>
<!DOCTYPE svg PUBLIC "-//W3C//DTD SVG 1.1//EN"
 "http://www.w3.org/Graphics/SVG/1.1/DTD/svg11.dtd">
<!-- Generated by graphviz version 2.43.0 (0)
 -->
<!-- Title: Grouping Pages: 1 -->
<svg width="326pt" height="290pt"
 viewBox="0.00 0.00 326.00 290.00" xmlns="http://www.w3.org/2000/svg" xmlns:xlink="http://www.w3.org/1999/xlink">

<svg id="main" version="1.1" xmlns="http://www.w3.org/2000/svg" xmlns:xlink="http://www.w3.org/1999/xlink" xml:space="preserve" onload="init(evt)">
<style type="text/css"><![CDATA[
.node, .edge {opacity: 0.7;}
.node.selected, .edge.selected {opacity: 1;}
.edge:hover path { stroke: red; }
.edge:hover polygon { stroke: red; fill: red; }
]]></style>
<script type="application/ecmascript" xlink:href="svg.min.js"/>
<svg id="graph" class="graph">
<g id="graph0" class="graph" transform="scale(1 1) rotate(0) translate(4 286)">
<title>Grouping</title>
<!-- Node1 -->
<g id="Node000001" class="node">
<title>Node1</title>
<g id="a_Node000001"><a xlink:title="Class representing a grouping expression.">
<polygon fill="#999999" stroke="transparent" points="155.5,-79 57.5,-79 57.5,0 155.5,0 155.5,-79"/>
<text text-anchor="start" x="84" y="-66.5" font-family="Helvetica,sans-Serif" font-size="10.00">Grouping</text>
<text text-anchor="start" x="104.5" y="-51.5" font-family="Helvetica,sans-Serif" font-size="10.00"> </text>
<text text-anchor="start" x="61.5" y="-36.5" font-family="Helvetica,sans-Serif" font-size="10.00">+</text>
<text text-anchor="start" x="74.5" y="-36.5" font-family="Helvetica,sans-Serif" font-size="10.00">Grouping()</text>
<text text-anchor="start" x="61.5" y="-21.5" font-family="Helvetica,sans-Serif" font-size="10.00">+</text>
<text text-anchor="start" x="74.5" y="-21.5" font-family="Helvetica,sans-Serif" font-size="10.00">accept()</text>
<text text-anchor="start" x="61.5" y="-6.5" font-family="Helvetica,sans-Serif" font-size="10.00">+</text>
<text text-anchor="start" x="74.5" y="-6.5" font-family="Helvetica,sans-Serif" font-size="10.00">getExpression()</text>
<polygon fill="#666666" stroke="#666666" points="57.5,-61.5 57.5,-61.5 155.5,-61.5 155.5,-61.5 57.5,-61.5"/>
<polygon fill="#666666" stroke="#666666" points="57.5,-46.5 57.5,-46.5 155.5,-46.5 155.5,-46.5 57.5,-46.5"/>
<polygon fill="none" stroke="#666666" points="57.5,0 57.5,-79 155.5,-79 155.5,0 57.5,0"/>
</a>
</g>
</g>
<!-- Node2 -->
<g id="Node000002" class="node">
<title>Node2</title>
<g id="a_Node000002"><a xlink:href="classExpr.html" target="_top" xlink:title="Abstract base class for expressions.">
<polygon fill="white" stroke="transparent" points="61,-282 0,-282 0,-233 61,-233 61,-282"/>
<text text-anchor="start" x="20" y="-269.5" font-family="Helvetica,sans-Serif" font-size="10.00">Expr</text>
<text text-anchor="start" x="29" y="-254.5" font-family="Helvetica,sans-Serif" font-size="10.00"> </text>
<text text-anchor="start" x="4.5" y="-239.5" font-family="Helvetica,sans-Serif" font-size="10.00">+</text>
<text text-anchor="start" x="17.5" y="-239.5" font-family="Helvetica,sans-Serif" font-size="10.00">accept()</text>
<polygon fill="#666666" stroke="#666666" points="0.5,-264.5 0.5,-264.5 61.5,-264.5 61.5,-264.5 0.5,-264.5"/>
<polygon fill="#666666" stroke="#666666" points="0.5,-249.5 0.5,-249.5 61.5,-249.5 61.5,-249.5 0.5,-249.5"/>
<polygon fill="none" stroke="#666666" points="0,-233 0,-282 61,-282 61,-233 0,-233"/>
</a>
</g>
</g>
<!-- Node2&#45;&gt;Node1 -->
<g id="edge1_Node000001_Node000002" class="edge">
<title>Node2&#45;&gt;Node1</title>
<g id="a_edge1_Node000001_Node000002"><a xlink:title=" ">
<path fill="none" stroke="#63b8ff" d="M25.23,-222.83C22.39,-195.76 21.58,-157.21 33.5,-126 40.05,-108.86 51.63,-92.78 63.66,-79.29"/>
<polygon fill="none" stroke="#63b8ff" points="21.78,-223.45 26.44,-232.97 28.73,-222.62 21.78,-223.45"/>
</a>
</g>
</g>
<!-- Node4 -->
<g id="Node000004" class="node">
<title>Node4</title>
<g id="a_Node000004"><a xlink:title=" ">
<polygon fill="white" stroke="transparent" points="170.5,-180.5 42.5,-180.5 42.5,-131.5 170.5,-131.5 170.5,-180.5"/>
<text text-anchor="start" x="47.5" y="-168" font-family="Helvetica,sans-Serif" font-size="10.00">std::shared_ptr&lt; Expr &gt;</text>
<text text-anchor="start" x="104.5" y="-153" font-family="Helvetica,sans-Serif" font-size="10.00"> </text>
<text text-anchor="start" x="58" y="-138" font-family="Helvetica,sans-Serif" font-size="10.00">+</text>
<text text-anchor="start" x="82.5" y="-138" font-family="Helvetica,sans-Serif" font-size="10.00">operator&#45;&gt;()</text>
<polygon fill="#666666" stroke="#666666" points="42.5,-163 42.5,-163 170.5,-163 170.5,-163 42.5,-163"/>
<polygon fill="#666666" stroke="#666666" points="42.5,-148 42.5,-148 170.5,-148 170.5,-148 42.5,-148"/>
<polygon fill="none" stroke="#666666" points="42.5,-131.5 42.5,-180.5 170.5,-180.5 170.5,-131.5 42.5,-131.5"/>
</a>
</g>
</g>
<!-- Node2&#45;&gt;Node4 -->
<g id="edge4_Node000004_Node000002" class="edge">
<title>Node2&#45;&gt;Node4</title>
<g id="a_edge4_Node000004_Node000002"><a xlink:title=" ">
<path fill="none" stroke="#63b8ff" d="M48.51,-232.92C58.19,-220.25 70.29,-204.41 80.92,-190.49"/>
<polygon fill="none" stroke="#63b8ff" points="81.07,-190.29 81.53,-183.1 88.35,-180.76 87.89,-187.95 81.07,-190.29"/>
</a>
</g>
<text text-anchor="middle" x="81" y="-207" font-family="Helvetica,sans-Serif" font-size="10.00" fill="grey"> +ptr</text>
</g>
<!-- Node3 -->
<g id="Node000003" class="node">
<title>Node3</title>
<g id="a_Node000003"><a xlink:title=" ">
<polygon fill="white" stroke="transparent" points="318,-186 189,-186 189,-126 318,-126 318,-186"/>
<text text-anchor="start" x="194.5" y="-174" font-family="Helvetica,sans-Serif" font-size="10.00">std::enable_shared</text>
<text text-anchor="start" x="194.5" y="-163" font-family="Helvetica,sans-Serif" font-size="10.00">_from_this&lt; Grouping &gt;</text>
<text text-anchor="start" x="252" y="-148" font-family="Helvetica,sans-Serif" font-size="10.00"> </text>
<text text-anchor="start" x="252" y="-133" font-family="Helvetica,sans-Serif" font-size="10.00"> </text>
<polygon fill="#666666" stroke="#666666" points="189.5,-158 189.5,-158 318.5,-158 318.5,-158 189.5,-158"/>
<polygon fill="#666666" stroke="#666666" points="189.5,-143 189.5,-143 318.5,-143 318.5,-143 189.5,-143"/>
<polygon fill="none" stroke="#666666" points="189,-126 189,-186 318,-186 318,-126 189,-126"/>
</a>
</g>
</g>
<!-- Node3&#45;&gt;Node1 -->
<g id="edge2_Node000001_Node000003" class="edge">
<title>Node3&#45;&gt;Node1</title>
<g id="a_edge2_Node000001_Node000003"><a xlink:title=" ">
<path fill="none" stroke="#63b8ff" d="M208.06,-119.6C191.41,-106.64 172.51,-91.92 155.57,-78.72"/>
<polygon fill="none" stroke="#63b8ff" points="205.99,-122.43 216.03,-125.81 210.29,-116.9 205.99,-122.43"/>
</a>
</g>
</g>
<!-- Node4&#45;&gt;Node1 -->
<g id="edge3_Node000001_Node000004" class="edge">
<title>Node4&#45;&gt;Node1</title>
<g id="a_edge3_Node000001_Node000004"><a xlink:title=" ">
<path fill="none" stroke="#63b8ff" d="M106.5,-131.28C106.5,-119.62 106.5,-105.11 106.5,-91.13"/>
<polygon fill="none" stroke="#63b8ff" points="106.5,-91.07 102.5,-85.07 106.5,-79.07 110.5,-85.07 106.5,-91.07"/>
</a>
</g>
<text text-anchor="middle" x="137" y="-100" font-family="Helvetica,sans-Serif" font-size="10.00" fill="grey"> &#45;expression</text>
</g>
</g>
</svg>
</svg>

<style type='text/css'>
<![CDATA[
[data-mouse-over-selected='false'] { opacity: 0.7; }
[data-mouse-over-selected='true']  { opacity: 1.0; }
]]>
</style>
<script type="application/ecmascript"><![CDATA[
document.addEventListener('DOMContentLoaded', (event) => {
  highlightEdges();
  highlightAdjacentNodes();
});
]]></script>
</svg>
