<?xml version="1.0" encoding="UTF-8" standalone="no"?>
<!DOCTYPE svg PUBLIC "-//W3C//DTD SVG 1.1//EN"
 "http://www.w3.org/Graphics/SVG/1.1/DTD/svg11.dtd">
<!-- Generated by graphviz version 2.43.0 (0)
 -->
<!-- Title: Literal Pages: 1 -->
<svg width="251pt" height="194pt"
 viewBox="0.00 0.00 251.00 194.00" xmlns="http://www.w3.org/2000/svg" xmlns:xlink="http://www.w3.org/1999/xlink">
<g id="graph0" class="graph" transform="scale(1 1) rotate(0) translate(4 190)">
<title>Literal</title>
<!-- Node1 -->
<g id="Node000001" class="node">
<title>Node1</title>
<g id="a_Node000001"><a xlink:title="Class representing a literal expression.">
<polygon fill="#999999" stroke="transparent" points="173.5,-79 101.5,-79 101.5,0 173.5,0 173.5,-79"/>
<text text-anchor="start" x="122" y="-66.5" font-family="Helvetica,sans-Serif" font-size="10.00">Literal</text>
<text text-anchor="start" x="135.5" y="-51.5" font-family="Helvetica,sans-Serif" font-size="10.00"> </text>
<text text-anchor="start" x="105.5" y="-36.5" font-family="Helvetica,sans-Serif" font-size="10.00">+</text>
<text text-anchor="start" x="118.5" y="-36.5" font-family="Helvetica,sans-Serif" font-size="10.00">Literal()</text>
<text text-anchor="start" x="105.5" y="-21.5" font-family="Helvetica,sans-Serif" font-size="10.00">+</text>
<text text-anchor="start" x="118.5" y="-21.5" font-family="Helvetica,sans-Serif" font-size="10.00">accept()</text>
<text text-anchor="start" x="105.5" y="-6.5" font-family="Helvetica,sans-Serif" font-size="10.00">+</text>
<text text-anchor="start" x="118.5" y="-6.5" font-family="Helvetica,sans-Serif" font-size="10.00">getValue()</text>
<polygon fill="#666666" stroke="#666666" points="101.5,-61.5 101.5,-61.5 173.5,-61.5 173.5,-61.5 101.5,-61.5"/>
<polygon fill="#666666" stroke="#666666" points="101.5,-46.5 101.5,-46.5 173.5,-46.5 173.5,-46.5 101.5,-46.5"/>
<polygon fill="none" stroke="#666666" points="101.5,0 101.5,-79 173.5,-79 173.5,0 101.5,0"/>
</a>
</g>
</g>
<!-- Node2 -->
<g id="Node000002" class="node">
<title>Node2</title>
<g id="a_Node000002"><a xlink:href="classExpr.html" target="_top" xlink:title="Abstract base class for expressions.">
<polygon fill="white" stroke="transparent" points="61,-180.5 0,-180.5 0,-131.5 61,-131.5 61,-180.5"/>
<text text-anchor="start" x="20" y="-168" font-family="Helvetica,sans-Serif" font-size="10.00">Expr</text>
<text text-anchor="start" x="29" y="-153" font-family="Helvetica,sans-Serif" font-size="10.00"> </text>
<text text-anchor="start" x="4.5" y="-138" font-family="Helvetica,sans-Serif" font-size="10.00">+</text>
<text text-anchor="start" x="17.5" y="-138" font-family="Helvetica,sans-Serif" font-size="10.00">accept()</text>
<polygon fill="#666666" stroke="#666666" points="0.5,-163 0.5,-163 61.5,-163 61.5,-163 0.5,-163"/>
<polygon fill="#666666" stroke="#666666" points="0.5,-148 0.5,-148 61.5,-148 61.5,-148 0.5,-148"/>
<polygon fill="none" stroke="#666666" points="0,-131.5 0,-180.5 61,-180.5 61,-131.5 0,-131.5"/>
</a>
</g>
</g>
<!-- Node2&#45;&gt;Node1 -->
<g id="edge1_Node000001_Node000002" class="edge">
<title>Node2&#45;&gt;Node1</title>
<g id="a_edge1_Node000001_Node000002"><a xlink:title=" ">
<path fill="none" stroke="#63b8ff" d="M59.57,-123.89C72.49,-110.07 87.82,-93.66 101.46,-79.07"/>
<polygon fill="none" stroke="#63b8ff" points="56.94,-121.58 52.67,-131.28 62.06,-126.36 56.94,-121.58"/>
</a>
</g>
</g>
<!-- Node3 -->
<g id="Node000003" class="node">
<title>Node3</title>
<g id="a_Node000003"><a xlink:title=" ">
<polygon fill="white" stroke="transparent" points="195.5,-186 79.5,-186 79.5,-126 195.5,-126 195.5,-186"/>
<text text-anchor="start" x="84.5" y="-174" font-family="Helvetica,sans-Serif" font-size="10.00">std::enable_shared</text>
<text text-anchor="start" x="84.5" y="-163" font-family="Helvetica,sans-Serif" font-size="10.00">_from_this&lt; Literal &gt;</text>
<text text-anchor="start" x="135.5" y="-148" font-family="Helvetica,sans-Serif" font-size="10.00"> </text>
<text text-anchor="start" x="135.5" y="-133" font-family="Helvetica,sans-Serif" font-size="10.00"> </text>
<polygon fill="#666666" stroke="#666666" points="79.5,-158 79.5,-158 195.5,-158 195.5,-158 79.5,-158"/>
<polygon fill="#666666" stroke="#666666" points="79.5,-143 79.5,-143 195.5,-143 195.5,-143 79.5,-143"/>
<polygon fill="none" stroke="#666666" points="79.5,-126 79.5,-186 195.5,-186 195.5,-126 79.5,-126"/>
</a>
</g>
</g>
<!-- Node3&#45;&gt;Node1 -->
<g id="edge2_Node000001_Node000003" class="edge">
<title>Node3&#45;&gt;Node1</title>
<g id="a_edge2_Node000001_Node000003"><a xlink:title=" ">
<path fill="none" stroke="#63b8ff" d="M137.5,-115.76C137.5,-103.93 137.5,-90.95 137.5,-79.15"/>
<polygon fill="none" stroke="#63b8ff" points="134,-115.81 137.5,-125.81 141,-115.81 134,-115.81"/>
</a>
</g>
</g>
<!-- Node4 -->
<g id="Node000004" class="node">
<title>Node4</title>
<g id="a_Node000004"><a xlink:title=" ">
<polygon fill="white" stroke="transparent" points="243,-180.5 214,-180.5 214,-131.5 243,-131.5 243,-180.5"/>
<text text-anchor="start" x="219.5" y="-168" font-family="Helvetica,sans-Serif" font-size="10.00">any</text>
<text text-anchor="start" x="227" y="-153" font-family="Helvetica,sans-Serif" font-size="10.00"> </text>
<text text-anchor="start" x="227" y="-138" font-family="Helvetica,sans-Serif" font-size="10.00"> </text>
<polygon fill="#666666" stroke="#666666" points="214.5,-163 214.5,-163 243.5,-163 243.5,-163 214.5,-163"/>
<polygon fill="#666666" stroke="#666666" points="214.5,-148 214.5,-148 243.5,-148 243.5,-148 214.5,-148"/>
<polygon fill="none" stroke="#666666" points="214,-131.5 214,-180.5 243,-180.5 243,-131.5 214,-131.5"/>
</a>
</g>
</g>
<!-- Node4&#45;&gt;Node1 -->
<g id="edge3_Node000001_Node000004" class="edge">
<title>Node4&#45;&gt;Node1</title>
<g id="a_edge3_Node000001_Node000004"><a xlink:title=" ">
<path fill="none" stroke="#63b8ff" d="M213.88,-136.6C203.63,-123.71 189.43,-105.84 176.04,-89"/>
<polygon fill="none" stroke="#63b8ff" points="175.76,-88.64 168.9,-86.44 168.3,-79.25 175.16,-81.46 175.76,-88.64"/>
</a>
</g>
<text text-anchor="middle" x="204.5" y="-100" font-family="Helvetica,sans-Serif" font-size="10.00" fill="grey"> &#45;value</text>
</g>
</g>
</svg>
