<?xml version="1.0" encoding="UTF-8" standalone="no"?>
<!DOCTYPE svg PUBLIC "-//W3C//DTD SVG 1.1//EN"
 "http://www.w3.org/Graphics/SVG/1.1/DTD/svg11.dtd">
<!-- Generated by graphviz version 2.43.0 (0)
 -->
<!-- Title: Block Pages: 1 -->
<svg width="200pt" height="183pt"
 viewBox="0.00 0.00 199.50 183.00" xmlns="http://www.w3.org/2000/svg" xmlns:xlink="http://www.w3.org/1999/xlink">

<svg id="main" version="1.1" xmlns="http://www.w3.org/2000/svg" xmlns:xlink="http://www.w3.org/1999/xlink" xml:space="preserve" onload="init(evt)">
<style type="text/css"><![CDATA[
.node, .edge {opacity: 0.7;}
.node.selected, .edge.selected {opacity: 1;}
.edge:hover path { stroke: red; }
.edge:hover polygon { stroke: red; fill: red; }
]]></style>
<script type="application/ecmascript" xlink:href="svg.min.js"/>
<svg id="graph" class="graph">
<g id="graph0" class="graph" transform="scale(1 1) rotate(0) translate(4 179)">
<title>Block</title>
<!-- Node1 -->
<g id="Node000001" class="node">
<title>Node1</title>
<g id="a_Node000001"><a xlink:title="Represents a block of statements.">
<polygon fill="#999999" stroke="transparent" points="133,-79 32,-79 32,0 133,0 133,-79"/>
<text text-anchor="start" x="69" y="-66.5" font-family="Helvetica,sans-Serif" font-size="10.00">Block</text>
<text text-anchor="start" x="39" y="-51.5" font-family="Helvetica,sans-Serif" font-size="10.00">&#45;</text>
<text text-anchor="start" x="49.5" y="-51.5" font-family="Helvetica,sans-Serif" font-size="10.00">statements</text>
<text text-anchor="start" x="36.5" y="-36.5" font-family="Helvetica,sans-Serif" font-size="10.00">+</text>
<text text-anchor="start" x="49.5" y="-36.5" font-family="Helvetica,sans-Serif" font-size="10.00">Block()</text>
<text text-anchor="start" x="36.5" y="-21.5" font-family="Helvetica,sans-Serif" font-size="10.00">+</text>
<text text-anchor="start" x="49.5" y="-21.5" font-family="Helvetica,sans-Serif" font-size="10.00">accept()</text>
<text text-anchor="start" x="36.5" y="-6.5" font-family="Helvetica,sans-Serif" font-size="10.00">+</text>
<text text-anchor="start" x="49.5" y="-6.5" font-family="Helvetica,sans-Serif" font-size="10.00">getStatements()</text>
<polygon fill="#666666" stroke="#666666" points="32.5,-61.5 32.5,-61.5 133.5,-61.5 133.5,-61.5 32.5,-61.5"/>
<polygon fill="#666666" stroke="#666666" points="32.5,-46.5 32.5,-46.5 47.5,-46.5 47.5,-46.5 32.5,-46.5"/>
<polygon fill="#666666" stroke="#666666" points="47.5,-46.5 47.5,-46.5 133.5,-46.5 133.5,-46.5 47.5,-46.5"/>
<polygon fill="none" stroke="#666666" points="32,0 32,-79 133,-79 133,0 32,0"/>
</a>
</g>
</g>
<!-- Node2 -->
<g id="Node000002" class="node">
<title>Node2</title>
<g id="a_Node000002"><a xlink:href="classStmt.html" target="_top" xlink:title="Abstract base class for statements.">
<polygon fill="white" stroke="transparent" points="61,-169.5 0,-169.5 0,-120.5 61,-120.5 61,-169.5"/>
<text text-anchor="start" x="19" y="-157" font-family="Helvetica,sans-Serif" font-size="10.00">Stmt</text>
<text text-anchor="start" x="29" y="-142" font-family="Helvetica,sans-Serif" font-size="10.00"> </text>
<text text-anchor="start" x="4.5" y="-127" font-family="Helvetica,sans-Serif" font-size="10.00">+</text>
<text text-anchor="start" x="17.5" y="-127" font-family="Helvetica,sans-Serif" font-size="10.00">accept()</text>
<polygon fill="#666666" stroke="#666666" points="0.5,-152 0.5,-152 61.5,-152 61.5,-152 0.5,-152"/>
<polygon fill="#666666" stroke="#666666" points="0.5,-137 0.5,-137 61.5,-137 61.5,-137 0.5,-137"/>
<polygon fill="none" stroke="#666666" points="0,-120.5 0,-169.5 61,-169.5 61,-120.5 0,-120.5"/>
</a>
</g>
</g>
<!-- Node2&#45;&gt;Node1 -->
<g id="edge1_Node000001_Node000002" class="edge">
<title>Node2&#45;&gt;Node1</title>
<g id="a_edge1_Node000001_Node000002"><a xlink:title=" ">
<path fill="none" stroke="#63b8ff" d="M46.95,-111.26C52.07,-101.06 57.78,-89.71 63.09,-79.14"/>
<polygon fill="none" stroke="#63b8ff" points="43.79,-109.75 42.43,-120.26 50.05,-112.89 43.79,-109.75"/>
</a>
</g>
</g>
<!-- Node3 -->
<g id="Node000003" class="node">
<title>Node3</title>
<g id="a_Node000003"><a xlink:title=" ">
<polygon fill="white" stroke="transparent" points="191.5,-175 79.5,-175 79.5,-115 191.5,-115 191.5,-175"/>
<text text-anchor="start" x="84.5" y="-163" font-family="Helvetica,sans-Serif" font-size="10.00">std::enable_shared</text>
<text text-anchor="start" x="84.5" y="-152" font-family="Helvetica,sans-Serif" font-size="10.00">_from_this&lt; Block &gt;</text>
<text text-anchor="start" x="133.5" y="-137" font-family="Helvetica,sans-Serif" font-size="10.00"> </text>
<text text-anchor="start" x="133.5" y="-122" font-family="Helvetica,sans-Serif" font-size="10.00"> </text>
<polygon fill="#666666" stroke="#666666" points="79.5,-147 79.5,-147 191.5,-147 191.5,-147 79.5,-147"/>
<polygon fill="#666666" stroke="#666666" points="79.5,-132 79.5,-132 191.5,-132 191.5,-132 79.5,-132"/>
<polygon fill="none" stroke="#666666" points="79.5,-115 79.5,-175 191.5,-175 191.5,-115 79.5,-115"/>
</a>
</g>
</g>
<!-- Node3&#45;&gt;Node1 -->
<g id="edge2_Node000001_Node000003" class="edge">
<title>Node3&#45;&gt;Node1</title>
<g id="a_edge2_Node000001_Node000003"><a xlink:title=" ">
<path fill="none" stroke="#63b8ff" d="M116.04,-105.99C111.54,-97.21 106.75,-87.85 102.24,-79.05"/>
<polygon fill="none" stroke="#63b8ff" points="112.92,-107.59 120.6,-114.89 119.15,-104.4 112.92,-107.59"/>
</a>
</g>
</g>
</g>
</svg>
</svg>

<style type='text/css'>
<![CDATA[
[data-mouse-over-selected='false'] { opacity: 0.7; }
[data-mouse-over-selected='true']  { opacity: 1.0; }
]]>
</style>
<script type="application/ecmascript"><![CDATA[
document.addEventListener('DOMContentLoaded', (event) => {
  highlightEdges();
  highlightAdjacentNodes();
});
]]></script>
</svg>
