<?xml version="1.0" encoding="UTF-8" standalone="no"?>
<!DOCTYPE svg PUBLIC "-//W3C//DTD SVG 1.1//EN"
 "http://www.w3.org/Graphics/SVG/1.1/DTD/svg11.dtd">
<!-- Generated by graphviz version 2.43.0 (0)
 -->
<!-- Title: Unary Pages: 1 -->
<svg width="202pt" height="213pt"
 viewBox="0.00 0.00 201.50 213.00" xmlns="http://www.w3.org/2000/svg" xmlns:xlink="http://www.w3.org/1999/xlink">
<g id="graph0" class="graph" transform="scale(1 1) rotate(0) translate(4 209)">
<title>Unary</title>
<!-- Node1 -->
<g id="Node000001" class="node">
<title>Node1</title>
<g id="a_Node000001"><a xlink:title="Class representing a unary expression.">
<polygon fill="#999999" stroke="transparent" points="118.5,-109 48.5,-109 48.5,0 118.5,0 118.5,-109"/>
<text text-anchor="start" x="68.5" y="-96.5" font-family="Helvetica,sans-Serif" font-size="10.00">Unary</text>
<text text-anchor="start" x="55" y="-81.5" font-family="Helvetica,sans-Serif" font-size="10.00">&#45;</text>
<text text-anchor="start" x="65.5" y="-81.5" font-family="Helvetica,sans-Serif" font-size="10.00">op</text>
<text text-anchor="start" x="55" y="-66.5" font-family="Helvetica,sans-Serif" font-size="10.00">&#45;</text>
<text text-anchor="start" x="65.5" y="-66.5" font-family="Helvetica,sans-Serif" font-size="10.00">right</text>
<text text-anchor="start" x="52.5" y="-51.5" font-family="Helvetica,sans-Serif" font-size="10.00">+</text>
<text text-anchor="start" x="65.5" y="-51.5" font-family="Helvetica,sans-Serif" font-size="10.00">Unary()</text>
<text text-anchor="start" x="52.5" y="-36.5" font-family="Helvetica,sans-Serif" font-size="10.00">+</text>
<text text-anchor="start" x="65.5" y="-36.5" font-family="Helvetica,sans-Serif" font-size="10.00">accept()</text>
<text text-anchor="start" x="52.5" y="-21.5" font-family="Helvetica,sans-Serif" font-size="10.00">+</text>
<text text-anchor="start" x="65.5" y="-21.5" font-family="Helvetica,sans-Serif" font-size="10.00">getRight()</text>
<text text-anchor="start" x="52.5" y="-6.5" font-family="Helvetica,sans-Serif" font-size="10.00">+</text>
<text text-anchor="start" x="65.5" y="-6.5" font-family="Helvetica,sans-Serif" font-size="10.00">getOp()</text>
<polygon fill="#666666" stroke="#666666" points="48.5,-91.5 48.5,-91.5 118.5,-91.5 118.5,-91.5 48.5,-91.5"/>
<polygon fill="#666666" stroke="#666666" points="48.5,-61.5 48.5,-61.5 63.5,-61.5 63.5,-61.5 48.5,-61.5"/>
<polygon fill="#666666" stroke="#666666" points="63.5,-61.5 63.5,-61.5 118.5,-61.5 118.5,-61.5 63.5,-61.5"/>
<polygon fill="none" stroke="#666666" points="48.5,0 48.5,-109 118.5,-109 118.5,0 48.5,0"/>
</a>
</g>
</g>
<!-- Node2 -->
<g id="Node000002" class="node">
<title>Node2</title>
<g id="a_Node000002"><a xlink:href="classExpr.html" target="_top" xlink:title="Abstract base class for expressions.">
<polygon fill="white" stroke="transparent" points="61,-199.5 0,-199.5 0,-150.5 61,-150.5 61,-199.5"/>
<text text-anchor="start" x="20" y="-187" font-family="Helvetica,sans-Serif" font-size="10.00">Expr</text>
<text text-anchor="start" x="29" y="-172" font-family="Helvetica,sans-Serif" font-size="10.00"> </text>
<text text-anchor="start" x="4.5" y="-157" font-family="Helvetica,sans-Serif" font-size="10.00">+</text>
<text text-anchor="start" x="17.5" y="-157" font-family="Helvetica,sans-Serif" font-size="10.00">accept()</text>
<polygon fill="#666666" stroke="#666666" points="0.5,-182 0.5,-182 61.5,-182 61.5,-182 0.5,-182"/>
<polygon fill="#666666" stroke="#666666" points="0.5,-167 0.5,-167 61.5,-167 61.5,-167 0.5,-167"/>
<polygon fill="none" stroke="#666666" points="0,-150.5 0,-199.5 61,-199.5 61,-150.5 0,-150.5"/>
</a>
</g>
</g>
<!-- Node2&#45;&gt;Node1 -->
<g id="edge1_Node000001_Node000002" class="edge">
<title>Node2&#45;&gt;Node1</title>
<g id="a_edge1_Node000001_Node000002"><a xlink:title=" ">
<path fill="none" stroke="#63b8ff" d="M45.32,-140.88C49.74,-130.99 54.7,-119.89 59.55,-109.04"/>
<polygon fill="none" stroke="#63b8ff" points="41.99,-139.75 41.1,-150.3 48.38,-142.6 41.99,-139.75"/>
</a>
</g>
</g>
<!-- Node3 -->
<g id="Node000003" class="node">
<title>Node3</title>
<g id="a_Node000003"><a xlink:title=" ">
<polygon fill="white" stroke="transparent" points="193.5,-205 79.5,-205 79.5,-145 193.5,-145 193.5,-205"/>
<text text-anchor="start" x="84.5" y="-193" font-family="Helvetica,sans-Serif" font-size="10.00">std::enable_shared</text>
<text text-anchor="start" x="84.5" y="-182" font-family="Helvetica,sans-Serif" font-size="10.00">_from_this&lt; Unary &gt;</text>
<text text-anchor="start" x="134.5" y="-167" font-family="Helvetica,sans-Serif" font-size="10.00"> </text>
<text text-anchor="start" x="134.5" y="-152" font-family="Helvetica,sans-Serif" font-size="10.00"> </text>
<polygon fill="#666666" stroke="#666666" points="79.5,-177 79.5,-177 193.5,-177 193.5,-177 79.5,-177"/>
<polygon fill="#666666" stroke="#666666" points="79.5,-162 79.5,-162 193.5,-162 193.5,-162 79.5,-162"/>
<polygon fill="none" stroke="#666666" points="79.5,-145 79.5,-205 193.5,-205 193.5,-145 79.5,-145"/>
</a>
</g>
</g>
<!-- Node3&#45;&gt;Node1 -->
<g id="edge2_Node000001_Node000003" class="edge">
<title>Node3&#45;&gt;Node1</title>
<g id="a_edge2_Node000001_Node000003"><a xlink:title=" ">
<path fill="none" stroke="#63b8ff" d="M119.2,-135.31C115.49,-127.03 111.52,-118.14 107.61,-109.4"/>
<polygon fill="none" stroke="#63b8ff" points="116.12,-137.01 123.4,-144.71 122.51,-134.15 116.12,-137.01"/>
</a>
</g>
</g>
</g>
</svg>
