<?xml version="1.0" encoding="UTF-8" standalone="no"?>
<!DOCTYPE svg PUBLIC "-//W3C//DTD SVG 1.1//EN"
 "http://www.w3.org/Graphics/SVG/1.1/DTD/svg11.dtd">
<!-- Generated by graphviz version 2.43.0 (0)
 -->
<!-- Title: Binary Pages: 1 -->
<svg width="204pt" height="243pt"
 viewBox="0.00 0.00 203.50 243.00" xmlns="http://www.w3.org/2000/svg" xmlns:xlink="http://www.w3.org/1999/xlink">

<svg id="main" version="1.1" xmlns="http://www.w3.org/2000/svg" xmlns:xlink="http://www.w3.org/1999/xlink" xml:space="preserve" onload="init(evt)">
<style type="text/css"><![CDATA[
.node, .edge {opacity: 0.7;}
.node.selected, .edge.selected {opacity: 1;}
.edge:hover path { stroke: red; }
.edge:hover polygon { stroke: red; fill: red; }
]]></style>
<script type="application/ecmascript" xlink:href="svg.min.js"/>
<svg id="graph" class="graph">
<g id="graph0" class="graph" transform="scale(1 1) rotate(0) translate(4 239)">
<title>Binary</title>
<!-- Node1 -->
<g id="Node000001" class="node">
<title>Node1</title>
<g id="a_Node000001"><a xlink:title="Class representing a binary expression.">
<polygon fill="#999999" stroke="transparent" points="118.5,-139 48.5,-139 48.5,0 118.5,0 118.5,-139"/>
<text text-anchor="start" x="67.5" y="-126.5" font-family="Helvetica,sans-Serif" font-size="10.00">Binary</text>
<text text-anchor="start" x="55" y="-111.5" font-family="Helvetica,sans-Serif" font-size="10.00">&#45;</text>
<text text-anchor="start" x="65.5" y="-111.5" font-family="Helvetica,sans-Serif" font-size="10.00">left</text>
<text text-anchor="start" x="55" y="-96.5" font-family="Helvetica,sans-Serif" font-size="10.00">&#45;</text>
<text text-anchor="start" x="65.5" y="-96.5" font-family="Helvetica,sans-Serif" font-size="10.00">op</text>
<text text-anchor="start" x="55" y="-81.5" font-family="Helvetica,sans-Serif" font-size="10.00">&#45;</text>
<text text-anchor="start" x="65.5" y="-81.5" font-family="Helvetica,sans-Serif" font-size="10.00">right</text>
<text text-anchor="start" x="52.5" y="-66.5" font-family="Helvetica,sans-Serif" font-size="10.00">+</text>
<text text-anchor="start" x="65.5" y="-66.5" font-family="Helvetica,sans-Serif" font-size="10.00">Binary()</text>
<text text-anchor="start" x="52.5" y="-51.5" font-family="Helvetica,sans-Serif" font-size="10.00">+</text>
<text text-anchor="start" x="65.5" y="-51.5" font-family="Helvetica,sans-Serif" font-size="10.00">accept()</text>
<text text-anchor="start" x="52.5" y="-36.5" font-family="Helvetica,sans-Serif" font-size="10.00">+</text>
<text text-anchor="start" x="65.5" y="-36.5" font-family="Helvetica,sans-Serif" font-size="10.00">getLeft()</text>
<text text-anchor="start" x="52.5" y="-21.5" font-family="Helvetica,sans-Serif" font-size="10.00">+</text>
<text text-anchor="start" x="65.5" y="-21.5" font-family="Helvetica,sans-Serif" font-size="10.00">getRight()</text>
<text text-anchor="start" x="52.5" y="-6.5" font-family="Helvetica,sans-Serif" font-size="10.00">+</text>
<text text-anchor="start" x="65.5" y="-6.5" font-family="Helvetica,sans-Serif" font-size="10.00">getOp()</text>
<polygon fill="#666666" stroke="#666666" points="48.5,-121.5 48.5,-121.5 118.5,-121.5 118.5,-121.5 48.5,-121.5"/>
<polygon fill="#666666" stroke="#666666" points="48.5,-76.5 48.5,-76.5 63.5,-76.5 63.5,-76.5 48.5,-76.5"/>
<polygon fill="#666666" stroke="#666666" points="63.5,-76.5 63.5,-76.5 118.5,-76.5 118.5,-76.5 63.5,-76.5"/>
<polygon fill="none" stroke="#666666" points="48.5,0 48.5,-139 118.5,-139 118.5,0 48.5,0"/>
</a>
</g>
</g>
<!-- Node2 -->
<g id="Node000002" class="node">
<title>Node2</title>
<g id="a_Node000002"><a xlink:href="classExpr.html" target="_top" xlink:title="Abstract base class for expressions.">
<polygon fill="white" stroke="transparent" points="61,-229.5 0,-229.5 0,-180.5 61,-180.5 61,-229.5"/>
<text text-anchor="start" x="20" y="-217" font-family="Helvetica,sans-Serif" font-size="10.00">Expr</text>
<text text-anchor="start" x="29" y="-202" font-family="Helvetica,sans-Serif" font-size="10.00"> </text>
<text text-anchor="start" x="4.5" y="-187" font-family="Helvetica,sans-Serif" font-size="10.00">+</text>
<text text-anchor="start" x="17.5" y="-187" font-family="Helvetica,sans-Serif" font-size="10.00">accept()</text>
<polygon fill="#666666" stroke="#666666" points="0.5,-212 0.5,-212 61.5,-212 61.5,-212 0.5,-212"/>
<polygon fill="#666666" stroke="#666666" points="0.5,-197 0.5,-197 61.5,-197 61.5,-197 0.5,-197"/>
<polygon fill="none" stroke="#666666" points="0,-180.5 0,-229.5 61,-229.5 61,-180.5 0,-180.5"/>
</a>
</g>
</g>
<!-- Node2&#45;&gt;Node1 -->
<g id="edge1_Node000001_Node000002" class="edge">
<title>Node2&#45;&gt;Node1</title>
<g id="a_edge1_Node000001_Node000002"><a xlink:title=" ">
<path fill="none" stroke="#63b8ff" d="M43.66,-170.84C47.52,-161.14 51.88,-150.16 56.26,-139.1"/>
<polygon fill="none" stroke="#63b8ff" points="40.29,-169.85 39.85,-180.44 46.8,-172.44 40.29,-169.85"/>
</a>
</g>
</g>
<!-- Node3 -->
<g id="Node000003" class="node">
<title>Node3</title>
<g id="a_Node000003"><a xlink:title=" ">
<polygon fill="white" stroke="transparent" points="195.5,-235 79.5,-235 79.5,-175 195.5,-175 195.5,-235"/>
<text text-anchor="start" x="84.5" y="-223" font-family="Helvetica,sans-Serif" font-size="10.00">std::enable_shared</text>
<text text-anchor="start" x="84.5" y="-212" font-family="Helvetica,sans-Serif" font-size="10.00">_from_this&lt; Binary &gt;</text>
<text text-anchor="start" x="135.5" y="-197" font-family="Helvetica,sans-Serif" font-size="10.00"> </text>
<text text-anchor="start" x="135.5" y="-182" font-family="Helvetica,sans-Serif" font-size="10.00"> </text>
<polygon fill="#666666" stroke="#666666" points="79.5,-207 79.5,-207 195.5,-207 195.5,-207 79.5,-207"/>
<polygon fill="#666666" stroke="#666666" points="79.5,-192 79.5,-192 195.5,-192 195.5,-192 79.5,-192"/>
<polygon fill="none" stroke="#666666" points="79.5,-175 79.5,-235 195.5,-235 195.5,-175 79.5,-175"/>
</a>
</g>
</g>
<!-- Node3&#45;&gt;Node1 -->
<g id="edge2_Node000001_Node000003" class="edge">
<title>Node3&#45;&gt;Node1</title>
<g id="a_edge2_Node000001_Node000003"><a xlink:title=" ">
<path fill="none" stroke="#63b8ff" d="M121.87,-165.36C118.53,-157.1 114.9,-148.13 111.26,-139.12"/>
<polygon fill="none" stroke="#63b8ff" points="118.65,-166.74 125.65,-174.7 125.14,-164.12 118.65,-166.74"/>
</a>
</g>
</g>
</g>
</svg>
</svg>

<style type='text/css'>
<![CDATA[
[data-mouse-over-selected='false'] { opacity: 0.7; }
[data-mouse-over-selected='true']  { opacity: 1.0; }
]]>
</style>
<script type="application/ecmascript"><![CDATA[
document.addEventListener('DOMContentLoaded', (event) => {
  highlightEdges();
  highlightAdjacentNodes();
});
]]></script>
</svg>
