<?xml version="1.0" encoding="UTF-8" standalone="no"?>
<!DOCTYPE svg PUBLIC "-//W3C//DTD SVG 1.1//EN"
 "http://www.w3.org/Graphics/SVG/1.1/DTD/svg11.dtd">
<!-- Generated by graphviz version 2.43.0 (0)
 -->
<!-- Title: Environment Pages: 1 -->
<!--zoomable 513 -->

<svg id="main" version="1.1" xmlns="http://www.w3.org/2000/svg" xmlns:xlink="http://www.w3.org/1999/xlink" xml:space="preserve" onload="init(evt)">
<style type="text/css"><![CDATA[
.node, .edge {opacity: 0.7;}
.node.selected, .edge.selected {opacity: 1;}
.edge:hover path { stroke: red; }
.edge:hover polygon { stroke: red; fill: red; }
]]></style>

<defs>
  <circle id="rim" cx="0" cy="0" r="7"/>
  <circle id="rim2" cx="0" cy="0" r="3.5"/>
  <g id="zoomPlus">
    <use xlink:href="#rim" fill="#404040"><set attributeName="fill" to="#808080" begin="zoomplus.mouseover" end="zoomplus.mouseout"/></use>
    <path d="M-4,0h8M0,-4v8" fill="none" stroke="white" stroke-width="1.5" pointer-events="none"/>
  </g>
  <g id="zoomMin">
    <use xlink:href="#rim" fill="#404040"><set attributeName="fill" to="#808080" begin="zoomminus.mouseover" end="zoomminus.mouseout"/></use>
    <path d="M-4,0h8" fill="none" stroke="white" stroke-width="1.5" pointer-events="none"/>
  </g>
  <g id="arrowUp" transform="translate(30 24)">
    <use xlink:href="#rim"/>
    <path pointer-events="none" fill="none" stroke="white" stroke-width="1.5" d="M0,-3.0v7 M-2.5,-0.5L0,-3.0L2.5,-0.5"/>
  </g>
  <g id="arrowRight" transform="rotate(90) translate(36 -43)">
    <use xlink:href="#rim"/>
    <path pointer-events="none" fill="none" stroke="white" stroke-width="1.5" d="M0,-3.0v7 M-2.5,-0.5L0,-3.0L2.5,-0.5"/>
  </g>
  <g id="arrowDown" transform="rotate(180) translate(-30 -48)">
    <use xlink:href="#rim"/>
    <path pointer-events="none" fill="none" stroke="white" stroke-width="1.5" d="M0,-3.0v7 M-2.5,-0.5L0,-3.0L2.5,-0.5"/>
  </g>
  <g id="arrowLeft" transform="rotate(270) translate(-36 17)">
    <use xlink:href="#rim"/>
    <path pointer-events="none" fill="none" stroke="white" stroke-width="1.5" d="M0,-3.0v7 M-2.5,-0.5L0,-3.0L2.5,-0.5"/>
  </g>
  <g id="resetDef">
    <use xlink:href="#rim2" fill="#404040"><set attributeName="fill" to="#808080" begin="reset.mouseover" end="reset.mouseout"/></use>
  </g>
</defs>
<script type="application/ecmascript">
var viewWidth = 306;
var viewHeight = 513;
var sectionId = 'dynsection-1';
</script>
<script type="application/ecmascript" xlink:href="svg.min.js"/>
<svg id="graph" class="graph">
<g id="viewport">
<title>Environment</title>
<!-- Node1 -->
<g id="Node000001" class="node">
<title>Node1</title>
<g id="a_Node000001"><a xlink:title="Represents an environment for variable storage in the GSC interpreter.">
<polygon fill="#999999" stroke="transparent" points="135,-205 44,-205 44,-96 135,-96 135,-205"/>
<text text-anchor="start" x="58.5" y="-192.5" font-family="Helvetica,sans-Serif" font-size="10.00">Environment</text>
<text text-anchor="start" x="88" y="-177.5" font-family="Helvetica,sans-Serif" font-size="10.00"> </text>
<text text-anchor="start" x="48.5" y="-162.5" font-family="Helvetica,sans-Serif" font-size="10.00">+</text>
<text text-anchor="start" x="61.5" y="-162.5" font-family="Helvetica,sans-Serif" font-size="10.00">Environment()</text>
<text text-anchor="start" x="48.5" y="-147.5" font-family="Helvetica,sans-Serif" font-size="10.00">+</text>
<text text-anchor="start" x="61.5" y="-147.5" font-family="Helvetica,sans-Serif" font-size="10.00">Environment()</text>
<text text-anchor="start" x="48.5" y="-132.5" font-family="Helvetica,sans-Serif" font-size="10.00">+</text>
<text text-anchor="start" x="61.5" y="-132.5" font-family="Helvetica,sans-Serif" font-size="10.00">get()</text>
<text text-anchor="start" x="48.5" y="-117.5" font-family="Helvetica,sans-Serif" font-size="10.00">+</text>
<text text-anchor="start" x="61.5" y="-117.5" font-family="Helvetica,sans-Serif" font-size="10.00">assign()</text>
<text text-anchor="start" x="48.5" y="-102.5" font-family="Helvetica,sans-Serif" font-size="10.00">+</text>
<text text-anchor="start" x="61.5" y="-102.5" font-family="Helvetica,sans-Serif" font-size="10.00">define()</text>
<polygon fill="#666666" stroke="#666666" points="44.5,-187.5 44.5,-187.5 135.5,-187.5 135.5,-187.5 44.5,-187.5"/>
<polygon fill="#666666" stroke="#666666" points="44.5,-172.5 44.5,-172.5 135.5,-172.5 135.5,-172.5 44.5,-172.5"/>
<polygon fill="none" stroke="#666666" points="44,-96 44,-205 135,-205 135,-96 44,-96"/>
</a>
</g>
</g>
<!-- Node3 -->
<g id="Node000003" class="node">
<title>Node3</title>
<g id="a_Node000003"><a xlink:title=" ">
<polygon fill="white" stroke="transparent" points="173.5,-49 5.5,-49 5.5,0 173.5,0 173.5,-49"/>
<text text-anchor="start" x="10.5" y="-36.5" font-family="Helvetica,sans-Serif" font-size="10.00">std::shared_ptr&lt; Environment &gt;</text>
<text text-anchor="start" x="87.5" y="-21.5" font-family="Helvetica,sans-Serif" font-size="10.00"> </text>
<text text-anchor="start" x="31" y="-6.5" font-family="Helvetica,sans-Serif" font-size="10.00">+</text>
<text text-anchor="start" x="65.5" y="-6.5" font-family="Helvetica,sans-Serif" font-size="10.00">operator&#45;&gt;()</text>
<polygon fill="#666666" stroke="#666666" points="5.5,-31.5 5.5,-31.5 173.5,-31.5 173.5,-31.5 5.5,-31.5"/>
<polygon fill="#666666" stroke="#666666" points="5.5,-16.5 5.5,-16.5 173.5,-16.5 173.5,-16.5 5.5,-16.5"/>
<polygon fill="none" stroke="#666666" points="5.5,0 5.5,-49 173.5,-49 173.5,0 5.5,0"/>
</a>
</g>
</g>
<!-- Node1&#45;&gt;Node3 -->
<g id="edge3_Node000003_Node000001" class="edge">
<title>Node1&#45;&gt;Node3</title>
<g id="a_edge3_Node000003_Node000001"><a xlink:title=" ">
<path fill="none" stroke="#63b8ff" d="M62.19,-95.94C60.08,-86.33 59.71,-76.39 62.5,-67 63.18,-64.71 64.03,-62.43 65,-60.19"/>
<polygon fill="none" stroke="#63b8ff" points="65.11,-59.97 64.37,-52.8 70.71,-49.36 71.45,-56.53 65.11,-59.97"/>
</a>
</g>
<text text-anchor="middle" x="75" y="-70" font-family="Helvetica,sans-Serif" font-size="10.00" fill="grey"> +ptr</text>
</g>
<!-- Node2 -->
<g id="Node000002" class="node">
<title>Node2</title>
<g id="a_Node000002"><a xlink:title=" ">
<polygon fill="white" stroke="transparent" points="147,-312 0,-312 0,-252 147,-252 147,-312"/>
<text text-anchor="start" x="5.5" y="-300" font-family="Helvetica,sans-Serif" font-size="10.00">std::enable_shared</text>
<text text-anchor="start" x="5.5" y="-289" font-family="Helvetica,sans-Serif" font-size="10.00">_from_this&lt; Environment &gt;</text>
<text text-anchor="start" x="72" y="-274" font-family="Helvetica,sans-Serif" font-size="10.00"> </text>
<text text-anchor="start" x="72" y="-259" font-family="Helvetica,sans-Serif" font-size="10.00"> </text>
<polygon fill="#666666" stroke="#666666" points="0.5,-284 0.5,-284 147.5,-284 147.5,-284 0.5,-284"/>
<polygon fill="#666666" stroke="#666666" points="0.5,-269 0.5,-269 147.5,-269 147.5,-269 0.5,-269"/>
<polygon fill="none" stroke="#666666" points="0,-252 0,-312 147,-312 147,-252 0,-252"/>
</a>
</g>
</g>
<!-- Node2&#45;&gt;Node1 -->
<g id="edge1_Node000001_Node000002" class="edge">
<title>Node2&#45;&gt;Node1</title>
<g id="a_edge1_Node000001_Node000002"><a xlink:title=" ">
<path fill="none" stroke="#63b8ff" d="M78.35,-241.77C79.77,-230.25 81.35,-217.45 82.87,-205.19"/>
<polygon fill="none" stroke="#63b8ff" points="74.84,-241.58 77.09,-251.94 81.79,-242.44 74.84,-241.58"/>
</a>
</g>
</g>
<!-- Node3&#45;&gt;Node1 -->
<g id="edge2_Node000001_Node000003" class="edge">
<title>Node3&#45;&gt;Node1</title>
<g id="a_edge2_Node000001_Node000003"><a xlink:title=" ">
<path fill="none" stroke="#63b8ff" d="M90.84,-49.19C91.11,-55.02 91.36,-61.23 91.5,-67 91.63,-72.38 91.68,-77.96 91.67,-83.57"/>
<polygon fill="none" stroke="#63b8ff" points="91.66,-83.8 95.61,-89.84 91.55,-95.8 87.61,-89.77 91.66,-83.8"/>
</a>
</g>
<text text-anchor="middle" x="119.5" y="-70" font-family="Helvetica,sans-Serif" font-size="10.00" fill="grey"> &#45;enclosing</text>
</g>
<!-- Node4 -->
<g id="Node000004" class="node">
<title>Node4</title>
<g id="a_Node000004"><a xlink:title=" ">
<polygon fill="white" stroke="transparent" points="281.5,-312 165.5,-312 165.5,-252 281.5,-252 281.5,-312"/>
<text text-anchor="start" x="170.5" y="-300" font-family="Helvetica,sans-Serif" font-size="10.00">std::map&lt; std::string,</text>
<text text-anchor="start" x="196.5" y="-289" font-family="Helvetica,sans-Serif" font-size="10.00"> std::any &gt;</text>
<text text-anchor="start" x="221.5" y="-274" font-family="Helvetica,sans-Serif" font-size="10.00"> </text>
<text text-anchor="start" x="221.5" y="-259" font-family="Helvetica,sans-Serif" font-size="10.00"> </text>
<polygon fill="#666666" stroke="#666666" points="165.5,-284 165.5,-284 281.5,-284 281.5,-284 165.5,-284"/>
<polygon fill="#666666" stroke="#666666" points="165.5,-269 165.5,-269 281.5,-269 281.5,-269 165.5,-269"/>
<polygon fill="none" stroke="#666666" points="165.5,-252 165.5,-312 281.5,-312 281.5,-252 165.5,-252"/>
</a>
</g>
</g>
<!-- Node4&#45;&gt;Node1 -->
<g id="edge4_Node000001_Node000004" class="edge">
<title>Node4&#45;&gt;Node1</title>
<g id="a_edge4_Node000001_Node000004"><a xlink:title=" ">
<path fill="none" stroke="#63b8ff" d="M193.43,-251.94C178.77,-237.78 160.69,-220.3 143.74,-203.92"/>
<polygon fill="none" stroke="#63b8ff" points="143.64,-203.82 136.54,-202.53 135.01,-195.48 142.1,-196.77 143.64,-203.82"/>
</a>
</g>
<text text-anchor="middle" x="192" y="-226" font-family="Helvetica,sans-Serif" font-size="10.00" fill="grey"> &#45;values</text>
</g>
<!-- Node5 -->
<g id="Node000005" class="node">
<title>Node5</title>
<g id="a_Node000005"><a xlink:title=" ">
<polygon fill="white" stroke="transparent" points="221,-408 162,-408 162,-359 221,-359 221,-408"/>
<text text-anchor="start" x="167.5" y="-395.5" font-family="Helvetica,sans-Serif" font-size="10.00">std::string</text>
<text text-anchor="start" x="190" y="-380.5" font-family="Helvetica,sans-Serif" font-size="10.00"> </text>
<text text-anchor="start" x="190" y="-365.5" font-family="Helvetica,sans-Serif" font-size="10.00"> </text>
<polygon fill="#666666" stroke="#666666" points="162.5,-390.5 162.5,-390.5 221.5,-390.5 221.5,-390.5 162.5,-390.5"/>
<polygon fill="#666666" stroke="#666666" points="162.5,-375.5 162.5,-375.5 221.5,-375.5 221.5,-375.5 162.5,-375.5"/>
<polygon fill="none" stroke="#666666" points="162,-359 162,-408 221,-408 221,-359 162,-359"/>
</a>
</g>
</g>
<!-- Node5&#45;&gt;Node4 -->
<g id="edge5_Node000004_Node000005" class="edge">
<title>Node5&#45;&gt;Node4</title>
<g id="a_edge5_Node000004_Node000005"><a xlink:title=" ">
<path fill="none" stroke="#63b8ff" d="M194.08,-358.89C195.46,-349.73 197.52,-339.24 200.5,-330 201.22,-327.76 202.03,-325.5 202.91,-323.23"/>
<polygon fill="none" stroke="#63b8ff" points="202.97,-323.08 201.66,-315.99 207.7,-312.05 209.01,-319.14 202.97,-323.08"/>
</a>
</g>
<text text-anchor="middle" x="217.5" y="-333" font-family="Helvetica,sans-Serif" font-size="10.00" fill="grey"> +keys</text>
</g>
<!-- Node6 -->
<g id="Node000006" class="node">
<title>Node6</title>
<g id="a_Node000006"><a xlink:title=" ">
<polygon fill="white" stroke="transparent" points="240.5,-505 142.5,-505 142.5,-445 240.5,-445 240.5,-505"/>
<text text-anchor="start" x="147.5" y="-493" font-family="Helvetica,sans-Serif" font-size="10.00">std::basic_string&lt;</text>
<text text-anchor="start" x="173" y="-482" font-family="Helvetica,sans-Serif" font-size="10.00"> Char &gt;</text>
<text text-anchor="start" x="189.5" y="-467" font-family="Helvetica,sans-Serif" font-size="10.00"> </text>
<text text-anchor="start" x="189.5" y="-452" font-family="Helvetica,sans-Serif" font-size="10.00"> </text>
<polygon fill="#666666" stroke="#666666" points="142.5,-477 142.5,-477 240.5,-477 240.5,-477 142.5,-477"/>
<polygon fill="#666666" stroke="#666666" points="142.5,-462 142.5,-462 240.5,-462 240.5,-462 142.5,-462"/>
<polygon fill="none" stroke="#666666" points="142.5,-445 142.5,-505 240.5,-505 240.5,-445 142.5,-445"/>
</a>
</g>
</g>
<!-- Node6&#45;&gt;Node5 -->
<g id="edge6_Node000005_Node000006" class="edge">
<title>Node6&#45;&gt;Node5</title>
<g id="a_edge6_Node000005_Node000006"><a xlink:title=" ">
<path fill="none" stroke="#63b8ff" d="M191.5,-434.41C191.5,-425.47 191.5,-416.25 191.5,-408.21"/>
<polygon fill="none" stroke="#63b8ff" points="188,-434.69 191.5,-444.69 195,-434.69 188,-434.69"/>
</a>
</g>
</g>
<!-- Node7 -->
<g id="Node000007" class="node">
<title>Node7</title>
<g id="a_Node000007"><a xlink:title=" ">
<polygon fill="white" stroke="transparent" points="268,-408 239,-408 239,-359 268,-359 268,-408"/>
<text text-anchor="start" x="244.5" y="-395.5" font-family="Helvetica,sans-Serif" font-size="10.00">any</text>
<text text-anchor="start" x="252" y="-380.5" font-family="Helvetica,sans-Serif" font-size="10.00"> </text>
<text text-anchor="start" x="252" y="-365.5" font-family="Helvetica,sans-Serif" font-size="10.00"> </text>
<polygon fill="#666666" stroke="#666666" points="239.5,-390.5 239.5,-390.5 268.5,-390.5 268.5,-390.5 239.5,-390.5"/>
<polygon fill="#666666" stroke="#666666" points="239.5,-375.5 239.5,-375.5 268.5,-375.5 268.5,-375.5 239.5,-375.5"/>
<polygon fill="none" stroke="#666666" points="239,-359 239,-408 268,-408 268,-359 239,-359"/>
</a>
</g>
</g>
<!-- Node7&#45;&gt;Node4 -->
<g id="edge7_Node000004_Node000007" class="edge">
<title>Node7&#45;&gt;Node4</title>
<g id="a_edge7_Node000004_Node000007"><a xlink:title=" ">
<path fill="none" stroke="#63b8ff" d="M246.39,-358.92C243.22,-348.4 239.39,-335.71 235.78,-323.73"/>
<polygon fill="none" stroke="#63b8ff" points="235.74,-323.59 230.18,-319 232.27,-312.1 237.84,-316.69 235.74,-323.59"/>
</a>
</g>
<text text-anchor="middle" x="268.5" y="-333" font-family="Helvetica,sans-Serif" font-size="10.00" fill="grey"> +elements</text>
</g>
</g>
</svg>

<g id="navigator" transform="translate(0 0)" fill="#404254">
  <rect fill="#f2f5e9" fill-opacity="0.5" stroke="#606060" stroke-width=".5" x="0" y="0" width="60" height="60"/>
  <use id="zoomplus" xlink:href="#zoomPlus" x="17" y="9" onmousedown="handleZoom(evt,'in')"/>
  <use id="zoomminus" xlink:href="#zoomMin" x="42" y="9" onmousedown="handleZoom(evt,'out')"/>
  <use id="reset" xlink:href="#resetDef" x="30" y="36" onmousedown="handleReset()"/>
   <use id="arrowup" xlink:href="#arrowUp" x="0" y="0" onmousedown="handlePan(0,-1)"/>
  <use id="arrowright" xlink:href="#arrowRight" x="0" y="0" onmousedown="handlePan(1,0)"/>
  <use id="arrowdown" xlink:href="#arrowDown" x="0" y="0" onmousedown="handlePan(0,1)"/>
  <use id="arrowleft" xlink:href="#arrowLeft" x="0" y="0" onmousedown="handlePan(-1,0)"/>
</g>
<svg viewBox="0 0 15 15" width="100%" height="30px" preserveAspectRatio="xMaxYMin meet">
 <g id="arrow_out" transform="scale(0.3 0.3)">
  <a xlink:href="classEnvironment__coll__graph_org.svg" target="_base">
   <rect id="button" ry="5" rx="5" y="6" x="6" height="38" width="38"
        fill="#f2f5e9" fill-opacity="0.5" stroke="#606060" stroke-width="1.0"/>
   <path id="arrow"
     d="M 11.500037,31.436501 C 11.940474,20.09759 22.043105,11.32322 32.158766,21.979434 L 37.068811,17.246167 C 37.068811,17.246167 37.088388,32 37.088388,32 L 22.160133,31.978069 C 22.160133,31.978069 26.997745,27.140456 26.997745,27.140456 C 18.528582,18.264221 13.291696,25.230495 11.500037,31.436501 z"
     style="fill:#404040;"/>
  </a>
 </g>
</svg>

<style type='text/css'>
<![CDATA[
[data-mouse-over-selected='false'] { opacity: 0.7; }
[data-mouse-over-selected='true']  { opacity: 1.0; }
]]>
</style>
<script type="application/ecmascript"><![CDATA[
document.addEventListener('DOMContentLoaded', (event) => {
  highlightEdges();
  highlightAdjacentNodes();
});
]]></script>
</svg>
