<?xml version="1.0" encoding="UTF-8" standalone="no"?>
<!DOCTYPE svg PUBLIC "-//W3C//DTD SVG 1.1//EN"
 "http://www.w3.org/Graphics/SVG/1.1/DTD/svg11.dtd">
<!-- Generated by graphviz version 2.43.0 (0)
 -->
<!-- Title: Interpreter Pages: 1 -->
<svg width="777pt" height="616pt"
 viewBox="0.00 0.00 777.00 616.00" xmlns="http://www.w3.org/2000/svg" xmlns:xlink="http://www.w3.org/1999/xlink">
<g id="graph0" class="graph" transform="scale(1 1) rotate(0) translate(4 612)">
<title>Interpreter</title>
<!-- Node1 -->
<g id="Node000001" class="node">
<title>Node1</title>
<g id="a_Node000001"><a xlink:title="The Interpreter class evaluates statements and expressions in the GSC.">
<polygon fill="#999999" stroke="transparent" points="256,-214 140,-214 140,0 256,0 256,-214"/>
<text text-anchor="start" x="172" y="-202" font-family="Helvetica,sans-Serif" font-size="10.00">Interpreter</text>
<text text-anchor="start" x="196" y="-187" font-family="Helvetica,sans-Serif" font-size="10.00"> </text>
<text text-anchor="start" x="144" y="-172" font-family="Helvetica,sans-Serif" font-size="10.00">+</text>
<text text-anchor="start" x="157" y="-172" font-family="Helvetica,sans-Serif" font-size="10.00">interpret()</text>
<text text-anchor="start" x="146.5" y="-157" font-family="Helvetica,sans-Serif" font-size="10.00">&#45;</text>
<text text-anchor="start" x="157" y="-157" font-family="Helvetica,sans-Serif" font-size="10.00">evaluate()</text>
<text text-anchor="start" x="146.5" y="-142" font-family="Helvetica,sans-Serif" font-size="10.00">&#45;</text>
<text text-anchor="start" x="157" y="-142" font-family="Helvetica,sans-Serif" font-size="10.00">execute()</text>
<text text-anchor="start" x="146.5" y="-127" font-family="Helvetica,sans-Serif" font-size="10.00">&#45;</text>
<text text-anchor="start" x="157" y="-127" font-family="Helvetica,sans-Serif" font-size="10.00">executeBlock()</text>
<text text-anchor="start" x="146.5" y="-112" font-family="Helvetica,sans-Serif" font-size="10.00">&#45;</text>
<text text-anchor="start" x="157" y="-112" font-family="Helvetica,sans-Serif" font-size="10.00">visitBinaryExpr()</text>
<text text-anchor="start" x="146.5" y="-97" font-family="Helvetica,sans-Serif" font-size="10.00">&#45;</text>
<text text-anchor="start" x="157" y="-97" font-family="Helvetica,sans-Serif" font-size="10.00">visitLogicalExpr()</text>
<text text-anchor="start" x="146.5" y="-82" font-family="Helvetica,sans-Serif" font-size="10.00">&#45;</text>
<text text-anchor="start" x="157" y="-82" font-family="Helvetica,sans-Serif" font-size="10.00">visitGroupingExpr()</text>
<text text-anchor="start" x="146.5" y="-67" font-family="Helvetica,sans-Serif" font-size="10.00">&#45;</text>
<text text-anchor="start" x="157" y="-67" font-family="Helvetica,sans-Serif" font-size="10.00">visitLiteralExpr()</text>
<text text-anchor="start" x="146.5" y="-52" font-family="Helvetica,sans-Serif" font-size="10.00">&#45;</text>
<text text-anchor="start" x="157" y="-52" font-family="Helvetica,sans-Serif" font-size="10.00">visitUnaryExpr()</text>
<text text-anchor="start" x="146.5" y="-37" font-family="Helvetica,sans-Serif" font-size="10.00">&#45;</text>
<text text-anchor="start" x="157" y="-37" font-family="Helvetica,sans-Serif" font-size="10.00">visitAssignExpr()</text>
<text text-anchor="start" x="146.5" y="-22" font-family="Helvetica,sans-Serif" font-size="10.00">&#45;</text>
<text text-anchor="start" x="157" y="-22" font-family="Helvetica,sans-Serif" font-size="10.00">visitVariableExpr()</text>
<text text-anchor="start" x="157" y="-7" font-family="Helvetica,sans-Serif" font-size="10.00">and 10 more...</text>
<polygon fill="#666666" stroke="#666666" points="140,-197 140,-197 256,-197 256,-197 140,-197"/>
<polygon fill="#666666" stroke="#666666" points="140,-182 140,-182 256,-182 256,-182 140,-182"/>
<polygon fill="none" stroke="#666666" points="140,0 140,-214 256,-214 256,0 140,0"/>
</a>
</g>
</g>
<!-- Node2 -->
<g id="Node000002" class="node">
<title>Node2</title>
<g id="a_Node000002"><a xlink:href="classExprVisitor.html" target="_top" xlink:title="Abstract base class for expression visitors.">
<polygon fill="white" stroke="transparent" points="116,-415 0,-415 0,-261 116,-261 116,-415"/>
<text text-anchor="start" x="31" y="-403" font-family="Helvetica,sans-Serif" font-size="10.00">ExprVisitor</text>
<text text-anchor="start" x="56" y="-388" font-family="Helvetica,sans-Serif" font-size="10.00"> </text>
<text text-anchor="start" x="4" y="-373" font-family="Helvetica,sans-Serif" font-size="10.00">+</text>
<text text-anchor="start" x="17" y="-373" font-family="Helvetica,sans-Serif" font-size="10.00">visitBinaryExpr()</text>
<text text-anchor="start" x="4" y="-358" font-family="Helvetica,sans-Serif" font-size="10.00">+</text>
<text text-anchor="start" x="17" y="-358" font-family="Helvetica,sans-Serif" font-size="10.00">visitGroupingExpr()</text>
<text text-anchor="start" x="4" y="-343" font-family="Helvetica,sans-Serif" font-size="10.00">+</text>
<text text-anchor="start" x="17" y="-343" font-family="Helvetica,sans-Serif" font-size="10.00">visitLiteralExpr()</text>
<text text-anchor="start" x="4" y="-328" font-family="Helvetica,sans-Serif" font-size="10.00">+</text>
<text text-anchor="start" x="17" y="-328" font-family="Helvetica,sans-Serif" font-size="10.00">visitUnaryExpr()</text>
<text text-anchor="start" x="4" y="-313" font-family="Helvetica,sans-Serif" font-size="10.00">+</text>
<text text-anchor="start" x="17" y="-313" font-family="Helvetica,sans-Serif" font-size="10.00">visitAssignExpr()</text>
<text text-anchor="start" x="4" y="-298" font-family="Helvetica,sans-Serif" font-size="10.00">+</text>
<text text-anchor="start" x="17" y="-298" font-family="Helvetica,sans-Serif" font-size="10.00">visitVariableExpr()</text>
<text text-anchor="start" x="4" y="-283" font-family="Helvetica,sans-Serif" font-size="10.00">+</text>
<text text-anchor="start" x="17" y="-283" font-family="Helvetica,sans-Serif" font-size="10.00">visitLogicalExpr()</text>
<text text-anchor="start" x="4" y="-268" font-family="Helvetica,sans-Serif" font-size="10.00">+</text>
<text text-anchor="start" x="17" y="-268" font-family="Helvetica,sans-Serif" font-size="10.00">~ExprVisitor()</text>
<polygon fill="#666666" stroke="#666666" points="0,-398 0,-398 116,-398 116,-398 0,-398"/>
<polygon fill="#666666" stroke="#666666" points="0,-383 0,-383 116,-383 116,-383 0,-383"/>
<polygon fill="none" stroke="#666666" points="0,-261 0,-415 116,-415 116,-261 0,-261"/>
</a>
</g>
</g>
<!-- Node2&#45;&gt;Node1 -->
<g id="edge1_Node000001_Node000002" class="edge">
<title>Node2&#45;&gt;Node1</title>
<g id="a_edge1_Node000001_Node000002"><a xlink:title=" ">
<path fill="none" stroke="#63b8ff" d="M109.97,-251.98C119.72,-236.05 129.96,-219.29 139.88,-203.07"/>
<polygon fill="none" stroke="#63b8ff" points="106.85,-250.39 104.62,-260.75 112.82,-254.04 106.85,-250.39"/>
</a>
</g>
</g>
<!-- Node3 -->
<g id="Node000003" class="node">
<title>Node3</title>
<g id="a_Node000003"><a xlink:href="classStmtVisitor.html" target="_top" xlink:title="Abstract base class for statement visitors.">
<polygon fill="white" stroke="transparent" points="261.5,-407.5 134.5,-407.5 134.5,-268.5 261.5,-268.5 261.5,-407.5"/>
<text text-anchor="start" x="171" y="-395" font-family="Helvetica,sans-Serif" font-size="10.00">StmtVisitor</text>
<text text-anchor="start" x="196.5" y="-380" font-family="Helvetica,sans-Serif" font-size="10.00"> </text>
<text text-anchor="start" x="139" y="-365" font-family="Helvetica,sans-Serif" font-size="10.00">+</text>
<text text-anchor="start" x="152" y="-365" font-family="Helvetica,sans-Serif" font-size="10.00">visitBlockStmt()</text>
<text text-anchor="start" x="139" y="-350" font-family="Helvetica,sans-Serif" font-size="10.00">+</text>
<text text-anchor="start" x="152" y="-350" font-family="Helvetica,sans-Serif" font-size="10.00">visitExpressionStmt()</text>
<text text-anchor="start" x="139" y="-335" font-family="Helvetica,sans-Serif" font-size="10.00">+</text>
<text text-anchor="start" x="152" y="-335" font-family="Helvetica,sans-Serif" font-size="10.00">visitPrintStmt()</text>
<text text-anchor="start" x="139" y="-320" font-family="Helvetica,sans-Serif" font-size="10.00">+</text>
<text text-anchor="start" x="152" y="-320" font-family="Helvetica,sans-Serif" font-size="10.00">visitVarStmt()</text>
<text text-anchor="start" x="139" y="-305" font-family="Helvetica,sans-Serif" font-size="10.00">+</text>
<text text-anchor="start" x="152" y="-305" font-family="Helvetica,sans-Serif" font-size="10.00">visitIfStmt()</text>
<text text-anchor="start" x="139" y="-290" font-family="Helvetica,sans-Serif" font-size="10.00">+</text>
<text text-anchor="start" x="152" y="-290" font-family="Helvetica,sans-Serif" font-size="10.00">visitWhileStmt()</text>
<text text-anchor="start" x="139" y="-275" font-family="Helvetica,sans-Serif" font-size="10.00">+</text>
<text text-anchor="start" x="152" y="-275" font-family="Helvetica,sans-Serif" font-size="10.00">~StmtVisitor()</text>
<polygon fill="#666666" stroke="#666666" points="135,-390 135,-390 262,-390 262,-390 135,-390"/>
<polygon fill="#666666" stroke="#666666" points="135,-375 135,-375 262,-375 262,-375 135,-375"/>
<polygon fill="none" stroke="#666666" points="134.5,-268.5 134.5,-407.5 261.5,-407.5 261.5,-268.5 134.5,-268.5"/>
</a>
</g>
</g>
<!-- Node3&#45;&gt;Node1 -->
<g id="edge2_Node000001_Node000003" class="edge">
<title>Node3&#45;&gt;Node1</title>
<g id="a_edge2_Node000001_Node000003"><a xlink:title=" ">
<path fill="none" stroke="#63b8ff" d="M198,-258.16C198,-244.04 198,-229.11 198,-214.36"/>
<polygon fill="none" stroke="#63b8ff" points="194.5,-258.29 198,-268.29 201.5,-258.29 194.5,-258.29"/>
</a>
</g>
</g>
<!-- Node4 -->
<g id="Node000004" class="node">
<title>Node4</title>
<g id="a_Node000004"><a xlink:title=" ">
<polygon fill="white" stroke="transparent" points="448,-362.5 280,-362.5 280,-313.5 448,-313.5 448,-362.5"/>
<text text-anchor="start" x="285" y="-350" font-family="Helvetica,sans-Serif" font-size="10.00">std::shared_ptr&lt; Environment &gt;</text>
<text text-anchor="start" x="362" y="-335" font-family="Helvetica,sans-Serif" font-size="10.00"> </text>
<text text-anchor="start" x="305.5" y="-320" font-family="Helvetica,sans-Serif" font-size="10.00">+</text>
<text text-anchor="start" x="340" y="-320" font-family="Helvetica,sans-Serif" font-size="10.00">operator&#45;&gt;()</text>
<polygon fill="#666666" stroke="#666666" points="280,-345 280,-345 448,-345 448,-345 280,-345"/>
<polygon fill="#666666" stroke="#666666" points="280,-330 280,-330 448,-330 448,-330 280,-330"/>
<polygon fill="none" stroke="#666666" points="280,-313.5 280,-362.5 448,-362.5 448,-313.5 280,-313.5"/>
</a>
</g>
</g>
<!-- Node4&#45;&gt;Node1 -->
<g id="edge3_Node000001_Node000004" class="edge">
<title>Node4&#45;&gt;Node1</title>
<g id="a_edge3_Node000001_Node000004"><a xlink:title=" ">
<path fill="none" stroke="#63b8ff" d="M346.86,-313.36C327.15,-286.17 293.61,-239.9 263.36,-198.16"/>
<polygon fill="none" stroke="#63b8ff" points="263.19,-197.94 256.43,-195.43 256.15,-188.22 262.91,-190.73 263.19,-197.94"/>
</a>
</g>
<text text-anchor="middle" x="326" y="-235" font-family="Helvetica,sans-Serif" font-size="10.00" fill="grey"> &#45;environment</text>
</g>
<!-- Node5 -->
<g id="Node000005" class="node">
<title>Node5</title>
<g id="a_Node000005"><a xlink:href="classEnvironment.html" target="_top" xlink:title="Represents an environment for variable storage in the GSC interpreter.">
<polygon fill="white" stroke="transparent" points="550.5,-161.5 459.5,-161.5 459.5,-52.5 550.5,-52.5 550.5,-161.5"/>
<text text-anchor="start" x="474" y="-149" font-family="Helvetica,sans-Serif" font-size="10.00">Environment</text>
<text text-anchor="start" x="503.5" y="-134" font-family="Helvetica,sans-Serif" font-size="10.00"> </text>
<text text-anchor="start" x="464" y="-119" font-family="Helvetica,sans-Serif" font-size="10.00">+</text>
<text text-anchor="start" x="477" y="-119" font-family="Helvetica,sans-Serif" font-size="10.00">Environment()</text>
<text text-anchor="start" x="464" y="-104" font-family="Helvetica,sans-Serif" font-size="10.00">+</text>
<text text-anchor="start" x="477" y="-104" font-family="Helvetica,sans-Serif" font-size="10.00">Environment()</text>
<text text-anchor="start" x="464" y="-89" font-family="Helvetica,sans-Serif" font-size="10.00">+</text>
<text text-anchor="start" x="477" y="-89" font-family="Helvetica,sans-Serif" font-size="10.00">get()</text>
<text text-anchor="start" x="464" y="-74" font-family="Helvetica,sans-Serif" font-size="10.00">+</text>
<text text-anchor="start" x="477" y="-74" font-family="Helvetica,sans-Serif" font-size="10.00">assign()</text>
<text text-anchor="start" x="464" y="-59" font-family="Helvetica,sans-Serif" font-size="10.00">+</text>
<text text-anchor="start" x="477" y="-59" font-family="Helvetica,sans-Serif" font-size="10.00">define()</text>
<polygon fill="#666666" stroke="#666666" points="460,-144 460,-144 551,-144 551,-144 460,-144"/>
<polygon fill="#666666" stroke="#666666" points="460,-129 460,-129 551,-129 551,-129 460,-129"/>
<polygon fill="none" stroke="#666666" points="459.5,-52.5 459.5,-161.5 550.5,-161.5 550.5,-52.5 459.5,-52.5"/>
</a>
</g>
</g>
<!-- Node4&#45;&gt;Node5 -->
<g id="edge6_Node000005_Node000004" class="edge">
<title>Node4&#45;&gt;Node5</title>
<g id="a_edge6_Node000005_Node000004"><a xlink:title=" ">
<path fill="none" stroke="#63b8ff" d="M363.15,-313.19C363.31,-291.02 366.05,-257.64 379,-232 395.57,-199.18 424.22,-169.93 450.02,-148.09"/>
<polygon fill="none" stroke="#63b8ff" points="450.11,-148.01 452.2,-141.11 459.37,-140.38 457.28,-147.28 450.11,-148.01"/>
</a>
</g>
<text text-anchor="middle" x="406" y="-235" font-family="Helvetica,sans-Serif" font-size="10.00" fill="grey"> &#45;enclosing</text>
</g>
<!-- Node5&#45;&gt;Node4 -->
<g id="edge4_Node000004_Node000005" class="edge">
<title>Node5&#45;&gt;Node4</title>
<g id="a_edge4_Node000004_Node000005"><a xlink:title=" ">
<path fill="none" stroke="#63b8ff" d="M480.98,-161.55C468.88,-186.87 453.33,-217.15 437,-243 423.72,-264.03 406.78,-286.06 392.57,-303.51"/>
<polygon fill="none" stroke="#63b8ff" points="392.2,-303.96 391.47,-311.13 384.57,-313.21 385.3,-306.04 392.2,-303.96"/>
</a>
</g>
<text text-anchor="middle" x="456.5" y="-235" font-family="Helvetica,sans-Serif" font-size="10.00" fill="grey"> +ptr</text>
</g>
<!-- Node6 -->
<g id="Node000006" class="node">
<title>Node6</title>
<g id="a_Node000006"><a xlink:title=" ">
<polygon fill="white" stroke="transparent" points="613.5,-368 466.5,-368 466.5,-308 613.5,-308 613.5,-368"/>
<text text-anchor="start" x="472" y="-356" font-family="Helvetica,sans-Serif" font-size="10.00">std::enable_shared</text>
<text text-anchor="start" x="472" y="-345" font-family="Helvetica,sans-Serif" font-size="10.00">_from_this&lt; Environment &gt;</text>
<text text-anchor="start" x="538.5" y="-330" font-family="Helvetica,sans-Serif" font-size="10.00"> </text>
<text text-anchor="start" x="538.5" y="-315" font-family="Helvetica,sans-Serif" font-size="10.00"> </text>
<polygon fill="#666666" stroke="#666666" points="467,-340 467,-340 614,-340 614,-340 467,-340"/>
<polygon fill="#666666" stroke="#666666" points="467,-325 467,-325 614,-325 614,-325 467,-325"/>
<polygon fill="none" stroke="#666666" points="466.5,-308 466.5,-368 613.5,-368 613.5,-308 466.5,-308"/>
</a>
</g>
</g>
<!-- Node6&#45;&gt;Node5 -->
<g id="edge5_Node000005_Node000006" class="edge">
<title>Node6&#45;&gt;Node5</title>
<g id="a_edge5_Node000005_Node000006"><a xlink:title=" ">
<path fill="none" stroke="#63b8ff" d="M534.03,-297.96C528.3,-260.43 519.58,-203.42 513.2,-161.64"/>
<polygon fill="none" stroke="#63b8ff" points="530.6,-298.64 535.57,-308 537.52,-297.58 530.6,-298.64"/>
</a>
</g>
</g>
<!-- Node7 -->
<g id="Node000007" class="node">
<title>Node7</title>
<g id="a_Node000007"><a xlink:title=" ">
<polygon fill="white" stroke="transparent" points="748,-368 632,-368 632,-308 748,-308 748,-368"/>
<text text-anchor="start" x="637" y="-356" font-family="Helvetica,sans-Serif" font-size="10.00">std::map&lt; std::string,</text>
<text text-anchor="start" x="663" y="-345" font-family="Helvetica,sans-Serif" font-size="10.00"> std::any &gt;</text>
<text text-anchor="start" x="688" y="-330" font-family="Helvetica,sans-Serif" font-size="10.00"> </text>
<text text-anchor="start" x="688" y="-315" font-family="Helvetica,sans-Serif" font-size="10.00"> </text>
<polygon fill="#666666" stroke="#666666" points="632,-340 632,-340 748,-340 748,-340 632,-340"/>
<polygon fill="#666666" stroke="#666666" points="632,-325 632,-325 748,-325 748,-325 632,-325"/>
<polygon fill="none" stroke="#666666" points="632,-308 632,-368 748,-368 748,-308 632,-308"/>
</a>
</g>
</g>
<!-- Node7&#45;&gt;Node5 -->
<g id="edge7_Node000005_Node000007" class="edge">
<title>Node7&#45;&gt;Node5</title>
<g id="a_edge7_Node000005_Node000007"><a xlink:title=" ">
<path fill="none" stroke="#63b8ff" d="M666.57,-308C638.94,-273.8 592.22,-215.96 556.1,-171.25"/>
<polygon fill="none" stroke="#63b8ff" points="555.87,-170.97 548.99,-168.82 548.33,-161.64 555.21,-163.79 555.87,-170.97"/>
</a>
</g>
<text text-anchor="middle" x="628.5" y="-235" font-family="Helvetica,sans-Serif" font-size="10.00" fill="grey"> &#45;values</text>
</g>
<!-- Node8 -->
<g id="Node000008" class="node">
<title>Node8</title>
<g id="a_Node000008"><a xlink:title=" ">
<polygon fill="white" stroke="transparent" points="687.5,-511 628.5,-511 628.5,-462 687.5,-462 687.5,-511"/>
<text text-anchor="start" x="634" y="-498.5" font-family="Helvetica,sans-Serif" font-size="10.00">std::string</text>
<text text-anchor="start" x="656.5" y="-483.5" font-family="Helvetica,sans-Serif" font-size="10.00"> </text>
<text text-anchor="start" x="656.5" y="-468.5" font-family="Helvetica,sans-Serif" font-size="10.00"> </text>
<polygon fill="#666666" stroke="#666666" points="629,-493.5 629,-493.5 688,-493.5 688,-493.5 629,-493.5"/>
<polygon fill="#666666" stroke="#666666" points="629,-478.5 629,-478.5 688,-478.5 688,-478.5 629,-478.5"/>
<polygon fill="none" stroke="#666666" points="628.5,-462 628.5,-511 687.5,-511 687.5,-462 628.5,-462"/>
</a>
</g>
</g>
<!-- Node8&#45;&gt;Node7 -->
<g id="edge8_Node000007_Node000008" class="edge">
<title>Node8&#45;&gt;Node7</title>
<g id="a_edge8_Node000007_Node000008"><a xlink:title=" ">
<path fill="none" stroke="#63b8ff" d="M663.14,-461.96C667.96,-439.9 675.27,-406.44 681.05,-379.99"/>
<polygon fill="none" stroke="#63b8ff" points="681.1,-379.75 678.47,-373.03 683.66,-368.03 686.29,-374.74 681.1,-379.75"/>
</a>
</g>
<text text-anchor="middle" x="686" y="-436" font-family="Helvetica,sans-Serif" font-size="10.00" fill="grey"> +keys</text>
</g>
<!-- Node9 -->
<g id="Node000009" class="node">
<title>Node9</title>
<g id="a_Node000009"><a xlink:title=" ">
<polygon fill="white" stroke="transparent" points="707,-608 609,-608 609,-548 707,-548 707,-608"/>
<text text-anchor="start" x="614" y="-596" font-family="Helvetica,sans-Serif" font-size="10.00">std::basic_string&lt;</text>
<text text-anchor="start" x="639.5" y="-585" font-family="Helvetica,sans-Serif" font-size="10.00"> Char &gt;</text>
<text text-anchor="start" x="656" y="-570" font-family="Helvetica,sans-Serif" font-size="10.00"> </text>
<text text-anchor="start" x="656" y="-555" font-family="Helvetica,sans-Serif" font-size="10.00"> </text>
<polygon fill="#666666" stroke="#666666" points="609,-580 609,-580 707,-580 707,-580 609,-580"/>
<polygon fill="#666666" stroke="#666666" points="609,-565 609,-565 707,-565 707,-565 609,-565"/>
<polygon fill="none" stroke="#666666" points="609,-548 609,-608 707,-608 707,-548 609,-548"/>
</a>
</g>
</g>
<!-- Node9&#45;&gt;Node8 -->
<g id="edge9_Node000008_Node000009" class="edge">
<title>Node9&#45;&gt;Node8</title>
<g id="a_edge9_Node000008_Node000009"><a xlink:title=" ">
<path fill="none" stroke="#63b8ff" d="M658,-537.41C658,-528.47 658,-519.25 658,-511.21"/>
<polygon fill="none" stroke="#63b8ff" points="654.5,-537.69 658,-547.69 661.5,-537.69 654.5,-537.69"/>
</a>
</g>
</g>
<!-- Node10 -->
<g id="Node000010" class="node">
<title>Node10</title>
<g id="a_Node000010"><a xlink:title=" ">
<polygon fill="white" stroke="transparent" points="734.5,-511 705.5,-511 705.5,-462 734.5,-462 734.5,-511"/>
<text text-anchor="start" x="711" y="-498.5" font-family="Helvetica,sans-Serif" font-size="10.00">any</text>
<text text-anchor="start" x="718.5" y="-483.5" font-family="Helvetica,sans-Serif" font-size="10.00"> </text>
<text text-anchor="start" x="718.5" y="-468.5" font-family="Helvetica,sans-Serif" font-size="10.00"> </text>
<polygon fill="#666666" stroke="#666666" points="706,-493.5 706,-493.5 735,-493.5 735,-493.5 706,-493.5"/>
<polygon fill="#666666" stroke="#666666" points="706,-478.5 706,-478.5 735,-478.5 735,-478.5 706,-478.5"/>
<polygon fill="none" stroke="#666666" points="705.5,-462 705.5,-511 734.5,-511 734.5,-462 705.5,-462"/>
</a>
</g>
</g>
<!-- Node10&#45;&gt;Node7 -->
<g id="edge10_Node000007_Node000010" class="edge">
<title>Node10&#45;&gt;Node7</title>
<g id="a_edge10_Node000007_Node000010"><a xlink:title=" ">
<path fill="none" stroke="#63b8ff" d="M715.18,-461.96C710.66,-439.9 703.81,-406.44 698.39,-379.99"/>
<polygon fill="none" stroke="#63b8ff" points="698.35,-379.78 693.23,-374.71 695.94,-368.03 701.07,-373.1 698.35,-379.78"/>
</a>
</g>
<text text-anchor="middle" x="740" y="-436" font-family="Helvetica,sans-Serif" font-size="10.00" fill="grey"> +elements</text>
</g>
</g>
</svg>
