<?xml version="1.0" encoding="UTF-8" standalone="no"?>
<!DOCTYPE svg PUBLIC "-//W3C//DTD SVG 1.1//EN"
 "http://www.w3.org/Graphics/SVG/1.1/DTD/svg11.dtd">
<!-- Generated by graphviz version 2.43.0 (0)
 -->
<!-- Title: Stmt Pages: 1 -->
<!--zoomable 232 -->

<svg id="main" version="1.1" xmlns="http://www.w3.org/2000/svg" xmlns:xlink="http://www.w3.org/1999/xlink" xml:space="preserve" onload="init(evt)">
<style type="text/css"><![CDATA[
.node, .edge {opacity: 0.7;}
.node.selected, .edge.selected {opacity: 1;}
.edge:hover path { stroke: red; }
.edge:hover polygon { stroke: red; fill: red; }
]]></style>

<defs>
  <circle id="rim" cx="0" cy="0" r="7"/>
  <circle id="rim2" cx="0" cy="0" r="3.5"/>
  <g id="zoomPlus">
    <use xlink:href="#rim" fill="#404040"><set attributeName="fill" to="#808080" begin="zoomplus.mouseover" end="zoomplus.mouseout"/></use>
    <path d="M-4,0h8M0,-4v8" fill="none" stroke="white" stroke-width="1.5" pointer-events="none"/>
  </g>
  <g id="zoomMin">
    <use xlink:href="#rim" fill="#404040"><set attributeName="fill" to="#808080" begin="zoomminus.mouseover" end="zoomminus.mouseout"/></use>
    <path d="M-4,0h8" fill="none" stroke="white" stroke-width="1.5" pointer-events="none"/>
  </g>
  <g id="arrowUp" transform="translate(30 24)">
    <use xlink:href="#rim"/>
    <path pointer-events="none" fill="none" stroke="white" stroke-width="1.5" d="M0,-3.0v7 M-2.5,-0.5L0,-3.0L2.5,-0.5"/>
  </g>
  <g id="arrowRight" transform="rotate(90) translate(36 -43)">
    <use xlink:href="#rim"/>
    <path pointer-events="none" fill="none" stroke="white" stroke-width="1.5" d="M0,-3.0v7 M-2.5,-0.5L0,-3.0L2.5,-0.5"/>
  </g>
  <g id="arrowDown" transform="rotate(180) translate(-30 -48)">
    <use xlink:href="#rim"/>
    <path pointer-events="none" fill="none" stroke="white" stroke-width="1.5" d="M0,-3.0v7 M-2.5,-0.5L0,-3.0L2.5,-0.5"/>
  </g>
  <g id="arrowLeft" transform="rotate(270) translate(-36 17)">
    <use xlink:href="#rim"/>
    <path pointer-events="none" fill="none" stroke="white" stroke-width="1.5" d="M0,-3.0v7 M-2.5,-0.5L0,-3.0L2.5,-0.5"/>
  </g>
  <g id="resetDef">
    <use xlink:href="#rim2" fill="#404040"><set attributeName="fill" to="#808080" begin="reset.mouseover" end="reset.mouseout"/></use>
  </g>
</defs>
<script type="application/ecmascript">
var viewWidth = 682;
var viewHeight = 232;
var sectionId = 'dynsection-0';
</script>
<script type="application/ecmascript" xlink:href="svg.min.js"/>
<svg id="graph" class="graph">
<g id="viewport">
<title>Stmt</title>
<!-- Node1 -->
<g id="Node000001" class="node">
<title>Node1</title>
<g id="a_Node000001"><a xlink:title="Abstract base class for statements.">
<polygon fill="#999999" stroke="transparent" points="377,-224 316,-224 316,-175 377,-175 377,-224"/>
<text text-anchor="start" x="335" y="-211.5" font-family="Helvetica,sans-Serif" font-size="10.00">Stmt</text>
<text text-anchor="start" x="345" y="-196.5" font-family="Helvetica,sans-Serif" font-size="10.00"> </text>
<text text-anchor="start" x="320.5" y="-181.5" font-family="Helvetica,sans-Serif" font-size="10.00">+</text>
<text text-anchor="start" x="333.5" y="-181.5" font-family="Helvetica,sans-Serif" font-size="10.00">accept()</text>
<polygon fill="#666666" stroke="#666666" points="316.5,-206.5 316.5,-206.5 377.5,-206.5 377.5,-206.5 316.5,-206.5"/>
<polygon fill="#666666" stroke="#666666" points="316.5,-191.5 316.5,-191.5 377.5,-191.5 377.5,-191.5 316.5,-191.5"/>
<polygon fill="none" stroke="#666666" points="316,-175 316,-224 377,-224 377,-175 316,-175"/>
</a>
</g>
</g>
<!-- Node2 -->
<g id="Node000002" class="node">
<title>Node2</title>
<g id="a_Node000002"><a xlink:href="classBlock.html" target="_top" xlink:title="Represents a block of statements.">
<polygon fill="white" stroke="transparent" points="101,-109 0,-109 0,-30 101,-30 101,-109"/>
<text text-anchor="start" x="37" y="-96.5" font-family="Helvetica,sans-Serif" font-size="10.00">Block</text>
<text text-anchor="start" x="7" y="-81.5" font-family="Helvetica,sans-Serif" font-size="10.00">&#45;</text>
<text text-anchor="start" x="17.5" y="-81.5" font-family="Helvetica,sans-Serif" font-size="10.00">statements</text>
<text text-anchor="start" x="4.5" y="-66.5" font-family="Helvetica,sans-Serif" font-size="10.00">+</text>
<text text-anchor="start" x="17.5" y="-66.5" font-family="Helvetica,sans-Serif" font-size="10.00">Block()</text>
<text text-anchor="start" x="4.5" y="-51.5" font-family="Helvetica,sans-Serif" font-size="10.00">+</text>
<text text-anchor="start" x="17.5" y="-51.5" font-family="Helvetica,sans-Serif" font-size="10.00">accept()</text>
<text text-anchor="start" x="4.5" y="-36.5" font-family="Helvetica,sans-Serif" font-size="10.00">+</text>
<text text-anchor="start" x="17.5" y="-36.5" font-family="Helvetica,sans-Serif" font-size="10.00">getStatements()</text>
<polygon fill="#666666" stroke="#666666" points="0.5,-91.5 0.5,-91.5 101.5,-91.5 101.5,-91.5 0.5,-91.5"/>
<polygon fill="#666666" stroke="#666666" points="0.5,-76.5 0.5,-76.5 15.5,-76.5 15.5,-76.5 0.5,-76.5"/>
<polygon fill="#666666" stroke="#666666" points="15.5,-76.5 15.5,-76.5 101.5,-76.5 101.5,-76.5 15.5,-76.5"/>
<polygon fill="none" stroke="#666666" points="0,-30 0,-109 101,-109 101,-30 0,-30"/>
</a>
</g>
</g>
<!-- Node1&#45;&gt;Node2 -->
<g id="edge1_Node000001_Node000002" class="edge">
<title>Node1&#45;&gt;Node2</title>
<g id="a_edge1_Node000001_Node000002"><a xlink:title=" ">
<path fill="none" stroke="#63b8ff" d="M305.97,-195.64C256.57,-190.57 172.07,-176.68 110.5,-139 97.96,-131.32 86.61,-120.19 77.25,-109.11"/>
<polygon fill="none" stroke="#63b8ff" points="305.68,-199.13 315.96,-196.59 306.34,-192.16 305.68,-199.13"/>
</a>
</g>
</g>
<!-- Node3 -->
<g id="Node000003" class="node">
<title>Node3</title>
<g id="a_Node000003"><a xlink:href="classExpression.html" target="_top" xlink:title="Represents an expression statement.">
<polygon fill="white" stroke="transparent" points="217.5,-109 119.5,-109 119.5,-30 217.5,-30 217.5,-109"/>
<text text-anchor="start" x="141.5" y="-96.5" font-family="Helvetica,sans-Serif" font-size="10.00">Expression</text>
<text text-anchor="start" x="126" y="-81.5" font-family="Helvetica,sans-Serif" font-size="10.00">&#45;</text>
<text text-anchor="start" x="136.5" y="-81.5" font-family="Helvetica,sans-Serif" font-size="10.00">expression</text>
<text text-anchor="start" x="123.5" y="-66.5" font-family="Helvetica,sans-Serif" font-size="10.00">+</text>
<text text-anchor="start" x="136.5" y="-66.5" font-family="Helvetica,sans-Serif" font-size="10.00">Expression()</text>
<text text-anchor="start" x="123.5" y="-51.5" font-family="Helvetica,sans-Serif" font-size="10.00">+</text>
<text text-anchor="start" x="136.5" y="-51.5" font-family="Helvetica,sans-Serif" font-size="10.00">accept()</text>
<text text-anchor="start" x="123.5" y="-36.5" font-family="Helvetica,sans-Serif" font-size="10.00">+</text>
<text text-anchor="start" x="136.5" y="-36.5" font-family="Helvetica,sans-Serif" font-size="10.00">getExpression()</text>
<polygon fill="#666666" stroke="#666666" points="119.5,-91.5 119.5,-91.5 217.5,-91.5 217.5,-91.5 119.5,-91.5"/>
<polygon fill="#666666" stroke="#666666" points="119.5,-76.5 119.5,-76.5 134.5,-76.5 134.5,-76.5 119.5,-76.5"/>
<polygon fill="#666666" stroke="#666666" points="134.5,-76.5 134.5,-76.5 217.5,-76.5 217.5,-76.5 134.5,-76.5"/>
<polygon fill="none" stroke="#666666" points="119.5,-30 119.5,-109 217.5,-109 217.5,-30 119.5,-30"/>
</a>
</g>
</g>
<!-- Node1&#45;&gt;Node3 -->
<g id="edge2_Node000001_Node000003" class="edge">
<title>Node1&#45;&gt;Node3</title>
<g id="a_edge2_Node000001_Node000003"><a xlink:title=" ">
<path fill="none" stroke="#63b8ff" d="M306.56,-183.56C282.02,-173.25 250.75,-157.98 226.5,-139 215.58,-130.45 205.24,-119.57 196.4,-109"/>
<polygon fill="none" stroke="#63b8ff" points="305.36,-186.85 315.94,-187.4 308.01,-180.38 305.36,-186.85"/>
</a>
</g>
</g>
<!-- Node4 -->
<g id="Node000004" class="node">
<title>Node4</title>
<g id="a_Node000004"><a xlink:href="classIf.html" target="_top" xlink:title="Represents an if statement.">
<polygon fill="white" stroke="transparent" points="339,-139 236,-139 236,0 339,0 339,-139"/>
<text text-anchor="start" x="284.5" y="-126.5" font-family="Helvetica,sans-Serif" font-size="10.00">If</text>
<text text-anchor="start" x="243" y="-111.5" font-family="Helvetica,sans-Serif" font-size="10.00">&#45;</text>
<text text-anchor="start" x="253.5" y="-111.5" font-family="Helvetica,sans-Serif" font-size="10.00">condition</text>
<text text-anchor="start" x="243" y="-96.5" font-family="Helvetica,sans-Serif" font-size="10.00">&#45;</text>
<text text-anchor="start" x="253.5" y="-96.5" font-family="Helvetica,sans-Serif" font-size="10.00">thenBranch</text>
<text text-anchor="start" x="243" y="-81.5" font-family="Helvetica,sans-Serif" font-size="10.00">&#45;</text>
<text text-anchor="start" x="253.5" y="-81.5" font-family="Helvetica,sans-Serif" font-size="10.00">elseBranch</text>
<text text-anchor="start" x="240.5" y="-66.5" font-family="Helvetica,sans-Serif" font-size="10.00">+</text>
<text text-anchor="start" x="253.5" y="-66.5" font-family="Helvetica,sans-Serif" font-size="10.00">If()</text>
<text text-anchor="start" x="240.5" y="-51.5" font-family="Helvetica,sans-Serif" font-size="10.00">+</text>
<text text-anchor="start" x="253.5" y="-51.5" font-family="Helvetica,sans-Serif" font-size="10.00">accept()</text>
<text text-anchor="start" x="240.5" y="-36.5" font-family="Helvetica,sans-Serif" font-size="10.00">+</text>
<text text-anchor="start" x="253.5" y="-36.5" font-family="Helvetica,sans-Serif" font-size="10.00">getCondition()</text>
<text text-anchor="start" x="240.5" y="-21.5" font-family="Helvetica,sans-Serif" font-size="10.00">+</text>
<text text-anchor="start" x="253.5" y="-21.5" font-family="Helvetica,sans-Serif" font-size="10.00">getThenBranch()</text>
<text text-anchor="start" x="240.5" y="-6.5" font-family="Helvetica,sans-Serif" font-size="10.00">+</text>
<text text-anchor="start" x="253.5" y="-6.5" font-family="Helvetica,sans-Serif" font-size="10.00">getElseBranch()</text>
<polygon fill="#666666" stroke="#666666" points="236.5,-121.5 236.5,-121.5 339.5,-121.5 339.5,-121.5 236.5,-121.5"/>
<polygon fill="#666666" stroke="#666666" points="236.5,-76.5 236.5,-76.5 251.5,-76.5 251.5,-76.5 236.5,-76.5"/>
<polygon fill="#666666" stroke="#666666" points="251.5,-76.5 251.5,-76.5 339.5,-76.5 339.5,-76.5 251.5,-76.5"/>
<polygon fill="none" stroke="#666666" points="236,0 236,-139 339,-139 339,0 236,0"/>
</a>
</g>
</g>
<!-- Node1&#45;&gt;Node4 -->
<g id="edge3_Node000001_Node000004" class="edge">
<title>Node1&#45;&gt;Node4</title>
<g id="a_edge3_Node000001_Node000004"><a xlink:title=" ">
<path fill="none" stroke="#63b8ff" d="M331.32,-165.56C327.54,-157.36 323.34,-148.26 319.09,-139.04"/>
<polygon fill="none" stroke="#63b8ff" points="328.18,-167.11 335.54,-174.72 334.53,-164.18 328.18,-167.11"/>
</a>
</g>
</g>
<!-- Node5 -->
<g id="Node000005" class="node">
<title>Node5</title>
<g id="a_Node000005"><a xlink:href="classPrint.html" target="_top" xlink:title="Represents a print statement.">
<polygon fill="white" stroke="transparent" points="455.5,-109 357.5,-109 357.5,-30 455.5,-30 455.5,-109"/>
<text text-anchor="start" x="395" y="-96.5" font-family="Helvetica,sans-Serif" font-size="10.00">Print</text>
<text text-anchor="start" x="364" y="-81.5" font-family="Helvetica,sans-Serif" font-size="10.00">&#45;</text>
<text text-anchor="start" x="374.5" y="-81.5" font-family="Helvetica,sans-Serif" font-size="10.00">expression</text>
<text text-anchor="start" x="361.5" y="-66.5" font-family="Helvetica,sans-Serif" font-size="10.00">+</text>
<text text-anchor="start" x="374.5" y="-66.5" font-family="Helvetica,sans-Serif" font-size="10.00">Print()</text>
<text text-anchor="start" x="361.5" y="-51.5" font-family="Helvetica,sans-Serif" font-size="10.00">+</text>
<text text-anchor="start" x="374.5" y="-51.5" font-family="Helvetica,sans-Serif" font-size="10.00">accept()</text>
<text text-anchor="start" x="361.5" y="-36.5" font-family="Helvetica,sans-Serif" font-size="10.00">+</text>
<text text-anchor="start" x="374.5" y="-36.5" font-family="Helvetica,sans-Serif" font-size="10.00">getExpression()</text>
<polygon fill="#666666" stroke="#666666" points="357.5,-91.5 357.5,-91.5 455.5,-91.5 455.5,-91.5 357.5,-91.5"/>
<polygon fill="#666666" stroke="#666666" points="357.5,-76.5 357.5,-76.5 372.5,-76.5 372.5,-76.5 357.5,-76.5"/>
<polygon fill="#666666" stroke="#666666" points="372.5,-76.5 372.5,-76.5 455.5,-76.5 455.5,-76.5 372.5,-76.5"/>
<polygon fill="none" stroke="#666666" points="357.5,-30 357.5,-109 455.5,-109 455.5,-30 357.5,-30"/>
</a>
</g>
</g>
<!-- Node1&#45;&gt;Node5 -->
<g id="edge4_Node000001_Node000005" class="edge">
<title>Node1&#45;&gt;Node5</title>
<g id="a_edge4_Node000001_Node000005"><a xlink:title=" ">
<path fill="none" stroke="#63b8ff" d="M361.91,-165.62C369.98,-148.41 379.91,-127.23 388.34,-109.23"/>
<polygon fill="none" stroke="#63b8ff" points="358.72,-164.18 357.64,-174.72 365.06,-167.16 358.72,-164.18"/>
</a>
</g>
</g>
<!-- Node6 -->
<g id="Node000006" class="node">
<title>Node6</title>
<g id="a_Node000006"><a xlink:href="classVar.html" target="_top" xlink:title="Represents a variable declaration statement.">
<polygon fill="white" stroke="transparent" points="565,-124 474,-124 474,-15 565,-15 565,-124"/>
<text text-anchor="start" x="512" y="-111.5" font-family="Helvetica,sans-Serif" font-size="10.00">Var</text>
<text text-anchor="start" x="481" y="-96.5" font-family="Helvetica,sans-Serif" font-size="10.00">&#45;</text>
<text text-anchor="start" x="491.5" y="-96.5" font-family="Helvetica,sans-Serif" font-size="10.00">name</text>
<text text-anchor="start" x="481" y="-81.5" font-family="Helvetica,sans-Serif" font-size="10.00">&#45;</text>
<text text-anchor="start" x="491.5" y="-81.5" font-family="Helvetica,sans-Serif" font-size="10.00">initializer</text>
<text text-anchor="start" x="478.5" y="-66.5" font-family="Helvetica,sans-Serif" font-size="10.00">+</text>
<text text-anchor="start" x="491.5" y="-66.5" font-family="Helvetica,sans-Serif" font-size="10.00">Var()</text>
<text text-anchor="start" x="478.5" y="-51.5" font-family="Helvetica,sans-Serif" font-size="10.00">+</text>
<text text-anchor="start" x="491.5" y="-51.5" font-family="Helvetica,sans-Serif" font-size="10.00">accept()</text>
<text text-anchor="start" x="478.5" y="-36.5" font-family="Helvetica,sans-Serif" font-size="10.00">+</text>
<text text-anchor="start" x="491.5" y="-36.5" font-family="Helvetica,sans-Serif" font-size="10.00">getName()</text>
<text text-anchor="start" x="478.5" y="-21.5" font-family="Helvetica,sans-Serif" font-size="10.00">+</text>
<text text-anchor="start" x="491.5" y="-21.5" font-family="Helvetica,sans-Serif" font-size="10.00">getInitializer()</text>
<polygon fill="#666666" stroke="#666666" points="474.5,-106.5 474.5,-106.5 565.5,-106.5 565.5,-106.5 474.5,-106.5"/>
<polygon fill="#666666" stroke="#666666" points="474.5,-76.5 474.5,-76.5 489.5,-76.5 489.5,-76.5 474.5,-76.5"/>
<polygon fill="#666666" stroke="#666666" points="489.5,-76.5 489.5,-76.5 565.5,-76.5 565.5,-76.5 489.5,-76.5"/>
<polygon fill="none" stroke="#666666" points="474,-15 474,-124 565,-124 565,-15 474,-15"/>
</a>
</g>
</g>
<!-- Node1&#45;&gt;Node6 -->
<g id="edge5_Node000001_Node000006" class="edge">
<title>Node1&#45;&gt;Node6</title>
<g id="a_edge5_Node000001_Node000006"><a xlink:title=" ">
<path fill="none" stroke="#63b8ff" d="M386.74,-183.31C410.81,-173.04 441.15,-157.91 464.5,-139 469.95,-134.59 475.22,-129.55 480.2,-124.25"/>
<polygon fill="none" stroke="#63b8ff" points="385.08,-180.21 377.19,-187.28 387.76,-186.68 385.08,-180.21"/>
</a>
</g>
</g>
<!-- Node7 -->
<g id="Node000007" class="node">
<title>Node7</title>
<g id="a_Node000007"><a xlink:href="classWhile.html" target="_top" xlink:title=" ">
<polygon fill="white" stroke="transparent" points="674,-124 583,-124 583,-15 674,-15 674,-124"/>
<text text-anchor="start" x="615" y="-111.5" font-family="Helvetica,sans-Serif" font-size="10.00">While</text>
<text text-anchor="start" x="590" y="-96.5" font-family="Helvetica,sans-Serif" font-size="10.00">&#45;</text>
<text text-anchor="start" x="600.5" y="-96.5" font-family="Helvetica,sans-Serif" font-size="10.00">condition</text>
<text text-anchor="start" x="590" y="-81.5" font-family="Helvetica,sans-Serif" font-size="10.00">&#45;</text>
<text text-anchor="start" x="600.5" y="-81.5" font-family="Helvetica,sans-Serif" font-size="10.00">body</text>
<text text-anchor="start" x="587.5" y="-66.5" font-family="Helvetica,sans-Serif" font-size="10.00">+</text>
<text text-anchor="start" x="600.5" y="-66.5" font-family="Helvetica,sans-Serif" font-size="10.00">While()</text>
<text text-anchor="start" x="587.5" y="-51.5" font-family="Helvetica,sans-Serif" font-size="10.00">+</text>
<text text-anchor="start" x="600.5" y="-51.5" font-family="Helvetica,sans-Serif" font-size="10.00">accept()</text>
<text text-anchor="start" x="587.5" y="-36.5" font-family="Helvetica,sans-Serif" font-size="10.00">+</text>
<text text-anchor="start" x="600.5" y="-36.5" font-family="Helvetica,sans-Serif" font-size="10.00">getCondition()</text>
<text text-anchor="start" x="587.5" y="-21.5" font-family="Helvetica,sans-Serif" font-size="10.00">+</text>
<text text-anchor="start" x="600.5" y="-21.5" font-family="Helvetica,sans-Serif" font-size="10.00">getBody()</text>
<polygon fill="#666666" stroke="#666666" points="583.5,-106.5 583.5,-106.5 674.5,-106.5 674.5,-106.5 583.5,-106.5"/>
<polygon fill="#666666" stroke="#666666" points="583.5,-76.5 583.5,-76.5 598.5,-76.5 598.5,-76.5 583.5,-76.5"/>
<polygon fill="#666666" stroke="#666666" points="598.5,-76.5 598.5,-76.5 674.5,-76.5 674.5,-76.5 598.5,-76.5"/>
<polygon fill="none" stroke="#666666" points="583,-15 583,-124 674,-124 674,-15 583,-15"/>
</a>
</g>
</g>
<!-- Node1&#45;&gt;Node7 -->
<g id="edge6_Node000001_Node000007" class="edge">
<title>Node1&#45;&gt;Node7</title>
<g id="a_edge6_Node000001_Node000007"><a xlink:title=" ">
<path fill="none" stroke="#63b8ff" d="M387.08,-195.72C435.28,-190.74 516.45,-176.97 574.5,-139 580.84,-134.86 586.76,-129.72 592.18,-124.13"/>
<polygon fill="none" stroke="#63b8ff" points="386.64,-192.24 377.02,-196.68 387.31,-199.21 386.64,-192.24"/>
</a>
</g>
</g>
</g>
</svg>

<g id="navigator" transform="translate(0 0)" fill="#404254">
  <rect fill="#f2f5e9" fill-opacity="0.5" stroke="#606060" stroke-width=".5" x="0" y="0" width="60" height="60"/>
  <use id="zoomplus" xlink:href="#zoomPlus" x="17" y="9" onmousedown="handleZoom(evt,'in')"/>
  <use id="zoomminus" xlink:href="#zoomMin" x="42" y="9" onmousedown="handleZoom(evt,'out')"/>
  <use id="reset" xlink:href="#resetDef" x="30" y="36" onmousedown="handleReset()"/>
   <use id="arrowup" xlink:href="#arrowUp" x="0" y="0" onmousedown="handlePan(0,-1)"/>
  <use id="arrowright" xlink:href="#arrowRight" x="0" y="0" onmousedown="handlePan(1,0)"/>
  <use id="arrowdown" xlink:href="#arrowDown" x="0" y="0" onmousedown="handlePan(0,1)"/>
  <use id="arrowleft" xlink:href="#arrowLeft" x="0" y="0" onmousedown="handlePan(-1,0)"/>
</g>
<svg viewBox="0 0 15 15" width="100%" height="30px" preserveAspectRatio="xMaxYMin meet">
 <g id="arrow_out" transform="scale(0.3 0.3)">
  <a xlink:href="classStmt__inherit__graph_org.svg" target="_base">
   <rect id="button" ry="5" rx="5" y="6" x="6" height="38" width="38"
        fill="#f2f5e9" fill-opacity="0.5" stroke="#606060" stroke-width="1.0"/>
   <path id="arrow"
     d="M 11.500037,31.436501 C 11.940474,20.09759 22.043105,11.32322 32.158766,21.979434 L 37.068811,17.246167 C 37.068811,17.246167 37.088388,32 37.088388,32 L 22.160133,31.978069 C 22.160133,31.978069 26.997745,27.140456 26.997745,27.140456 C 18.528582,18.264221 13.291696,25.230495 11.500037,31.436501 z"
     style="fill:#404040;"/>
  </a>
 </g>
</svg>

<style type='text/css'>
<![CDATA[
[data-mouse-over-selected='false'] { opacity: 0.7; }
[data-mouse-over-selected='true']  { opacity: 1.0; }
]]>
</style>
<script type="application/ecmascript"><![CDATA[
document.addEventListener('DOMContentLoaded', (event) => {
  highlightEdges();
  highlightAdjacentNodes();
});
]]></script>
</svg>
