<?xml version="1.0" encoding="UTF-8" standalone="no"?>
<!DOCTYPE svg PUBLIC "-//W3C//DTD SVG 1.1//EN"
 "http://www.w3.org/Graphics/SVG/1.1/DTD/svg11.dtd">
<!-- Generated by graphviz version 2.43.0 (0)
 -->
<!-- Title: src/environment.cpp Pages: 1 -->
<svg width="384pt" height="247pt"
 viewBox="0.00 0.00 383.50 247.00" xmlns="http://www.w3.org/2000/svg" xmlns:xlink="http://www.w3.org/1999/xlink">
<g id="graph0" class="graph" transform="scale(1 1) rotate(0) translate(4 243)">
<title>src/environment.cpp</title>
<!-- Node1 -->
<g id="Node000001" class="node">
<title>Node1</title>
<g id="a_Node000001"><a xlink:title=" ">
<polygon fill="#999999" stroke="#666666" points="241,-239 125,-239 125,-220 241,-220 241,-239"/>
<text text-anchor="middle" x="183" y="-227" font-family="Helvetica,sans-Serif" font-size="10.00">src/environment.cpp</text>
</a>
</g>
</g>
<!-- Node2 -->
<g id="Node000002" class="node">
<title>Node2</title>
<g id="a_Node000002"><a xlink:href="environment_8hpp.html" target="_top" xlink:title=" ">
<polygon fill="white" stroke="#666666" points="174.5,-184 55.5,-184 55.5,-165 174.5,-165 174.5,-184"/>
<text text-anchor="middle" x="115" y="-172" font-family="Helvetica,sans-Serif" font-size="10.00">gsc/environment.hpp</text>
</a>
</g>
</g>
<!-- Node1&#45;&gt;Node2 -->
<g id="edge1_Node000001_Node000002" class="edge">
<title>Node1&#45;&gt;Node2</title>
<g id="a_edge1_Node000001_Node000002"><a xlink:title=" ">
<path fill="none" stroke="#63b8ff" d="M172.07,-219.98C161.92,-212.07 146.58,-200.11 134.35,-190.58"/>
<polygon fill="#63b8ff" stroke="#63b8ff" points="136.16,-187.56 126.12,-184.17 131.86,-193.08 136.16,-187.56"/>
</a>
</g>
</g>
<!-- Node9 -->
<g id="Node000009" class="node">
<title>Node9</title>
<g id="a_Node000009"><a xlink:href="runtimeError_8hpp.html" target="_top" xlink:title=" ">
<polygon fill="white" stroke="#666666" points="316,-184 198,-184 198,-165 316,-165 316,-184"/>
<text text-anchor="middle" x="257" y="-172" font-family="Helvetica,sans-Serif" font-size="10.00">gsc/runtimeError.hpp</text>
</a>
</g>
</g>
<!-- Node1&#45;&gt;Node9 -->
<g id="edge11_Node000001_Node000009" class="edge">
<title>Node1&#45;&gt;Node9</title>
<g id="a_edge11_Node000001_Node000009"><a xlink:title=" ">
<path fill="none" stroke="#63b8ff" d="M194.89,-219.98C206.15,-211.92 223.29,-199.65 236.71,-190.03"/>
<polygon fill="#63b8ff" stroke="#63b8ff" points="238.8,-192.84 244.89,-184.17 234.73,-187.15 238.8,-192.84"/>
</a>
</g>
</g>
<!-- Node3 -->
<g id="Node000003" class="node">
<title>Node3</title>
<g id="a_Node000003"><a xlink:href="token_8hpp.html" target="_top" xlink:title=" ">
<polygon fill="white" stroke="#666666" points="216,-129 132,-129 132,-110 216,-110 216,-129"/>
<text text-anchor="middle" x="174" y="-117" font-family="Helvetica,sans-Serif" font-size="10.00">gsc/token.hpp</text>
</a>
</g>
</g>
<!-- Node2&#45;&gt;Node3 -->
<g id="edge2_Node000002_Node000003" class="edge">
<title>Node2&#45;&gt;Node3</title>
<g id="a_edge2_Node000002_Node000003"><a xlink:title=" ">
<path fill="none" stroke="#63b8ff" d="M124.48,-164.98C133.2,-157.15 146.34,-145.34 156.9,-135.86"/>
<polygon fill="#63b8ff" stroke="#63b8ff" points="159.25,-138.46 164.35,-129.17 154.57,-133.25 159.25,-138.46"/>
</a>
</g>
</g>
<!-- Node5 -->
<g id="Node000005" class="node">
<title>Node5</title>
<g id="a_Node000005"><a xlink:title=" ">
<polygon fill="#e0e0e0" stroke="#999999" points="180,-19 136,-19 136,0 180,0 180,-19"/>
<text text-anchor="middle" x="158" y="-7" font-family="Helvetica,sans-Serif" font-size="10.00">string</text>
</a>
</g>
</g>
<!-- Node2&#45;&gt;Node5 -->
<g id="edge10_Node000002_Node000005" class="edge">
<title>Node2&#45;&gt;Node5</title>
<g id="a_edge10_Node000002_Node000005"><a xlink:title=" ">
<path fill="none" stroke="#63b8ff" d="M108.76,-164.9C94.82,-144.55 64.01,-92.38 85,-55 93.91,-39.14 111.02,-28.26 126.44,-21.24"/>
<polygon fill="#63b8ff" stroke="#63b8ff" points="127.85,-24.44 135.73,-17.35 125.15,-17.98 127.85,-24.44"/>
</a>
</g>
</g>
<!-- Node6 -->
<g id="Node000006" class="node">
<title>Node6</title>
<g id="a_Node000006"><a xlink:title=" ">
<polygon fill="#e0e0e0" stroke="#999999" points="129.5,-74 94.5,-74 94.5,-55 129.5,-55 129.5,-74"/>
<text text-anchor="middle" x="112" y="-62" font-family="Helvetica,sans-Serif" font-size="10.00">any</text>
</a>
</g>
</g>
<!-- Node2&#45;&gt;Node6 -->
<g id="edge7_Node000002_Node000006" class="edge">
<title>Node2&#45;&gt;Node6</title>
<g id="a_edge7_Node000002_Node000006"><a xlink:title=" ">
<path fill="none" stroke="#63b8ff" d="M114.75,-164.66C114.27,-147.17 113.18,-107.8 112.52,-84.27"/>
<polygon fill="#63b8ff" stroke="#63b8ff" points="116.02,-84.06 112.24,-74.16 109.02,-84.25 116.02,-84.06"/>
</a>
</g>
</g>
<!-- Node7 -->
<g id="Node000007" class="node">
<title>Node7</title>
<g id="a_Node000007"><a xlink:title=" ">
<polygon fill="#e0e0e0" stroke="#999999" points="38,-129 0,-129 0,-110 38,-110 38,-129"/>
<text text-anchor="middle" x="19" y="-117" font-family="Helvetica,sans-Serif" font-size="10.00">map</text>
</a>
</g>
</g>
<!-- Node2&#45;&gt;Node7 -->
<g id="edge8_Node000002_Node000007" class="edge">
<title>Node2&#45;&gt;Node7</title>
<g id="a_edge8_Node000002_Node000007"><a xlink:title=" ">
<path fill="none" stroke="#63b8ff" d="M99.58,-164.98C84.55,-156.69 61.46,-143.94 43.84,-134.22"/>
<polygon fill="#63b8ff" stroke="#63b8ff" points="45.15,-130.94 34.7,-129.17 41.77,-137.07 45.15,-130.94"/>
</a>
</g>
</g>
<!-- Node8 -->
<g id="Node000008" class="node">
<title>Node8</title>
<g id="a_Node000008"><a xlink:title=" ">
<polygon fill="#e0e0e0" stroke="#999999" points="292,-129 234,-129 234,-110 292,-110 292,-129"/>
<text text-anchor="middle" x="263" y="-117" font-family="Helvetica,sans-Serif" font-size="10.00">memory</text>
</a>
</g>
</g>
<!-- Node2&#45;&gt;Node8 -->
<g id="edge9_Node000002_Node000008" class="edge">
<title>Node2&#45;&gt;Node8</title>
<g id="a_edge9_Node000002_Node000008"><a xlink:title=" ">
<path fill="none" stroke="#63b8ff" d="M138.78,-164.98C163.23,-156.23 201.53,-142.51 229.15,-132.62"/>
<polygon fill="#63b8ff" stroke="#63b8ff" points="230.55,-135.84 238.79,-129.17 228.19,-129.25 230.55,-135.84"/>
</a>
</g>
</g>
<!-- Node4 -->
<g id="Node000004" class="node">
<title>Node4</title>
<g id="a_Node000004"><a xlink:href="tokenType_8hpp.html" target="_top" xlink:title=" ">
<polygon fill="white" stroke="#666666" points="273.5,-74 186.5,-74 186.5,-55 273.5,-55 273.5,-74"/>
<text text-anchor="middle" x="230" y="-62" font-family="Helvetica,sans-Serif" font-size="10.00">tokenType.hpp</text>
</a>
</g>
</g>
<!-- Node3&#45;&gt;Node4 -->
<g id="edge3_Node000003_Node000004" class="edge">
<title>Node3&#45;&gt;Node4</title>
<g id="a_edge3_Node000003_Node000004"><a xlink:title=" ">
<path fill="none" stroke="#63b8ff" d="M183,-109.98C191.19,-102.23 203.51,-90.58 213.47,-81.14"/>
<polygon fill="#63b8ff" stroke="#63b8ff" points="215.98,-83.59 220.84,-74.17 211.17,-78.5 215.98,-83.59"/>
</a>
</g>
</g>
<!-- Node3&#45;&gt;Node5 -->
<g id="edge6_Node000003_Node000005" class="edge">
<title>Node3&#45;&gt;Node5</title>
<g id="a_edge6_Node000003_Node000005"><a xlink:title=" ">
<path fill="none" stroke="#63b8ff" d="M172.69,-109.66C170.1,-92.17 164.27,-52.8 160.78,-29.27"/>
<polygon fill="#63b8ff" stroke="#63b8ff" points="164.21,-28.54 159.28,-19.16 157.29,-29.56 164.21,-28.54"/>
</a>
</g>
</g>
<!-- Node3&#45;&gt;Node6 -->
<g id="edge5_Node000003_Node000006" class="edge">
<title>Node3&#45;&gt;Node6</title>
<g id="a_edge5_Node000003_Node000006"><a xlink:title=" ">
<path fill="none" stroke="#63b8ff" d="M164.04,-109.98C154.87,-102.15 141.06,-90.34 129.97,-80.86"/>
<polygon fill="#63b8ff" stroke="#63b8ff" points="132.02,-78.01 122.14,-74.17 127.47,-83.33 132.02,-78.01"/>
</a>
</g>
</g>
<!-- Node4&#45;&gt;Node5 -->
<g id="edge4_Node000004_Node000005" class="edge">
<title>Node4&#45;&gt;Node5</title>
<g id="a_edge4_Node000004_Node000005"><a xlink:title=" ">
<path fill="none" stroke="#63b8ff" d="M218.43,-54.98C207.58,-47 191.12,-34.88 178.12,-25.31"/>
<polygon fill="#63b8ff" stroke="#63b8ff" points="179.91,-22.28 169.78,-19.17 175.76,-27.92 179.91,-22.28"/>
</a>
</g>
</g>
<!-- Node9&#45;&gt;Node3 -->
<g id="edge12_Node000009_Node000003" class="edge">
<title>Node9&#45;&gt;Node3</title>
<g id="a_edge12_Node000009_Node000003"><a xlink:title=" ">
<path fill="none" stroke="#63b8ff" d="M243.66,-164.98C230.91,-156.84 211.45,-144.41 196.33,-134.76"/>
<polygon fill="#63b8ff" stroke="#63b8ff" points="197.89,-131.6 187.58,-129.17 194.12,-137.5 197.89,-131.6"/>
</a>
</g>
</g>
<!-- Node9&#45;&gt;Node8 -->
<g id="edge13_Node000009_Node000008" class="edge">
<title>Node9&#45;&gt;Node8</title>
<g id="a_edge13_Node000009_Node000008"><a xlink:title=" ">
<path fill="none" stroke="#63b8ff" d="M257.99,-164.75C258.78,-157.8 259.9,-147.85 260.89,-139.13"/>
<polygon fill="#63b8ff" stroke="#63b8ff" points="264.38,-139.42 262.03,-129.09 257.42,-138.63 264.38,-139.42"/>
</a>
</g>
</g>
<!-- Node10 -->
<g id="Node000010" class="node">
<title>Node10</title>
<g id="a_Node000010"><a xlink:title=" ">
<polygon fill="#e0e0e0" stroke="#999999" points="375.5,-129 310.5,-129 310.5,-110 375.5,-110 375.5,-129"/>
<text text-anchor="middle" x="343" y="-117" font-family="Helvetica,sans-Serif" font-size="10.00">stdexcept</text>
</a>
</g>
</g>
<!-- Node9&#45;&gt;Node10 -->
<g id="edge14_Node000009_Node000010" class="edge">
<title>Node9&#45;&gt;Node10</title>
<g id="a_edge14_Node000009_Node000010"><a xlink:title=" ">
<path fill="none" stroke="#63b8ff" d="M270.82,-164.98C284.15,-156.77 304.58,-144.18 320.31,-134.49"/>
<polygon fill="#63b8ff" stroke="#63b8ff" points="322.25,-137.4 328.93,-129.17 318.58,-131.44 322.25,-137.4"/>
</a>
</g>
</g>
</g>
</svg>
