<?xml version="1.0" encoding="UTF-8" standalone="no"?>
<!DOCTYPE svg PUBLIC "-//W3C//DTD SVG 1.1//EN"
 "http://www.w3.org/Graphics/SVG/1.1/DTD/svg11.dtd">
<!-- Generated by graphviz version 2.43.0 (0)
 -->
<!-- Title: test/errorTest.cpp Pages: 1 -->
<svg width="575pt" height="302pt"
 viewBox="0.00 0.00 574.61 302.00" xmlns="http://www.w3.org/2000/svg" xmlns:xlink="http://www.w3.org/1999/xlink">
<g id="graph0" class="graph" transform="scale(1 1) rotate(0) translate(4 298)">
<title>test/errorTest.cpp</title>
<!-- Node1 -->
<g id="Node000001" class="node">
<title>Node1</title>
<g id="a_Node000001"><a xlink:title=" ">
<polygon fill="#999999" stroke="#666666" points="378.11,-294 277.11,-294 277.11,-275 378.11,-275 378.11,-294"/>
<text text-anchor="middle" x="327.61" y="-282" font-family="Helvetica,sans-Serif" font-size="10.00">test/errorTest.cpp</text>
</a>
</g>
</g>
<!-- Node2 -->
<g id="Node000002" class="node">
<title>Node2</title>
<g id="a_Node000002"><a xlink:href="error_8hpp.html" target="_top" xlink:title=" ">
<polygon fill="white" stroke="#666666" points="162.61,-239 82.61,-239 82.61,-220 162.61,-220 162.61,-239"/>
<text text-anchor="middle" x="122.61" y="-227" font-family="Helvetica,sans-Serif" font-size="10.00">gsc/error.hpp</text>
</a>
</g>
</g>
<!-- Node1&#45;&gt;Node2 -->
<g id="edge1_Node000001_Node000002" class="edge">
<title>Node1&#45;&gt;Node2</title>
<g id="a_edge1_Node000001_Node000002"><a xlink:title=" ">
<path fill="none" stroke="#63b8ff" d="M294.67,-274.98C259.66,-265.93 204.14,-251.58 165.68,-241.64"/>
<polygon fill="#63b8ff" stroke="#63b8ff" points="166.36,-238.2 155.8,-239.08 164.61,-244.97 166.36,-238.2"/>
</a>
</g>
</g>
<!-- Node4 -->
<g id="Node000004" class="node">
<title>Node4</title>
<g id="a_Node000004"><a xlink:href="token_8hpp.html" target="_top" xlink:title=" ">
<polygon fill="white" stroke="#666666" points="257.61,-129 173.61,-129 173.61,-110 257.61,-110 257.61,-129"/>
<text text-anchor="middle" x="215.61" y="-117" font-family="Helvetica,sans-Serif" font-size="10.00">gsc/token.hpp</text>
</a>
</g>
</g>
<!-- Node1&#45;&gt;Node4 -->
<g id="edge12_Node000001_Node000004" class="edge">
<title>Node1&#45;&gt;Node4</title>
<g id="a_edge12_Node000001_Node000004"><a xlink:title=" ">
<path fill="none" stroke="#63b8ff" d="M288.63,-274.99C268.44,-268.52 245.24,-257.48 231.61,-239 209.91,-209.59 210.49,-164.59 212.96,-139.35"/>
<polygon fill="#63b8ff" stroke="#63b8ff" points="216.46,-139.62 214.16,-129.27 209.51,-138.79 216.46,-139.62"/>
</a>
</g>
</g>
<!-- Node10 -->
<g id="Node000010" class="node">
<title>Node10</title>
<g id="a_Node000010"><a xlink:title=" ">
<polygon fill="#e0e0e0" stroke="#999999" points="414.11,-239 241.11,-239 241.11,-220 414.11,-220 414.11,-239"/>
<text text-anchor="middle" x="327.61" y="-227" font-family="Helvetica,sans-Serif" font-size="10.00">catch2/catch_amalgamated.hpp</text>
</a>
</g>
</g>
<!-- Node1&#45;&gt;Node10 -->
<g id="edge11_Node000001_Node000010" class="edge">
<title>Node1&#45;&gt;Node10</title>
<g id="a_edge11_Node000001_Node000010"><a xlink:title=" ">
<path fill="none" stroke="#63b8ff" d="M327.61,-274.75C327.61,-267.8 327.61,-257.85 327.61,-249.13"/>
<polygon fill="#63b8ff" stroke="#63b8ff" points="331.11,-249.09 327.61,-239.09 324.11,-249.09 331.11,-249.09"/>
</a>
</g>
</g>
<!-- Node11 -->
<g id="Node000011" class="node">
<title>Node11</title>
<g id="a_Node000011"><a xlink:title=" ">
<polygon fill="#e0e0e0" stroke="#999999" points="492.61,-239 432.61,-239 432.61,-220 492.61,-220 492.61,-239"/>
<text text-anchor="middle" x="462.61" y="-227" font-family="Helvetica,sans-Serif" font-size="10.00">iostream</text>
</a>
</g>
</g>
<!-- Node1&#45;&gt;Node11 -->
<g id="edge13_Node000001_Node000011" class="edge">
<title>Node1&#45;&gt;Node11</title>
<g id="a_edge13_Node000001_Node000011"><a xlink:title=" ">
<path fill="none" stroke="#63b8ff" d="M349.3,-274.98C371.4,-266.3 405.93,-252.75 431.06,-242.88"/>
<polygon fill="#63b8ff" stroke="#63b8ff" points="432.49,-246.08 440.52,-239.17 429.93,-239.57 432.49,-246.08"/>
</a>
</g>
</g>
<!-- Node12 -->
<g id="Node000012" class="node">
<title>Node12</title>
<g id="a_Node000012"><a xlink:title=" ">
<polygon fill="#e0e0e0" stroke="#999999" points="566.61,-239 510.61,-239 510.61,-220 566.61,-220 566.61,-239"/>
<text text-anchor="middle" x="538.61" y="-227" font-family="Helvetica,sans-Serif" font-size="10.00">sstream</text>
</a>
</g>
</g>
<!-- Node1&#45;&gt;Node12 -->
<g id="edge14_Node000001_Node000012" class="edge">
<title>Node1&#45;&gt;Node12</title>
<g id="a_edge14_Node000001_Node000012"><a xlink:title=" ">
<path fill="none" stroke="#63b8ff" d="M361.51,-274.98C399.55,-265.43 461.11,-249.97 500.71,-240.02"/>
<polygon fill="#63b8ff" stroke="#63b8ff" points="501.68,-243.38 510.53,-237.55 499.98,-236.59 501.68,-243.38"/>
</a>
</g>
</g>
<!-- Node3 -->
<g id="Node000003" class="node">
<title>Node3</title>
<g id="a_Node000003"><a xlink:href="runtimeError_8hpp.html" target="_top" xlink:title=" ">
<polygon fill="white" stroke="#666666" points="181.61,-184 63.61,-184 63.61,-165 181.61,-165 181.61,-184"/>
<text text-anchor="middle" x="122.61" y="-172" font-family="Helvetica,sans-Serif" font-size="10.00">gsc/runtimeError.hpp</text>
</a>
</g>
</g>
<!-- Node2&#45;&gt;Node3 -->
<g id="edge2_Node000002_Node000003" class="edge">
<title>Node2&#45;&gt;Node3</title>
<g id="a_edge2_Node000002_Node000003"><a xlink:title=" ">
<path fill="none" stroke="#63b8ff" d="M122.61,-219.75C122.61,-212.8 122.61,-202.85 122.61,-194.13"/>
<polygon fill="#63b8ff" stroke="#63b8ff" points="126.11,-194.09 122.61,-184.09 119.11,-194.09 126.11,-194.09"/>
</a>
</g>
</g>
<!-- Node6 -->
<g id="Node000006" class="node">
<title>Node6</title>
<g id="a_Node000006"><a xlink:title=" ">
<polygon fill="#e0e0e0" stroke="#999999" points="151.61,-19 107.61,-19 107.61,0 151.61,0 151.61,-19"/>
<text text-anchor="middle" x="129.61" y="-7" font-family="Helvetica,sans-Serif" font-size="10.00">string</text>
</a>
</g>
</g>
<!-- Node2&#45;&gt;Node6 -->
<g id="edge10_Node000002_Node000006" class="edge">
<title>Node2&#45;&gt;Node6</title>
<g id="a_edge10_Node000002_Node000006"><a xlink:title=" ">
<path fill="none" stroke="#63b8ff" d="M100.89,-219.94C60.52,-202.63 -19.86,-160.74 4.61,-110 24.5,-68.74 70.74,-39.31 101.06,-23.62"/>
<polygon fill="#63b8ff" stroke="#63b8ff" points="102.91,-26.6 110.29,-19 99.78,-20.34 102.91,-26.6"/>
</a>
</g>
</g>
<!-- Node3&#45;&gt;Node4 -->
<g id="edge3_Node000003_Node000004" class="edge">
<title>Node3&#45;&gt;Node4</title>
<g id="a_edge3_Node000003_Node000004"><a xlink:title=" ">
<path fill="none" stroke="#63b8ff" d="M137.55,-164.98C152.1,-156.69 174.47,-143.94 191.54,-134.22"/>
<polygon fill="#63b8ff" stroke="#63b8ff" points="193.44,-137.16 200.39,-129.17 189.97,-131.08 193.44,-137.16"/>
</a>
</g>
</g>
<!-- Node8 -->
<g id="Node000008" class="node">
<title>Node8</title>
<g id="a_Node000008"><a xlink:title=" ">
<polygon fill="#e0e0e0" stroke="#999999" points="71.61,-129 13.61,-129 13.61,-110 71.61,-110 71.61,-129"/>
<text text-anchor="middle" x="42.61" y="-117" font-family="Helvetica,sans-Serif" font-size="10.00">memory</text>
</a>
</g>
</g>
<!-- Node3&#45;&gt;Node8 -->
<g id="edge8_Node000003_Node000008" class="edge">
<title>Node3&#45;&gt;Node8</title>
<g id="a_edge8_Node000003_Node000008"><a xlink:title=" ">
<path fill="none" stroke="#63b8ff" d="M109.75,-164.98C97.46,-156.84 78.7,-144.41 64.13,-134.76"/>
<polygon fill="#63b8ff" stroke="#63b8ff" points="65.96,-131.78 55.69,-129.17 62.1,-137.61 65.96,-131.78"/>
</a>
</g>
</g>
<!-- Node9 -->
<g id="Node000009" class="node">
<title>Node9</title>
<g id="a_Node000009"><a xlink:title=" ">
<polygon fill="#e0e0e0" stroke="#999999" points="155.11,-129 90.11,-129 90.11,-110 155.11,-110 155.11,-129"/>
<text text-anchor="middle" x="122.61" y="-117" font-family="Helvetica,sans-Serif" font-size="10.00">stdexcept</text>
</a>
</g>
</g>
<!-- Node3&#45;&gt;Node9 -->
<g id="edge9_Node000003_Node000009" class="edge">
<title>Node3&#45;&gt;Node9</title>
<g id="a_edge9_Node000003_Node000009"><a xlink:title=" ">
<path fill="none" stroke="#63b8ff" d="M122.61,-164.75C122.61,-157.8 122.61,-147.85 122.61,-139.13"/>
<polygon fill="#63b8ff" stroke="#63b8ff" points="126.11,-139.09 122.61,-129.09 119.11,-139.09 126.11,-139.09"/>
</a>
</g>
</g>
<!-- Node5 -->
<g id="Node000005" class="node">
<title>Node5</title>
<g id="a_Node000005"><a xlink:href="tokenType_8hpp.html" target="_top" xlink:title=" ">
<polygon fill="white" stroke="#666666" points="298.11,-74 211.11,-74 211.11,-55 298.11,-55 298.11,-74"/>
<text text-anchor="middle" x="254.61" y="-62" font-family="Helvetica,sans-Serif" font-size="10.00">tokenType.hpp</text>
</a>
</g>
</g>
<!-- Node4&#45;&gt;Node5 -->
<g id="edge4_Node000004_Node000005" class="edge">
<title>Node4&#45;&gt;Node5</title>
<g id="a_edge4_Node000004_Node000005"><a xlink:title=" ">
<path fill="none" stroke="#63b8ff" d="M222.05,-109.75C227.5,-102.34 235.47,-91.5 242.16,-82.41"/>
<polygon fill="#63b8ff" stroke="#63b8ff" points="245.18,-84.22 248.29,-74.09 239.54,-80.07 245.18,-84.22"/>
</a>
</g>
</g>
<!-- Node4&#45;&gt;Node6 -->
<g id="edge7_Node000004_Node000006" class="edge">
<title>Node4&#45;&gt;Node6</title>
<g id="a_edge7_Node000004_Node000006"><a xlink:title=" ">
<path fill="none" stroke="#63b8ff" d="M195.85,-109.99C180.83,-102.55 160.74,-90.38 148.61,-74 138.87,-60.85 134.08,-42.72 131.76,-29.2"/>
<polygon fill="#63b8ff" stroke="#63b8ff" points="135.2,-28.54 130.33,-19.13 128.27,-29.53 135.2,-28.54"/>
</a>
</g>
</g>
<!-- Node7 -->
<g id="Node000007" class="node">
<title>Node7</title>
<g id="a_Node000007"><a xlink:title=" ">
<polygon fill="#e0e0e0" stroke="#999999" points="193.11,-74 158.11,-74 158.11,-55 193.11,-55 193.11,-74"/>
<text text-anchor="middle" x="175.61" y="-62" font-family="Helvetica,sans-Serif" font-size="10.00">any</text>
</a>
</g>
</g>
<!-- Node4&#45;&gt;Node7 -->
<g id="edge6_Node000004_Node000007" class="edge">
<title>Node4&#45;&gt;Node7</title>
<g id="a_edge6_Node000004_Node000007"><a xlink:title=" ">
<path fill="none" stroke="#63b8ff" d="M209,-109.75C203.35,-102.26 195.06,-91.28 188.15,-82.13"/>
<polygon fill="#63b8ff" stroke="#63b8ff" points="190.91,-79.96 182.09,-74.09 185.32,-84.18 190.91,-79.96"/>
</a>
</g>
</g>
<!-- Node5&#45;&gt;Node6 -->
<g id="edge5_Node000005_Node000006" class="edge">
<title>Node5&#45;&gt;Node6</title>
<g id="a_edge5_Node000005_Node000006"><a xlink:title=" ">
<path fill="none" stroke="#63b8ff" d="M234.52,-54.98C214.23,-46.38 182.65,-32.99 159.43,-23.15"/>
<polygon fill="#63b8ff" stroke="#63b8ff" points="160.63,-19.85 150.05,-19.17 157.9,-26.3 160.63,-19.85"/>
</a>
</g>
</g>
</g>
</svg>
