<?xml version="1.0" encoding="UTF-8" standalone="no"?>
<!DOCTYPE svg PUBLIC "-//W3C//DTD SVG 1.1//EN"
 "http://www.w3.org/Graphics/SVG/1.1/DTD/svg11.dtd">
<!-- Generated by graphviz version 2.43.0 (0)
 -->
<!-- Title: lib/gsc/expr.hpp Pages: 1 -->
<svg width="741pt" height="192pt"
 viewBox="0.00 0.00 740.50 192.00" xmlns="http://www.w3.org/2000/svg" xmlns:xlink="http://www.w3.org/1999/xlink">
<g id="graph0" class="graph" transform="scale(1 1) rotate(0) translate(4 188)">
<title>lib/gsc/expr.hpp</title>
<!-- Node1 -->
<g id="Node000001" class="node">
<title>Node1</title>
<g id="a_Node000001"><a xlink:title=" ">
<polygon fill="#999999" stroke="#666666" points="492,-184 399,-184 399,-165 492,-165 492,-184"/>
<text text-anchor="middle" x="445.5" y="-172" font-family="Helvetica,sans-Serif" font-size="10.00">lib/gsc/expr.hpp</text>
</a>
</g>
</g>
<!-- Node2 -->
<g id="Node000002" class="node">
<title>Node2</title>
<g id="a_Node000002"><a xlink:href="interpreter_8hpp.html" target="_top" xlink:title=" ">
<polygon fill="white" stroke="#666666" points="298,-74 175,-74 175,-55 298,-55 298,-74"/>
<text text-anchor="middle" x="236.5" y="-62" font-family="Helvetica,sans-Serif" font-size="10.00">lib/gsc/interpreter.hpp</text>
</a>
</g>
</g>
<!-- Node1&#45;&gt;Node2 -->
<g id="edge1_Node000001_Node000002" class="edge">
<title>Node1&#45;&gt;Node2</title>
<g id="a_edge1_Node000001_Node000002"><a xlink:title=" ">
<path fill="none" stroke="#63b8ff" d="M419.65,-160.14C376.1,-137.64 289.32,-92.79 253.04,-74.05"/>
<polygon fill="#63b8ff" stroke="#63b8ff" points="418.26,-163.36 428.75,-164.84 421.47,-157.14 418.26,-163.36"/>
</a>
</g>
</g>
<!-- Node6 -->
<g id="Node000006" class="node">
<title>Node6</title>
<g id="a_Node000006"><a xlink:href="parser_8hpp.html" target="_top" xlink:title=" ">
<polygon fill="white" stroke="#666666" points="418.5,-74 316.5,-74 316.5,-55 418.5,-55 418.5,-74"/>
<text text-anchor="middle" x="367.5" y="-62" font-family="Helvetica,sans-Serif" font-size="10.00">lib/gsc/parser.hpp</text>
</a>
</g>
</g>
<!-- Node1&#45;&gt;Node6 -->
<g id="edge5_Node000001_Node000006" class="edge">
<title>Node1&#45;&gt;Node6</title>
<g id="a_edge5_Node000001_Node000006"><a xlink:title=" ">
<path fill="none" stroke="#63b8ff" d="M421.21,-159.28C409.89,-151.58 397.06,-141.15 388.5,-129 376.33,-111.72 370.85,-86.92 368.7,-74.02"/>
<polygon fill="#63b8ff" stroke="#63b8ff" points="419.55,-162.37 429.85,-164.85 423.34,-156.49 419.55,-162.37"/>
</a>
</g>
</g>
<!-- Node8 -->
<g id="Node000008" class="node">
<title>Node8</title>
<g id="a_Node000008"><a xlink:href="parserTest_8cpp.html" target="_top" xlink:title=" ">
<polygon fill="white" stroke="#666666" points="585,-19 476,-19 476,0 585,0 585,-19"/>
<text text-anchor="middle" x="530.5" y="-7" font-family="Helvetica,sans-Serif" font-size="10.00">test/parserTest.cpp</text>
</a>
</g>
</g>
<!-- Node1&#45;&gt;Node8 -->
<g id="edge15_Node000001_Node000008" class="edge">
<title>Node1&#45;&gt;Node8</title>
<g id="a_edge15_Node000001_Node000008"><a xlink:title=" ">
<path fill="none" stroke="#63b8ff" d="M478.45,-160.85C512.31,-145.85 563.16,-117.29 585.5,-74 597.07,-51.58 567.89,-30.46 547.74,-19.13"/>
<polygon fill="#63b8ff" stroke="#63b8ff" points="476.78,-157.75 468.96,-164.9 479.53,-164.19 476.78,-157.75"/>
</a>
</g>
</g>
<!-- Node9 -->
<g id="Node000009" class="node">
<title>Node9</title>
<g id="a_Node000009"><a xlink:href="stmt_8hpp.html" target="_top" xlink:title=" ">
<polygon fill="white" stroke="#666666" points="493,-129 398,-129 398,-110 493,-110 493,-129"/>
<text text-anchor="middle" x="445.5" y="-117" font-family="Helvetica,sans-Serif" font-size="10.00">lib/gsc/stmt.hpp</text>
</a>
</g>
</g>
<!-- Node1&#45;&gt;Node9 -->
<g id="edge9_Node000001_Node000009" class="edge">
<title>Node1&#45;&gt;Node9</title>
<g id="a_edge9_Node000001_Node000009"><a xlink:title=" ">
<path fill="none" stroke="#63b8ff" d="M445.5,-154.66C445.5,-145.93 445.5,-135.99 445.5,-129.09"/>
<polygon fill="#63b8ff" stroke="#63b8ff" points="442,-154.75 445.5,-164.75 449,-154.75 442,-154.75"/>
</a>
</g>
</g>
<!-- Node11 -->
<g id="Node000011" class="node">
<title>Node11</title>
<g id="a_Node000011"><a xlink:href="exprTest_8cpp.html" target="_top" xlink:title=" ">
<polygon fill="white" stroke="#666666" points="732.5,-129 632.5,-129 632.5,-110 732.5,-110 732.5,-129"/>
<text text-anchor="middle" x="682.5" y="-117" font-family="Helvetica,sans-Serif" font-size="10.00">test/exprTest.cpp</text>
</a>
</g>
</g>
<!-- Node1&#45;&gt;Node11 -->
<g id="edge14_Node000001_Node000011" class="edge">
<title>Node1&#45;&gt;Node11</title>
<g id="a_edge14_Node000001_Node000011"><a xlink:title=" ">
<path fill="none" stroke="#63b8ff" d="M493.56,-162.75C537.97,-152.82 603.1,-138.26 644.12,-129.08"/>
<polygon fill="#63b8ff" stroke="#63b8ff" points="492.57,-159.39 483.58,-164.98 494.1,-166.22 492.57,-159.39"/>
</a>
</g>
</g>
<!-- Node3 -->
<g id="Node000003" class="node">
<title>Node3</title>
<g id="a_Node000003"><a xlink:href="main_8cpp.html" target="_top" xlink:title=" ">
<polygon fill="white" stroke="#666666" points="355,-19 272,-19 272,0 355,0 355,-19"/>
<text text-anchor="middle" x="313.5" y="-7" font-family="Helvetica,sans-Serif" font-size="10.00">app/main.cpp</text>
</a>
</g>
</g>
<!-- Node2&#45;&gt;Node3 -->
<g id="edge2_Node000002_Node000003" class="edge">
<title>Node2&#45;&gt;Node3</title>
<g id="a_edge2_Node000002_Node000003"><a xlink:title=" ">
<path fill="none" stroke="#63b8ff" d="M257.35,-49.15C271.26,-39.57 289.11,-27.29 300.9,-19.17"/>
<polygon fill="#63b8ff" stroke="#63b8ff" points="255.12,-46.43 248.87,-54.98 259.09,-52.2 255.12,-46.43"/>
</a>
</g>
</g>
<!-- Node4 -->
<g id="Node000004" class="node">
<title>Node4</title>
<g id="a_Node000004"><a xlink:href="interpreter_8cpp.html" target="_top" xlink:title=" ">
<polygon fill="white" stroke="#666666" points="105,-19 0,-19 0,0 105,0 105,-19"/>
<text text-anchor="middle" x="52.5" y="-7" font-family="Helvetica,sans-Serif" font-size="10.00">src/interpreter.cpp</text>
</a>
</g>
</g>
<!-- Node2&#45;&gt;Node4 -->
<g id="edge3_Node000002_Node000004" class="edge">
<title>Node2&#45;&gt;Node4</title>
<g id="a_edge3_Node000002_Node000004"><a xlink:title=" ">
<path fill="none" stroke="#63b8ff" d="M197.21,-52.18C162.8,-42.27 113.54,-28.08 82.29,-19.08"/>
<polygon fill="#63b8ff" stroke="#63b8ff" points="196.36,-55.58 206.94,-54.98 198.3,-48.85 196.36,-55.58"/>
</a>
</g>
</g>
<!-- Node5 -->
<g id="Node000005" class="node">
<title>Node5</title>
<g id="a_Node000005"><a xlink:href="interpreterTest_8cpp.html" target="_top" xlink:title=" ">
<polygon fill="white" stroke="#666666" points="253.5,-19 123.5,-19 123.5,0 253.5,0 253.5,-19"/>
<text text-anchor="middle" x="188.5" y="-7" font-family="Helvetica,sans-Serif" font-size="10.00">test/interpreterTest.cpp</text>
</a>
</g>
</g>
<!-- Node2&#45;&gt;Node5 -->
<g id="edge4_Node000002_Node000005" class="edge">
<title>Node2&#45;&gt;Node5</title>
<g id="a_edge4_Node000002_Node000005"><a xlink:title=" ">
<path fill="none" stroke="#63b8ff" d="M221.77,-47.24C213.36,-37.95 203.15,-26.68 196.28,-19.09"/>
<polygon fill="#63b8ff" stroke="#63b8ff" points="219.27,-49.69 228.57,-54.75 224.46,-44.99 219.27,-49.69"/>
</a>
</g>
</g>
<!-- Node6&#45;&gt;Node3 -->
<g id="edge6_Node000006_Node000003" class="edge">
<title>Node6&#45;&gt;Node3</title>
<g id="a_edge6_Node000006_Node000003"><a xlink:title=" ">
<path fill="none" stroke="#63b8ff" d="M351.22,-47.52C341.7,-38.18 330.06,-26.75 322.25,-19.09"/>
<polygon fill="#63b8ff" stroke="#63b8ff" points="348.99,-50.24 358.58,-54.75 353.9,-45.25 348.99,-50.24"/>
</a>
</g>
</g>
<!-- Node7 -->
<g id="Node000007" class="node">
<title>Node7</title>
<g id="a_Node000007"><a xlink:href="parser_8cpp.html" target="_top" xlink:title=" ">
<polygon fill="white" stroke="#666666" points="457.5,-19 373.5,-19 373.5,0 457.5,0 457.5,-19"/>
<text text-anchor="middle" x="415.5" y="-7" font-family="Helvetica,sans-Serif" font-size="10.00">src/parser.cpp</text>
</a>
</g>
</g>
<!-- Node6&#45;&gt;Node7 -->
<g id="edge7_Node000006_Node000007" class="edge">
<title>Node6&#45;&gt;Node7</title>
<g id="a_edge7_Node000006_Node000007"><a xlink:title=" ">
<path fill="none" stroke="#63b8ff" d="M382.23,-47.24C390.64,-37.95 400.85,-26.68 407.72,-19.09"/>
<polygon fill="#63b8ff" stroke="#63b8ff" points="379.54,-44.99 375.43,-54.75 384.73,-49.69 379.54,-44.99"/>
</a>
</g>
</g>
<!-- Node6&#45;&gt;Node8 -->
<g id="edge8_Node000006_Node000008" class="edge">
<title>Node6&#45;&gt;Node8</title>
<g id="a_edge8_Node000006_Node000008"><a xlink:title=" ">
<path fill="none" stroke="#63b8ff" d="M403.49,-51.8C433.91,-41.91 476.78,-27.97 504.11,-19.08"/>
<polygon fill="#63b8ff" stroke="#63b8ff" points="402.12,-48.56 393.69,-54.98 404.28,-55.22 402.12,-48.56"/>
</a>
</g>
</g>
<!-- Node9&#45;&gt;Node2 -->
<g id="edge10_Node000009_Node000002" class="edge">
<title>Node9&#45;&gt;Node2</title>
<g id="a_edge10_Node000009_Node000002"><a xlink:title=" ">
<path fill="none" stroke="#63b8ff" d="M402.13,-107.5C362.99,-97.58 306.22,-83.18 270.34,-74.08"/>
<polygon fill="#63b8ff" stroke="#63b8ff" points="401.37,-110.92 411.92,-109.98 403.09,-104.13 401.37,-110.92"/>
</a>
</g>
</g>
<!-- Node9&#45;&gt;Node6 -->
<g id="edge11_Node000009_Node000006" class="edge">
<title>Node9&#45;&gt;Node6</title>
<g id="a_edge11_Node000009_Node000006"><a xlink:title=" ">
<path fill="none" stroke="#63b8ff" d="M424.38,-104.15C410.29,-94.57 392.21,-82.29 380.26,-74.17"/>
<polygon fill="#63b8ff" stroke="#63b8ff" points="422.73,-107.26 432.97,-109.98 426.66,-101.47 422.73,-107.26"/>
</a>
</g>
</g>
<!-- Node9&#45;&gt;Node8 -->
<g id="edge12_Node000009_Node000008" class="edge">
<title>Node9&#45;&gt;Node8</title>
<g id="a_edge12_Node000009_Node000008"><a xlink:title=" ">
<path fill="none" stroke="#63b8ff" d="M448.4,-99.85C451.24,-86.35 456.62,-68.23 466.5,-55 478.48,-38.95 498,-26.59 512.34,-19.01"/>
<polygon fill="#63b8ff" stroke="#63b8ff" points="444.92,-99.43 446.58,-109.89 451.81,-100.68 444.92,-99.43"/>
</a>
</g>
</g>
<!-- Node10 -->
<g id="Node000010" class="node">
<title>Node10</title>
<g id="a_Node000010"><a xlink:href="stmtTest_8cpp.html" target="_top" xlink:title=" ">
<polygon fill="white" stroke="#666666" points="576,-74 475,-74 475,-55 576,-55 576,-74"/>
<text text-anchor="middle" x="525.5" y="-62" font-family="Helvetica,sans-Serif" font-size="10.00">test/stmtTest.cpp</text>
</a>
</g>
</g>
<!-- Node9&#45;&gt;Node10 -->
<g id="edge13_Node000009_Node000010" class="edge">
<title>Node9&#45;&gt;Node10</title>
<g id="a_edge13_Node000009_Node000010"><a xlink:title=" ">
<path fill="none" stroke="#63b8ff" d="M466.75,-104.42C481.26,-94.81 500.04,-82.37 512.41,-74.17"/>
<polygon fill="#63b8ff" stroke="#63b8ff" points="464.76,-101.54 458.35,-109.98 468.62,-107.38 464.76,-101.54"/>
</a>
</g>
</g>
</g>
</svg>
