<?xml version="1.0" encoding="UTF-8" standalone="no"?>
<!DOCTYPE svg PUBLIC "-//W3C//DTD SVG 1.1//EN"
 "http://www.w3.org/Graphics/SVG/1.1/DTD/svg11.dtd">
<!-- Generated by graphviz version 2.43.0 (0)
 -->
<!-- Title: Graphical Class Hierarchy Pages: 1 -->
<svg width="183pt" height="64pt"
 viewBox="0.00 0.00 183.00 64.00" xmlns="http://www.w3.org/2000/svg" xmlns:xlink="http://www.w3.org/1999/xlink">
<g id="graph0" class="graph" transform="scale(1 1) rotate(0) translate(4 60)">
<title>Graphical Class Hierarchy</title>
<!-- Node0 -->
<g id="Node000000" class="node">
<title>Node0</title>
<g id="a_Node000000"><a xlink:href="classExprVisitor.html" target="_top" xlink:title="Abstract base class for expression visitors.">
<polygon fill="white" stroke="#666666" points="70.5,-56 0.5,-56 0.5,-37 70.5,-37 70.5,-56"/>
<text text-anchor="middle" x="35.5" y="-44" font-family="Helvetica,sans-Serif" font-size="10.00">ExprVisitor</text>
</a>
</g>
</g>
<!-- Node1 -->
<g id="Node000001" class="node">
<title>Node1</title>
<g id="a_Node000001"><a xlink:href="classInterpreter.html" target="_top" xlink:title="The Interpreter class evaluates statements and expressions in the GSC.">
<polygon fill="white" stroke="#666666" points="175,-37 107,-37 107,-18 175,-18 175,-37"/>
<text text-anchor="middle" x="141" y="-25" font-family="Helvetica,sans-Serif" font-size="10.00">Interpreter</text>
</a>
</g>
</g>
<!-- Node0&#45;&gt;Node1 -->
<g id="edge1_Node000000_Node000001" class="edge">
<title>Node0&#45;&gt;Node1</title>
<g id="a_edge1_Node000000_Node000001"><a xlink:title=" ">
<path fill="none" stroke="#63b8ff" d="M80.77,-38.37C89.54,-36.76 98.6,-35.1 106.92,-33.57"/>
<polygon fill="#63b8ff" stroke="#63b8ff" points="79.88,-34.98 70.68,-40.23 81.14,-41.86 79.88,-34.98"/>
</a>
</g>
</g>
<!-- Node2 -->
<g id="Node000002" class="node">
<title>Node2</title>
<g id="a_Node000002"><a xlink:href="classStmtVisitor.html" target="_top" xlink:title="Abstract base class for statement visitors.">
<polygon fill="white" stroke="#666666" points="71,-19 0,-19 0,0 71,0 71,-19"/>
<text text-anchor="middle" x="35.5" y="-7" font-family="Helvetica,sans-Serif" font-size="10.00">StmtVisitor</text>
</a>
</g>
</g>
<!-- Node2&#45;&gt;Node1 -->
<g id="edge2_Node000002_Node000001" class="edge">
<title>Node2&#45;&gt;Node1</title>
<g id="a_edge2_Node000002_Node000001"><a xlink:title=" ">
<path fill="none" stroke="#63b8ff" d="M81.2,-17.27C89.84,-18.78 98.74,-20.32 106.92,-21.75"/>
<polygon fill="#63b8ff" stroke="#63b8ff" points="81.7,-13.81 71.25,-15.54 80.5,-20.71 81.7,-13.81"/>
</a>
</g>
</g>
</g>
</svg>
