<?xml version="1.0" encoding="UTF-8" standalone="no"?>
<!DOCTYPE svg PUBLIC "-//W3C//DTD SVG 1.1//EN"
 "http://www.w3.org/Graphics/SVG/1.1/DTD/svg11.dtd">
<!-- Generated by graphviz version 2.43.0 (0)
 -->
<!-- Title: Graphical Class Hierarchy Pages: 1 -->
<svg width="232pt" height="508pt"
 viewBox="0.00 0.00 232.00 508.00" xmlns="http://www.w3.org/2000/svg" xmlns:xlink="http://www.w3.org/1999/xlink">
<g id="graph0" class="graph" transform="scale(1 1) rotate(0) translate(4 504)">
<title>Graphical Class Hierarchy</title>
<!-- Node0 -->
<g id="Node000000" class="node">
<title>Node0</title>
<g id="a_Node000000"><a xlink:title=" ">
<polygon fill="#e0e0e0" stroke="#999999" points="109,-264.5 0,-264.5 0,-234.5 109,-234.5 109,-264.5"/>
<text text-anchor="start" x="8" y="-252.5" font-family="Helvetica,sans-Serif" font-size="10.00">std::enable_shared</text>
<text text-anchor="middle" x="54.5" y="-241.5" font-family="Helvetica,sans-Serif" font-size="10.00">_from_this</text>
</a>
</g>
</g>
<!-- Node1 -->
<g id="Node000001" class="node">
<title>Node1</title>
<g id="a_Node000001"><a xlink:href="classAssign.html" target="_top" xlink:title="Class representing an assignment expression.">
<polygon fill="white" stroke="#666666" points="209,-278 160,-278 160,-259 209,-259 209,-278"/>
<text text-anchor="middle" x="184.5" y="-266" font-family="Helvetica,sans-Serif" font-size="10.00">Assign</text>
</a>
</g>
</g>
<!-- Node0&#45;&gt;Node1 -->
<g id="edge3_Node000000_Node000001" class="edge">
<title>Node0&#45;&gt;Node1</title>
<g id="a_edge3_Node000000_Node000001"><a xlink:title=" ">
<path fill="none" stroke="#63b8ff" d="M119.06,-258.94C133.6,-261.09 148.16,-263.25 159.76,-264.98"/>
<polygon fill="#63b8ff" stroke="#63b8ff" points="119.45,-255.45 109.04,-257.45 118.42,-262.38 119.45,-255.45"/>
</a>
</g>
</g>
<!-- Node3 -->
<g id="Node000003" class="node">
<title>Node3</title>
<g id="a_Node000003"><a xlink:href="classBinary.html" target="_top" xlink:title="Class representing a binary expression.">
<polygon fill="white" stroke="#666666" points="208.5,-500 160.5,-500 160.5,-481 208.5,-481 208.5,-500"/>
<text text-anchor="middle" x="184.5" y="-488" font-family="Helvetica,sans-Serif" font-size="10.00">Binary</text>
</a>
</g>
</g>
<!-- Node0&#45;&gt;Node3 -->
<g id="edge4_Node000000_Node000003" class="edge">
<title>Node0&#45;&gt;Node3</title>
<g id="a_edge4_Node000000_Node000003"><a xlink:title=" ">
<path fill="none" stroke="#63b8ff" d="M68.31,-273.91C79.8,-296.33 96.69,-330.64 109,-361.5 128.22,-409.67 110.66,-433.63 145,-472.5 149.1,-477.15 154.66,-480.68 160.27,-483.33"/>
<polygon fill="#63b8ff" stroke="#63b8ff" points="71.3,-272.07 63.6,-264.79 65.08,-275.28 71.3,-272.07"/>
</a>
</g>
</g>
<!-- Node9 -->
<g id="Node000009" class="node">
<title>Node9</title>
<g id="a_Node000009"><a xlink:href="classBlock.html" target="_top" xlink:title="Represents a block of statements.">
<polygon fill="white" stroke="#666666" points="206.5,-204 162.5,-204 162.5,-185 206.5,-185 206.5,-204"/>
<text text-anchor="middle" x="184.5" y="-192" font-family="Helvetica,sans-Serif" font-size="10.00">Block</text>
</a>
</g>
</g>
<!-- Node0&#45;&gt;Node9 -->
<g id="edge5_Node000000_Node000009" class="edge">
<title>Node0&#45;&gt;Node9</title>
<g id="a_edge5_Node000000_Node000009"><a xlink:title=" ">
<path fill="none" stroke="#63b8ff" d="M99.92,-230.42C121.02,-221.35 145.28,-210.92 162.2,-203.65"/>
<polygon fill="#63b8ff" stroke="#63b8ff" points="98.28,-227.31 90.48,-234.47 101.05,-233.74 98.28,-227.31"/>
</a>
</g>
</g>
<!-- Node16 -->
<g id="Node000016" class="node">
<title>Node16</title>
<g id="a_Node000016"><a xlink:href="classEnvironment.html" target="_top" xlink:title="Represents an environment for variable storage in the GSC interpreter.">
<polygon fill="white" stroke="#666666" points="224,-241 145,-241 145,-222 224,-222 224,-241"/>
<text text-anchor="middle" x="184.5" y="-229" font-family="Helvetica,sans-Serif" font-size="10.00">Environment</text>
</a>
</g>
</g>
<!-- Node0&#45;&gt;Node16 -->
<g id="edge6_Node000000_Node000016" class="edge">
<title>Node0&#45;&gt;Node16</title>
<g id="a_edge6_Node000000_Node000016"><a xlink:title=" ">
<path fill="none" stroke="#63b8ff" d="M119.01,-240.57C127.88,-239.32 136.76,-238.07 144.97,-236.92"/>
<polygon fill="#63b8ff" stroke="#63b8ff" points="118.46,-237.11 109.04,-241.97 119.43,-244.04 118.46,-237.11"/>
</a>
</g>
</g>
<!-- Node11 -->
<g id="Node000011" class="node">
<title>Node11</title>
<g id="a_Node000011"><a xlink:href="classExpression.html" target="_top" xlink:title="Represents an expression statement.">
<polygon fill="white" stroke="#666666" points="219.5,-167 149.5,-167 149.5,-148 219.5,-148 219.5,-167"/>
<text text-anchor="middle" x="184.5" y="-155" font-family="Helvetica,sans-Serif" font-size="10.00">Expression</text>
</a>
</g>
</g>
<!-- Node0&#45;&gt;Node11 -->
<g id="edge7_Node000000_Node000011" class="edge">
<title>Node0&#45;&gt;Node11</title>
<g id="a_edge7_Node000000_Node000011"><a xlink:title=" ">
<path fill="none" stroke="#63b8ff" d="M79.25,-227.63C96.66,-212.23 121.3,-191.73 145,-176.5 150.27,-173.11 156.22,-169.9 161.85,-167.12"/>
<polygon fill="#63b8ff" stroke="#63b8ff" points="76.91,-225.03 71.79,-234.31 81.57,-230.25 76.91,-225.03"/>
</a>
</g>
</g>
<!-- Node4 -->
<g id="Node000004" class="node">
<title>Node4</title>
<g id="a_Node000004"><a xlink:href="classGrouping.html" target="_top" xlink:title="Class representing a grouping expression.">
<polygon fill="white" stroke="#666666" points="215,-463 154,-463 154,-444 215,-444 215,-463"/>
<text text-anchor="middle" x="184.5" y="-451" font-family="Helvetica,sans-Serif" font-size="10.00">Grouping</text>
</a>
</g>
</g>
<!-- Node0&#45;&gt;Node4 -->
<g id="edge8_Node000000_Node000004" class="edge">
<title>Node0&#45;&gt;Node4</title>
<g id="a_edge8_Node000000_Node000004"><a xlink:title=" ">
<path fill="none" stroke="#63b8ff" d="M67.15,-273.84C91.2,-324.09 144.21,-434.72 145,-435.5 148.36,-438.82 152.44,-441.61 156.68,-443.92"/>
<polygon fill="#63b8ff" stroke="#63b8ff" points="70.22,-272.15 62.75,-264.64 63.91,-275.18 70.22,-272.15"/>
</a>
</g>
</g>
<!-- Node12 -->
<g id="Node000012" class="node">
<title>Node12</title>
<g id="a_Node000012"><a xlink:href="classIf.html" target="_top" xlink:title="Represents an if statement.">
<polygon fill="white" stroke="#666666" points="199,-130 170,-130 170,-111 199,-111 199,-130"/>
<text text-anchor="middle" x="184.5" y="-118" font-family="Helvetica,sans-Serif" font-size="10.00">If</text>
</a>
</g>
</g>
<!-- Node0&#45;&gt;Node12 -->
<g id="edge9_Node000000_Node000012" class="edge">
<title>Node0&#45;&gt;Node12</title>
<g id="a_edge9_Node000000_Node000012"><a xlink:title=" ">
<path fill="none" stroke="#63b8ff" d="M70.41,-225.68C86.47,-201.52 113.93,-164.27 145,-139.5 152.46,-133.55 162.08,-128.8 169.84,-125.54"/>
<polygon fill="#63b8ff" stroke="#63b8ff" points="67.36,-223.95 64.83,-234.24 73.22,-227.78 67.36,-223.95"/>
</a>
</g>
</g>
<!-- Node5 -->
<g id="Node000005" class="node">
<title>Node5</title>
<g id="a_Node000005"><a xlink:href="classLiteral.html" target="_top" xlink:title="Class representing a literal expression.">
<polygon fill="white" stroke="#666666" points="208,-426 161,-426 161,-407 208,-407 208,-426"/>
<text text-anchor="middle" x="184.5" y="-414" font-family="Helvetica,sans-Serif" font-size="10.00">Literal</text>
</a>
</g>
</g>
<!-- Node0&#45;&gt;Node5 -->
<g id="edge10_Node000000_Node000005" class="edge">
<title>Node0&#45;&gt;Node5</title>
<g id="a_edge10_Node000000_Node000005"><a xlink:title=" ">
<path fill="none" stroke="#63b8ff" d="M64.92,-274.16C78.34,-306.46 105.76,-363.13 145,-398.5 149.6,-402.65 155.33,-406.01 160.95,-408.66"/>
<polygon fill="#63b8ff" stroke="#63b8ff" points="68.04,-272.55 61.05,-264.59 61.55,-275.17 68.04,-272.55"/>
</a>
</g>
</g>
<!-- Node6 -->
<g id="Node000006" class="node">
<title>Node6</title>
<g id="a_Node000006"><a xlink:href="classLogical.html" target="_top" xlink:title="Class representing a logical expression.">
<polygon fill="white" stroke="#666666" points="210,-389 159,-389 159,-370 210,-370 210,-389"/>
<text text-anchor="middle" x="184.5" y="-377" font-family="Helvetica,sans-Serif" font-size="10.00">Logical</text>
</a>
</g>
</g>
<!-- Node0&#45;&gt;Node6 -->
<g id="edge11_Node000000_Node000006" class="edge">
<title>Node0&#45;&gt;Node6</title>
<g id="a_edge11_Node000000_Node000006"><a xlink:title=" ">
<path fill="none" stroke="#63b8ff" d="M69.95,-273.5C85.8,-298.2 113.27,-336.51 145,-361.5 149.17,-364.79 154.05,-367.65 158.89,-370.06"/>
<polygon fill="#63b8ff" stroke="#63b8ff" points="72.74,-271.36 64.45,-264.75 66.81,-275.08 72.74,-271.36"/>
</a>
</g>
</g>
<!-- Node13 -->
<g id="Node000013" class="node">
<title>Node13</title>
<g id="a_Node000013"><a xlink:href="classPrint.html" target="_top" xlink:title="Represents a print statement.">
<polygon fill="white" stroke="#666666" points="204,-93 165,-93 165,-74 204,-74 204,-93"/>
<text text-anchor="middle" x="184.5" y="-81" font-family="Helvetica,sans-Serif" font-size="10.00">Print</text>
</a>
</g>
</g>
<!-- Node0&#45;&gt;Node13 -->
<g id="edge12_Node000000_Node000013" class="edge">
<title>Node0&#45;&gt;Node13</title>
<g id="a_edge12_Node000000_Node000013"><a xlink:title=" ">
<path fill="none" stroke="#63b8ff" d="M65.32,-224.8C79.04,-192.99 106.61,-137.63 145,-102.5 150.72,-97.27 158.14,-93.15 164.95,-90.11"/>
<polygon fill="#63b8ff" stroke="#63b8ff" points="62,-223.67 61.36,-234.25 68.46,-226.38 62,-223.67"/>
</a>
</g>
</g>
<!-- Node7 -->
<g id="Node000007" class="node">
<title>Node7</title>
<g id="a_Node000007"><a xlink:href="classUnary.html" target="_top" xlink:title="Class representing a unary expression.">
<polygon fill="white" stroke="#666666" points="207.5,-352 161.5,-352 161.5,-333 207.5,-333 207.5,-352"/>
<text text-anchor="middle" x="184.5" y="-340" font-family="Helvetica,sans-Serif" font-size="10.00">Unary</text>
</a>
</g>
</g>
<!-- Node0&#45;&gt;Node7 -->
<g id="edge13_Node000000_Node000007" class="edge">
<title>Node0&#45;&gt;Node7</title>
<g id="a_edge13_Node000000_Node000007"><a xlink:title=" ">
<path fill="none" stroke="#63b8ff" d="M78.42,-271.59C95.77,-287.58 120.69,-309 145,-324.5 150.1,-327.75 155.89,-330.77 161.39,-333.36"/>
<polygon fill="#63b8ff" stroke="#63b8ff" points="80.7,-268.94 71.01,-264.67 75.92,-274.06 80.7,-268.94"/>
</a>
</g>
</g>
<!-- Node14 -->
<g id="Node000014" class="node">
<title>Node14</title>
<g id="a_Node000014"><a xlink:href="classVar.html" target="_top" xlink:title="Represents a variable declaration statement.">
<polygon fill="white" stroke="#666666" points="200.5,-56 168.5,-56 168.5,-37 200.5,-37 200.5,-56"/>
<text text-anchor="middle" x="184.5" y="-44" font-family="Helvetica,sans-Serif" font-size="10.00">Var</text>
</a>
</g>
</g>
<!-- Node0&#45;&gt;Node14 -->
<g id="edge14_Node000000_Node000014" class="edge">
<title>Node0&#45;&gt;Node14</title>
<g id="a_edge14_Node000000_Node000014"><a xlink:title=" ">
<path fill="none" stroke="#63b8ff" d="M65.03,-224.81C82.63,-180.19 120.67,-88.51 145,-64.5 151.41,-58.18 160.45,-53.79 168.16,-50.94"/>
<polygon fill="#63b8ff" stroke="#63b8ff" points="61.69,-223.74 61.3,-234.33 68.21,-226.29 61.69,-223.74"/>
</a>
</g>
</g>
<!-- Node8 -->
<g id="Node000008" class="node">
<title>Node8</title>
<g id="a_Node000008"><a xlink:href="classVariable.html" target="_top" xlink:title="Class representing a variable expression.">
<polygon fill="white" stroke="#666666" points="212.5,-315 156.5,-315 156.5,-296 212.5,-296 212.5,-315"/>
<text text-anchor="middle" x="184.5" y="-303" font-family="Helvetica,sans-Serif" font-size="10.00">Variable</text>
</a>
</g>
</g>
<!-- Node0&#45;&gt;Node8 -->
<g id="edge15_Node000000_Node000008" class="edge">
<title>Node0&#45;&gt;Node8</title>
<g id="a_edge15_Node000000_Node000008"><a xlink:title=" ">
<path fill="none" stroke="#63b8ff" d="M99.19,-268.62C120.22,-277.81 144.5,-288.44 161.59,-295.92"/>
<polygon fill="#63b8ff" stroke="#63b8ff" points="100.37,-265.31 89.8,-264.51 97.56,-271.72 100.37,-265.31"/>
</a>
</g>
</g>
<!-- Node15 -->
<g id="Node000015" class="node">
<title>Node15</title>
<g id="a_Node000015"><a xlink:href="classWhile.html" target="_top" xlink:title=" ">
<polygon fill="white" stroke="#666666" points="206.5,-19 162.5,-19 162.5,0 206.5,0 206.5,-19"/>
<text text-anchor="middle" x="184.5" y="-7" font-family="Helvetica,sans-Serif" font-size="10.00">While</text>
</a>
</g>
</g>
<!-- Node0&#45;&gt;Node15 -->
<g id="edge16_Node000000_Node000015" class="edge">
<title>Node0&#45;&gt;Node15</title>
<g id="a_edge16_Node000000_Node000015"><a xlink:title=" ">
<path fill="none" stroke="#63b8ff" d="M66.07,-224.84C77.02,-199.13 94.54,-157.62 109,-121.5 125.63,-79.97 114.52,-60.25 145,-27.5 149.73,-22.42 156.17,-18.65 162.44,-15.9"/>
<polygon fill="#63b8ff" stroke="#63b8ff" points="62.78,-223.62 62.07,-234.19 69.22,-226.37 62.78,-223.62"/>
</a>
</g>
</g>
<!-- Node2 -->
<g id="Node000002" class="node">
<title>Node2</title>
<g id="a_Node000002"><a xlink:href="classExpr.html" target="_top" xlink:title="Abstract base class for expressions.">
<polygon fill="white" stroke="#666666" points="73.5,-389 35.5,-389 35.5,-370 73.5,-370 73.5,-389"/>
<text text-anchor="middle" x="54.5" y="-377" font-family="Helvetica,sans-Serif" font-size="10.00">Expr</text>
</a>
</g>
</g>
<!-- Node2&#45;&gt;Node1 -->
<g id="edge17_Node000002_Node000001" class="edge">
<title>Node2&#45;&gt;Node1</title>
<g id="a_edge17_Node000002_Node000001"><a xlink:title=" ">
<path fill="none" stroke="#63b8ff" d="M69.44,-361.9C85.9,-341.97 114.86,-309.42 145,-287.5 149.82,-283.99 155.39,-280.82 160.77,-278.12"/>
<polygon fill="#63b8ff" stroke="#63b8ff" points="66.58,-359.87 63,-369.84 72.02,-364.28 66.58,-359.87"/>
</a>
</g>
</g>
<!-- Node2&#45;&gt;Node3 -->
<g id="edge18_Node000002_Node000003" class="edge">
<title>Node2&#45;&gt;Node3</title>
<g id="a_edge18_Node000002_Node000003"><a xlink:title=" ">
<path fill="none" stroke="#63b8ff" d="M69.07,-397.1C85.36,-417.34 114.36,-450.58 145,-472.5 149.68,-475.85 155.08,-478.83 160.33,-481.35"/>
<polygon fill="#63b8ff" stroke="#63b8ff" points="71.65,-394.73 62.7,-389.05 66.16,-399.07 71.65,-394.73"/>
</a>
</g>
</g>
<!-- Node2&#45;&gt;Node4 -->
<g id="edge19_Node000002_Node000004" class="edge">
<title>Node2&#45;&gt;Node4</title>
<g id="a_edge19_Node000002_Node000004"><a xlink:title=" ">
<path fill="none" stroke="#63b8ff" d="M78.31,-394.85C96.12,-406.57 121.69,-422.82 145,-435.5 150.31,-438.39 156.17,-441.28 161.69,-443.86"/>
<polygon fill="#63b8ff" stroke="#63b8ff" points="80.02,-391.78 69.75,-389.17 76.15,-397.62 80.02,-391.78"/>
</a>
</g>
</g>
<!-- Node2&#45;&gt;Node5 -->
<g id="edge20_Node000002_Node000005" class="edge">
<title>Node2&#45;&gt;Node5</title>
<g id="a_edge20_Node000002_Node000005"><a xlink:title=" ">
<path fill="none" stroke="#63b8ff" d="M83.49,-387.59C106.66,-394.29 139.18,-403.69 160.78,-409.93"/>
<polygon fill="#63b8ff" stroke="#63b8ff" points="84.15,-384.14 73.57,-384.72 82.2,-390.86 84.15,-384.14"/>
</a>
</g>
</g>
<!-- Node2&#45;&gt;Node6 -->
<g id="edge21_Node000002_Node000006" class="edge">
<title>Node2&#45;&gt;Node6</title>
<g id="a_edge21_Node000002_Node000006"><a xlink:title=" ">
<path fill="none" stroke="#63b8ff" d="M83.84,-379.5C106.35,-379.5 137.5,-379.5 158.95,-379.5"/>
<polygon fill="#63b8ff" stroke="#63b8ff" points="83.57,-376 73.57,-379.5 83.57,-383 83.57,-376"/>
</a>
</g>
</g>
<!-- Node2&#45;&gt;Node7 -->
<g id="edge22_Node000002_Node000007" class="edge">
<title>Node2&#45;&gt;Node7</title>
<g id="a_edge22_Node000002_Node000007"><a xlink:title=" ">
<path fill="none" stroke="#63b8ff" d="M83.24,-371.48C106.59,-364.73 139.56,-355.2 161.22,-348.94"/>
<polygon fill="#63b8ff" stroke="#63b8ff" points="82.2,-368.14 73.57,-374.28 84.15,-374.86 82.2,-368.14"/>
</a>
</g>
</g>
<!-- Node2&#45;&gt;Node8 -->
<g id="edge23_Node000002_Node000008" class="edge">
<title>Node2&#45;&gt;Node8</title>
<g id="a_edge23_Node000002_Node000008"><a xlink:title=" ">
<path fill="none" stroke="#63b8ff" d="M78.74,-364.4C96.6,-353 122.03,-337.19 145,-324.5 150.87,-321.26 157.37,-317.94 163.34,-315.01"/>
<polygon fill="#63b8ff" stroke="#63b8ff" points="76.66,-361.58 70.14,-369.93 80.44,-367.46 76.66,-361.58"/>
</a>
</g>
</g>
<!-- Node10 -->
<g id="Node000010" class="node">
<title>Node10</title>
<g id="a_Node000010"><a xlink:href="classStmt.html" target="_top" xlink:title="Abstract base class for statements.">
<polygon fill="white" stroke="#666666" points="74.5,-112 34.5,-112 34.5,-93 74.5,-93 74.5,-112"/>
<text text-anchor="middle" x="54.5" y="-100" font-family="Helvetica,sans-Serif" font-size="10.00">Stmt</text>
</a>
</g>
</g>
<!-- Node10&#45;&gt;Node9 -->
<g id="edge24_Node000010_Node000009" class="edge">
<title>Node10&#45;&gt;Node9</title>
<g id="a_edge24_Node000010_Node000009"><a xlink:title=" ">
<path fill="none" stroke="#63b8ff" d="M72.93,-119.2C90.25,-135.23 118.06,-159.45 145,-176.5 150.36,-179.89 156.47,-183.04 162.21,-185.72"/>
<polygon fill="#63b8ff" stroke="#63b8ff" points="75,-116.35 65.32,-112.06 70.21,-121.46 75,-116.35"/>
</a>
</g>
</g>
<!-- Node10&#45;&gt;Node11 -->
<g id="edge25_Node000010_Node000011" class="edge">
<title>Node10&#45;&gt;Node11</title>
<g id="a_edge25_Node000010_Node000011"><a xlink:title=" ">
<path fill="none" stroke="#63b8ff" d="M84.02,-114.76C107.31,-124.76 139.77,-138.71 161.19,-147.91"/>
<polygon fill="#63b8ff" stroke="#63b8ff" points="85.23,-111.47 74.66,-110.73 82.47,-117.9 85.23,-111.47"/>
</a>
</g>
</g>
<!-- Node10&#45;&gt;Node12 -->
<g id="edge26_Node000010_Node000012" class="edge">
<title>Node10&#45;&gt;Node12</title>
<g id="a_edge26_Node000010_Node000012"><a xlink:title=" ">
<path fill="none" stroke="#63b8ff" d="M84.59,-106.59C111.22,-110.34 149.48,-115.72 169.73,-118.56"/>
<polygon fill="#63b8ff" stroke="#63b8ff" points="85.05,-103.12 74.66,-105.19 84.08,-110.05 85.05,-103.12"/>
</a>
</g>
</g>
<!-- Node10&#45;&gt;Node13 -->
<g id="edge27_Node000010_Node000013" class="edge">
<title>Node10&#45;&gt;Node13</title>
<g id="a_edge27_Node000010_Node000013"><a xlink:title=" ">
<path fill="none" stroke="#63b8ff" d="M84.84,-98.15C109.36,-94.51 143.6,-89.42 164.62,-86.3"/>
<polygon fill="#63b8ff" stroke="#63b8ff" points="84.04,-94.73 74.66,-99.66 85.07,-101.65 84.04,-94.73"/>
</a>
</g>
</g>
<!-- Node10&#45;&gt;Node14 -->
<g id="edge28_Node000010_Node000014" class="edge">
<title>Node10&#45;&gt;Node14</title>
<g id="a_edge28_Node000010_Node000014"><a xlink:title=" ">
<path fill="none" stroke="#63b8ff" d="M84.02,-90.02C110.03,-78.64 147.49,-62.26 168.22,-53.18"/>
<polygon fill="#63b8ff" stroke="#63b8ff" points="82.42,-86.9 74.66,-94.12 85.23,-93.31 82.42,-86.9"/>
</a>
</g>
</g>
<!-- Node10&#45;&gt;Node15 -->
<g id="edge29_Node000010_Node000015" class="edge">
<title>Node10&#45;&gt;Node15</title>
<g id="a_edge29_Node000010_Node000015"><a xlink:title=" ">
<path fill="none" stroke="#63b8ff" d="M72.89,-85.55C90.18,-69.29 117.97,-44.73 145,-27.5 150.35,-24.09 156.45,-20.94 162.19,-18.26"/>
<polygon fill="#63b8ff" stroke="#63b8ff" points="70.11,-83.36 65.29,-92.8 74.94,-88.43 70.11,-83.36"/>
</a>
</g>
</g>
</g>
</svg>
