<?xml version="1.0" encoding="UTF-8" standalone="no"?>
<!DOCTYPE svg PUBLIC "-//W3C//DTD SVG 1.1//EN"
 "http://www.w3.org/Graphics/SVG/1.1/DTD/svg11.dtd">
<!-- Generated by graphviz version 2.43.0 (0)
 -->
<!-- Title: Graphical Class Hierarchy Pages: 1 -->
<svg width="372pt" height="64pt"
 viewBox="0.00 0.00 372.00 64.00" xmlns="http://www.w3.org/2000/svg" xmlns:xlink="http://www.w3.org/1999/xlink">
<g id="graph0" class="graph" transform="scale(1 1) rotate(0) translate(4 60)">
<title>Graphical Class Hierarchy</title>
<!-- Node0 -->
<g id="Node000000" class="node">
<title>Node0</title>
<g id="a_Node000000"><a xlink:title=" ">
<polygon fill="#e0e0e0" stroke="#999999" points="86,-37 0,-37 0,-18 86,-18 86,-37"/>
<text text-anchor="middle" x="43" y="-25" font-family="Helvetica,sans-Serif" font-size="10.00">std::exception</text>
</a>
</g>
</g>
<!-- Node1 -->
<g id="Node000001" class="node">
<title>Node1</title>
<g id="a_Node000001"><a xlink:title=" ">
<polygon fill="#e0e0e0" stroke="#999999" points="226,-37 122,-37 122,-18 226,-18 226,-37"/>
<text text-anchor="middle" x="174" y="-25" font-family="Helvetica,sans-Serif" font-size="10.00">std::runtime_error</text>
</a>
</g>
</g>
<!-- Node0&#45;&gt;Node1 -->
<g id="edge30_Node000000_Node000001" class="edge">
<title>Node0&#45;&gt;Node1</title>
<g id="a_edge30_Node000000_Node000001"><a xlink:title=" ">
<path fill="none" stroke="#63b8ff" d="M96.27,-27.5C104.65,-27.5 113.31,-27.5 121.66,-27.5"/>
<polygon fill="#63b8ff" stroke="#63b8ff" points="96.24,-24 86.24,-27.5 96.24,-31 96.24,-24"/>
</a>
</g>
</g>
<!-- Node2 -->
<g id="Node000002" class="node">
<title>Node2</title>
<g id="a_Node000002"><a xlink:href="structParser_1_1ParseError.html" target="_top" xlink:title=" ">
<polygon fill="white" stroke="#666666" points="364,-56 262,-56 262,-37 364,-37 364,-56"/>
<text text-anchor="middle" x="313" y="-44" font-family="Helvetica,sans-Serif" font-size="10.00">Parser::ParseError</text>
</a>
</g>
</g>
<!-- Node1&#45;&gt;Node2 -->
<g id="edge31_Node000001_Node000002" class="edge">
<title>Node1&#45;&gt;Node2</title>
<g id="a_edge31_Node000001_Node000002"><a xlink:title=" ">
<path fill="none" stroke="#63b8ff" d="M236.04,-35.97C244.67,-37.16 253.46,-38.38 261.86,-39.55"/>
<polygon fill="#63b8ff" stroke="#63b8ff" points="236.4,-32.48 226.01,-34.57 235.44,-39.42 236.4,-32.48"/>
</a>
</g>
</g>
<!-- Node3 -->
<g id="Node000003" class="node">
<title>Node3</title>
<g id="a_Node000003"><a xlink:href="classRuntimeError.html" target="_top" xlink:title="Represents a runtime error in the GSC interpreter.">
<polygon fill="white" stroke="#666666" points="353.5,-19 272.5,-19 272.5,0 353.5,0 353.5,-19"/>
<text text-anchor="middle" x="313" y="-7" font-family="Helvetica,sans-Serif" font-size="10.00">RuntimeError</text>
</a>
</g>
</g>
<!-- Node1&#45;&gt;Node3 -->
<g id="edge32_Node000001_Node000003" class="edge">
<title>Node1&#45;&gt;Node3</title>
<g id="a_edge32_Node000001_Node000003"><a xlink:title=" ">
<path fill="none" stroke="#63b8ff" d="M236.14,-19.47C248.33,-17.87 260.83,-16.22 272.07,-14.75"/>
<polygon fill="#63b8ff" stroke="#63b8ff" points="235.47,-16.02 226.01,-20.8 236.38,-22.96 235.47,-16.02"/>
</a>
</g>
</g>
</g>
</svg>
