<?xml version="1.0" encoding="UTF-8" standalone="no"?>
<!DOCTYPE svg PUBLIC "-//W3C//DTD SVG 1.1//EN"
 "http://www.w3.org/Graphics/SVG/1.1/DTD/svg11.dtd">
<!-- Generated by graphviz version 2.43.0 (0)
 -->
<!-- Title: lib/gsc/interpreter.hpp Pages: 1 -->
<svg width="442pt" height="302pt"
 viewBox="0.00 0.00 441.50 302.00" xmlns="http://www.w3.org/2000/svg" xmlns:xlink="http://www.w3.org/1999/xlink">
<g id="graph0" class="graph" transform="scale(1 1) rotate(0) translate(4 298)">
<title>lib/gsc/interpreter.hpp</title>
<!-- Node1 -->
<g id="Node000001" class="node">
<title>Node1</title>
<g id="a_Node000001"><a xlink:title=" ">
<polygon fill="#999999" stroke="#666666" points="348.5,-294 225.5,-294 225.5,-275 348.5,-275 348.5,-294"/>
<text text-anchor="middle" x="287" y="-282" font-family="Helvetica,sans-Serif" font-size="10.00">lib/gsc/interpreter.hpp</text>
</a>
</g>
</g>
<!-- Node2 -->
<g id="Node000002" class="node">
<title>Node2</title>
<g id="a_Node000002"><a xlink:href="environment_8hpp.html" target="_top" xlink:title=" ">
<polygon fill="white" stroke="#666666" points="195.5,-184 76.5,-184 76.5,-165 195.5,-165 195.5,-184"/>
<text text-anchor="middle" x="136" y="-172" font-family="Helvetica,sans-Serif" font-size="10.00">gsc/environment.hpp</text>
</a>
</g>
</g>
<!-- Node1&#45;&gt;Node2 -->
<g id="edge1_Node000001_Node000002" class="edge">
<title>Node1&#45;&gt;Node2</title>
<g id="a_edge1_Node000001_Node000002"><a xlink:title=" ">
<path fill="none" stroke="#63b8ff" d="M274.9,-274.84C249.05,-256.36 188.23,-212.86 156.34,-190.05"/>
<polygon fill="#63b8ff" stroke="#63b8ff" points="158.33,-187.17 148.16,-184.2 154.26,-192.86 158.33,-187.17"/>
</a>
</g>
</g>
<!-- Node9 -->
<g id="Node000009" class="node">
<title>Node9</title>
<g id="a_Node000009"><a xlink:href="expr_8hpp.html" target="_top" xlink:title=" ">
<polygon fill="white" stroke="#666666" points="292,-184 214,-184 214,-165 292,-165 292,-184"/>
<text text-anchor="middle" x="253" y="-172" font-family="Helvetica,sans-Serif" font-size="10.00">gsc/expr.hpp</text>
</a>
</g>
</g>
<!-- Node1&#45;&gt;Node9 -->
<g id="edge11_Node000001_Node000009" class="edge">
<title>Node1&#45;&gt;Node9</title>
<g id="a_edge11_Node000001_Node000009"><a xlink:title=" ">
<path fill="none" stroke="#63b8ff" d="M284.04,-275C280.95,-266.06 276,-251.59 272,-239 267.2,-223.9 262.07,-206.68 258.35,-193.98"/>
<polygon fill="#63b8ff" stroke="#63b8ff" points="261.64,-192.78 255.49,-184.16 254.92,-194.74 261.64,-192.78"/>
</a>
</g>
</g>
<!-- Node10 -->
<g id="Node000010" class="node">
<title>Node10</title>
<g id="a_Node000010"><a xlink:href="stmt_8hpp.html" target="_top" xlink:title=" ">
<polygon fill="white" stroke="#666666" points="361,-239 281,-239 281,-220 361,-220 361,-239"/>
<text text-anchor="middle" x="321" y="-227" font-family="Helvetica,sans-Serif" font-size="10.00">gsc/stmt.hpp</text>
</a>
</g>
</g>
<!-- Node1&#45;&gt;Node10 -->
<g id="edge15_Node000001_Node000010" class="edge">
<title>Node1&#45;&gt;Node10</title>
<g id="a_edge15_Node000001_Node000010"><a xlink:title=" ">
<path fill="none" stroke="#63b8ff" d="M292.61,-274.75C297.32,-267.42 304.17,-256.73 309.97,-247.7"/>
<polygon fill="#63b8ff" stroke="#63b8ff" points="313.04,-249.4 315.49,-239.09 307.14,-245.62 313.04,-249.4"/>
</a>
</g>
</g>
<!-- Node11 -->
<g id="Node000011" class="node">
<title>Node11</title>
<g id="a_Node000011"><a xlink:title=" ">
<polygon fill="#e0e0e0" stroke="#999999" points="433.5,-184 386.5,-184 386.5,-165 433.5,-165 433.5,-184"/>
<text text-anchor="middle" x="410" y="-172" font-family="Helvetica,sans-Serif" font-size="10.00">vector</text>
</a>
</g>
</g>
<!-- Node1&#45;&gt;Node11 -->
<g id="edge20_Node000001_Node000011" class="edge">
<title>Node1&#45;&gt;Node11</title>
<g id="a_edge20_Node000001_Node000011"><a xlink:title=" ">
<path fill="none" stroke="#63b8ff" d="M310.13,-274.93C328,-267.46 352.54,-255.28 370,-239 383.82,-226.11 394.82,-207.45 401.76,-193.69"/>
<polygon fill="#63b8ff" stroke="#63b8ff" points="405.09,-194.83 406.25,-184.3 398.78,-191.81 405.09,-194.83"/>
</a>
</g>
</g>
<!-- Node3 -->
<g id="Node000003" class="node">
<title>Node3</title>
<g id="a_Node000003"><a xlink:href="token_8hpp.html" target="_top" xlink:title=" ">
<polygon fill="white" stroke="#666666" points="178,-129 94,-129 94,-110 178,-110 178,-129"/>
<text text-anchor="middle" x="136" y="-117" font-family="Helvetica,sans-Serif" font-size="10.00">gsc/token.hpp</text>
</a>
</g>
</g>
<!-- Node2&#45;&gt;Node3 -->
<g id="edge2_Node000002_Node000003" class="edge">
<title>Node2&#45;&gt;Node3</title>
<g id="a_edge2_Node000002_Node000003"><a xlink:title=" ">
<path fill="none" stroke="#63b8ff" d="M136,-164.75C136,-157.8 136,-147.85 136,-139.13"/>
<polygon fill="#63b8ff" stroke="#63b8ff" points="139.5,-139.09 136,-129.09 132.5,-139.09 139.5,-139.09"/>
</a>
</g>
</g>
<!-- Node5 -->
<g id="Node000005" class="node">
<title>Node5</title>
<g id="a_Node000005"><a xlink:title=" ">
<polygon fill="#e0e0e0" stroke="#999999" points="126,-19 82,-19 82,0 126,0 126,-19"/>
<text text-anchor="middle" x="104" y="-7" font-family="Helvetica,sans-Serif" font-size="10.00">string</text>
</a>
</g>
</g>
<!-- Node2&#45;&gt;Node5 -->
<g id="edge10_Node000002_Node000005" class="edge">
<title>Node2&#45;&gt;Node5</title>
<g id="a_edge10_Node000002_Node000005"><a xlink:title=" ">
<path fill="none" stroke="#63b8ff" d="M120.27,-164.88C108.12,-157.23 92.2,-144.83 85,-129 69.9,-95.79 84.34,-52.58 94.98,-28.58"/>
<polygon fill="#63b8ff" stroke="#63b8ff" points="98.26,-29.82 99.35,-19.28 91.93,-26.84 98.26,-29.82"/>
</a>
</g>
</g>
<!-- Node6 -->
<g id="Node000006" class="node">
<title>Node6</title>
<g id="a_Node000006"><a xlink:title=" ">
<polygon fill="#e0e0e0" stroke="#999999" points="304.5,-74 269.5,-74 269.5,-55 304.5,-55 304.5,-74"/>
<text text-anchor="middle" x="287" y="-62" font-family="Helvetica,sans-Serif" font-size="10.00">any</text>
</a>
</g>
</g>
<!-- Node2&#45;&gt;Node6 -->
<g id="edge7_Node000002_Node000006" class="edge">
<title>Node2&#45;&gt;Node6</title>
<g id="a_edge7_Node000002_Node000006"><a xlink:title=" ">
<path fill="none" stroke="#63b8ff" d="M148.1,-164.84C173.95,-146.36 234.77,-102.86 266.66,-80.05"/>
<polygon fill="#63b8ff" stroke="#63b8ff" points="268.74,-82.86 274.84,-74.2 264.67,-77.17 268.74,-82.86"/>
</a>
</g>
</g>
<!-- Node7 -->
<g id="Node000007" class="node">
<title>Node7</title>
<g id="a_Node000007"><a xlink:title=" ">
<polygon fill="#e0e0e0" stroke="#999999" points="38,-129 0,-129 0,-110 38,-110 38,-129"/>
<text text-anchor="middle" x="19" y="-117" font-family="Helvetica,sans-Serif" font-size="10.00">map</text>
</a>
</g>
</g>
<!-- Node2&#45;&gt;Node7 -->
<g id="edge8_Node000002_Node000007" class="edge">
<title>Node2&#45;&gt;Node7</title>
<g id="a_edge8_Node000002_Node000007"><a xlink:title=" ">
<path fill="none" stroke="#63b8ff" d="M117.2,-164.98C98.38,-156.46 69.18,-143.23 47.5,-133.41"/>
<polygon fill="#63b8ff" stroke="#63b8ff" points="48.69,-130.11 38.14,-129.17 45.8,-136.48 48.69,-130.11"/>
</a>
</g>
</g>
<!-- Node8 -->
<g id="Node000008" class="node">
<title>Node8</title>
<g id="a_Node000008"><a xlink:title=" ">
<polygon fill="#e0e0e0" stroke="#999999" points="292,-129 234,-129 234,-110 292,-110 292,-129"/>
<text text-anchor="middle" x="263" y="-117" font-family="Helvetica,sans-Serif" font-size="10.00">memory</text>
</a>
</g>
</g>
<!-- Node2&#45;&gt;Node8 -->
<g id="edge9_Node000002_Node000008" class="edge">
<title>Node2&#45;&gt;Node8</title>
<g id="a_edge9_Node000002_Node000008"><a xlink:title=" ">
<path fill="none" stroke="#63b8ff" d="M156.4,-164.98C177.02,-156.38 209.11,-142.99 232.69,-133.15"/>
<polygon fill="#63b8ff" stroke="#63b8ff" points="234.34,-136.25 242.22,-129.17 231.65,-129.79 234.34,-136.25"/>
</a>
</g>
</g>
<!-- Node4 -->
<g id="Node000004" class="node">
<title>Node4</title>
<g id="a_Node000004"><a xlink:href="tokenType_8hpp.html" target="_top" xlink:title=" ">
<polygon fill="white" stroke="#666666" points="219.5,-74 132.5,-74 132.5,-55 219.5,-55 219.5,-74"/>
<text text-anchor="middle" x="176" y="-62" font-family="Helvetica,sans-Serif" font-size="10.00">tokenType.hpp</text>
</a>
</g>
</g>
<!-- Node3&#45;&gt;Node4 -->
<g id="edge3_Node000003_Node000004" class="edge">
<title>Node3&#45;&gt;Node4</title>
<g id="a_edge3_Node000003_Node000004"><a xlink:title=" ">
<path fill="none" stroke="#63b8ff" d="M142.61,-109.75C148.26,-102.26 156.54,-91.28 163.45,-82.13"/>
<polygon fill="#63b8ff" stroke="#63b8ff" points="166.29,-84.18 169.52,-74.09 160.7,-79.96 166.29,-84.18"/>
</a>
</g>
</g>
<!-- Node3&#45;&gt;Node5 -->
<g id="edge6_Node000003_Node000005" class="edge">
<title>Node3&#45;&gt;Node5</title>
<g id="a_edge6_Node000003_Node000005"><a xlink:title=" ">
<path fill="none" stroke="#63b8ff" d="M133.38,-109.66C128.18,-92.09 116.43,-52.45 109.47,-28.95"/>
<polygon fill="#63b8ff" stroke="#63b8ff" points="112.76,-27.75 106.57,-19.16 106.05,-29.74 112.76,-27.75"/>
</a>
</g>
</g>
<!-- Node3&#45;&gt;Node6 -->
<g id="edge5_Node000003_Node000006" class="edge">
<title>Node3&#45;&gt;Node6</title>
<g id="a_edge5_Node000003_Node000006"><a xlink:title=" ">
<path fill="none" stroke="#63b8ff" d="M160.26,-109.98C187.44,-100.45 231.38,-85.02 259.73,-75.07"/>
<polygon fill="#63b8ff" stroke="#63b8ff" points="261.13,-78.29 269.4,-71.68 258.81,-71.69 261.13,-78.29"/>
</a>
</g>
</g>
<!-- Node4&#45;&gt;Node5 -->
<g id="edge4_Node000004_Node000005" class="edge">
<title>Node4&#45;&gt;Node5</title>
<g id="a_edge4_Node000004_Node000005"><a xlink:title=" ">
<path fill="none" stroke="#63b8ff" d="M164.43,-54.98C153.58,-47 137.12,-34.88 124.12,-25.31"/>
<polygon fill="#63b8ff" stroke="#63b8ff" points="125.91,-22.28 115.78,-19.17 121.76,-27.92 125.91,-22.28"/>
</a>
</g>
</g>
<!-- Node9&#45;&gt;Node3 -->
<g id="edge12_Node000009_Node000003" class="edge">
<title>Node9&#45;&gt;Node3</title>
<g id="a_edge12_Node000009_Node000003"><a xlink:title=" ">
<path fill="none" stroke="#63b8ff" d="M234.2,-164.98C215.38,-156.46 186.18,-143.23 164.5,-133.41"/>
<polygon fill="#63b8ff" stroke="#63b8ff" points="165.69,-130.11 155.14,-129.17 162.8,-136.48 165.69,-130.11"/>
</a>
</g>
</g>
<!-- Node9&#45;&gt;Node6 -->
<g id="edge13_Node000009_Node000006" class="edge">
<title>Node9&#45;&gt;Node6</title>
<g id="a_edge13_Node000009_Node000006"><a xlink:title=" ">
<path fill="none" stroke="#63b8ff" d="M267.37,-164.96C278.87,-157.21 294.18,-144.62 301,-129 307.41,-114.31 302.4,-96.37 296.67,-83.31"/>
<polygon fill="#63b8ff" stroke="#63b8ff" points="299.67,-81.48 292.12,-74.04 293.38,-84.56 299.67,-81.48"/>
</a>
</g>
</g>
<!-- Node9&#45;&gt;Node8 -->
<g id="edge14_Node000009_Node000008" class="edge">
<title>Node9&#45;&gt;Node8</title>
<g id="a_edge14_Node000009_Node000008"><a xlink:title=" ">
<path fill="none" stroke="#63b8ff" d="M254.65,-164.75C255.96,-157.8 257.84,-147.85 259.48,-139.13"/>
<polygon fill="#63b8ff" stroke="#63b8ff" points="262.96,-139.56 261.38,-129.09 256.09,-138.27 262.96,-139.56"/>
</a>
</g>
</g>
<!-- Node10&#45;&gt;Node6 -->
<g id="edge17_Node000010_Node000006" class="edge">
<title>Node10&#45;&gt;Node6</title>
<g id="a_edge17_Node000010_Node000006"><a xlink:title=" ">
<path fill="none" stroke="#63b8ff" d="M322.35,-219.87C325.12,-199.91 330.17,-149.22 317,-110 313.64,-99.99 307.37,-90.12 301.43,-82.23"/>
<polygon fill="#63b8ff" stroke="#63b8ff" points="304.03,-79.87 295.04,-74.26 298.57,-84.25 304.03,-79.87"/>
</a>
</g>
</g>
<!-- Node10&#45;&gt;Node8 -->
<g id="edge18_Node000010_Node000008" class="edge">
<title>Node10&#45;&gt;Node8</title>
<g id="a_edge18_Node000010_Node000008"><a xlink:title=" ">
<path fill="none" stroke="#63b8ff" d="M319.42,-219.84C316.87,-207.2 311.08,-183.2 301,-165 295.24,-154.6 286.81,-144.41 279.35,-136.42"/>
<polygon fill="#63b8ff" stroke="#63b8ff" points="281.83,-133.95 272.35,-129.22 276.81,-138.83 281.83,-133.95"/>
</a>
</g>
</g>
<!-- Node10&#45;&gt;Node9 -->
<g id="edge16_Node000010_Node000009" class="edge">
<title>Node10&#45;&gt;Node9</title>
<g id="a_edge16_Node000010_Node000009"><a xlink:title=" ">
<path fill="none" stroke="#63b8ff" d="M310.07,-219.98C299.92,-212.07 284.58,-200.11 272.35,-190.58"/>
<polygon fill="#63b8ff" stroke="#63b8ff" points="274.16,-187.56 264.12,-184.17 269.86,-193.08 274.16,-187.56"/>
</a>
</g>
</g>
<!-- Node10&#45;&gt;Node11 -->
<g id="edge19_Node000010_Node000011" class="edge">
<title>Node10&#45;&gt;Node11</title>
<g id="a_edge19_Node000010_Node000011"><a xlink:title=" ">
<path fill="none" stroke="#63b8ff" d="M335.3,-219.98C349.1,-211.77 370.24,-199.18 386.51,-189.49"/>
<polygon fill="#63b8ff" stroke="#63b8ff" points="388.64,-192.29 395.44,-184.17 385.06,-186.28 388.64,-192.29"/>
</a>
</g>
</g>
</g>
</svg>
