<?xml version="1.0" encoding="UTF-8" standalone="no"?>
<!DOCTYPE svg PUBLIC "-//W3C//DTD SVG 1.1//EN"
 "http://www.w3.org/Graphics/SVG/1.1/DTD/svg11.dtd">
<!-- Generated by graphviz version 2.43.0 (0)
 -->
<!-- Title: src/interpreter.cpp Pages: 1 -->
<svg width="533pt" height="357pt"
 viewBox="0.00 0.00 532.73 357.00" xmlns="http://www.w3.org/2000/svg" xmlns:xlink="http://www.w3.org/1999/xlink">
<g id="graph0" class="graph" transform="scale(1 1) rotate(0) translate(4 353)">
<title>src/interpreter.cpp</title>
<!-- Node1 -->
<g id="Node000001" class="node">
<title>Node1</title>
<g id="a_Node000001"><a xlink:title=" ">
<polygon fill="#999999" stroke="#666666" points="389.73,-349 284.73,-349 284.73,-330 389.73,-330 389.73,-349"/>
<text text-anchor="middle" x="337.23" y="-337" font-family="Helvetica,sans-Serif" font-size="10.00">src/interpreter.cpp</text>
</a>
</g>
</g>
<!-- Node2 -->
<g id="Node000002" class="node">
<title>Node2</title>
<g id="a_Node000002"><a xlink:href="interpreter_8hpp.html" target="_top" xlink:title=" ">
<polygon fill="white" stroke="#666666" points="342.23,-294 234.23,-294 234.23,-275 342.23,-275 342.23,-294"/>
<text text-anchor="middle" x="288.23" y="-282" font-family="Helvetica,sans-Serif" font-size="10.00">gsc/interpreter.hpp</text>
</a>
</g>
</g>
<!-- Node1&#45;&gt;Node2 -->
<g id="edge1_Node000001_Node000002" class="edge">
<title>Node1&#45;&gt;Node2</title>
<g id="a_edge1_Node000001_Node000002"><a xlink:title=" ">
<path fill="none" stroke="#63b8ff" d="M329.14,-329.75C322.07,-322.11 311.64,-310.82 303.08,-301.56"/>
<polygon fill="#63b8ff" stroke="#63b8ff" points="305.53,-299.06 296.17,-294.09 300.39,-303.81 305.53,-299.06"/>
</a>
</g>
</g>
<!-- Node13 -->
<g id="Node000013" class="node">
<title>Node13</title>
<g id="a_Node000013"><a xlink:href="error_8hpp.html" target="_top" xlink:title=" ">
<polygon fill="white" stroke="#666666" points="131.23,-239 51.23,-239 51.23,-220 131.23,-220 131.23,-239"/>
<text text-anchor="middle" x="91.23" y="-227" font-family="Helvetica,sans-Serif" font-size="10.00">gsc/error.hpp</text>
</a>
</g>
</g>
<!-- Node1&#45;&gt;Node13 -->
<g id="edge22_Node000001_Node000013" class="edge">
<title>Node1&#45;&gt;Node13</title>
<g id="a_edge22_Node000001_Node000013"><a xlink:title=" ">
<path fill="none" stroke="#63b8ff" d="M314.31,-329.89C291.55,-321.22 255.73,-307.27 225.23,-294 187.39,-277.54 144.39,-256.79 117.54,-243.58"/>
<polygon fill="#63b8ff" stroke="#63b8ff" points="118.93,-240.37 108.41,-239.08 115.83,-246.64 118.93,-240.37"/>
</a>
</g>
</g>
<!-- Node16 -->
<g id="Node000016" class="node">
<title>Node16</title>
<g id="a_Node000016"><a xlink:title=" ">
<polygon fill="#e0e0e0" stroke="#999999" points="412.23,-294 360.23,-294 360.23,-275 412.23,-275 412.23,-294"/>
<text text-anchor="middle" x="386.23" y="-282" font-family="Helvetica,sans-Serif" font-size="10.00">cassert</text>
</a>
</g>
</g>
<!-- Node1&#45;&gt;Node16 -->
<g id="edge28_Node000001_Node000016" class="edge">
<title>Node1&#45;&gt;Node16</title>
<g id="a_edge28_Node000001_Node000016"><a xlink:title=" ">
<path fill="none" stroke="#63b8ff" d="M345.32,-329.75C352.38,-322.11 362.82,-310.82 371.38,-301.56"/>
<polygon fill="#63b8ff" stroke="#63b8ff" points="374.07,-303.81 378.29,-294.09 368.93,-299.06 374.07,-303.81"/>
</a>
</g>
</g>
<!-- Node17 -->
<g id="Node000017" class="node">
<title>Node17</title>
<g id="a_Node000017"><a xlink:title=" ">
<polygon fill="#e0e0e0" stroke="#999999" points="490.23,-294 430.23,-294 430.23,-275 490.23,-275 490.23,-294"/>
<text text-anchor="middle" x="460.23" y="-282" font-family="Helvetica,sans-Serif" font-size="10.00">iostream</text>
</a>
</g>
</g>
<!-- Node1&#45;&gt;Node17 -->
<g id="edge29_Node000001_Node000017" class="edge">
<title>Node1&#45;&gt;Node17</title>
<g id="a_edge29_Node000001_Node000017"><a xlink:title=" ">
<path fill="none" stroke="#63b8ff" d="M356.99,-329.98C376.96,-321.38 408.03,-307.99 430.88,-298.15"/>
<polygon fill="#63b8ff" stroke="#63b8ff" points="432.31,-301.34 440.11,-294.17 429.54,-294.91 432.31,-301.34"/>
</a>
</g>
</g>
<!-- Node3 -->
<g id="Node000003" class="node">
<title>Node3</title>
<g id="a_Node000003"><a xlink:href="environment_8hpp.html" target="_top" xlink:title=" ">
<polygon fill="white" stroke="#666666" points="524.73,-184 405.73,-184 405.73,-165 524.73,-165 524.73,-184"/>
<text text-anchor="middle" x="465.23" y="-172" font-family="Helvetica,sans-Serif" font-size="10.00">gsc/environment.hpp</text>
</a>
</g>
</g>
<!-- Node2&#45;&gt;Node3 -->
<g id="edge2_Node000002_Node000003" class="edge">
<title>Node2&#45;&gt;Node3</title>
<g id="a_edge2_Node000002_Node000003"><a xlink:title=" ">
<path fill="none" stroke="#63b8ff" d="M302.41,-274.84C332.97,-256.2 405.22,-212.11 442.34,-189.46"/>
<polygon fill="#63b8ff" stroke="#63b8ff" points="444.26,-192.39 450.98,-184.2 440.62,-186.42 444.26,-192.39"/>
</a>
</g>
</g>
<!-- Node10 -->
<g id="Node000010" class="node">
<title>Node10</title>
<g id="a_Node000010"><a xlink:href="expr_8hpp.html" target="_top" xlink:title=" ">
<polygon fill="white" stroke="#666666" points="246.23,-184 168.23,-184 168.23,-165 246.23,-165 246.23,-184"/>
<text text-anchor="middle" x="207.23" y="-172" font-family="Helvetica,sans-Serif" font-size="10.00">gsc/expr.hpp</text>
</a>
</g>
</g>
<!-- Node2&#45;&gt;Node10 -->
<g id="edge12_Node000002_Node000010" class="edge">
<title>Node2&#45;&gt;Node10</title>
<g id="a_edge12_Node000002_Node000010"><a xlink:title=" ">
<path fill="none" stroke="#63b8ff" d="M276.61,-274.97C265.9,-266.67 250.08,-253.27 239.23,-239 228.62,-225.04 219.93,-207.03 214.3,-193.75"/>
<polygon fill="#63b8ff" stroke="#63b8ff" points="217.46,-192.24 210.46,-184.29 210.98,-194.87 217.46,-192.24"/>
</a>
</g>
</g>
<!-- Node11 -->
<g id="Node000011" class="node">
<title>Node11</title>
<g id="a_Node000011"><a xlink:href="stmt_8hpp.html" target="_top" xlink:title=" ">
<polygon fill="white" stroke="#666666" points="328.23,-239 248.23,-239 248.23,-220 328.23,-220 328.23,-239"/>
<text text-anchor="middle" x="288.23" y="-227" font-family="Helvetica,sans-Serif" font-size="10.00">gsc/stmt.hpp</text>
</a>
</g>
</g>
<!-- Node2&#45;&gt;Node11 -->
<g id="edge16_Node000002_Node000011" class="edge">
<title>Node2&#45;&gt;Node11</title>
<g id="a_edge16_Node000002_Node000011"><a xlink:title=" ">
<path fill="none" stroke="#63b8ff" d="M288.23,-274.75C288.23,-267.8 288.23,-257.85 288.23,-249.13"/>
<polygon fill="#63b8ff" stroke="#63b8ff" points="291.73,-249.09 288.23,-239.09 284.73,-249.09 291.73,-249.09"/>
</a>
</g>
</g>
<!-- Node12 -->
<g id="Node000012" class="node">
<title>Node12</title>
<g id="a_Node000012"><a xlink:title=" ">
<polygon fill="#e0e0e0" stroke="#999999" points="387.73,-184 340.73,-184 340.73,-165 387.73,-165 387.73,-184"/>
<text text-anchor="middle" x="364.23" y="-172" font-family="Helvetica,sans-Serif" font-size="10.00">vector</text>
</a>
</g>
</g>
<!-- Node2&#45;&gt;Node12 -->
<g id="edge21_Node000002_Node000012" class="edge">
<title>Node2&#45;&gt;Node12</title>
<g id="a_edge21_Node000002_Node000012"><a xlink:title=" ">
<path fill="none" stroke="#63b8ff" d="M300.49,-274.81C311.33,-266.6 326.98,-253.43 337.23,-239 346.99,-225.27 354.17,-207.46 358.67,-194.2"/>
<polygon fill="#63b8ff" stroke="#63b8ff" points="362.11,-194.91 361.81,-184.32 355.44,-192.79 362.11,-194.91"/>
</a>
</g>
</g>
<!-- Node4 -->
<g id="Node000004" class="node">
<title>Node4</title>
<g id="a_Node000004"><a xlink:href="token_8hpp.html" target="_top" xlink:title=" ">
<polygon fill="white" stroke="#666666" points="184.23,-129 100.23,-129 100.23,-110 184.23,-110 184.23,-129"/>
<text text-anchor="middle" x="142.23" y="-117" font-family="Helvetica,sans-Serif" font-size="10.00">gsc/token.hpp</text>
</a>
</g>
</g>
<!-- Node3&#45;&gt;Node4 -->
<g id="edge3_Node000003_Node000004" class="edge">
<title>Node3&#45;&gt;Node4</title>
<g id="a_edge3_Node000003_Node000004"><a xlink:title=" ">
<path fill="none" stroke="#63b8ff" d="M413.33,-164.98C353.32,-155.14 255.07,-139.02 194.78,-129.12"/>
<polygon fill="#63b8ff" stroke="#63b8ff" points="195.15,-125.64 184.72,-127.47 194.02,-132.54 195.15,-125.64"/>
</a>
</g>
</g>
<!-- Node6 -->
<g id="Node000006" class="node">
<title>Node6</title>
<g id="a_Node000006"><a xlink:title=" ">
<polygon fill="#e0e0e0" stroke="#999999" points="154.23,-19 110.23,-19 110.23,0 154.23,0 154.23,-19"/>
<text text-anchor="middle" x="132.23" y="-7" font-family="Helvetica,sans-Serif" font-size="10.00">string</text>
</a>
</g>
</g>
<!-- Node3&#45;&gt;Node6 -->
<g id="edge11_Node000003_Node000006" class="edge">
<title>Node3&#45;&gt;Node6</title>
<g id="a_edge11_Node000003_Node000006"><a xlink:title=" ">
<path fill="none" stroke="#63b8ff" d="M458.14,-164.93C439.26,-142.73 385.17,-83.16 326.23,-55 272.96,-29.55 204.4,-18.25 164.67,-13.55"/>
<polygon fill="#63b8ff" stroke="#63b8ff" points="164.83,-10.04 154.5,-12.42 164.05,-17 164.83,-10.04"/>
</a>
</g>
</g>
<!-- Node7 -->
<g id="Node000007" class="node">
<title>Node7</title>
<g id="a_Node000007"><a xlink:title=" ">
<polygon fill="#e0e0e0" stroke="#999999" points="316.73,-74 281.73,-74 281.73,-55 316.73,-55 316.73,-74"/>
<text text-anchor="middle" x="299.23" y="-62" font-family="Helvetica,sans-Serif" font-size="10.00">any</text>
</a>
</g>
</g>
<!-- Node3&#45;&gt;Node7 -->
<g id="edge8_Node000003_Node000007" class="edge">
<title>Node3&#45;&gt;Node7</title>
<g id="a_edge8_Node000003_Node000007"><a xlink:title=" ">
<path fill="none" stroke="#63b8ff" d="M451.93,-164.84C423.39,-146.28 356.08,-102.49 321.14,-79.75"/>
<polygon fill="#63b8ff" stroke="#63b8ff" points="322.89,-76.72 312.6,-74.2 319.07,-82.58 322.89,-76.72"/>
</a>
</g>
</g>
<!-- Node8 -->
<g id="Node000008" class="node">
<title>Node8</title>
<g id="a_Node000008"><a xlink:title=" ">
<polygon fill="#e0e0e0" stroke="#999999" points="484.23,-129 446.23,-129 446.23,-110 484.23,-110 484.23,-129"/>
<text text-anchor="middle" x="465.23" y="-117" font-family="Helvetica,sans-Serif" font-size="10.00">map</text>
</a>
</g>
</g>
<!-- Node3&#45;&gt;Node8 -->
<g id="edge9_Node000003_Node000008" class="edge">
<title>Node3&#45;&gt;Node8</title>
<g id="a_edge9_Node000003_Node000008"><a xlink:title=" ">
<path fill="none" stroke="#63b8ff" d="M465.23,-164.75C465.23,-157.8 465.23,-147.85 465.23,-139.13"/>
<polygon fill="#63b8ff" stroke="#63b8ff" points="468.73,-139.09 465.23,-129.09 461.73,-139.09 468.73,-139.09"/>
</a>
</g>
</g>
<!-- Node9 -->
<g id="Node000009" class="node">
<title>Node9</title>
<g id="a_Node000009"><a xlink:title=" ">
<polygon fill="#e0e0e0" stroke="#999999" points="298.23,-129 240.23,-129 240.23,-110 298.23,-110 298.23,-129"/>
<text text-anchor="middle" x="269.23" y="-117" font-family="Helvetica,sans-Serif" font-size="10.00">memory</text>
</a>
</g>
</g>
<!-- Node3&#45;&gt;Node9 -->
<g id="edge10_Node000003_Node000009" class="edge">
<title>Node3&#45;&gt;Node9</title>
<g id="a_edge10_Node000003_Node000009"><a xlink:title=" ">
<path fill="none" stroke="#63b8ff" d="M433.74,-164.98C399.61,-155.76 345.12,-141.02 308.29,-131.06"/>
<polygon fill="#63b8ff" stroke="#63b8ff" points="308.97,-127.62 298.4,-128.39 307.14,-134.38 308.97,-127.62"/>
</a>
</g>
</g>
<!-- Node5 -->
<g id="Node000005" class="node">
<title>Node5</title>
<g id="a_Node000005"><a xlink:href="tokenType_8hpp.html" target="_top" xlink:title=" ">
<polygon fill="white" stroke="#666666" points="211.73,-74 124.73,-74 124.73,-55 211.73,-55 211.73,-74"/>
<text text-anchor="middle" x="168.23" y="-62" font-family="Helvetica,sans-Serif" font-size="10.00">tokenType.hpp</text>
</a>
</g>
</g>
<!-- Node4&#45;&gt;Node5 -->
<g id="edge4_Node000004_Node000005" class="edge">
<title>Node4&#45;&gt;Node5</title>
<g id="a_edge4_Node000004_Node000005"><a xlink:title=" ">
<path fill="none" stroke="#63b8ff" d="M146.52,-109.75C150.04,-102.57 155.14,-92.18 159.51,-83.27"/>
<polygon fill="#63b8ff" stroke="#63b8ff" points="162.75,-84.61 164.02,-74.09 156.47,-81.53 162.75,-84.61"/>
</a>
</g>
</g>
<!-- Node4&#45;&gt;Node6 -->
<g id="edge7_Node000004_Node000006" class="edge">
<title>Node4&#45;&gt;Node6</title>
<g id="a_edge7_Node000004_Node000006"><a xlink:title=" ">
<path fill="none" stroke="#63b8ff" d="M135.08,-109.97C128.46,-101.48 119.07,-87.75 115.23,-74 110.91,-58.56 116.45,-40.95 122.33,-28.2"/>
<polygon fill="#63b8ff" stroke="#63b8ff" points="125.52,-29.64 126.93,-19.14 119.28,-26.47 125.52,-29.64"/>
</a>
</g>
</g>
<!-- Node4&#45;&gt;Node7 -->
<g id="edge6_Node000004_Node000007" class="edge">
<title>Node4&#45;&gt;Node7</title>
<g id="a_edge6_Node000004_Node000007"><a xlink:title=" ">
<path fill="none" stroke="#63b8ff" d="M167.45,-109.98C195.99,-100.35 242.3,-84.72 271.74,-74.78"/>
<polygon fill="#63b8ff" stroke="#63b8ff" points="273.04,-78.04 281.39,-71.52 270.8,-71.4 273.04,-78.04"/>
</a>
</g>
</g>
<!-- Node5&#45;&gt;Node6 -->
<g id="edge5_Node000005_Node000006" class="edge">
<title>Node5&#45;&gt;Node6</title>
<g id="a_edge5_Node000005_Node000006"><a xlink:title=" ">
<path fill="none" stroke="#63b8ff" d="M162.28,-54.75C157.25,-47.34 149.89,-36.5 143.72,-27.41"/>
<polygon fill="#63b8ff" stroke="#63b8ff" points="146.58,-25.39 138.06,-19.09 140.79,-29.33 146.58,-25.39"/>
</a>
</g>
</g>
<!-- Node10&#45;&gt;Node4 -->
<g id="edge13_Node000010_Node000004" class="edge">
<title>Node10&#45;&gt;Node4</title>
<g id="a_edge13_Node000010_Node000004"><a xlink:title=" ">
<path fill="none" stroke="#63b8ff" d="M196.79,-164.98C187.08,-157.07 172.41,-145.11 160.73,-135.58"/>
<polygon fill="#63b8ff" stroke="#63b8ff" points="162.82,-132.78 152.86,-129.17 158.4,-138.2 162.82,-132.78"/>
</a>
</g>
</g>
<!-- Node10&#45;&gt;Node7 -->
<g id="edge14_Node000010_Node000007" class="edge">
<title>Node10&#45;&gt;Node7</title>
<g id="a_edge14_Node000010_Node000007"><a xlink:title=" ">
<path fill="none" stroke="#63b8ff" d="M208.72,-164.84C211.34,-151.77 217.8,-126.73 231.23,-110 242.21,-96.32 258.56,-85.43 272.48,-77.85"/>
<polygon fill="#63b8ff" stroke="#63b8ff" points="274.34,-80.83 281.63,-73.14 271.13,-74.61 274.34,-80.83"/>
</a>
</g>
</g>
<!-- Node10&#45;&gt;Node9 -->
<g id="edge15_Node000010_Node000009" class="edge">
<title>Node10&#45;&gt;Node9</title>
<g id="a_edge15_Node000010_Node000009"><a xlink:title=" ">
<path fill="none" stroke="#63b8ff" d="M217.19,-164.98C226.36,-157.15 240.17,-145.34 251.26,-135.86"/>
<polygon fill="#63b8ff" stroke="#63b8ff" points="253.76,-138.33 259.09,-129.17 249.21,-133.01 253.76,-138.33"/>
</a>
</g>
</g>
<!-- Node11&#45;&gt;Node7 -->
<g id="edge18_Node000011_Node000007" class="edge">
<title>Node11&#45;&gt;Node7</title>
<g id="a_edge18_Node000011_Node000007"><a xlink:title=" ">
<path fill="none" stroke="#63b8ff" d="M291.09,-219.93C297.25,-200.49 310.93,-151.51 307.23,-110 306.47,-101.5 304.91,-92.19 303.37,-84.29"/>
<polygon fill="#63b8ff" stroke="#63b8ff" points="306.76,-83.38 301.29,-74.3 299.9,-84.81 306.76,-83.38"/>
</a>
</g>
</g>
<!-- Node11&#45;&gt;Node9 -->
<g id="edge19_Node000011_Node000009" class="edge">
<title>Node11&#45;&gt;Node9</title>
<g id="a_edge19_Node000011_Node000009"><a xlink:title=" ">
<path fill="none" stroke="#63b8ff" d="M286.67,-219.66C283.6,-202.17 276.67,-162.8 272.53,-139.27"/>
<polygon fill="#63b8ff" stroke="#63b8ff" points="275.93,-138.4 270.75,-129.16 269.04,-139.61 275.93,-138.4"/>
</a>
</g>
</g>
<!-- Node11&#45;&gt;Node10 -->
<g id="edge17_Node000011_Node000010" class="edge">
<title>Node11&#45;&gt;Node10</title>
<g id="a_edge17_Node000011_Node000010"><a xlink:title=" ">
<path fill="none" stroke="#63b8ff" d="M275.22,-219.98C262.77,-211.84 243.77,-199.41 229.02,-189.76"/>
<polygon fill="#63b8ff" stroke="#63b8ff" points="230.76,-186.72 220.48,-184.17 226.93,-192.57 230.76,-186.72"/>
</a>
</g>
</g>
<!-- Node11&#45;&gt;Node12 -->
<g id="edge20_Node000011_Node000012" class="edge">
<title>Node11&#45;&gt;Node12</title>
<g id="a_edge20_Node000011_Node000012"><a xlink:title=" ">
<path fill="none" stroke="#63b8ff" d="M300.44,-219.98C312.01,-211.92 329.6,-199.65 343.39,-190.03"/>
<polygon fill="#63b8ff" stroke="#63b8ff" points="345.6,-192.76 351.8,-184.17 341.59,-187.02 345.6,-192.76"/>
</a>
</g>
</g>
<!-- Node13&#45;&gt;Node6 -->
<g id="edge27_Node000013_Node000006" class="edge">
<title>Node13&#45;&gt;Node6</title>
<g id="a_edge27_Node000013_Node000006"><a xlink:title=" ">
<path fill="none" stroke="#63b8ff" d="M70.83,-219.93C55.6,-212.54 35.4,-200.44 23.23,-184 3.21,-156.95 -7.38,-140.31 7.23,-110 27.12,-68.74 73.36,-39.31 103.68,-23.62"/>
<polygon fill="#63b8ff" stroke="#63b8ff" points="105.53,-26.6 112.91,-19 102.4,-20.34 105.53,-26.6"/>
</a>
</g>
</g>
<!-- Node14 -->
<g id="Node000014" class="node">
<title>Node14</title>
<g id="a_Node000014"><a xlink:href="runtimeError_8hpp.html" target="_top" xlink:title=" ">
<polygon fill="white" stroke="#666666" points="150.23,-184 32.23,-184 32.23,-165 150.23,-165 150.23,-184"/>
<text text-anchor="middle" x="91.23" y="-172" font-family="Helvetica,sans-Serif" font-size="10.00">gsc/runtimeError.hpp</text>
</a>
</g>
</g>
<!-- Node13&#45;&gt;Node14 -->
<g id="edge23_Node000013_Node000014" class="edge">
<title>Node13&#45;&gt;Node14</title>
<g id="a_edge23_Node000013_Node000014"><a xlink:title=" ">
<path fill="none" stroke="#63b8ff" d="M91.23,-219.75C91.23,-212.8 91.23,-202.85 91.23,-194.13"/>
<polygon fill="#63b8ff" stroke="#63b8ff" points="94.73,-194.09 91.23,-184.09 87.73,-194.09 94.73,-194.09"/>
</a>
</g>
</g>
<!-- Node14&#45;&gt;Node4 -->
<g id="edge24_Node000014_Node000004" class="edge">
<title>Node14&#45;&gt;Node4</title>
<g id="a_edge24_Node000014_Node000004"><a xlink:title=" ">
<path fill="none" stroke="#63b8ff" d="M99.65,-164.75C107,-157.11 117.86,-145.82 126.77,-136.56"/>
<polygon fill="#63b8ff" stroke="#63b8ff" points="129.55,-138.72 133.96,-129.09 124.51,-133.87 129.55,-138.72"/>
</a>
</g>
</g>
<!-- Node14&#45;&gt;Node9 -->
<g id="edge25_Node000014_Node000009" class="edge">
<title>Node14&#45;&gt;Node9</title>
<g id="a_edge25_Node000014_Node000009"><a xlink:title=" ">
<path fill="none" stroke="#63b8ff" d="M119.83,-164.98C149.84,-156.05 197.21,-141.94 230.55,-132.02"/>
<polygon fill="#63b8ff" stroke="#63b8ff" points="231.82,-135.29 240.41,-129.08 229.82,-128.58 231.82,-135.29"/>
</a>
</g>
</g>
<!-- Node15 -->
<g id="Node000015" class="node">
<title>Node15</title>
<g id="a_Node000015"><a xlink:title=" ">
<polygon fill="#e0e0e0" stroke="#999999" points="81.73,-129 16.73,-129 16.73,-110 81.73,-110 81.73,-129"/>
<text text-anchor="middle" x="49.23" y="-117" font-family="Helvetica,sans-Serif" font-size="10.00">stdexcept</text>
</a>
</g>
</g>
<!-- Node14&#45;&gt;Node15 -->
<g id="edge26_Node000014_Node000015" class="edge">
<title>Node14&#45;&gt;Node15</title>
<g id="a_edge26_Node000014_Node000015"><a xlink:title=" ">
<path fill="none" stroke="#63b8ff" d="M84.29,-164.75C78.36,-157.26 69.66,-146.28 62.41,-137.13"/>
<polygon fill="#63b8ff" stroke="#63b8ff" points="64.99,-134.75 56.04,-129.09 59.5,-139.1 64.99,-134.75"/>
</a>
</g>
</g>
</g>
</svg>
