<?xml version="1.0" encoding="UTF-8" standalone="no"?>
<!DOCTYPE svg PUBLIC "-//W3C//DTD SVG 1.1//EN"
 "http://www.w3.org/Graphics/SVG/1.1/DTD/svg11.dtd">
<!-- Generated by graphviz version 2.43.0 (0)
 -->
<!-- Title: test/interpreterTest.cpp Pages: 1 -->
<svg width="553pt" height="357pt"
 viewBox="0.00 0.00 553.47 357.00" xmlns="http://www.w3.org/2000/svg" xmlns:xlink="http://www.w3.org/1999/xlink">
<g id="graph0" class="graph" transform="scale(1 1) rotate(0) translate(4 353)">
<title>test/interpreterTest.cpp</title>
<!-- Node1 -->
<g id="Node000001" class="node">
<title>Node1</title>
<g id="a_Node000001"><a xlink:title=" ">
<polygon fill="#999999" stroke="#666666" points="372.39,-349 242.39,-349 242.39,-330 372.39,-330 372.39,-349"/>
<text text-anchor="middle" x="307.39" y="-337" font-family="Helvetica,sans-Serif" font-size="10.00">test/interpreterTest.cpp</text>
</a>
</g>
</g>
<!-- Node2 -->
<g id="Node000002" class="node">
<title>Node2</title>
<g id="a_Node000002"><a xlink:href="interpreter_8hpp.html" target="_top" xlink:title=" ">
<polygon fill="white" stroke="#666666" points="202.39,-294 94.39,-294 94.39,-275 202.39,-275 202.39,-294"/>
<text text-anchor="middle" x="148.39" y="-282" font-family="Helvetica,sans-Serif" font-size="10.00">gsc/interpreter.hpp</text>
</a>
</g>
</g>
<!-- Node1&#45;&gt;Node2 -->
<g id="edge1_Node000001_Node000002" class="edge">
<title>Node1&#45;&gt;Node2</title>
<g id="a_edge1_Node000001_Node000002"><a xlink:title=" ">
<path fill="none" stroke="#63b8ff" d="M281.84,-329.98C255.26,-321.13 213.45,-307.19 183.71,-297.28"/>
<polygon fill="#63b8ff" stroke="#63b8ff" points="184.73,-293.92 174.13,-294.08 182.51,-300.56 184.73,-293.92"/>
</a>
</g>
</g>
<!-- Node9 -->
<g id="Node000009" class="node">
<title>Node9</title>
<g id="a_Node000009"><a xlink:title=" ">
<polygon fill="#e0e0e0" stroke="#999999" points="173.39,-129 115.39,-129 115.39,-110 173.39,-110 173.39,-129"/>
<text text-anchor="middle" x="144.39" y="-117" font-family="Helvetica,sans-Serif" font-size="10.00">memory</text>
</a>
</g>
</g>
<!-- Node1&#45;&gt;Node9 -->
<g id="edge30_Node000001_Node000009" class="edge">
<title>Node1&#45;&gt;Node9</title>
<g id="a_edge30_Node000001_Node000009"><a xlink:title=" ">
<path fill="none" stroke="#63b8ff" d="M242.14,-337.52C195.34,-334.07 132.48,-323.6 85.39,-294 33.53,-261.41 21.84,-242.07 2.39,-184 -12.49,-139.6 57.93,-126.21 104.92,-122.2"/>
<polygon fill="#63b8ff" stroke="#63b8ff" points="105.42,-125.67 115.13,-121.44 104.9,-118.69 105.42,-125.67"/>
</a>
</g>
</g>
<!-- Node13 -->
<g id="Node000013" class="node">
<title>Node13</title>
<g id="a_Node000013"><a xlink:title=" ">
<polygon fill="#e0e0e0" stroke="#999999" points="393.89,-294 220.89,-294 220.89,-275 393.89,-275 393.89,-294"/>
<text text-anchor="middle" x="307.39" y="-282" font-family="Helvetica,sans-Serif" font-size="10.00">catch2/catch_amalgamated.hpp</text>
</a>
</g>
</g>
<!-- Node1&#45;&gt;Node13 -->
<g id="edge22_Node000001_Node000013" class="edge">
<title>Node1&#45;&gt;Node13</title>
<g id="a_edge22_Node000001_Node000013"><a xlink:title=" ">
<path fill="none" stroke="#63b8ff" d="M307.39,-329.75C307.39,-322.8 307.39,-312.85 307.39,-304.13"/>
<polygon fill="#63b8ff" stroke="#63b8ff" points="310.89,-304.09 307.39,-294.09 303.89,-304.09 310.89,-304.09"/>
</a>
</g>
</g>
<!-- Node14 -->
<g id="Node000014" class="node">
<title>Node14</title>
<g id="a_Node000014"><a xlink:href="error_8hpp.html" target="_top" xlink:title=" ">
<polygon fill="white" stroke="#666666" points="486.39,-239 406.39,-239 406.39,-220 486.39,-220 486.39,-239"/>
<text text-anchor="middle" x="446.39" y="-227" font-family="Helvetica,sans-Serif" font-size="10.00">gsc/error.hpp</text>
</a>
</g>
</g>
<!-- Node1&#45;&gt;Node14 -->
<g id="edge23_Node000001_Node000014" class="edge">
<title>Node1&#45;&gt;Node14</title>
<g id="a_edge23_Node000001_Node000014"><a xlink:title=" ">
<path fill="none" stroke="#63b8ff" d="M335.72,-329.94C356.15,-322.74 383.51,-310.9 403.39,-294 418.24,-281.37 430.17,-262.41 437.66,-248.49"/>
<polygon fill="#63b8ff" stroke="#63b8ff" points="440.87,-249.91 442.31,-239.41 434.64,-246.72 440.87,-249.91"/>
</a>
</g>
</g>
<!-- Node17 -->
<g id="Node000017" class="node">
<title>Node17</title>
<g id="a_Node000017"><a xlink:title=" ">
<polygon fill="#e0e0e0" stroke="#999999" points="510.39,-294 450.39,-294 450.39,-275 510.39,-275 510.39,-294"/>
<text text-anchor="middle" x="480.39" y="-282" font-family="Helvetica,sans-Serif" font-size="10.00">iostream</text>
</a>
</g>
</g>
<!-- Node1&#45;&gt;Node17 -->
<g id="edge29_Node000001_Node000017" class="edge">
<title>Node1&#45;&gt;Node17</title>
<g id="a_edge29_Node000001_Node000017"><a xlink:title=" ">
<path fill="none" stroke="#63b8ff" d="M335.18,-329.98C364.35,-321.05 410.39,-306.94 442.79,-297.02"/>
<polygon fill="#63b8ff" stroke="#63b8ff" points="443.84,-300.36 452.37,-294.08 441.79,-293.66 443.84,-300.36"/>
</a>
</g>
</g>
<!-- Node3 -->
<g id="Node000003" class="node">
<title>Node3</title>
<g id="a_Node000003"><a xlink:href="environment_8hpp.html" target="_top" xlink:title=" ">
<polygon fill="white" stroke="#666666" points="368.89,-184 249.89,-184 249.89,-165 368.89,-165 368.89,-184"/>
<text text-anchor="middle" x="309.39" y="-172" font-family="Helvetica,sans-Serif" font-size="10.00">gsc/environment.hpp</text>
</a>
</g>
</g>
<!-- Node2&#45;&gt;Node3 -->
<g id="edge2_Node000002_Node000003" class="edge">
<title>Node2&#45;&gt;Node3</title>
<g id="a_edge2_Node000002_Node000003"><a xlink:title=" ">
<path fill="none" stroke="#63b8ff" d="M161.29,-274.84C188.84,-256.36 253.69,-212.86 287.7,-190.05"/>
<polygon fill="#63b8ff" stroke="#63b8ff" points="290.07,-192.67 296.42,-184.2 286.17,-186.86 290.07,-192.67"/>
</a>
</g>
</g>
<!-- Node10 -->
<g id="Node000010" class="node">
<title>Node10</title>
<g id="a_Node000010"><a xlink:href="expr_8hpp.html" target="_top" xlink:title=" ">
<polygon fill="white" stroke="#666666" points="231.39,-184 153.39,-184 153.39,-165 231.39,-165 231.39,-184"/>
<text text-anchor="middle" x="192.39" y="-172" font-family="Helvetica,sans-Serif" font-size="10.00">gsc/expr.hpp</text>
</a>
</g>
</g>
<!-- Node2&#45;&gt;Node10 -->
<g id="edge12_Node000002_Node000010" class="edge">
<title>Node2&#45;&gt;Node10</title>
<g id="a_edge12_Node000002_Node000010"><a xlink:title=" ">
<path fill="none" stroke="#63b8ff" d="M153.96,-274.93C159.47,-266.17 167.85,-252.05 173.39,-239 179.57,-224.42 184.6,-207.15 187.93,-194.31"/>
<polygon fill="#63b8ff" stroke="#63b8ff" points="191.39,-194.89 190.4,-184.34 184.59,-193.21 191.39,-194.89"/>
</a>
</g>
</g>
<!-- Node11 -->
<g id="Node000011" class="node">
<title>Node11</title>
<g id="a_Node000011"><a xlink:href="stmt_8hpp.html" target="_top" xlink:title=" ">
<polygon fill="white" stroke="#666666" points="164.39,-239 84.39,-239 84.39,-220 164.39,-220 164.39,-239"/>
<text text-anchor="middle" x="124.39" y="-227" font-family="Helvetica,sans-Serif" font-size="10.00">gsc/stmt.hpp</text>
</a>
</g>
</g>
<!-- Node2&#45;&gt;Node11 -->
<g id="edge16_Node000002_Node000011" class="edge">
<title>Node2&#45;&gt;Node11</title>
<g id="a_edge16_Node000002_Node000011"><a xlink:title=" ">
<path fill="none" stroke="#63b8ff" d="M144.42,-274.75C141.17,-267.57 136.47,-257.18 132.43,-248.27"/>
<polygon fill="#63b8ff" stroke="#63b8ff" points="135.59,-246.75 128.27,-239.09 129.21,-249.64 135.59,-246.75"/>
</a>
</g>
</g>
<!-- Node12 -->
<g id="Node000012" class="node">
<title>Node12</title>
<g id="a_Node000012"><a xlink:title=" ">
<polygon fill="#e0e0e0" stroke="#999999" points="58.89,-184 11.89,-184 11.89,-165 58.89,-165 58.89,-184"/>
<text text-anchor="middle" x="35.39" y="-172" font-family="Helvetica,sans-Serif" font-size="10.00">vector</text>
</a>
</g>
</g>
<!-- Node2&#45;&gt;Node12 -->
<g id="edge21_Node000002_Node000012" class="edge">
<title>Node2&#45;&gt;Node12</title>
<g id="a_edge21_Node000002_Node000012"><a xlink:title=" ">
<path fill="none" stroke="#63b8ff" d="M129.36,-274.97C113.58,-267.22 91.24,-254.63 75.39,-239 61.93,-225.74 50.88,-207.12 43.83,-193.47"/>
<polygon fill="#63b8ff" stroke="#63b8ff" points="46.81,-191.6 39.25,-184.18 40.53,-194.69 46.81,-191.6"/>
</a>
</g>
</g>
<!-- Node4 -->
<g id="Node000004" class="node">
<title>Node4</title>
<g id="a_Node000004"><a xlink:href="token_8hpp.html" target="_top" xlink:title=" ">
<polygon fill="white" stroke="#666666" points="351.39,-129 267.39,-129 267.39,-110 351.39,-110 351.39,-129"/>
<text text-anchor="middle" x="309.39" y="-117" font-family="Helvetica,sans-Serif" font-size="10.00">gsc/token.hpp</text>
</a>
</g>
</g>
<!-- Node3&#45;&gt;Node4 -->
<g id="edge3_Node000003_Node000004" class="edge">
<title>Node3&#45;&gt;Node4</title>
<g id="a_edge3_Node000003_Node000004"><a xlink:title=" ">
<path fill="none" stroke="#63b8ff" d="M309.39,-164.75C309.39,-157.8 309.39,-147.85 309.39,-139.13"/>
<polygon fill="#63b8ff" stroke="#63b8ff" points="312.89,-139.09 309.39,-129.09 305.89,-139.09 312.89,-139.09"/>
</a>
</g>
</g>
<!-- Node6 -->
<g id="Node000006" class="node">
<title>Node6</title>
<g id="a_Node000006"><a xlink:title=" ">
<polygon fill="#e0e0e0" stroke="#999999" points="382.39,-19 338.39,-19 338.39,0 382.39,0 382.39,-19"/>
<text text-anchor="middle" x="360.39" y="-7" font-family="Helvetica,sans-Serif" font-size="10.00">string</text>
</a>
</g>
</g>
<!-- Node3&#45;&gt;Node6 -->
<g id="edge11_Node000003_Node000006" class="edge">
<title>Node3&#45;&gt;Node6</title>
<g id="a_edge11_Node000003_Node000006"><a xlink:title=" ">
<path fill="none" stroke="#63b8ff" d="M325.11,-164.88C337.27,-157.23 353.19,-144.83 360.39,-129 375.23,-96.34 369.85,-53.19 364.91,-29"/>
<polygon fill="#63b8ff" stroke="#63b8ff" points="368.28,-28.04 362.68,-19.04 361.45,-29.57 368.28,-28.04"/>
</a>
</g>
</g>
<!-- Node7 -->
<g id="Node000007" class="node">
<title>Node7</title>
<g id="a_Node000007"><a xlink:title=" ">
<polygon fill="#e0e0e0" stroke="#999999" points="207.89,-74 172.89,-74 172.89,-55 207.89,-55 207.89,-74"/>
<text text-anchor="middle" x="190.39" y="-62" font-family="Helvetica,sans-Serif" font-size="10.00">any</text>
</a>
</g>
</g>
<!-- Node3&#45;&gt;Node7 -->
<g id="edge8_Node000003_Node000007" class="edge">
<title>Node3&#45;&gt;Node7</title>
<g id="a_edge8_Node000003_Node000007"><a xlink:title=" ">
<path fill="none" stroke="#63b8ff" d="M299.14,-164.73C288.77,-155.83 272.34,-141.6 258.39,-129 240.71,-113.05 220.85,-94.41 207.17,-81.47"/>
<polygon fill="#63b8ff" stroke="#63b8ff" points="209.2,-78.57 199.53,-74.23 204.38,-83.65 209.2,-78.57"/>
</a>
</g>
</g>
<!-- Node8 -->
<g id="Node000008" class="node">
<title>Node8</title>
<g id="a_Node000008"><a xlink:title=" ">
<polygon fill="#e0e0e0" stroke="#999999" points="445.39,-129 407.39,-129 407.39,-110 445.39,-110 445.39,-129"/>
<text text-anchor="middle" x="426.39" y="-117" font-family="Helvetica,sans-Serif" font-size="10.00">map</text>
</a>
</g>
</g>
<!-- Node3&#45;&gt;Node8 -->
<g id="edge9_Node000003_Node000008" class="edge">
<title>Node3&#45;&gt;Node8</title>
<g id="a_edge9_Node000003_Node000008"><a xlink:title=" ">
<path fill="none" stroke="#63b8ff" d="M328.18,-164.98C347.01,-156.46 376.21,-143.23 397.88,-133.41"/>
<polygon fill="#63b8ff" stroke="#63b8ff" points="399.58,-136.48 407.25,-129.17 396.69,-130.11 399.58,-136.48"/>
</a>
</g>
</g>
<!-- Node3&#45;&gt;Node9 -->
<g id="edge10_Node000003_Node000009" class="edge">
<title>Node3&#45;&gt;Node9</title>
<g id="a_edge10_Node000003_Node000009"><a xlink:title=" ">
<path fill="none" stroke="#63b8ff" d="M282.88,-164.98C255.17,-156.09 211.53,-142.07 180.64,-132.15"/>
<polygon fill="#63b8ff" stroke="#63b8ff" points="181.69,-128.81 171.1,-129.08 179.55,-135.47 181.69,-128.81"/>
</a>
</g>
</g>
<!-- Node5 -->
<g id="Node000005" class="node">
<title>Node5</title>
<g id="a_Node000005"><a xlink:href="tokenType_8hpp.html" target="_top" xlink:title=" ">
<polygon fill="white" stroke="#666666" points="312.89,-74 225.89,-74 225.89,-55 312.89,-55 312.89,-74"/>
<text text-anchor="middle" x="269.39" y="-62" font-family="Helvetica,sans-Serif" font-size="10.00">tokenType.hpp</text>
</a>
</g>
</g>
<!-- Node4&#45;&gt;Node5 -->
<g id="edge4_Node000004_Node000005" class="edge">
<title>Node4&#45;&gt;Node5</title>
<g id="a_edge4_Node000004_Node000005"><a xlink:title=" ">
<path fill="none" stroke="#63b8ff" d="M302.78,-109.75C297.13,-102.26 288.84,-91.28 281.93,-82.13"/>
<polygon fill="#63b8ff" stroke="#63b8ff" points="284.69,-79.96 275.87,-74.09 279.1,-84.18 284.69,-79.96"/>
</a>
</g>
</g>
<!-- Node4&#45;&gt;Node6 -->
<g id="edge7_Node000004_Node000006" class="edge">
<title>Node4&#45;&gt;Node6</title>
<g id="a_edge7_Node000004_Node000006"><a xlink:title=" ">
<path fill="none" stroke="#63b8ff" d="M313.56,-109.66C321.93,-91.93 340.92,-51.73 351.97,-28.32"/>
<polygon fill="#63b8ff" stroke="#63b8ff" points="355.19,-29.7 356.3,-19.16 348.86,-26.71 355.19,-29.7"/>
</a>
</g>
</g>
<!-- Node4&#45;&gt;Node7 -->
<g id="edge6_Node000004_Node000007" class="edge">
<title>Node4&#45;&gt;Node7</title>
<g id="a_edge6_Node000004_Node000007"><a xlink:title=" ">
<path fill="none" stroke="#63b8ff" d="M290.27,-109.98C270.46,-101.17 239.36,-87.31 217.13,-77.41"/>
<polygon fill="#63b8ff" stroke="#63b8ff" points="218.47,-74.17 207.91,-73.3 215.62,-80.57 218.47,-74.17"/>
</a>
</g>
</g>
<!-- Node5&#45;&gt;Node6 -->
<g id="edge5_Node000005_Node000006" class="edge">
<title>Node5&#45;&gt;Node6</title>
<g id="a_edge5_Node000005_Node000006"><a xlink:title=" ">
<path fill="none" stroke="#63b8ff" d="M284.01,-54.98C298.25,-46.69 320.14,-33.94 336.84,-24.22"/>
<polygon fill="#63b8ff" stroke="#63b8ff" points="338.62,-27.23 345.5,-19.17 335.1,-21.18 338.62,-27.23"/>
</a>
</g>
</g>
<!-- Node10&#45;&gt;Node4 -->
<g id="edge13_Node000010_Node000004" class="edge">
<title>Node10&#45;&gt;Node4</title>
<g id="a_edge13_Node000010_Node000004"><a xlink:title=" ">
<path fill="none" stroke="#63b8ff" d="M211.18,-164.98C230.01,-156.46 259.21,-143.23 280.88,-133.41"/>
<polygon fill="#63b8ff" stroke="#63b8ff" points="282.58,-136.48 290.25,-129.17 279.69,-130.11 282.58,-136.48"/>
</a>
</g>
</g>
<!-- Node10&#45;&gt;Node7 -->
<g id="edge14_Node000010_Node000007" class="edge">
<title>Node10&#45;&gt;Node7</title>
<g id="a_edge14_Node000010_Node000007"><a xlink:title=" ">
<path fill="none" stroke="#63b8ff" d="M192.22,-164.66C191.9,-147.17 191.17,-107.8 190.73,-84.27"/>
<polygon fill="#63b8ff" stroke="#63b8ff" points="194.23,-84.09 190.55,-74.16 187.23,-84.22 194.23,-84.09"/>
</a>
</g>
</g>
<!-- Node10&#45;&gt;Node9 -->
<g id="edge15_Node000010_Node000009" class="edge">
<title>Node10&#45;&gt;Node9</title>
<g id="a_edge15_Node000010_Node000009"><a xlink:title=" ">
<path fill="none" stroke="#63b8ff" d="M184.46,-164.75C177.54,-157.11 167.32,-145.82 158.93,-136.56"/>
<polygon fill="#63b8ff" stroke="#63b8ff" points="161.47,-134.15 152.16,-129.09 156.28,-138.85 161.47,-134.15"/>
</a>
</g>
</g>
<!-- Node11&#45;&gt;Node7 -->
<g id="edge18_Node000011_Node000007" class="edge">
<title>Node11&#45;&gt;Node7</title>
<g id="a_edge18_Node000011_Node000007"><a xlink:title=" ">
<path fill="none" stroke="#63b8ff" d="M119.43,-219.71C108.45,-198.97 84.71,-146.01 106.39,-110 118.63,-89.65 143.66,-78.12 163.22,-71.92"/>
<polygon fill="#63b8ff" stroke="#63b8ff" points="164.22,-75.28 172.86,-69.15 162.28,-68.55 164.22,-75.28"/>
</a>
</g>
</g>
<!-- Node11&#45;&gt;Node9 -->
<g id="edge19_Node000011_Node000009" class="edge">
<title>Node11&#45;&gt;Node9</title>
<g id="a_edge19_Node000011_Node000009"><a xlink:title=" ">
<path fill="none" stroke="#63b8ff" d="M126.02,-219.66C129.26,-202.17 136.55,-162.8 140.91,-139.27"/>
<polygon fill="#63b8ff" stroke="#63b8ff" points="144.4,-139.63 142.78,-129.16 137.52,-138.35 144.4,-139.63"/>
</a>
</g>
</g>
<!-- Node11&#45;&gt;Node10 -->
<g id="edge17_Node000011_Node000010" class="edge">
<title>Node11&#45;&gt;Node10</title>
<g id="a_edge17_Node000011_Node000010"><a xlink:title=" ">
<path fill="none" stroke="#63b8ff" d="M135.31,-219.98C145.46,-212.07 160.81,-200.11 173.03,-190.58"/>
<polygon fill="#63b8ff" stroke="#63b8ff" points="175.53,-193.08 181.26,-184.17 171.22,-187.56 175.53,-193.08"/>
</a>
</g>
</g>
<!-- Node11&#45;&gt;Node12 -->
<g id="edge20_Node000011_Node000012" class="edge">
<title>Node11&#45;&gt;Node12</title>
<g id="a_edge20_Node000011_Node000012"><a xlink:title=" ">
<path fill="none" stroke="#63b8ff" d="M110.09,-219.98C96.28,-211.77 75.14,-199.18 58.87,-189.49"/>
<polygon fill="#63b8ff" stroke="#63b8ff" points="60.33,-186.28 49.94,-184.17 56.75,-192.29 60.33,-186.28"/>
</a>
</g>
</g>
<!-- Node14&#45;&gt;Node6 -->
<g id="edge28_Node000014_Node000006" class="edge">
<title>Node14&#45;&gt;Node6</title>
<g id="a_edge28_Node000014_Node000006"><a xlink:title=" ">
<path fill="none" stroke="#63b8ff" d="M465.29,-219.94C480.29,-212.33 500.91,-199.95 514.39,-184 536.7,-157.59 555.88,-139.82 538.39,-110 506.86,-56.26 434.56,-29.38 392.44,-17.83"/>
<polygon fill="#63b8ff" stroke="#63b8ff" points="393.24,-14.43 382.68,-15.28 391.47,-21.2 393.24,-14.43"/>
</a>
</g>
</g>
<!-- Node15 -->
<g id="Node000015" class="node">
<title>Node15</title>
<g id="a_Node000015"><a xlink:href="runtimeError_8hpp.html" target="_top" xlink:title=" ">
<polygon fill="white" stroke="#666666" points="505.39,-184 387.39,-184 387.39,-165 505.39,-165 505.39,-184"/>
<text text-anchor="middle" x="446.39" y="-172" font-family="Helvetica,sans-Serif" font-size="10.00">gsc/runtimeError.hpp</text>
</a>
</g>
</g>
<!-- Node14&#45;&gt;Node15 -->
<g id="edge24_Node000014_Node000015" class="edge">
<title>Node14&#45;&gt;Node15</title>
<g id="a_edge24_Node000014_Node000015"><a xlink:title=" ">
<path fill="none" stroke="#63b8ff" d="M446.39,-219.75C446.39,-212.8 446.39,-202.85 446.39,-194.13"/>
<polygon fill="#63b8ff" stroke="#63b8ff" points="449.89,-194.09 446.39,-184.09 442.89,-194.09 449.89,-194.09"/>
</a>
</g>
</g>
<!-- Node15&#45;&gt;Node4 -->
<g id="edge25_Node000015_Node000004" class="edge">
<title>Node15&#45;&gt;Node4</title>
<g id="a_edge25_Node000015_Node000004"><a xlink:title=" ">
<path fill="none" stroke="#63b8ff" d="M424.37,-164.98C401.94,-156.3 366.9,-142.75 341.4,-132.88"/>
<polygon fill="#63b8ff" stroke="#63b8ff" points="342.39,-129.51 331.8,-129.17 339.86,-136.04 342.39,-129.51"/>
</a>
</g>
</g>
<!-- Node15&#45;&gt;Node9 -->
<g id="edge26_Node000015_Node000009" class="edge">
<title>Node15&#45;&gt;Node9</title>
<g id="a_edge26_Node000015_Node000009"><a xlink:title=" ">
<path fill="none" stroke="#63b8ff" d="M397.86,-164.98C338.34,-154.54 238.59,-137.03 183.65,-127.39"/>
<polygon fill="#63b8ff" stroke="#63b8ff" points="184.06,-123.91 173.61,-125.63 182.85,-130.8 184.06,-123.91"/>
</a>
</g>
</g>
<!-- Node16 -->
<g id="Node000016" class="node">
<title>Node16</title>
<g id="a_Node000016"><a xlink:title=" ">
<polygon fill="#e0e0e0" stroke="#999999" points="528.89,-129 463.89,-129 463.89,-110 528.89,-110 528.89,-129"/>
<text text-anchor="middle" x="496.39" y="-117" font-family="Helvetica,sans-Serif" font-size="10.00">stdexcept</text>
</a>
</g>
</g>
<!-- Node15&#45;&gt;Node16 -->
<g id="edge27_Node000015_Node000016" class="edge">
<title>Node15&#45;&gt;Node16</title>
<g id="a_edge27_Node000015_Node000016"><a xlink:title=" ">
<path fill="none" stroke="#63b8ff" d="M454.64,-164.75C461.85,-157.11 472.5,-145.82 481.23,-136.56"/>
<polygon fill="#63b8ff" stroke="#63b8ff" points="483.97,-138.76 488.28,-129.09 478.87,-133.96 483.97,-138.76"/>
</a>
</g>
</g>
</g>
</svg>
