<?xml version="1.0" encoding="UTF-8" standalone="no"?>
<!DOCTYPE svg PUBLIC "-//W3C//DTD SVG 1.1//EN"
 "http://www.w3.org/Graphics/SVG/1.1/DTD/svg11.dtd">
<!-- Generated by graphviz version 2.43.0 (0)
 -->
<!-- Title: app/main.cpp Pages: 1 -->
<!--zoomable 357 -->

<svg id="main" version="1.1" xmlns="http://www.w3.org/2000/svg" xmlns:xlink="http://www.w3.org/1999/xlink" xml:space="preserve" onload="init(evt)">
<style type="text/css"><![CDATA[
.node, .edge {opacity: 0.7;}
.node.selected, .edge.selected {opacity: 1;}
.edge:hover path { stroke: red; }
.edge:hover polygon { stroke: red; fill: red; }
]]></style>

<defs>
  <circle id="rim" cx="0" cy="0" r="7"/>
  <circle id="rim2" cx="0" cy="0" r="3.5"/>
  <g id="zoomPlus">
    <use xlink:href="#rim" fill="#404040"><set attributeName="fill" to="#808080" begin="zoomplus.mouseover" end="zoomplus.mouseout"/></use>
    <path d="M-4,0h8M0,-4v8" fill="none" stroke="white" stroke-width="1.5" pointer-events="none"/>
  </g>
  <g id="zoomMin">
    <use xlink:href="#rim" fill="#404040"><set attributeName="fill" to="#808080" begin="zoomminus.mouseover" end="zoomminus.mouseout"/></use>
    <path d="M-4,0h8" fill="none" stroke="white" stroke-width="1.5" pointer-events="none"/>
  </g>
  <g id="arrowUp" transform="translate(30 24)">
    <use xlink:href="#rim"/>
    <path pointer-events="none" fill="none" stroke="white" stroke-width="1.5" d="M0,-3.0v7 M-2.5,-0.5L0,-3.0L2.5,-0.5"/>
  </g>
  <g id="arrowRight" transform="rotate(90) translate(36 -43)">
    <use xlink:href="#rim"/>
    <path pointer-events="none" fill="none" stroke="white" stroke-width="1.5" d="M0,-3.0v7 M-2.5,-0.5L0,-3.0L2.5,-0.5"/>
  </g>
  <g id="arrowDown" transform="rotate(180) translate(-30 -48)">
    <use xlink:href="#rim"/>
    <path pointer-events="none" fill="none" stroke="white" stroke-width="1.5" d="M0,-3.0v7 M-2.5,-0.5L0,-3.0L2.5,-0.5"/>
  </g>
  <g id="arrowLeft" transform="rotate(270) translate(-36 17)">
    <use xlink:href="#rim"/>
    <path pointer-events="none" fill="none" stroke="white" stroke-width="1.5" d="M0,-3.0v7 M-2.5,-0.5L0,-3.0L2.5,-0.5"/>
  </g>
  <g id="resetDef">
    <use xlink:href="#rim2" fill="#404040"><set attributeName="fill" to="#808080" begin="reset.mouseover" end="reset.mouseout"/></use>
  </g>
</defs>
<script type="application/ecmascript">
var viewWidth = 889;
var viewHeight = 357;
var sectionId = 'dynsection-0';
</script>
<script type="application/ecmascript" xlink:href="svg.min.js"/>
<svg id="graph" class="graph">
<g id="viewport">
<title>app/main.cpp</title>
<!-- Node1 -->
<g id="Node000001" class="node">
<title>Node1</title>
<g id="a_Node000001"><a xlink:title=" ">
<polygon fill="#999999" stroke="#666666" points="572.19,-349 489.19,-349 489.19,-330 572.19,-330 572.19,-349"/>
<text text-anchor="middle" x="530.69" y="-337" font-family="Helvetica,sans-Serif" font-size="10.00">app/main.cpp</text>
</a>
</g>
</g>
<!-- Node2 -->
<g id="Node000002" class="node">
<title>Node2</title>
<g id="a_Node000002"><a xlink:href="error_8hpp.html" target="_top" xlink:title=" ">
<polygon fill="white" stroke="#666666" points="880.69,-239 800.69,-239 800.69,-220 880.69,-220 880.69,-239"/>
<text text-anchor="middle" x="840.69" y="-227" font-family="Helvetica,sans-Serif" font-size="10.00">gsc/error.hpp</text>
</a>
</g>
</g>
<!-- Node1&#45;&gt;Node2 -->
<g id="edge1_Node000001_Node000002" class="edge">
<title>Node1&#45;&gt;Node2</title>
<g id="a_edge1_Node000001_Node000002"><a xlink:title=" ">
<path fill="none" stroke="#63b8ff" d="M547.76,-329.97C581.95,-312.9 655.83,-276.05 658.69,-275 702.12,-259.14 753.43,-247.17 790.48,-239.67"/>
<polygon fill="#63b8ff" stroke="#63b8ff" points="791.41,-243.05 800.54,-237.67 790.05,-236.18 791.41,-243.05"/>
</a>
</g>
</g>
<!-- Node4 -->
<g id="Node000004" class="node">
<title>Node4</title>
<g id="a_Node000004"><a xlink:href="token_8hpp.html" target="_top" xlink:title=" ">
<polygon fill="white" stroke="#666666" points="306.69,-129 222.69,-129 222.69,-110 306.69,-110 306.69,-129"/>
<text text-anchor="middle" x="264.69" y="-117" font-family="Helvetica,sans-Serif" font-size="10.00">gsc/token.hpp</text>
</a>
</g>
</g>
<!-- Node1&#45;&gt;Node4 -->
<g id="edge40_Node000001_Node000004" class="edge">
<title>Node1&#45;&gt;Node4</title>
<g id="a_edge40_Node000001_Node000004"><a xlink:title=" ">
<path fill="none" stroke="#63b8ff" d="M488.88,-336.35C399.09,-331.3 194.29,-317.32 173.69,-294 154.15,-271.87 86.49,-314.43 184.69,-165 194.38,-150.26 210.7,-139.94 226.08,-132.97"/>
<polygon fill="#63b8ff" stroke="#63b8ff" points="227.59,-136.14 235.47,-129.06 224.9,-129.68 227.59,-136.14"/>
</a>
</g>
</g>
<!-- Node10 -->
<g id="Node000010" class="node">
<title>Node10</title>
<g id="a_Node000010"><a xlink:href="interpreter_8hpp.html" target="_top" xlink:title=" ">
<polygon fill="white" stroke="#666666" points="290.69,-294 182.69,-294 182.69,-275 290.69,-275 290.69,-294"/>
<text text-anchor="middle" x="236.69" y="-282" font-family="Helvetica,sans-Serif" font-size="10.00">gsc/interpreter.hpp</text>
</a>
</g>
</g>
<!-- Node1&#45;&gt;Node10 -->
<g id="edge11_Node000001_Node000010" class="edge">
<title>Node1&#45;&gt;Node10</title>
<g id="a_edge11_Node000001_Node000010"><a xlink:title=" ">
<path fill="none" stroke="#63b8ff" d="M488.88,-330.96C437.89,-321.77 351.42,-306.18 294.19,-295.86"/>
<polygon fill="#63b8ff" stroke="#63b8ff" points="294.67,-292.39 284.21,-294.06 293.43,-299.28 294.67,-292.39"/>
</a>
</g>
</g>
<!-- Node15 -->
<g id="Node000015" class="node">
<title>Node15</title>
<g id="a_Node000015"><a xlink:title=" ">
<polygon fill="#e0e0e0" stroke="#999999" points="542.19,-184 495.19,-184 495.19,-165 542.19,-165 542.19,-184"/>
<text text-anchor="middle" x="518.69" y="-172" font-family="Helvetica,sans-Serif" font-size="10.00">vector</text>
</a>
</g>
</g>
<!-- Node1&#45;&gt;Node15 -->
<g id="edge43_Node000001_Node000015" class="edge">
<title>Node1&#45;&gt;Node15</title>
<g id="a_edge43_Node000001_Node000015"><a xlink:title=" ">
<path fill="none" stroke="#63b8ff" d="M526.58,-329.88C522.64,-321.09 516.95,-306.94 514.69,-294 508.62,-259.15 512.5,-217.68 515.71,-194.19"/>
<polygon fill="#63b8ff" stroke="#63b8ff" points="519.19,-194.61 517.19,-184.21 512.27,-193.59 519.19,-194.61"/>
</a>
</g>
</g>
<!-- Node16 -->
<g id="Node000016" class="node">
<title>Node16</title>
<g id="a_Node000016"><a xlink:href="parser_8hpp.html" target="_top" xlink:title=" ">
<polygon fill="white" stroke="#666666" points="610.19,-294 523.19,-294 523.19,-275 610.19,-275 610.19,-294"/>
<text text-anchor="middle" x="566.69" y="-282" font-family="Helvetica,sans-Serif" font-size="10.00">gsc/parser.hpp</text>
</a>
</g>
</g>
<!-- Node1&#45;&gt;Node16 -->
<g id="edge28_Node000001_Node000016" class="edge">
<title>Node1&#45;&gt;Node16</title>
<g id="a_edge28_Node000001_Node000016"><a xlink:title=" ">
<path fill="none" stroke="#63b8ff" d="M536.64,-329.75C541.67,-322.34 549.03,-311.5 555.21,-302.41"/>
<polygon fill="#63b8ff" stroke="#63b8ff" points="558.14,-304.33 560.86,-294.09 552.35,-300.39 558.14,-304.33"/>
</a>
</g>
</g>
<!-- Node17 -->
<g id="Node000017" class="node">
<title>Node17</title>
<g id="a_Node000017"><a xlink:href="scanner_8hpp.html" target="_top" xlink:title=" ">
<polygon fill="white" stroke="#666666" points="428.19,-239 333.19,-239 333.19,-220 428.19,-220 428.19,-239"/>
<text text-anchor="middle" x="380.69" y="-227" font-family="Helvetica,sans-Serif" font-size="10.00">gsc/scanner.hpp</text>
</a>
</g>
</g>
<!-- Node1&#45;&gt;Node17 -->
<g id="edge35_Node000001_Node000017" class="edge">
<title>Node1&#45;&gt;Node17</title>
<g id="a_edge35_Node000001_Node000017"><a xlink:title=" ">
<path fill="none" stroke="#63b8ff" d="M518.67,-329.84C493,-311.36 432.58,-267.86 400.9,-245.05"/>
<polygon fill="#63b8ff" stroke="#63b8ff" points="402.93,-242.2 392.77,-239.2 398.84,-247.88 402.93,-242.2"/>
</a>
</g>
</g>
<!-- Node19 -->
<g id="Node000019" class="node">
<title>Node19</title>
<g id="a_Node000019"><a xlink:title=" ">
<polygon fill="#e0e0e0" stroke="#999999" points="722.19,-294 667.19,-294 667.19,-275 722.19,-275 722.19,-294"/>
<text text-anchor="middle" x="694.69" y="-282" font-family="Helvetica,sans-Serif" font-size="10.00">fstream</text>
</a>
</g>
</g>
<!-- Node1&#45;&gt;Node19 -->
<g id="edge41_Node000001_Node000019" class="edge">
<title>Node1&#45;&gt;Node19</title>
<g id="a_edge41_Node000001_Node000019"><a xlink:title=" ">
<path fill="none" stroke="#63b8ff" d="M557.04,-329.98C584.46,-321.13 627.59,-307.19 658.26,-297.28"/>
<polygon fill="#63b8ff" stroke="#63b8ff" points="659.7,-300.49 668.14,-294.08 657.55,-293.83 659.7,-300.49"/>
</a>
</g>
</g>
<!-- Node20 -->
<g id="Node000020" class="node">
<title>Node20</title>
<g id="a_Node000020"><a xlink:title=" ">
<polygon fill="#e0e0e0" stroke="#999999" points="800.69,-294 740.69,-294 740.69,-275 800.69,-275 800.69,-294"/>
<text text-anchor="middle" x="770.69" y="-282" font-family="Helvetica,sans-Serif" font-size="10.00">iostream</text>
</a>
</g>
</g>
<!-- Node1&#45;&gt;Node20 -->
<g id="edge42_Node000001_Node000020" class="edge">
<title>Node1&#45;&gt;Node20</title>
<g id="a_edge42_Node000001_Node000020"><a xlink:title=" ">
<path fill="none" stroke="#63b8ff" d="M569.25,-329.98C613.51,-320.21 685.74,-304.26 730.62,-294.35"/>
<polygon fill="#63b8ff" stroke="#63b8ff" points="731.58,-297.72 740.59,-292.15 730.07,-290.89 731.58,-297.72"/>
</a>
</g>
</g>
<!-- Node3 -->
<g id="Node000003" class="node">
<title>Node3</title>
<g id="a_Node000003"><a xlink:href="runtimeError_8hpp.html" target="_top" xlink:title=" ">
<polygon fill="white" stroke="#666666" points="754.69,-184 636.69,-184 636.69,-165 754.69,-165 754.69,-184"/>
<text text-anchor="middle" x="695.69" y="-172" font-family="Helvetica,sans-Serif" font-size="10.00">gsc/runtimeError.hpp</text>
</a>
</g>
</g>
<!-- Node2&#45;&gt;Node3 -->
<g id="edge2_Node000002_Node000003" class="edge">
<title>Node2&#45;&gt;Node3</title>
<g id="a_edge2_Node000002_Node000003"><a xlink:title=" ">
<path fill="none" stroke="#63b8ff" d="M817.4,-219.98C793.44,-211.23 755.91,-197.51 728.86,-187.62"/>
<polygon fill="#63b8ff" stroke="#63b8ff" points="730.01,-184.32 719.42,-184.17 727.61,-190.89 730.01,-184.32"/>
</a>
</g>
</g>
<!-- Node6 -->
<g id="Node000006" class="node">
<title>Node6</title>
<g id="a_Node000006"><a xlink:title=" ">
<polygon fill="#e0e0e0" stroke="#999999" points="286.69,-19 242.69,-19 242.69,0 286.69,0 286.69,-19"/>
<text text-anchor="middle" x="264.69" y="-7" font-family="Helvetica,sans-Serif" font-size="10.00">string</text>
</a>
</g>
</g>
<!-- Node2&#45;&gt;Node6 -->
<g id="edge10_Node000002_Node000006" class="edge">
<title>Node2&#45;&gt;Node6</title>
<g id="a_edge10_Node000002_Node000006"><a xlink:title=" ">
<path fill="none" stroke="#63b8ff" d="M838.69,-219.97C833.03,-197.87 814.73,-138.5 775.69,-110 698.05,-53.3 396.54,-22.12 296.88,-13.21"/>
<polygon fill="#63b8ff" stroke="#63b8ff" points="297.07,-9.71 286.81,-12.32 296.46,-16.68 297.07,-9.71"/>
</a>
</g>
</g>
<!-- Node3&#45;&gt;Node4 -->
<g id="edge3_Node000003_Node000004" class="edge">
<title>Node3&#45;&gt;Node4</title>
<g id="a_edge3_Node000003_Node000004"><a xlink:title=" ">
<path fill="none" stroke="#63b8ff" d="M636.67,-167.49C563.9,-159.87 436.2,-145.86 317,-129.13"/>
<polygon fill="#63b8ff" stroke="#63b8ff" points="317.36,-125.64 306.97,-127.71 316.38,-132.57 317.36,-125.64"/>
</a>
</g>
</g>
<!-- Node8 -->
<g id="Node000008" class="node">
<title>Node8</title>
<g id="a_Node000008"><a xlink:title=" ">
<polygon fill="#e0e0e0" stroke="#999999" points="382.69,-129 324.69,-129 324.69,-110 382.69,-110 382.69,-129"/>
<text text-anchor="middle" x="353.69" y="-117" font-family="Helvetica,sans-Serif" font-size="10.00">memory</text>
</a>
</g>
</g>
<!-- Node3&#45;&gt;Node8 -->
<g id="edge8_Node000003_Node000008" class="edge">
<title>Node3&#45;&gt;Node8</title>
<g id="a_edge8_Node000003_Node000008"><a xlink:title=" ">
<path fill="none" stroke="#63b8ff" d="M640.75,-164.98C571.31,-154.22 453.54,-135.97 392.69,-126.54"/>
<polygon fill="#63b8ff" stroke="#63b8ff" points="393.14,-123.07 382.72,-125 392.06,-129.99 393.14,-123.07"/>
</a>
</g>
</g>
<!-- Node9 -->
<g id="Node000009" class="node">
<title>Node9</title>
<g id="a_Node000009"><a xlink:title=" ">
<polygon fill="#e0e0e0" stroke="#999999" points="766.19,-129 701.19,-129 701.19,-110 766.19,-110 766.19,-129"/>
<text text-anchor="middle" x="733.69" y="-117" font-family="Helvetica,sans-Serif" font-size="10.00">stdexcept</text>
</a>
</g>
</g>
<!-- Node3&#45;&gt;Node9 -->
<g id="edge9_Node000003_Node000009" class="edge">
<title>Node3&#45;&gt;Node9</title>
<g id="a_edge9_Node000003_Node000009"><a xlink:title=" ">
<path fill="none" stroke="#63b8ff" d="M701.97,-164.75C707.28,-157.34 715.05,-146.5 721.57,-137.41"/>
<polygon fill="#63b8ff" stroke="#63b8ff" points="724.55,-139.26 727.54,-129.09 718.87,-135.18 724.55,-139.26"/>
</a>
</g>
</g>
<!-- Node5 -->
<g id="Node000005" class="node">
<title>Node5</title>
<g id="a_Node000005"><a xlink:href="tokenType_8hpp.html" target="_top" xlink:title=" ">
<polygon fill="white" stroke="#666666" points="272.19,-74 185.19,-74 185.19,-55 272.19,-55 272.19,-74"/>
<text text-anchor="middle" x="228.69" y="-62" font-family="Helvetica,sans-Serif" font-size="10.00">tokenType.hpp</text>
</a>
</g>
</g>
<!-- Node4&#45;&gt;Node5 -->
<g id="edge4_Node000004_Node000005" class="edge">
<title>Node4&#45;&gt;Node5</title>
<g id="a_edge4_Node000004_Node000005"><a xlink:title=" ">
<path fill="none" stroke="#63b8ff" d="M258.75,-109.75C253.72,-102.34 246.36,-91.5 240.18,-82.41"/>
<polygon fill="#63b8ff" stroke="#63b8ff" points="243.04,-80.39 234.53,-74.09 237.25,-84.33 243.04,-80.39"/>
</a>
</g>
</g>
<!-- Node4&#45;&gt;Node6 -->
<g id="edge7_Node000004_Node000006" class="edge">
<title>Node4&#45;&gt;Node6</title>
<g id="a_edge7_Node000004_Node000006"><a xlink:title=" ">
<path fill="none" stroke="#63b8ff" d="M269.06,-109.91C273.25,-101.14 279.29,-87.01 281.69,-74 284.57,-58.39 279.31,-41 273.9,-28.37"/>
<polygon fill="#63b8ff" stroke="#63b8ff" points="276.92,-26.58 269.49,-19.03 270.59,-29.57 276.92,-26.58"/>
</a>
</g>
</g>
<!-- Node7 -->
<g id="Node000007" class="node">
<title>Node7</title>
<g id="a_Node000007"><a xlink:title=" ">
<polygon fill="#e0e0e0" stroke="#999999" points="128.19,-74 93.19,-74 93.19,-55 128.19,-55 128.19,-74"/>
<text text-anchor="middle" x="110.69" y="-62" font-family="Helvetica,sans-Serif" font-size="10.00">any</text>
</a>
</g>
</g>
<!-- Node4&#45;&gt;Node7 -->
<g id="edge6_Node000004_Node000007" class="edge">
<title>Node4&#45;&gt;Node7</title>
<g id="a_edge6_Node000004_Node000007"><a xlink:title=" ">
<path fill="none" stroke="#63b8ff" d="M239.95,-109.98C212.12,-100.4 167.03,-84.89 138.13,-74.94"/>
<polygon fill="#63b8ff" stroke="#63b8ff" points="139.24,-71.62 128.64,-71.68 136.96,-78.24 139.24,-71.62"/>
</a>
</g>
</g>
<!-- Node5&#45;&gt;Node6 -->
<g id="edge5_Node000005_Node000006" class="edge">
<title>Node5&#45;&gt;Node6</title>
<g id="a_edge5_Node000005_Node000006"><a xlink:title=" ">
<path fill="none" stroke="#63b8ff" d="M234.64,-54.75C239.67,-47.34 247.03,-36.5 253.21,-27.41"/>
<polygon fill="#63b8ff" stroke="#63b8ff" points="256.14,-29.33 258.86,-19.09 250.35,-25.39 256.14,-29.33"/>
</a>
</g>
</g>
<!-- Node11 -->
<g id="Node000011" class="node">
<title>Node11</title>
<g id="a_Node000011"><a xlink:href="environment_8hpp.html" target="_top" xlink:title=" ">
<polygon fill="white" stroke="#666666" points="137.19,-184 18.19,-184 18.19,-165 137.19,-165 137.19,-184"/>
<text text-anchor="middle" x="77.69" y="-172" font-family="Helvetica,sans-Serif" font-size="10.00">gsc/environment.hpp</text>
</a>
</g>
</g>
<!-- Node10&#45;&gt;Node11 -->
<g id="edge12_Node000010_Node000011" class="edge">
<title>Node10&#45;&gt;Node11</title>
<g id="a_edge12_Node000010_Node000011"><a xlink:title=" ">
<path fill="none" stroke="#63b8ff" d="M223.95,-274.84C196.74,-256.36 132.7,-212.86 99.11,-190.05"/>
<polygon fill="#63b8ff" stroke="#63b8ff" points="100.74,-186.92 90.5,-184.2 96.8,-192.71 100.74,-186.92"/>
</a>
</g>
</g>
<!-- Node13 -->
<g id="Node000013" class="node">
<title>Node13</title>
<g id="a_Node000013"><a xlink:href="expr_8hpp.html" target="_top" xlink:title=" ">
<polygon fill="white" stroke="#666666" points="271.69,-184 193.69,-184 193.69,-165 271.69,-165 271.69,-184"/>
<text text-anchor="middle" x="232.69" y="-172" font-family="Helvetica,sans-Serif" font-size="10.00">gsc/expr.hpp</text>
</a>
</g>
</g>
<!-- Node10&#45;&gt;Node13 -->
<g id="edge18_Node000010_Node000013" class="edge">
<title>Node10&#45;&gt;Node13</title>
<g id="a_edge18_Node000010_Node000013"><a xlink:title=" ">
<path fill="none" stroke="#63b8ff" d="M221.57,-274.73C209.88,-266.99 194.58,-254.55 187.69,-239 179.62,-220.76 195.83,-202.43 211,-190.19"/>
<polygon fill="#63b8ff" stroke="#63b8ff" points="213.27,-192.86 219.16,-184.05 209.06,-187.27 213.27,-192.86"/>
</a>
</g>
</g>
<!-- Node14 -->
<g id="Node000014" class="node">
<title>Node14</title>
<g id="a_Node000014"><a xlink:href="stmt_8hpp.html" target="_top" xlink:title=" ">
<polygon fill="white" stroke="#666666" points="276.69,-239 196.69,-239 196.69,-220 276.69,-220 276.69,-239"/>
<text text-anchor="middle" x="236.69" y="-227" font-family="Helvetica,sans-Serif" font-size="10.00">gsc/stmt.hpp</text>
</a>
</g>
</g>
<!-- Node10&#45;&gt;Node14 -->
<g id="edge22_Node000010_Node000014" class="edge">
<title>Node10&#45;&gt;Node14</title>
<g id="a_edge22_Node000010_Node000014"><a xlink:title=" ">
<path fill="none" stroke="#63b8ff" d="M236.69,-274.75C236.69,-267.8 236.69,-257.85 236.69,-249.13"/>
<polygon fill="#63b8ff" stroke="#63b8ff" points="240.19,-249.09 236.69,-239.09 233.19,-249.09 240.19,-249.09"/>
</a>
</g>
</g>
<!-- Node10&#45;&gt;Node15 -->
<g id="edge27_Node000010_Node000015" class="edge">
<title>Node10&#45;&gt;Node15</title>
<g id="a_edge27_Node000010_Node000015"><a xlink:title=" ">
<path fill="none" stroke="#63b8ff" d="M290.86,-278.14C332.58,-272.47 390.84,-261.14 437.69,-239 462.78,-227.15 487.23,-206.32 502.59,-191.76"/>
<polygon fill="#63b8ff" stroke="#63b8ff" points="505.41,-193.89 510.13,-184.41 500.53,-188.88 505.41,-193.89"/>
</a>
</g>
</g>
<!-- Node11&#45;&gt;Node4 -->
<g id="edge13_Node000011_Node000004" class="edge">
<title>Node11&#45;&gt;Node4</title>
<g id="a_edge13_Node000011_Node000004"><a xlink:title=" ">
<path fill="none" stroke="#63b8ff" d="M107.74,-164.98C139.41,-156.01 189.46,-141.82 224.51,-131.89"/>
<polygon fill="#63b8ff" stroke="#63b8ff" points="225.75,-135.18 234.41,-129.08 223.84,-128.44 225.75,-135.18"/>
</a>
</g>
</g>
<!-- Node11&#45;&gt;Node6 -->
<g id="edge17_Node000011_Node000006" class="edge">
<title>Node11&#45;&gt;Node6</title>
<g id="a_edge17_Node000011_Node000006"><a xlink:title=" ">
<path fill="none" stroke="#63b8ff" d="M75.03,-164.83C69.02,-143.41 56.94,-87.41 83.69,-55 102.42,-32.32 185.79,-19.42 232.58,-13.84"/>
<polygon fill="#63b8ff" stroke="#63b8ff" points="232.98,-17.31 242.52,-12.69 232.19,-10.36 232.98,-17.31"/>
</a>
</g>
</g>
<!-- Node11&#45;&gt;Node7 -->
<g id="edge14_Node000011_Node000007" class="edge">
<title>Node11&#45;&gt;Node7</title>
<g id="a_edge14_Node000011_Node000007"><a xlink:title=" ">
<path fill="none" stroke="#63b8ff" d="M80.4,-164.66C85.76,-147.09 97.88,-107.45 105.06,-83.95"/>
<polygon fill="#63b8ff" stroke="#63b8ff" points="108.47,-84.74 108.05,-74.16 101.78,-82.7 108.47,-84.74"/>
</a>
</g>
</g>
<!-- Node11&#45;&gt;Node8 -->
<g id="edge16_Node000011_Node000008" class="edge">
<title>Node11&#45;&gt;Node8</title>
<g id="a_edge16_Node000011_Node000008"><a xlink:title=" ">
<path fill="none" stroke="#63b8ff" d="M126.11,-164.96C172.11,-156.74 243.46,-143.68 314.63,-129.16"/>
<polygon fill="#63b8ff" stroke="#63b8ff" points="315.58,-132.54 324.67,-127.1 314.17,-125.68 315.58,-132.54"/>
</a>
</g>
</g>
<!-- Node12 -->
<g id="Node000012" class="node">
<title>Node12</title>
<g id="a_Node000012"><a xlink:title=" ">
<polygon fill="#e0e0e0" stroke="#999999" points="204.69,-129 166.69,-129 166.69,-110 204.69,-110 204.69,-129"/>
<text text-anchor="middle" x="185.69" y="-117" font-family="Helvetica,sans-Serif" font-size="10.00">map</text>
</a>
</g>
</g>
<!-- Node11&#45;&gt;Node12 -->
<g id="edge15_Node000011_Node000012" class="edge">
<title>Node11&#45;&gt;Node12</title>
<g id="a_edge15_Node000011_Node000012"><a xlink:title=" ">
<path fill="none" stroke="#63b8ff" d="M95.05,-164.98C112.26,-156.54 138.89,-143.47 158.84,-133.68"/>
<polygon fill="#63b8ff" stroke="#63b8ff" points="160.59,-136.72 168.03,-129.17 157.51,-130.43 160.59,-136.72"/>
</a>
</g>
</g>
<!-- Node13&#45;&gt;Node4 -->
<g id="edge19_Node000013_Node000004" class="edge">
<title>Node13&#45;&gt;Node4</title>
<g id="a_edge19_Node000013_Node000004"><a xlink:title=" ">
<path fill="none" stroke="#63b8ff" d="M237.98,-164.75C242.41,-157.42 248.86,-146.73 254.31,-137.7"/>
<polygon fill="#63b8ff" stroke="#63b8ff" points="257.34,-139.46 259.51,-129.09 251.34,-135.84 257.34,-139.46"/>
</a>
</g>
</g>
<!-- Node13&#45;&gt;Node7 -->
<g id="edge20_Node000013_Node000007" class="edge">
<title>Node13&#45;&gt;Node7</title>
<g id="a_edge20_Node000013_Node000007"><a xlink:title=" ">
<path fill="none" stroke="#63b8ff" d="M213.76,-164.92C197.71,-157.05 174.66,-144.32 157.69,-129 142.79,-115.54 129.55,-96.7 120.96,-83.04"/>
<polygon fill="#63b8ff" stroke="#63b8ff" points="123.75,-80.88 115.56,-74.16 117.77,-84.52 123.75,-80.88"/>
</a>
</g>
</g>
<!-- Node13&#45;&gt;Node8 -->
<g id="edge21_Node000013_Node000008" class="edge">
<title>Node13&#45;&gt;Node8</title>
<g id="a_edge21_Node000013_Node000008"><a xlink:title=" ">
<path fill="none" stroke="#63b8ff" d="M252.14,-164.98C271.69,-156.42 302.07,-143.11 324.52,-133.28"/>
<polygon fill="#63b8ff" stroke="#63b8ff" points="326.14,-136.39 333.9,-129.17 323.34,-129.98 326.14,-136.39"/>
</a>
</g>
</g>
<!-- Node14&#45;&gt;Node7 -->
<g id="edge24_Node000014_Node000007" class="edge">
<title>Node14&#45;&gt;Node7</title>
<g id="a_edge24_Node000014_Node000007"><a xlink:title=" ">
<path fill="none" stroke="#63b8ff" d="M196.4,-226.6C137.42,-222.87 32.03,-212.33 8.69,-184 -23.26,-145.21 44.37,-100.54 84.24,-78.79"/>
<polygon fill="#63b8ff" stroke="#63b8ff" points="86.04,-81.8 93.23,-74.01 82.76,-75.61 86.04,-81.8"/>
</a>
</g>
</g>
<!-- Node14&#45;&gt;Node8 -->
<g id="edge25_Node000014_Node000008" class="edge">
<title>Node14&#45;&gt;Node8</title>
<g id="a_edge25_Node000014_Node000008"><a xlink:title=" ">
<path fill="none" stroke="#63b8ff" d="M246.27,-219.66C266.08,-201.38 311.79,-159.18 336.72,-136.17"/>
<polygon fill="#63b8ff" stroke="#63b8ff" points="339.34,-138.51 344.31,-129.16 334.59,-133.37 339.34,-138.51"/>
</a>
</g>
</g>
<!-- Node14&#45;&gt;Node13 -->
<g id="edge23_Node000014_Node000013" class="edge">
<title>Node14&#45;&gt;Node13</title>
<g id="a_edge23_Node000014_Node000013"><a xlink:title=" ">
<path fill="none" stroke="#63b8ff" d="M236.03,-219.75C235.51,-212.8 234.76,-202.85 234.1,-194.13"/>
<polygon fill="#63b8ff" stroke="#63b8ff" points="237.59,-193.8 233.34,-184.09 230.61,-194.32 237.59,-193.8"/>
</a>
</g>
</g>
<!-- Node14&#45;&gt;Node15 -->
<g id="edge26_Node000014_Node000015" class="edge">
<title>Node14&#45;&gt;Node15</title>
<g id="a_edge26_Node000014_Node000015"><a xlink:title=" ">
<path fill="none" stroke="#63b8ff" d="M276.73,-222.43C324.24,-214.99 406.03,-201.46 484.88,-184.26"/>
<polygon fill="#63b8ff" stroke="#63b8ff" points="485.97,-187.61 494.98,-182.03 484.46,-180.77 485.97,-187.61"/>
</a>
</g>
</g>
<!-- Node16&#45;&gt;Node4 -->
<g id="edge31_Node000016_Node000004" class="edge">
<title>Node16&#45;&gt;Node4</title>
<g id="a_edge31_Node000016_Node000004"><a xlink:title=" ">
<path fill="none" stroke="#63b8ff" d="M568.68,-274.89C573.14,-253.12 581.37,-195.44 551.69,-165 516.54,-128.94 382.69,-136.43 316.7,-128.9"/>
<polygon fill="#63b8ff" stroke="#63b8ff" points="317.09,-125.42 306.71,-127.55 316.15,-132.36 317.09,-125.42"/>
</a>
</g>
</g>
<!-- Node16&#45;&gt;Node8 -->
<g id="edge32_Node000016_Node000008" class="edge">
<title>Node16&#45;&gt;Node8</title>
<g id="a_edge32_Node000016_Node000008"><a xlink:title=" ">
<path fill="none" stroke="#63b8ff" d="M571.97,-274.87C584.25,-253.55 611.72,-197.73 584.69,-165 560.84,-136.11 452.51,-125.77 393.06,-122.23"/>
<polygon fill="#63b8ff" stroke="#63b8ff" points="393.09,-118.73 382.91,-121.67 392.7,-125.72 393.09,-118.73"/>
</a>
</g>
</g>
<!-- Node16&#45;&gt;Node9 -->
<g id="edge33_Node000016_Node000009" class="edge">
<title>Node16&#45;&gt;Node9</title>
<g id="a_edge33_Node000016_Node000009"><a xlink:title=" ">
<path fill="none" stroke="#63b8ff" d="M610.26,-275.34C657.43,-263.93 730.37,-238.17 763.69,-184 773.22,-168.52 761.48,-149.54 750.01,-136.38"/>
<polygon fill="#63b8ff" stroke="#63b8ff" points="752.5,-133.91 743.1,-129.02 747.4,-138.71 752.5,-133.91"/>
</a>
</g>
</g>
<!-- Node16&#45;&gt;Node13 -->
<g id="edge29_Node000016_Node000013" class="edge">
<title>Node16&#45;&gt;Node13</title>
<g id="a_edge29_Node000016_Node000013"><a xlink:title=" ">
<path fill="none" stroke="#63b8ff" d="M523.18,-281.01C473.5,-276.93 390.6,-266.32 324.69,-239 296.04,-227.12 267.3,-205.32 249.75,-190.62"/>
<polygon fill="#63b8ff" stroke="#63b8ff" points="251.96,-187.9 242.09,-184.05 247.4,-193.21 251.96,-187.9"/>
</a>
</g>
</g>
<!-- Node16&#45;&gt;Node14 -->
<g id="edge30_Node000016_Node000014" class="edge">
<title>Node16&#45;&gt;Node14</title>
<g id="a_edge30_Node000016_Node000014"><a xlink:title=" ">
<path fill="none" stroke="#63b8ff" d="M522.87,-276.46C461.71,-266.64 351.05,-248.87 286.73,-238.54"/>
<polygon fill="#63b8ff" stroke="#63b8ff" points="287.24,-235.07 276.82,-236.94 286.13,-241.99 287.24,-235.07"/>
</a>
</g>
</g>
<!-- Node16&#45;&gt;Node15 -->
<g id="edge34_Node000016_Node000015" class="edge">
<title>Node16&#45;&gt;Node15</title>
<g id="a_edge34_Node000016_Node000015"><a xlink:title=" ">
<path fill="none" stroke="#63b8ff" d="M562.77,-274.66C554.89,-256.93 537.02,-216.73 526.61,-193.32"/>
<polygon fill="#63b8ff" stroke="#63b8ff" points="529.8,-191.87 522.54,-184.16 523.41,-194.72 529.8,-191.87"/>
</a>
</g>
</g>
<!-- Node17&#45;&gt;Node4 -->
<g id="edge36_Node000017_Node000004" class="edge">
<title>Node17&#45;&gt;Node4</title>
<g id="a_edge36_Node000017_Node000004"><a xlink:title=" ">
<path fill="none" stroke="#63b8ff" d="M371.65,-219.81C358.83,-207.52 334.61,-184.4 313.69,-165 303.27,-155.33 291.47,-144.61 282.07,-136.11"/>
<polygon fill="#63b8ff" stroke="#63b8ff" points="284.28,-133.4 274.51,-129.3 279.6,-138.6 284.28,-133.4"/>
</a>
</g>
</g>
<!-- Node17&#45;&gt;Node12 -->
<g id="edge37_Node000017_Node000012" class="edge">
<title>Node17&#45;&gt;Node12</title>
<g id="a_edge37_Node000017_Node000012"><a xlink:title=" ">
<path fill="none" stroke="#63b8ff" d="M368.38,-219.95C349.8,-207.24 313.33,-182.91 280.69,-165 258.94,-153.06 233.43,-141.23 214.33,-132.76"/>
<polygon fill="#63b8ff" stroke="#63b8ff" points="215.54,-129.47 204.98,-128.67 212.73,-135.89 215.54,-129.47"/>
</a>
</g>
</g>
<!-- Node17&#45;&gt;Node15 -->
<g id="edge39_Node000017_Node000015" class="edge">
<title>Node17&#45;&gt;Node15</title>
<g id="a_edge39_Node000017_Node000015"><a xlink:title=" ">
<path fill="none" stroke="#63b8ff" d="M402.87,-219.98C425.47,-211.3 460.76,-197.75 486.45,-187.88"/>
<polygon fill="#63b8ff" stroke="#63b8ff" points="488.04,-191.02 496.12,-184.17 485.53,-184.49 488.04,-191.02"/>
</a>
</g>
</g>
<!-- Node18 -->
<g id="Node000018" class="node">
<title>Node18</title>
<g id="a_Node000018"><a xlink:title=" ">
<polygon fill="#e0e0e0" stroke="#999999" points="477.19,-184 404.19,-184 404.19,-165 477.19,-165 477.19,-184"/>
<text text-anchor="middle" x="440.69" y="-172" font-family="Helvetica,sans-Serif" font-size="10.00">string_view</text>
</a>
</g>
</g>
<!-- Node17&#45;&gt;Node18 -->
<g id="edge38_Node000017_Node000018" class="edge">
<title>Node17&#45;&gt;Node18</title>
<g id="a_edge38_Node000017_Node000018"><a xlink:title=" ">
<path fill="none" stroke="#63b8ff" d="M390.33,-219.98C399.2,-212.15 412.57,-200.34 423.3,-190.86"/>
<polygon fill="#63b8ff" stroke="#63b8ff" points="425.7,-193.41 430.88,-184.17 421.07,-188.17 425.7,-193.41"/>
</a>
</g>
</g>
</g>
</svg>

<g id="navigator" transform="translate(0 0)" fill="#404254">
  <rect fill="#f2f5e9" fill-opacity="0.5" stroke="#606060" stroke-width=".5" x="0" y="0" width="60" height="60"/>
  <use id="zoomplus" xlink:href="#zoomPlus" x="17" y="9" onmousedown="handleZoom(evt,'in')"/>
  <use id="zoomminus" xlink:href="#zoomMin" x="42" y="9" onmousedown="handleZoom(evt,'out')"/>
  <use id="reset" xlink:href="#resetDef" x="30" y="36" onmousedown="handleReset()"/>
   <use id="arrowup" xlink:href="#arrowUp" x="0" y="0" onmousedown="handlePan(0,-1)"/>
  <use id="arrowright" xlink:href="#arrowRight" x="0" y="0" onmousedown="handlePan(1,0)"/>
  <use id="arrowdown" xlink:href="#arrowDown" x="0" y="0" onmousedown="handlePan(0,1)"/>
  <use id="arrowleft" xlink:href="#arrowLeft" x="0" y="0" onmousedown="handlePan(-1,0)"/>
</g>
<svg viewBox="0 0 15 15" width="100%" height="30px" preserveAspectRatio="xMaxYMin meet">
 <g id="arrow_out" transform="scale(0.3 0.3)">
  <a xlink:href="main_8cpp__incl_org.svg" target="_base">
   <rect id="button" ry="5" rx="5" y="6" x="6" height="38" width="38"
        fill="#f2f5e9" fill-opacity="0.5" stroke="#606060" stroke-width="1.0"/>
   <path id="arrow"
     d="M 11.500037,31.436501 C 11.940474,20.09759 22.043105,11.32322 32.158766,21.979434 L 37.068811,17.246167 C 37.068811,17.246167 37.088388,32 37.088388,32 L 22.160133,31.978069 C 22.160133,31.978069 26.997745,27.140456 26.997745,27.140456 C 18.528582,18.264221 13.291696,25.230495 11.500037,31.436501 z"
     style="fill:#404040;"/>
  </a>
 </g>
</svg>

<style type='text/css'>
<![CDATA[
[data-mouse-over-selected='false'] { opacity: 0.7; }
[data-mouse-over-selected='true']  { opacity: 1.0; }
]]>
</style>
<script type="application/ecmascript"><![CDATA[
document.addEventListener('DOMContentLoaded', (event) => {
  highlightEdges();
  highlightAdjacentNodes();
});
]]></script>
</svg>
