<?xml version="1.0" encoding="UTF-8" standalone="no"?>
<!DOCTYPE svg PUBLIC "-//W3C//DTD SVG 1.1//EN"
 "http://www.w3.org/Graphics/SVG/1.1/DTD/svg11.dtd">
<!-- Generated by graphviz version 2.43.0 (0)
 -->
<!-- Title: test/parserTest.cpp Pages: 1 -->
<svg width="602pt" height="357pt"
 viewBox="0.00 0.00 602.00 357.00" xmlns="http://www.w3.org/2000/svg" xmlns:xlink="http://www.w3.org/1999/xlink">
<g id="graph0" class="graph" transform="scale(1 1) rotate(0) translate(4 353)">
<title>test/parserTest.cpp</title>
<!-- Node1 -->
<g id="Node000001" class="node">
<title>Node1</title>
<g id="a_Node000001"><a xlink:title=" ">
<polygon fill="#999999" stroke="#666666" points="318.5,-349 209.5,-349 209.5,-330 318.5,-330 318.5,-349"/>
<text text-anchor="middle" x="264" y="-337" font-family="Helvetica,sans-Serif" font-size="10.00">test/parserTest.cpp</text>
</a>
</g>
</g>
<!-- Node2 -->
<g id="Node000002" class="node">
<title>Node2</title>
<g id="a_Node000002"><a xlink:href="parser_8hpp.html" target="_top" xlink:title=" ">
<polygon fill="white" stroke="#666666" points="258.5,-294 171.5,-294 171.5,-275 258.5,-275 258.5,-294"/>
<text text-anchor="middle" x="215" y="-282" font-family="Helvetica,sans-Serif" font-size="10.00">gsc/parser.hpp</text>
</a>
</g>
</g>
<!-- Node1&#45;&gt;Node2 -->
<g id="edge1_Node000001_Node000002" class="edge">
<title>Node1&#45;&gt;Node2</title>
<g id="a_edge1_Node000001_Node000002"><a xlink:title=" ">
<path fill="none" stroke="#63b8ff" d="M255.91,-329.75C248.84,-322.11 238.41,-310.82 229.85,-301.56"/>
<polygon fill="#63b8ff" stroke="#63b8ff" points="232.3,-299.06 222.94,-294.09 227.16,-303.81 232.3,-299.06"/>
</a>
</g>
</g>
<!-- Node3 -->
<g id="Node000003" class="node">
<title>Node3</title>
<g id="a_Node000003"><a xlink:href="expr_8hpp.html" target="_top" xlink:title=" ">
<polygon fill="white" stroke="#666666" points="294,-184 216,-184 216,-165 294,-165 294,-184"/>
<text text-anchor="middle" x="255" y="-172" font-family="Helvetica,sans-Serif" font-size="10.00">gsc/expr.hpp</text>
</a>
</g>
</g>
<!-- Node1&#45;&gt;Node3 -->
<g id="edge20_Node000001_Node000003" class="edge">
<title>Node1&#45;&gt;Node3</title>
<g id="a_edge20_Node000001_Node000003"><a xlink:title=" ">
<path fill="none" stroke="#63b8ff" d="M266.06,-329.79C270.39,-310.07 279.48,-260.55 272,-220 270.33,-210.95 266.9,-201.36 263.56,-193.41"/>
<polygon fill="#63b8ff" stroke="#63b8ff" points="266.66,-191.78 259.37,-184.09 260.27,-194.65 266.66,-191.78"/>
</a>
</g>
</g>
<!-- Node8 -->
<g id="Node000008" class="node">
<title>Node8</title>
<g id="a_Node000008"><a xlink:title=" ">
<polygon fill="#e0e0e0" stroke="#999999" points="58,-129 0,-129 0,-110 58,-110 58,-129"/>
<text text-anchor="middle" x="29" y="-117" font-family="Helvetica,sans-Serif" font-size="10.00">memory</text>
</a>
</g>
</g>
<!-- Node1&#45;&gt;Node8 -->
<g id="edge23_Node000001_Node000008" class="edge">
<title>Node1&#45;&gt;Node8</title>
<g id="a_edge23_Node000001_Node000008"><a xlink:title=" ">
<path fill="none" stroke="#63b8ff" d="M209.33,-332.63C152.43,-323.34 65.77,-299.54 23,-239 1.89,-209.12 12.96,-163.65 21.72,-138.62"/>
<polygon fill="#63b8ff" stroke="#63b8ff" points="25,-139.83 25.23,-129.24 18.45,-137.38 25,-139.83"/>
</a>
</g>
</g>
<!-- Node9 -->
<g id="Node000009" class="node">
<title>Node9</title>
<g id="a_Node000009"><a xlink:href="stmt_8hpp.html" target="_top" xlink:title=" ">
<polygon fill="white" stroke="#666666" points="126,-239 46,-239 46,-220 126,-220 126,-239"/>
<text text-anchor="middle" x="86" y="-227" font-family="Helvetica,sans-Serif" font-size="10.00">gsc/stmt.hpp</text>
</a>
</g>
</g>
<!-- Node1&#45;&gt;Node9 -->
<g id="edge21_Node000001_Node000009" class="edge">
<title>Node1&#45;&gt;Node9</title>
<g id="a_edge21_Node000001_Node000009"><a xlink:title=" ">
<path fill="none" stroke="#63b8ff" d="M239.12,-329.92C217.84,-322.07 186.81,-309.34 162,-294 139.54,-280.12 116.68,-260.04 101.98,-246.2"/>
<polygon fill="#63b8ff" stroke="#63b8ff" points="104.35,-243.62 94.71,-239.23 99.5,-248.67 104.35,-243.62"/>
</a>
</g>
</g>
<!-- Node12 -->
<g id="Node000012" class="node">
<title>Node12</title>
<g id="a_Node000012"><a xlink:title=" ">
<polygon fill="#e0e0e0" stroke="#999999" points="515.5,-294 342.5,-294 342.5,-275 515.5,-275 515.5,-294"/>
<text text-anchor="middle" x="429" y="-282" font-family="Helvetica,sans-Serif" font-size="10.00">catch2/catch_amalgamated.hpp</text>
</a>
</g>
</g>
<!-- Node1&#45;&gt;Node12 -->
<g id="edge19_Node000001_Node000012" class="edge">
<title>Node1&#45;&gt;Node12</title>
<g id="a_edge19_Node000001_Node000012"><a xlink:title=" ">
<path fill="none" stroke="#63b8ff" d="M290.51,-329.98C318.21,-321.09 361.86,-307.07 392.74,-297.15"/>
<polygon fill="#63b8ff" stroke="#63b8ff" points="393.83,-300.47 402.28,-294.08 391.69,-293.81 393.83,-300.47"/>
</a>
</g>
</g>
<!-- Node13 -->
<g id="Node000013" class="node">
<title>Node13</title>
<g id="a_Node000013"><a xlink:title=" ">
<polygon fill="#e0e0e0" stroke="#999999" points="594,-294 534,-294 534,-275 594,-275 594,-294"/>
<text text-anchor="middle" x="564" y="-282" font-family="Helvetica,sans-Serif" font-size="10.00">iostream</text>
</a>
</g>
</g>
<!-- Node1&#45;&gt;Node13 -->
<g id="edge22_Node000001_Node000013" class="edge">
<title>Node1&#45;&gt;Node13</title>
<g id="a_edge22_Node000001_Node000013"><a xlink:title=" ">
<path fill="none" stroke="#63b8ff" d="M318.37,-329.97C369.09,-321.85 447.09,-308.93 523.94,-294.13"/>
<polygon fill="#63b8ff" stroke="#63b8ff" points="524.64,-297.56 533.79,-292.23 523.31,-290.69 524.64,-297.56"/>
</a>
</g>
</g>
<!-- Node2&#45;&gt;Node3 -->
<g id="edge2_Node000002_Node000003" class="edge">
<title>Node2&#45;&gt;Node3</title>
<g id="a_edge2_Node000002_Node000003"><a xlink:title=" ">
<path fill="none" stroke="#63b8ff" d="M226.93,-274.8C236.83,-266.77 250.19,-253.87 256,-239 261.58,-224.7 260.8,-207.17 258.92,-194.16"/>
<polygon fill="#63b8ff" stroke="#63b8ff" points="262.32,-193.31 257.12,-184.08 255.43,-194.54 262.32,-193.31"/>
</a>
</g>
</g>
<!-- Node4 -->
<g id="Node000004" class="node">
<title>Node4</title>
<g id="a_Node000004"><a xlink:href="token_8hpp.html" target="_top" xlink:title=" ">
<polygon fill="white" stroke="#666666" points="322.5,-129 257.5,-129 257.5,-110 322.5,-110 322.5,-129"/>
<text text-anchor="middle" x="290" y="-117" font-family="Helvetica,sans-Serif" font-size="10.00">token.hpp</text>
</a>
</g>
</g>
<!-- Node2&#45;&gt;Node4 -->
<g id="edge15_Node000002_Node000004" class="edge">
<title>Node2&#45;&gt;Node4</title>
<g id="a_edge15_Node000002_Node000004"><a xlink:title=" ">
<path fill="none" stroke="#63b8ff" d="M228.93,-274.92C241.32,-266.78 259.39,-253.65 272,-239 290.3,-217.73 295.88,-211.14 303,-184 306.97,-168.86 302.79,-151.43 298.15,-138.67"/>
<polygon fill="#63b8ff" stroke="#63b8ff" points="301.3,-137.15 294.3,-129.2 294.82,-139.78 301.3,-137.15"/>
</a>
</g>
</g>
<!-- Node2&#45;&gt;Node8 -->
<g id="edge16_Node000002_Node000008" class="edge">
<title>Node2&#45;&gt;Node8</title>
<g id="a_edge16_Node000002_Node000008"><a xlink:title=" ">
<path fill="none" stroke="#63b8ff" d="M171.18,-278.44C124.19,-272.05 54.01,-259.34 37,-239 13.49,-210.89 18.76,-164.71 24.19,-139.09"/>
<polygon fill="#63b8ff" stroke="#63b8ff" points="27.64,-139.72 26.52,-129.19 20.82,-138.12 27.64,-139.72"/>
</a>
</g>
</g>
<!-- Node2&#45;&gt;Node9 -->
<g id="edge10_Node000002_Node000009" class="edge">
<title>Node2&#45;&gt;Node9</title>
<g id="a_edge10_Node000002_Node000009"><a xlink:title=" ">
<path fill="none" stroke="#63b8ff" d="M194.27,-274.98C173.24,-266.34 140.45,-252.87 116.46,-243.02"/>
<polygon fill="#63b8ff" stroke="#63b8ff" points="117.68,-239.73 107.1,-239.17 115.02,-246.21 117.68,-239.73"/>
</a>
</g>
</g>
<!-- Node10 -->
<g id="Node000010" class="node">
<title>Node10</title>
<g id="a_Node000010"><a xlink:title=" ">
<polygon fill="#e0e0e0" stroke="#999999" points="176.5,-184 129.5,-184 129.5,-165 176.5,-165 176.5,-184"/>
<text text-anchor="middle" x="153" y="-172" font-family="Helvetica,sans-Serif" font-size="10.00">vector</text>
</a>
</g>
</g>
<!-- Node2&#45;&gt;Node10 -->
<g id="edge18_Node000002_Node000010" class="edge">
<title>Node2&#45;&gt;Node10</title>
<g id="a_edge18_Node000002_Node000010"><a xlink:title=" ">
<path fill="none" stroke="#63b8ff" d="M204.62,-274.98C195.15,-266.69 181.39,-253.29 173,-239 164.77,-224.98 159.55,-207.2 156.51,-194.03"/>
<polygon fill="#63b8ff" stroke="#63b8ff" points="159.93,-193.29 154.46,-184.22 153.08,-194.73 159.93,-193.29"/>
</a>
</g>
</g>
<!-- Node11 -->
<g id="Node000011" class="node">
<title>Node11</title>
<g id="a_Node000011"><a xlink:title=" ">
<polygon fill="#e0e0e0" stroke="#999999" points="247.5,-239 182.5,-239 182.5,-220 247.5,-220 247.5,-239"/>
<text text-anchor="middle" x="215" y="-227" font-family="Helvetica,sans-Serif" font-size="10.00">stdexcept</text>
</a>
</g>
</g>
<!-- Node2&#45;&gt;Node11 -->
<g id="edge17_Node000002_Node000011" class="edge">
<title>Node2&#45;&gt;Node11</title>
<g id="a_edge17_Node000002_Node000011"><a xlink:title=" ">
<path fill="none" stroke="#63b8ff" d="M215,-274.75C215,-267.8 215,-257.85 215,-249.13"/>
<polygon fill="#63b8ff" stroke="#63b8ff" points="218.5,-249.09 215,-239.09 211.5,-249.09 218.5,-249.09"/>
</a>
</g>
</g>
<!-- Node3&#45;&gt;Node4 -->
<g id="edge3_Node000003_Node000004" class="edge">
<title>Node3&#45;&gt;Node4</title>
<g id="a_edge3_Node000003_Node000004"><a xlink:title=" ">
<path fill="none" stroke="#63b8ff" d="M260.78,-164.75C265.62,-157.42 272.68,-146.73 278.64,-137.7"/>
<polygon fill="#63b8ff" stroke="#63b8ff" points="281.74,-139.36 284.33,-129.09 275.9,-135.5 281.74,-139.36"/>
</a>
</g>
</g>
<!-- Node7 -->
<g id="Node000007" class="node">
<title>Node7</title>
<g id="a_Node000007"><a xlink:title=" ">
<polygon fill="#e0e0e0" stroke="#999999" points="228.5,-74 193.5,-74 193.5,-55 228.5,-55 228.5,-74"/>
<text text-anchor="middle" x="211" y="-62" font-family="Helvetica,sans-Serif" font-size="10.00">any</text>
</a>
</g>
</g>
<!-- Node3&#45;&gt;Node7 -->
<g id="edge8_Node000003_Node000007" class="edge">
<title>Node3&#45;&gt;Node7</title>
<g id="a_edge8_Node000003_Node000007"><a xlink:title=" ">
<path fill="none" stroke="#63b8ff" d="M251.4,-164.66C244.21,-147.01 227.94,-107.09 218.39,-83.64"/>
<polygon fill="#63b8ff" stroke="#63b8ff" points="221.54,-82.1 214.53,-74.16 215.06,-84.74 221.54,-82.1"/>
</a>
</g>
</g>
<!-- Node3&#45;&gt;Node8 -->
<g id="edge9_Node000003_Node000008" class="edge">
<title>Node3&#45;&gt;Node8</title>
<g id="a_edge9_Node000003_Node000008"><a xlink:title=" ">
<path fill="none" stroke="#63b8ff" d="M218.69,-164.98C177.42,-155.31 110.32,-139.57 67.98,-129.64"/>
<polygon fill="#63b8ff" stroke="#63b8ff" points="68.57,-126.19 58.04,-127.31 66.97,-133 68.57,-126.19"/>
</a>
</g>
</g>
<!-- Node5 -->
<g id="Node000005" class="node">
<title>Node5</title>
<g id="a_Node000005"><a xlink:href="tokenType_8hpp.html" target="_top" xlink:title=" ">
<polygon fill="white" stroke="#666666" points="333.5,-74 246.5,-74 246.5,-55 333.5,-55 333.5,-74"/>
<text text-anchor="middle" x="290" y="-62" font-family="Helvetica,sans-Serif" font-size="10.00">tokenType.hpp</text>
</a>
</g>
</g>
<!-- Node4&#45;&gt;Node5 -->
<g id="edge4_Node000004_Node000005" class="edge">
<title>Node4&#45;&gt;Node5</title>
<g id="a_edge4_Node000004_Node000005"><a xlink:title=" ">
<path fill="none" stroke="#63b8ff" d="M290,-109.75C290,-102.8 290,-92.85 290,-84.13"/>
<polygon fill="#63b8ff" stroke="#63b8ff" points="293.5,-84.09 290,-74.09 286.5,-84.09 293.5,-84.09"/>
</a>
</g>
</g>
<!-- Node6 -->
<g id="Node000006" class="node">
<title>Node6</title>
<g id="a_Node000006"><a xlink:title=" ">
<polygon fill="#e0e0e0" stroke="#999999" points="348,-19 304,-19 304,0 348,0 348,-19"/>
<text text-anchor="middle" x="326" y="-7" font-family="Helvetica,sans-Serif" font-size="10.00">string</text>
</a>
</g>
</g>
<!-- Node4&#45;&gt;Node6 -->
<g id="edge7_Node000004_Node000006" class="edge">
<title>Node4&#45;&gt;Node6</title>
<g id="a_edge7_Node000004_Node000006"><a xlink:title=" ">
<path fill="none" stroke="#63b8ff" d="M306.03,-109.95C318.41,-102.35 334.65,-89.97 342,-74 348.82,-59.19 342.97,-41.04 336.52,-27.94"/>
<polygon fill="#63b8ff" stroke="#63b8ff" points="339.52,-26.15 331.66,-19.05 333.38,-29.51 339.52,-26.15"/>
</a>
</g>
</g>
<!-- Node4&#45;&gt;Node7 -->
<g id="edge6_Node000004_Node000007" class="edge">
<title>Node4&#45;&gt;Node7</title>
<g id="a_edge6_Node000004_Node000007"><a xlink:title=" ">
<path fill="none" stroke="#63b8ff" d="M277.31,-109.98C265.17,-101.84 246.64,-89.41 232.25,-79.76"/>
<polygon fill="#63b8ff" stroke="#63b8ff" points="234.18,-76.84 223.92,-74.17 230.28,-82.65 234.18,-76.84"/>
</a>
</g>
</g>
<!-- Node5&#45;&gt;Node6 -->
<g id="edge5_Node000005_Node000006" class="edge">
<title>Node5&#45;&gt;Node6</title>
<g id="a_edge5_Node000005_Node000006"><a xlink:title=" ">
<path fill="none" stroke="#63b8ff" d="M295.94,-54.75C300.98,-47.34 308.34,-36.5 314.51,-27.41"/>
<polygon fill="#63b8ff" stroke="#63b8ff" points="317.44,-29.33 320.17,-19.09 311.65,-25.39 317.44,-29.33"/>
</a>
</g>
</g>
<!-- Node9&#45;&gt;Node3 -->
<g id="edge11_Node000009_Node000003" class="edge">
<title>Node9&#45;&gt;Node3</title>
<g id="a_edge11_Node000009_Node000003"><a xlink:title=" ">
<path fill="none" stroke="#63b8ff" d="M113.15,-219.98C141.53,-211.09 186.23,-197.07 217.86,-187.15"/>
<polygon fill="#63b8ff" stroke="#63b8ff" points="219.14,-190.41 227.63,-184.08 217.05,-183.73 219.14,-190.41"/>
</a>
</g>
</g>
<!-- Node9&#45;&gt;Node7 -->
<g id="edge12_Node000009_Node000007" class="edge">
<title>Node9&#45;&gt;Node7</title>
<g id="a_edge12_Node000009_Node000007"><a xlink:title=" ">
<path fill="none" stroke="#63b8ff" d="M89.77,-219.89C95.47,-207.3 106.99,-183.37 120,-165 142.73,-132.91 174.82,-100.08 194.19,-81.31"/>
<polygon fill="#63b8ff" stroke="#63b8ff" points="196.85,-83.61 201.65,-74.17 192.01,-78.56 196.85,-83.61"/>
</a>
</g>
</g>
<!-- Node9&#45;&gt;Node8 -->
<g id="edge13_Node000009_Node000008" class="edge">
<title>Node9&#45;&gt;Node8</title>
<g id="a_edge13_Node000009_Node000008"><a xlink:title=" ">
<path fill="none" stroke="#63b8ff" d="M81.34,-219.66C71.94,-201.85 50.57,-161.37 38.24,-138.01"/>
<polygon fill="#63b8ff" stroke="#63b8ff" points="41.33,-136.37 33.57,-129.16 35.14,-139.64 41.33,-136.37"/>
</a>
</g>
</g>
<!-- Node9&#45;&gt;Node10 -->
<g id="edge14_Node000009_Node000010" class="edge">
<title>Node9&#45;&gt;Node10</title>
<g id="a_edge14_Node000009_Node000010"><a xlink:title=" ">
<path fill="none" stroke="#63b8ff" d="M96.76,-219.98C106.77,-212.07 121.89,-200.11 133.93,-190.58"/>
<polygon fill="#63b8ff" stroke="#63b8ff" points="136.37,-193.12 142.04,-184.17 132.03,-187.63 136.37,-193.12"/>
</a>
</g>
</g>
</g>
</svg>
