<?xml version="1.0" encoding="UTF-8" standalone="no"?>
<!DOCTYPE svg PUBLIC "-//W3C//DTD SVG 1.1//EN"
 "http://www.w3.org/Graphics/SVG/1.1/DTD/svg11.dtd">
<!-- Generated by graphviz version 2.43.0 (0)
 -->
<!-- Title: lib/gsc/parser.hpp Pages: 1 -->
<svg width="423pt" height="302pt"
 viewBox="0.00 0.00 422.50 302.00" xmlns="http://www.w3.org/2000/svg" xmlns:xlink="http://www.w3.org/1999/xlink">

<svg id="main" version="1.1" xmlns="http://www.w3.org/2000/svg" xmlns:xlink="http://www.w3.org/1999/xlink" xml:space="preserve" onload="init(evt)">
<style type="text/css"><![CDATA[
.node, .edge {opacity: 0.7;}
.node.selected, .edge.selected {opacity: 1;}
.edge:hover path { stroke: red; }
.edge:hover polygon { stroke: red; fill: red; }
]]></style>
<script type="application/ecmascript" xlink:href="svg.min.js"/>
<svg id="graph" class="graph">
<g id="graph0" class="graph" transform="scale(1 1) rotate(0) translate(4 298)">
<title>lib/gsc/parser.hpp</title>
<!-- Node1 -->
<g id="Node000001" class="node">
<title>Node1</title>
<g id="a_Node000001"><a xlink:title=" ">
<polygon fill="#999999" stroke="#666666" points="286,-294 184,-294 184,-275 286,-275 286,-294"/>
<text text-anchor="middle" x="235" y="-282" font-family="Helvetica,sans-Serif" font-size="10.00">lib/gsc/parser.hpp</text>
</a>
</g>
</g>
<!-- Node2 -->
<g id="Node000002" class="node">
<title>Node2</title>
<g id="a_Node000002"><a xlink:href="expr_8hpp.html" target="_top" xlink:title=" ">
<polygon fill="white" stroke="#666666" points="151,-184 73,-184 73,-165 151,-165 151,-184"/>
<text text-anchor="middle" x="112" y="-172" font-family="Helvetica,sans-Serif" font-size="10.00">gsc/expr.hpp</text>
</a>
</g>
</g>
<!-- Node1&#45;&gt;Node2 -->
<g id="edge1_Node000001_Node000002" class="edge">
<title>Node1&#45;&gt;Node2</title>
<g id="a_edge1_Node000001_Node000002"><a xlink:title=" ">
<path fill="none" stroke="#63b8ff" d="M211.87,-274.93C194,-267.46 169.46,-255.28 152,-239 138.18,-226.11 127.18,-207.45 120.24,-193.69"/>
<polygon fill="#63b8ff" stroke="#63b8ff" points="123.22,-191.81 115.75,-184.3 116.91,-194.83 123.22,-191.81"/>
</a>
</g>
</g>
<!-- Node3 -->
<g id="Node000003" class="node">
<title>Node3</title>
<g id="a_Node000003"><a xlink:href="token_8hpp.html" target="_top" xlink:title=" ">
<polygon fill="white" stroke="#666666" points="90.5,-129 25.5,-129 25.5,-110 90.5,-110 90.5,-129"/>
<text text-anchor="middle" x="58" y="-117" font-family="Helvetica,sans-Serif" font-size="10.00">token.hpp</text>
</a>
</g>
</g>
<!-- Node1&#45;&gt;Node3 -->
<g id="edge14_Node000001_Node000003" class="edge">
<title>Node1&#45;&gt;Node3</title>
<g id="a_edge14_Node000001_Node000003"><a xlink:title=" ">
<path fill="none" stroke="#63b8ff" d="M200.21,-274.96C158.86,-262.7 91.95,-235.66 64,-184 56.66,-170.44 55.53,-152.85 56.03,-139.62"/>
<polygon fill="#63b8ff" stroke="#63b8ff" points="59.54,-139.56 56.76,-129.33 52.56,-139.06 59.54,-139.56"/>
</a>
</g>
</g>
<!-- Node7 -->
<g id="Node000007" class="node">
<title>Node7</title>
<g id="a_Node000007"><a xlink:title=" ">
<polygon fill="#e0e0e0" stroke="#999999" points="265,-129 207,-129 207,-110 265,-110 265,-129"/>
<text text-anchor="middle" x="236" y="-117" font-family="Helvetica,sans-Serif" font-size="10.00">memory</text>
</a>
</g>
</g>
<!-- Node1&#45;&gt;Node7 -->
<g id="edge15_Node000001_Node000007" class="edge">
<title>Node1&#45;&gt;Node7</title>
<g id="a_edge15_Node000001_Node000007"><a xlink:title=" ">
<path fill="none" stroke="#63b8ff" d="M243.57,-274.89C258.93,-258.74 290.63,-222.12 302,-184 304.41,-175.91 305.97,-172.46 302,-165 294.69,-151.25 281.03,-140.99 268.03,-133.8"/>
<polygon fill="#63b8ff" stroke="#63b8ff" points="269.28,-130.51 258.78,-129.11 266.11,-136.75 269.28,-130.51"/>
</a>
</g>
</g>
<!-- Node8 -->
<g id="Node000008" class="node">
<title>Node8</title>
<g id="a_Node000008"><a xlink:href="stmt_8hpp.html" target="_top" xlink:title=" ">
<polygon fill="white" stroke="#666666" points="241,-239 161,-239 161,-220 241,-220 241,-239"/>
<text text-anchor="middle" x="201" y="-227" font-family="Helvetica,sans-Serif" font-size="10.00">gsc/stmt.hpp</text>
</a>
</g>
</g>
<!-- Node1&#45;&gt;Node8 -->
<g id="edge9_Node000001_Node000008" class="edge">
<title>Node1&#45;&gt;Node8</title>
<g id="a_edge9_Node000001_Node000008"><a xlink:title=" ">
<path fill="none" stroke="#63b8ff" d="M229.39,-274.75C224.68,-267.42 217.83,-256.73 212.03,-247.7"/>
<polygon fill="#63b8ff" stroke="#63b8ff" points="214.86,-245.62 206.51,-239.09 208.96,-249.4 214.86,-245.62"/>
</a>
</g>
</g>
<!-- Node9 -->
<g id="Node000009" class="node">
<title>Node9</title>
<g id="a_Node000009"><a xlink:title=" ">
<polygon fill="#e0e0e0" stroke="#999999" points="292.5,-184 245.5,-184 245.5,-165 292.5,-165 292.5,-184"/>
<text text-anchor="middle" x="269" y="-172" font-family="Helvetica,sans-Serif" font-size="10.00">vector</text>
</a>
</g>
</g>
<!-- Node1&#45;&gt;Node9 -->
<g id="edge17_Node000001_Node000009" class="edge">
<title>Node1&#45;&gt;Node9</title>
<g id="a_edge17_Node000001_Node000009"><a xlink:title=" ">
<path fill="none" stroke="#63b8ff" d="M237.96,-275C241.05,-266.06 246,-251.59 250,-239 254.8,-223.9 259.93,-206.68 263.65,-193.98"/>
<polygon fill="#63b8ff" stroke="#63b8ff" points="267.08,-194.74 266.51,-184.16 260.36,-192.78 267.08,-194.74"/>
</a>
</g>
</g>
<!-- Node10 -->
<g id="Node000010" class="node">
<title>Node10</title>
<g id="a_Node000010"><a xlink:title=" ">
<polygon fill="#e0e0e0" stroke="#999999" points="414.5,-239 349.5,-239 349.5,-220 414.5,-220 414.5,-239"/>
<text text-anchor="middle" x="382" y="-227" font-family="Helvetica,sans-Serif" font-size="10.00">stdexcept</text>
</a>
</g>
</g>
<!-- Node1&#45;&gt;Node10 -->
<g id="edge16_Node000001_Node000010" class="edge">
<title>Node1&#45;&gt;Node10</title>
<g id="a_edge16_Node000001_Node000010"><a xlink:title=" ">
<path fill="none" stroke="#63b8ff" d="M258.62,-274.98C282.9,-266.23 320.95,-252.51 348.37,-242.62"/>
<polygon fill="#63b8ff" stroke="#63b8ff" points="349.73,-245.85 357.95,-239.17 347.36,-239.27 349.73,-245.85"/>
</a>
</g>
</g>
<!-- Node2&#45;&gt;Node3 -->
<g id="edge2_Node000002_Node000003" class="edge">
<title>Node2&#45;&gt;Node3</title>
<g id="a_edge2_Node000002_Node000003"><a xlink:title=" ">
<path fill="none" stroke="#63b8ff" d="M103.08,-164.75C95.22,-157.03 83.57,-145.6 74.08,-136.28"/>
<polygon fill="#63b8ff" stroke="#63b8ff" points="76.34,-133.6 66.75,-129.09 71.44,-138.59 76.34,-133.6"/>
</a>
</g>
</g>
<!-- Node6 -->
<g id="Node000006" class="node">
<title>Node6</title>
<g id="a_Node000006"><a xlink:title=" ">
<polygon fill="#e0e0e0" stroke="#999999" points="154.5,-74 119.5,-74 119.5,-55 154.5,-55 154.5,-74"/>
<text text-anchor="middle" x="137" y="-62" font-family="Helvetica,sans-Serif" font-size="10.00">any</text>
</a>
</g>
</g>
<!-- Node2&#45;&gt;Node6 -->
<g id="edge7_Node000002_Node000006" class="edge">
<title>Node2&#45;&gt;Node6</title>
<g id="a_edge7_Node000002_Node000006"><a xlink:title=" ">
<path fill="none" stroke="#63b8ff" d="M114.05,-164.66C118.11,-147.09 127.29,-107.45 132.73,-83.95"/>
<polygon fill="#63b8ff" stroke="#63b8ff" points="136.15,-84.69 135,-74.16 129.33,-83.11 136.15,-84.69"/>
</a>
</g>
</g>
<!-- Node2&#45;&gt;Node7 -->
<g id="edge8_Node000002_Node000007" class="edge">
<title>Node2&#45;&gt;Node7</title>
<g id="a_edge8_Node000002_Node000007"><a xlink:title=" ">
<path fill="none" stroke="#63b8ff" d="M131.92,-164.98C152.05,-156.38 183.38,-142.99 206.41,-133.15"/>
<polygon fill="#63b8ff" stroke="#63b8ff" points="207.9,-136.32 215.71,-129.17 205.14,-129.88 207.9,-136.32"/>
</a>
</g>
</g>
<!-- Node4 -->
<g id="Node000004" class="node">
<title>Node4</title>
<g id="a_Node000004"><a xlink:href="tokenType_8hpp.html" target="_top" xlink:title=" ">
<polygon fill="white" stroke="#666666" points="101.5,-74 14.5,-74 14.5,-55 101.5,-55 101.5,-74"/>
<text text-anchor="middle" x="58" y="-62" font-family="Helvetica,sans-Serif" font-size="10.00">tokenType.hpp</text>
</a>
</g>
</g>
<!-- Node3&#45;&gt;Node4 -->
<g id="edge3_Node000003_Node000004" class="edge">
<title>Node3&#45;&gt;Node4</title>
<g id="a_edge3_Node000003_Node000004"><a xlink:title=" ">
<path fill="none" stroke="#63b8ff" d="M58,-109.75C58,-102.8 58,-92.85 58,-84.13"/>
<polygon fill="#63b8ff" stroke="#63b8ff" points="61.5,-84.09 58,-74.09 54.5,-84.09 61.5,-84.09"/>
</a>
</g>
</g>
<!-- Node5 -->
<g id="Node000005" class="node">
<title>Node5</title>
<g id="a_Node000005"><a xlink:title=" ">
<polygon fill="#e0e0e0" stroke="#999999" points="44,-19 0,-19 0,0 44,0 44,-19"/>
<text text-anchor="middle" x="22" y="-7" font-family="Helvetica,sans-Serif" font-size="10.00">string</text>
</a>
</g>
</g>
<!-- Node3&#45;&gt;Node5 -->
<g id="edge6_Node000003_Node000005" class="edge">
<title>Node3&#45;&gt;Node5</title>
<g id="a_edge6_Node000003_Node000005"><a xlink:title=" ">
<path fill="none" stroke="#63b8ff" d="M41.42,-109.87C28.83,-102.3 12.46,-90.01 5,-74 -1.92,-59.16 4.26,-41.02 11.02,-27.93"/>
<polygon fill="#63b8ff" stroke="#63b8ff" points="14.17,-29.46 16.1,-19.04 8.1,-25.99 14.17,-29.46"/>
</a>
</g>
</g>
<!-- Node3&#45;&gt;Node6 -->
<g id="edge5_Node000003_Node000006" class="edge">
<title>Node3&#45;&gt;Node6</title>
<g id="a_edge5_Node000003_Node000006"><a xlink:title=" ">
<path fill="none" stroke="#63b8ff" d="M70.69,-109.98C82.83,-101.84 101.36,-89.41 115.75,-79.76"/>
<polygon fill="#63b8ff" stroke="#63b8ff" points="117.72,-82.65 124.08,-74.17 113.82,-76.84 117.72,-82.65"/>
</a>
</g>
</g>
<!-- Node4&#45;&gt;Node5 -->
<g id="edge4_Node000004_Node000005" class="edge">
<title>Node4&#45;&gt;Node5</title>
<g id="a_edge4_Node000004_Node000005"><a xlink:title=" ">
<path fill="none" stroke="#63b8ff" d="M52.06,-54.75C47.02,-47.34 39.66,-36.5 33.49,-27.41"/>
<polygon fill="#63b8ff" stroke="#63b8ff" points="36.35,-25.39 27.83,-19.09 30.56,-29.33 36.35,-25.39"/>
</a>
</g>
</g>
<!-- Node8&#45;&gt;Node2 -->
<g id="edge10_Node000008_Node000002" class="edge">
<title>Node8&#45;&gt;Node2</title>
<g id="a_edge10_Node000008_Node000002"><a xlink:title=" ">
<path fill="none" stroke="#63b8ff" d="M186.7,-219.98C172.9,-211.77 151.76,-199.18 135.49,-189.49"/>
<polygon fill="#63b8ff" stroke="#63b8ff" points="136.94,-186.28 126.56,-184.17 133.36,-192.29 136.94,-186.28"/>
</a>
</g>
</g>
<!-- Node8&#45;&gt;Node6 -->
<g id="edge11_Node000008_Node000006" class="edge">
<title>Node8&#45;&gt;Node6</title>
<g id="a_edge11_Node000008_Node000006"><a xlink:title=" ">
<path fill="none" stroke="#63b8ff" d="M197.56,-219.74C187.49,-194.09 157.92,-118.78 144.18,-83.78"/>
<polygon fill="#63b8ff" stroke="#63b8ff" points="147.37,-82.34 140.46,-74.31 140.85,-84.89 147.37,-82.34"/>
</a>
</g>
</g>
<!-- Node8&#45;&gt;Node7 -->
<g id="edge12_Node000008_Node000007" class="edge">
<title>Node8&#45;&gt;Node7</title>
<g id="a_edge12_Node000008_Node000007"><a xlink:title=" ">
<path fill="none" stroke="#63b8ff" d="M203.86,-219.66C209.56,-202.09 222.41,-162.45 230.02,-138.95"/>
<polygon fill="#63b8ff" stroke="#63b8ff" points="233.44,-139.75 233.19,-129.16 226.78,-137.59 233.44,-139.75"/>
</a>
</g>
</g>
<!-- Node8&#45;&gt;Node9 -->
<g id="edge13_Node000008_Node000009" class="edge">
<title>Node8&#45;&gt;Node9</title>
<g id="a_edge13_Node000008_Node000009"><a xlink:title=" ">
<path fill="none" stroke="#63b8ff" d="M211.93,-219.98C222.08,-212.07 237.42,-200.11 249.65,-190.58"/>
<polygon fill="#63b8ff" stroke="#63b8ff" points="252.14,-193.08 257.88,-184.17 247.84,-187.56 252.14,-193.08"/>
</a>
</g>
</g>
</g>
</svg>
</svg>

<style type='text/css'>
<![CDATA[
[data-mouse-over-selected='false'] { opacity: 0.7; }
[data-mouse-over-selected='true']  { opacity: 1.0; }
]]>
</style>
<script type="application/ecmascript"><![CDATA[
document.addEventListener('DOMContentLoaded', (event) => {
  highlightEdges();
  highlightAdjacentNodes();
});
]]></script>
</svg>
