<?xml version="1.0" encoding="UTF-8" standalone="no"?>
<!DOCTYPE svg PUBLIC "-//W3C//DTD SVG 1.1//EN"
 "http://www.w3.org/Graphics/SVG/1.1/DTD/svg11.dtd">
<!-- Generated by graphviz version 2.43.0 (0)
 -->
<!-- Title: src/parser.cpp Pages: 1 -->
<svg width="504pt" height="357pt"
 viewBox="0.00 0.00 503.76 357.00" xmlns="http://www.w3.org/2000/svg" xmlns:xlink="http://www.w3.org/1999/xlink">
<g id="graph0" class="graph" transform="scale(1 1) rotate(0) translate(4 353)">
<title>src/parser.cpp</title>
<!-- Node1 -->
<g id="Node000001" class="node">
<title>Node1</title>
<g id="a_Node000001"><a xlink:title=" ">
<polygon fill="#999999" stroke="#666666" points="387.76,-349 303.76,-349 303.76,-330 387.76,-330 387.76,-349"/>
<text text-anchor="middle" x="345.76" y="-337" font-family="Helvetica,sans-Serif" font-size="10.00">src/parser.cpp</text>
</a>
</g>
</g>
<!-- Node2 -->
<g id="Node000002" class="node">
<title>Node2</title>
<g id="a_Node000002"><a xlink:href="parser_8hpp.html" target="_top" xlink:title=" ">
<polygon fill="white" stroke="#666666" points="208.26,-294 121.26,-294 121.26,-275 208.26,-275 208.26,-294"/>
<text text-anchor="middle" x="164.76" y="-282" font-family="Helvetica,sans-Serif" font-size="10.00">gsc/parser.hpp</text>
</a>
</g>
</g>
<!-- Node1&#45;&gt;Node2 -->
<g id="edge1_Node000001_Node000002" class="edge">
<title>Node1&#45;&gt;Node2</title>
<g id="a_edge1_Node000001_Node000002"><a xlink:title=" ">
<path fill="none" stroke="#63b8ff" d="M316.68,-329.98C286.16,-321.05 238,-306.94 204.1,-297.02"/>
<polygon fill="#63b8ff" stroke="#63b8ff" points="204.65,-293.53 194.07,-294.08 202.68,-300.25 204.65,-293.53"/>
</a>
</g>
</g>
<!-- Node12 -->
<g id="Node000012" class="node">
<title>Node12</title>
<g id="a_Node000012"><a xlink:href="error_8hpp.html" target="_top" xlink:title=" ">
<polygon fill="white" stroke="#666666" points="495.76,-239 415.76,-239 415.76,-220 495.76,-220 495.76,-239"/>
<text text-anchor="middle" x="455.76" y="-227" font-family="Helvetica,sans-Serif" font-size="10.00">gsc/error.hpp</text>
</a>
</g>
</g>
<!-- Node1&#45;&gt;Node12 -->
<g id="edge19_Node000001_Node000012" class="edge">
<title>Node1&#45;&gt;Node12</title>
<g id="a_edge19_Node000001_Node000012"><a xlink:title=" ">
<path fill="none" stroke="#63b8ff" d="M346.21,-329.65C347.33,-316.33 351.22,-290.97 364.76,-275 377.53,-259.95 396.59,-249.54 413.97,-242.6"/>
<polygon fill="#63b8ff" stroke="#63b8ff" points="415.25,-245.86 423.4,-239.09 412.81,-239.3 415.25,-245.86"/>
</a>
</g>
</g>
<!-- Node14 -->
<g id="Node000014" class="node">
<title>Node14</title>
<g id="a_Node000014"><a xlink:title=" ">
<polygon fill="#e0e0e0" stroke="#999999" points="425.76,-294 373.76,-294 373.76,-275 425.76,-275 425.76,-294"/>
<text text-anchor="middle" x="399.76" y="-282" font-family="Helvetica,sans-Serif" font-size="10.00">cassert</text>
</a>
</g>
</g>
<!-- Node1&#45;&gt;Node14 -->
<g id="edge25_Node000001_Node000014" class="edge">
<title>Node1&#45;&gt;Node14</title>
<g id="a_edge25_Node000001_Node000014"><a xlink:title=" ">
<path fill="none" stroke="#63b8ff" d="M354.68,-329.75C362.54,-322.03 374.19,-310.6 383.68,-301.28"/>
<polygon fill="#63b8ff" stroke="#63b8ff" points="386.33,-303.59 391.01,-294.09 381.42,-298.6 386.33,-303.59"/>
</a>
</g>
</g>
<!-- Node3 -->
<g id="Node000003" class="node">
<title>Node3</title>
<g id="a_Node000003"><a xlink:href="expr_8hpp.html" target="_top" xlink:title=" ">
<polygon fill="white" stroke="#666666" points="193.76,-184 115.76,-184 115.76,-165 193.76,-165 193.76,-184"/>
<text text-anchor="middle" x="154.76" y="-172" font-family="Helvetica,sans-Serif" font-size="10.00">gsc/expr.hpp</text>
</a>
</g>
</g>
<!-- Node2&#45;&gt;Node3 -->
<g id="edge2_Node000002_Node000003" class="edge">
<title>Node2&#45;&gt;Node3</title>
<g id="a_edge2_Node000002_Node000003"><a xlink:title=" ">
<path fill="none" stroke="#63b8ff" d="M163.94,-274.66C162.32,-257.17 158.68,-217.8 156.5,-194.27"/>
<polygon fill="#63b8ff" stroke="#63b8ff" points="159.97,-193.79 155.56,-184.16 153,-194.44 159.97,-193.79"/>
</a>
</g>
</g>
<!-- Node4 -->
<g id="Node000004" class="node">
<title>Node4</title>
<g id="a_Node000004"><a xlink:href="token_8hpp.html" target="_top" xlink:title=" ">
<polygon fill="white" stroke="#666666" points="257.26,-129 192.26,-129 192.26,-110 257.26,-110 257.26,-129"/>
<text text-anchor="middle" x="224.76" y="-117" font-family="Helvetica,sans-Serif" font-size="10.00">token.hpp</text>
</a>
</g>
</g>
<!-- Node2&#45;&gt;Node4 -->
<g id="edge15_Node000002_Node000004" class="edge">
<title>Node2&#45;&gt;Node4</title>
<g id="a_edge15_Node000002_Node000004"><a xlink:title=" ">
<path fill="none" stroke="#63b8ff" d="M168.21,-274.75C174.99,-257.47 190.49,-217.71 202.76,-184 208.26,-168.91 214.2,-151.68 218.53,-138.98"/>
<polygon fill="#63b8ff" stroke="#63b8ff" points="221.96,-139.75 221.86,-129.16 215.33,-137.51 221.96,-139.75"/>
</a>
</g>
</g>
<!-- Node8 -->
<g id="Node000008" class="node">
<title>Node8</title>
<g id="a_Node000008"><a xlink:title=" ">
<polygon fill="#e0e0e0" stroke="#999999" points="119.76,-129 61.76,-129 61.76,-110 119.76,-110 119.76,-129"/>
<text text-anchor="middle" x="90.76" y="-117" font-family="Helvetica,sans-Serif" font-size="10.00">memory</text>
</a>
</g>
</g>
<!-- Node2&#45;&gt;Node8 -->
<g id="edge16_Node000002_Node000008" class="edge">
<title>Node2&#45;&gt;Node8</title>
<g id="a_edge16_Node000002_Node000008"><a xlink:title=" ">
<path fill="none" stroke="#63b8ff" d="M121.17,-276.62C93.94,-270.51 59.48,-259.27 34.76,-239 12.89,-221.07 10.13,-211.3 2.76,-184 0.56,-175.85 -1.66,-172.19 2.76,-165 13.56,-147.45 33.65,-136.56 51.92,-129.96"/>
<polygon fill="#63b8ff" stroke="#63b8ff" points="53.12,-133.24 61.53,-126.79 50.93,-126.6 53.12,-133.24"/>
</a>
</g>
</g>
<!-- Node9 -->
<g id="Node000009" class="node">
<title>Node9</title>
<g id="a_Node000009"><a xlink:href="stmt_8hpp.html" target="_top" xlink:title=" ">
<polygon fill="white" stroke="#666666" points="136.76,-239 56.76,-239 56.76,-220 136.76,-220 136.76,-239"/>
<text text-anchor="middle" x="96.76" y="-227" font-family="Helvetica,sans-Serif" font-size="10.00">gsc/stmt.hpp</text>
</a>
</g>
</g>
<!-- Node2&#45;&gt;Node9 -->
<g id="edge10_Node000002_Node000009" class="edge">
<title>Node2&#45;&gt;Node9</title>
<g id="a_edge10_Node000002_Node000009"><a xlink:title=" ">
<path fill="none" stroke="#63b8ff" d="M153.84,-274.98C143.69,-267.07 128.34,-255.11 116.12,-245.58"/>
<polygon fill="#63b8ff" stroke="#63b8ff" points="117.92,-242.56 107.89,-239.17 113.62,-248.08 117.92,-242.56"/>
</a>
</g>
</g>
<!-- Node10 -->
<g id="Node000010" class="node">
<title>Node10</title>
<g id="a_Node000010"><a xlink:title=" ">
<polygon fill="#e0e0e0" stroke="#999999" points="59.26,-184 12.26,-184 12.26,-165 59.26,-165 59.26,-184"/>
<text text-anchor="middle" x="35.76" y="-172" font-family="Helvetica,sans-Serif" font-size="10.00">vector</text>
</a>
</g>
</g>
<!-- Node2&#45;&gt;Node10 -->
<g id="edge18_Node000002_Node000010" class="edge">
<title>Node2&#45;&gt;Node10</title>
<g id="a_edge18_Node000002_Node000010"><a xlink:title=" ">
<path fill="none" stroke="#63b8ff" d="M121.1,-277.58C96.02,-271.88 65.97,-260.74 47.76,-239 37.52,-226.77 34.95,-208.54 34.7,-194.74"/>
<polygon fill="#63b8ff" stroke="#63b8ff" points="38.2,-194.49 34.9,-184.43 31.2,-194.35 38.2,-194.49"/>
</a>
</g>
</g>
<!-- Node11 -->
<g id="Node000011" class="node">
<title>Node11</title>
<g id="a_Node000011"><a xlink:title=" ">
<polygon fill="#e0e0e0" stroke="#999999" points="342.26,-129 277.26,-129 277.26,-110 342.26,-110 342.26,-129"/>
<text text-anchor="middle" x="309.76" y="-117" font-family="Helvetica,sans-Serif" font-size="10.00">stdexcept</text>
</a>
</g>
</g>
<!-- Node2&#45;&gt;Node11 -->
<g id="edge17_Node000002_Node000011" class="edge">
<title>Node2&#45;&gt;Node11</title>
<g id="a_edge17_Node000002_Node000011"><a xlink:title=" ">
<path fill="none" stroke="#63b8ff" d="M208.36,-277.02C258.85,-266.93 339.81,-242.17 376.76,-184 389.81,-163.46 363.81,-144.95 340.49,-133.28"/>
<polygon fill="#63b8ff" stroke="#63b8ff" points="341.98,-130.11 331.44,-129.01 338.99,-136.44 341.98,-130.11"/>
</a>
</g>
</g>
<!-- Node3&#45;&gt;Node4 -->
<g id="edge3_Node000003_Node000004" class="edge">
<title>Node3&#45;&gt;Node4</title>
<g id="a_edge3_Node000003_Node000004"><a xlink:title=" ">
<path fill="none" stroke="#63b8ff" d="M166.01,-164.98C176.56,-157 192.56,-144.88 205.2,-135.31"/>
<polygon fill="#63b8ff" stroke="#63b8ff" points="207.45,-138 213.31,-129.17 203.22,-132.42 207.45,-138"/>
</a>
</g>
</g>
<!-- Node7 -->
<g id="Node000007" class="node">
<title>Node7</title>
<g id="a_Node000007"><a xlink:title=" ">
<polygon fill="#e0e0e0" stroke="#999999" points="166.26,-74 131.26,-74 131.26,-55 166.26,-55 166.26,-74"/>
<text text-anchor="middle" x="148.76" y="-62" font-family="Helvetica,sans-Serif" font-size="10.00">any</text>
</a>
</g>
</g>
<!-- Node3&#45;&gt;Node7 -->
<g id="edge8_Node000003_Node000007" class="edge">
<title>Node3&#45;&gt;Node7</title>
<g id="a_edge8_Node000003_Node000007"><a xlink:title=" ">
<path fill="none" stroke="#63b8ff" d="M154.27,-164.66C153.3,-147.17 151.11,-107.8 149.8,-84.27"/>
<polygon fill="#63b8ff" stroke="#63b8ff" points="153.29,-83.95 149.24,-74.16 146.3,-84.34 153.29,-83.95"/>
</a>
</g>
</g>
<!-- Node3&#45;&gt;Node8 -->
<g id="edge9_Node000003_Node000008" class="edge">
<title>Node3&#45;&gt;Node8</title>
<g id="a_edge9_Node000003_Node000008"><a xlink:title=" ">
<path fill="none" stroke="#63b8ff" d="M144.48,-164.98C134.93,-157.07 120.48,-145.11 108.98,-135.58"/>
<polygon fill="#63b8ff" stroke="#63b8ff" points="111.17,-132.85 101.23,-129.17 106.7,-138.24 111.17,-132.85"/>
</a>
</g>
</g>
<!-- Node5 -->
<g id="Node000005" class="node">
<title>Node5</title>
<g id="a_Node000005"><a xlink:href="tokenType_8hpp.html" target="_top" xlink:title=" ">
<polygon fill="white" stroke="#666666" points="271.26,-74 184.26,-74 184.26,-55 271.26,-55 271.26,-74"/>
<text text-anchor="middle" x="227.76" y="-62" font-family="Helvetica,sans-Serif" font-size="10.00">tokenType.hpp</text>
</a>
</g>
</g>
<!-- Node4&#45;&gt;Node5 -->
<g id="edge4_Node000004_Node000005" class="edge">
<title>Node4&#45;&gt;Node5</title>
<g id="a_edge4_Node000004_Node000005"><a xlink:title=" ">
<path fill="none" stroke="#63b8ff" d="M225.26,-109.75C225.65,-102.8 226.21,-92.85 226.71,-84.13"/>
<polygon fill="#63b8ff" stroke="#63b8ff" points="230.2,-84.27 227.28,-74.09 223.22,-83.88 230.2,-84.27"/>
</a>
</g>
</g>
<!-- Node6 -->
<g id="Node000006" class="node">
<title>Node6</title>
<g id="a_Node000006"><a xlink:title=" ">
<polygon fill="#e0e0e0" stroke="#999999" points="321.76,-19 277.76,-19 277.76,0 321.76,0 321.76,-19"/>
<text text-anchor="middle" x="299.76" y="-7" font-family="Helvetica,sans-Serif" font-size="10.00">string</text>
</a>
</g>
</g>
<!-- Node4&#45;&gt;Node6 -->
<g id="edge7_Node000004_Node000006" class="edge">
<title>Node4&#45;&gt;Node6</title>
<g id="a_edge7_Node000004_Node000006"><a xlink:title=" ">
<path fill="none" stroke="#63b8ff" d="M240.24,-109.86C252.89,-102.05 270.32,-89.43 280.76,-74 289.93,-60.45 294.78,-42.36 297.27,-28.96"/>
<polygon fill="#63b8ff" stroke="#63b8ff" points="300.74,-29.43 298.86,-19 293.83,-28.33 300.74,-29.43"/>
</a>
</g>
</g>
<!-- Node4&#45;&gt;Node7 -->
<g id="edge6_Node000004_Node000007" class="edge">
<title>Node4&#45;&gt;Node7</title>
<g id="a_edge6_Node000004_Node000007"><a xlink:title=" ">
<path fill="none" stroke="#63b8ff" d="M212.55,-109.98C200.99,-101.92 183.39,-89.65 169.6,-80.03"/>
<polygon fill="#63b8ff" stroke="#63b8ff" points="171.4,-77.02 161.19,-74.17 167.39,-82.76 171.4,-77.02"/>
</a>
</g>
</g>
<!-- Node5&#45;&gt;Node6 -->
<g id="edge5_Node000005_Node000006" class="edge">
<title>Node5&#45;&gt;Node6</title>
<g id="a_edge5_Node000005_Node000006"><a xlink:title=" ">
<path fill="none" stroke="#63b8ff" d="M239.33,-54.98C250.18,-47 266.64,-34.88 279.64,-25.31"/>
<polygon fill="#63b8ff" stroke="#63b8ff" points="282,-27.92 287.98,-19.17 277.85,-22.28 282,-27.92"/>
</a>
</g>
</g>
<!-- Node9&#45;&gt;Node3 -->
<g id="edge11_Node000009_Node000003" class="edge">
<title>Node9&#45;&gt;Node3</title>
<g id="a_edge11_Node000009_Node000003"><a xlink:title=" ">
<path fill="none" stroke="#63b8ff" d="M106.08,-219.98C114.57,-212.23 127.32,-200.58 137.64,-191.14"/>
<polygon fill="#63b8ff" stroke="#63b8ff" points="140.25,-193.5 145.27,-184.17 135.53,-188.33 140.25,-193.5"/>
</a>
</g>
</g>
<!-- Node9&#45;&gt;Node7 -->
<g id="edge12_Node000009_Node000007" class="edge">
<title>Node9&#45;&gt;Node7</title>
<g id="a_edge12_Node000009_Node000007"><a xlink:title=" ">
<path fill="none" stroke="#63b8ff" d="M59.27,-219.94C28.54,-210.74 -8.25,-193.47 2.76,-165 22.43,-114.14 85.19,-85.93 121.71,-73.44"/>
<polygon fill="#63b8ff" stroke="#63b8ff" points="122.83,-76.76 131.26,-70.33 120.66,-70.1 122.83,-76.76"/>
</a>
</g>
</g>
<!-- Node9&#45;&gt;Node8 -->
<g id="edge13_Node000009_Node000008" class="edge">
<title>Node9&#45;&gt;Node8</title>
<g id="a_edge13_Node000009_Node000008"><a xlink:title=" ">
<path fill="none" stroke="#63b8ff" d="M96.27,-219.66C95.3,-202.17 93.11,-162.8 91.8,-139.27"/>
<polygon fill="#63b8ff" stroke="#63b8ff" points="95.29,-138.95 91.24,-129.16 88.3,-139.34 95.29,-138.95"/>
</a>
</g>
</g>
<!-- Node9&#45;&gt;Node10 -->
<g id="edge14_Node000009_Node000010" class="edge">
<title>Node9&#45;&gt;Node10</title>
<g id="a_edge14_Node000009_Node000010"><a xlink:title=" ">
<path fill="none" stroke="#63b8ff" d="M86.96,-219.98C77.94,-212.15 64.36,-200.34 53.44,-190.86"/>
<polygon fill="#63b8ff" stroke="#63b8ff" points="55.58,-188.09 45.74,-184.17 50.99,-193.37 55.58,-188.09"/>
</a>
</g>
</g>
<!-- Node12&#45;&gt;Node6 -->
<g id="edge24_Node000012_Node000006" class="edge">
<title>Node12&#45;&gt;Node6</title>
<g id="a_edge24_Node000012_Node000006"><a xlink:title=" ">
<path fill="none" stroke="#63b8ff" d="M449.65,-219.95C426.4,-187.47 343.27,-71.29 311.88,-27.43"/>
<polygon fill="#63b8ff" stroke="#63b8ff" points="314.67,-25.32 306,-19.22 308.98,-29.39 314.67,-25.32"/>
</a>
</g>
</g>
<!-- Node13 -->
<g id="Node000013" class="node">
<title>Node13</title>
<g id="a_Node000013"><a xlink:href="runtimeError_8hpp.html" target="_top" xlink:title=" ">
<polygon fill="white" stroke="#666666" points="367.76,-184 249.76,-184 249.76,-165 367.76,-165 367.76,-184"/>
<text text-anchor="middle" x="308.76" y="-172" font-family="Helvetica,sans-Serif" font-size="10.00">gsc/runtimeError.hpp</text>
</a>
</g>
</g>
<!-- Node12&#45;&gt;Node13 -->
<g id="edge20_Node000012_Node000013" class="edge">
<title>Node12&#45;&gt;Node13</title>
<g id="a_edge20_Node000012_Node000013"><a xlink:title=" ">
<path fill="none" stroke="#63b8ff" d="M432.14,-219.98C407.86,-211.23 369.81,-197.51 342.39,-187.62"/>
<polygon fill="#63b8ff" stroke="#63b8ff" points="343.4,-184.27 332.81,-184.17 341.03,-190.85 343.4,-184.27"/>
</a>
</g>
</g>
<!-- Node13&#45;&gt;Node4 -->
<g id="edge21_Node000013_Node000004" class="edge">
<title>Node13&#45;&gt;Node4</title>
<g id="a_edge21_Node000013_Node000004"><a xlink:title=" ">
<path fill="none" stroke="#63b8ff" d="M295.27,-164.98C282.36,-156.84 262.66,-144.41 247.36,-134.76"/>
<polygon fill="#63b8ff" stroke="#63b8ff" points="248.83,-131.55 238.5,-129.17 245.09,-137.47 248.83,-131.55"/>
</a>
</g>
</g>
<!-- Node13&#45;&gt;Node8 -->
<g id="edge22_Node000013_Node000008" class="edge">
<title>Node13&#45;&gt;Node8</title>
<g id="a_edge22_Node000013_Node000008"><a xlink:title=" ">
<path fill="none" stroke="#63b8ff" d="M273.74,-164.98C234.35,-155.41 170.56,-139.9 129.65,-129.95"/>
<polygon fill="#63b8ff" stroke="#63b8ff" points="130.32,-126.51 119.77,-127.55 128.66,-133.32 130.32,-126.51"/>
</a>
</g>
</g>
<!-- Node13&#45;&gt;Node11 -->
<g id="edge23_Node000013_Node000011" class="edge">
<title>Node13&#45;&gt;Node11</title>
<g id="a_edge23_Node000013_Node000011"><a xlink:title=" ">
<path fill="none" stroke="#63b8ff" d="M308.93,-164.75C309.06,-157.8 309.25,-147.85 309.41,-139.13"/>
<polygon fill="#63b8ff" stroke="#63b8ff" points="312.91,-139.15 309.6,-129.09 305.91,-139.02 312.91,-139.15"/>
</a>
</g>
</g>
</g>
</svg>
