<?xml version="1.0" encoding="UTF-8" standalone="no"?>
<!DOCTYPE svg PUBLIC "-//W3C//DTD SVG 1.1//EN"
 "http://www.w3.org/Graphics/SVG/1.1/DTD/svg11.dtd">
<!-- Generated by graphviz version 2.43.0 (0)
 -->
<!-- Title: lib/gsc/scanner.hpp Pages: 1 -->
<svg width="369pt" height="192pt"
 viewBox="0.00 0.00 369.00 192.00" xmlns="http://www.w3.org/2000/svg" xmlns:xlink="http://www.w3.org/1999/xlink">
<g id="graph0" class="graph" transform="scale(1 1) rotate(0) translate(4 188)">
<title>lib/gsc/scanner.hpp</title>
<!-- Node1 -->
<g id="Node000001" class="node">
<title>Node1</title>
<g id="a_Node000001"><a xlink:title=" ">
<polygon fill="#999999" stroke="#666666" points="277.5,-184 167.5,-184 167.5,-165 277.5,-165 277.5,-184"/>
<text text-anchor="middle" x="222.5" y="-172" font-family="Helvetica,sans-Serif" font-size="10.00">lib/gsc/scanner.hpp</text>
</a>
</g>
</g>
<!-- Node2 -->
<g id="Node000002" class="node">
<title>Node2</title>
<g id="a_Node000002"><a xlink:href="token_8hpp.html" target="_top" xlink:title=" ">
<polygon fill="white" stroke="#666666" points="148,-129 83,-129 83,-110 148,-110 148,-129"/>
<text text-anchor="middle" x="115.5" y="-117" font-family="Helvetica,sans-Serif" font-size="10.00">token.hpp</text>
</a>
</g>
</g>
<!-- Node1&#45;&gt;Node2 -->
<g id="edge1_Node000001_Node000002" class="edge">
<title>Node1&#45;&gt;Node2</title>
<g id="a_edge1_Node000001_Node000002"><a xlink:title=" ">
<path fill="none" stroke="#63b8ff" d="M205.31,-164.98C188.25,-156.54 161.87,-143.47 142.1,-133.68"/>
<polygon fill="#63b8ff" stroke="#63b8ff" points="143.52,-130.47 133,-129.17 140.41,-136.75 143.52,-130.47"/>
</a>
</g>
</g>
<!-- Node6 -->
<g id="Node000006" class="node">
<title>Node6</title>
<g id="a_Node000006"><a xlink:title=" ">
<polygon fill="#e0e0e0" stroke="#999999" points="204.5,-129 166.5,-129 166.5,-110 204.5,-110 204.5,-129"/>
<text text-anchor="middle" x="185.5" y="-117" font-family="Helvetica,sans-Serif" font-size="10.00">map</text>
</a>
</g>
</g>
<!-- Node1&#45;&gt;Node6 -->
<g id="edge6_Node000001_Node000006" class="edge">
<title>Node1&#45;&gt;Node6</title>
<g id="a_edge6_Node000001_Node000006"><a xlink:title=" ">
<path fill="none" stroke="#63b8ff" d="M216.39,-164.75C211.22,-157.34 203.65,-146.5 197.31,-137.41"/>
<polygon fill="#63b8ff" stroke="#63b8ff" points="200.09,-135.29 191.5,-129.09 194.35,-139.29 200.09,-135.29"/>
</a>
</g>
</g>
<!-- Node7 -->
<g id="Node000007" class="node">
<title>Node7</title>
<g id="a_Node000007"><a xlink:title=" ">
<polygon fill="#e0e0e0" stroke="#999999" points="296,-129 223,-129 223,-110 296,-110 296,-129"/>
<text text-anchor="middle" x="259.5" y="-117" font-family="Helvetica,sans-Serif" font-size="10.00">string_view</text>
</a>
</g>
</g>
<!-- Node1&#45;&gt;Node7 -->
<g id="edge7_Node000001_Node000007" class="edge">
<title>Node1&#45;&gt;Node7</title>
<g id="a_edge7_Node000001_Node000007"><a xlink:title=" ">
<path fill="none" stroke="#63b8ff" d="M228.61,-164.75C233.78,-157.34 241.35,-146.5 247.69,-137.41"/>
<polygon fill="#63b8ff" stroke="#63b8ff" points="250.65,-139.29 253.5,-129.09 244.91,-135.29 250.65,-139.29"/>
</a>
</g>
</g>
<!-- Node8 -->
<g id="Node000008" class="node">
<title>Node8</title>
<g id="a_Node000008"><a xlink:title=" ">
<polygon fill="#e0e0e0" stroke="#999999" points="361,-129 314,-129 314,-110 361,-110 361,-129"/>
<text text-anchor="middle" x="337.5" y="-117" font-family="Helvetica,sans-Serif" font-size="10.00">vector</text>
</a>
</g>
</g>
<!-- Node1&#45;&gt;Node8 -->
<g id="edge8_Node000001_Node000008" class="edge">
<title>Node1&#45;&gt;Node8</title>
<g id="a_edge8_Node000001_Node000008"><a xlink:title=" ">
<path fill="none" stroke="#63b8ff" d="M240.98,-164.98C259.48,-156.46 288.18,-143.23 309.48,-133.41"/>
<polygon fill="#63b8ff" stroke="#63b8ff" points="311.07,-136.53 318.69,-129.17 308.14,-130.18 311.07,-136.53"/>
</a>
</g>
</g>
<!-- Node3 -->
<g id="Node000003" class="node">
<title>Node3</title>
<g id="a_Node000003"><a xlink:href="tokenType_8hpp.html" target="_top" xlink:title=" ">
<polygon fill="white" stroke="#666666" points="87,-74 0,-74 0,-55 87,-55 87,-74"/>
<text text-anchor="middle" x="43.5" y="-62" font-family="Helvetica,sans-Serif" font-size="10.00">tokenType.hpp</text>
</a>
</g>
</g>
<!-- Node2&#45;&gt;Node3 -->
<g id="edge2_Node000002_Node000003" class="edge">
<title>Node2&#45;&gt;Node3</title>
<g id="a_edge2_Node000002_Node000003"><a xlink:title=" ">
<path fill="none" stroke="#63b8ff" d="M103.93,-109.98C93.08,-102 76.62,-89.88 63.62,-80.31"/>
<polygon fill="#63b8ff" stroke="#63b8ff" points="65.41,-77.28 55.28,-74.17 61.26,-82.92 65.41,-77.28"/>
</a>
</g>
</g>
<!-- Node4 -->
<g id="Node000004" class="node">
<title>Node4</title>
<g id="a_Node000004"><a xlink:title=" ">
<polygon fill="#e0e0e0" stroke="#999999" points="101.5,-19 57.5,-19 57.5,0 101.5,0 101.5,-19"/>
<text text-anchor="middle" x="79.5" y="-7" font-family="Helvetica,sans-Serif" font-size="10.00">string</text>
</a>
</g>
</g>
<!-- Node2&#45;&gt;Node4 -->
<g id="edge5_Node000002_Node000004" class="edge">
<title>Node2&#45;&gt;Node4</title>
<g id="a_edge5_Node000002_Node000004"><a xlink:title=" ">
<path fill="none" stroke="#63b8ff" d="M113.12,-109.81C109.7,-97.52 103.1,-74.39 96.5,-55 93.54,-46.29 89.94,-36.75 86.82,-28.74"/>
<polygon fill="#63b8ff" stroke="#63b8ff" points="90.02,-27.31 83.08,-19.29 83.51,-29.88 90.02,-27.31"/>
</a>
</g>
</g>
<!-- Node5 -->
<g id="Node000005" class="node">
<title>Node5</title>
<g id="a_Node000005"><a xlink:title=" ">
<polygon fill="#e0e0e0" stroke="#999999" points="179,-74 144,-74 144,-55 179,-55 179,-74"/>
<text text-anchor="middle" x="161.5" y="-62" font-family="Helvetica,sans-Serif" font-size="10.00">any</text>
</a>
</g>
</g>
<!-- Node2&#45;&gt;Node5 -->
<g id="edge4_Node000002_Node000005" class="edge">
<title>Node2&#45;&gt;Node5</title>
<g id="a_edge4_Node000002_Node000005"><a xlink:title=" ">
<path fill="none" stroke="#63b8ff" d="M123.1,-109.75C129.66,-102.18 139.32,-91.05 147.31,-81.84"/>
<polygon fill="#63b8ff" stroke="#63b8ff" points="150.13,-83.94 154.05,-74.09 144.85,-79.35 150.13,-83.94"/>
</a>
</g>
</g>
<!-- Node3&#45;&gt;Node4 -->
<g id="edge3_Node000003_Node000004" class="edge">
<title>Node3&#45;&gt;Node4</title>
<g id="a_edge3_Node000003_Node000004"><a xlink:title=" ">
<path fill="none" stroke="#63b8ff" d="M49.44,-54.75C54.48,-47.34 61.84,-36.5 68.01,-27.41"/>
<polygon fill="#63b8ff" stroke="#63b8ff" points="70.94,-29.33 73.67,-19.09 65.15,-25.39 70.94,-29.33"/>
</a>
</g>
</g>
</g>
</svg>
