<?xml version="1.0" encoding="UTF-8" standalone="no"?>
<!DOCTYPE svg PUBLIC "-//W3C//DTD SVG 1.1//EN"
 "http://www.w3.org/Graphics/SVG/1.1/DTD/svg11.dtd">
<!-- Generated by graphviz version 2.43.0 (0)
 -->
<!-- Title: test/stmtTest.cpp Pages: 1 -->
<svg width="501pt" height="302pt"
 viewBox="0.00 0.00 501.00 302.00" xmlns="http://www.w3.org/2000/svg" xmlns:xlink="http://www.w3.org/1999/xlink">
<g id="graph0" class="graph" transform="scale(1 1) rotate(0) translate(4 298)">
<title>test/stmtTest.cpp</title>
<!-- Node1 -->
<g id="Node000001" class="node">
<title>Node1</title>
<g id="a_Node000001"><a xlink:title=" ">
<polygon fill="#999999" stroke="#666666" points="384,-294 283,-294 283,-275 384,-275 384,-294"/>
<text text-anchor="middle" x="333.5" y="-282" font-family="Helvetica,sans-Serif" font-size="10.00">test/stmtTest.cpp</text>
</a>
</g>
</g>
<!-- Node2 -->
<g id="Node000002" class="node">
<title>Node2</title>
<g id="a_Node000002"><a xlink:href="stmt_8hpp.html" target="_top" xlink:title=" ">
<polygon fill="white" stroke="#666666" points="301.5,-239 221.5,-239 221.5,-220 301.5,-220 301.5,-239"/>
<text text-anchor="middle" x="261.5" y="-227" font-family="Helvetica,sans-Serif" font-size="10.00">gsc/stmt.hpp</text>
</a>
</g>
</g>
<!-- Node1&#45;&gt;Node2 -->
<g id="edge1_Node000001_Node000002" class="edge">
<title>Node1&#45;&gt;Node2</title>
<g id="a_edge1_Node000001_Node000002"><a xlink:title=" ">
<path fill="none" stroke="#63b8ff" d="M321.93,-274.98C311.08,-267 294.62,-254.88 281.62,-245.31"/>
<polygon fill="#63b8ff" stroke="#63b8ff" points="283.41,-242.28 273.28,-239.17 279.26,-247.92 283.41,-242.28"/>
</a>
</g>
</g>
<!-- Node10 -->
<g id="Node000010" class="node">
<title>Node10</title>
<g id="a_Node000010"><a xlink:title=" ">
<polygon fill="#e0e0e0" stroke="#999999" points="493,-239 320,-239 320,-220 493,-220 493,-239"/>
<text text-anchor="middle" x="406.5" y="-227" font-family="Helvetica,sans-Serif" font-size="10.00">catch2/catch_amalgamated.hpp</text>
</a>
</g>
</g>
<!-- Node1&#45;&gt;Node10 -->
<g id="edge13_Node000001_Node000010" class="edge">
<title>Node1&#45;&gt;Node10</title>
<g id="a_edge13_Node000001_Node000010"><a xlink:title=" ">
<path fill="none" stroke="#63b8ff" d="M345.23,-274.98C356.23,-267 372.92,-254.88 386.1,-245.31"/>
<polygon fill="#63b8ff" stroke="#63b8ff" points="388.52,-247.88 394.56,-239.17 384.41,-242.21 388.52,-247.88"/>
</a>
</g>
</g>
<!-- Node3 -->
<g id="Node000003" class="node">
<title>Node3</title>
<g id="a_Node000003"><a xlink:href="expr_8hpp.html" target="_top" xlink:title=" ">
<polygon fill="white" stroke="#666666" points="210.5,-184 132.5,-184 132.5,-165 210.5,-165 210.5,-184"/>
<text text-anchor="middle" x="171.5" y="-172" font-family="Helvetica,sans-Serif" font-size="10.00">gsc/expr.hpp</text>
</a>
</g>
</g>
<!-- Node2&#45;&gt;Node3 -->
<g id="edge2_Node000002_Node000003" class="edge">
<title>Node2&#45;&gt;Node3</title>
<g id="a_edge2_Node000002_Node000003"><a xlink:title=" ">
<path fill="none" stroke="#63b8ff" d="M247.04,-219.98C233.08,-211.77 211.71,-199.18 195.25,-189.49"/>
<polygon fill="#63b8ff" stroke="#63b8ff" points="196.62,-186.23 186.22,-184.17 193.06,-192.26 196.62,-186.23"/>
</a>
</g>
</g>
<!-- Node7 -->
<g id="Node000007" class="node">
<title>Node7</title>
<g id="a_Node000007"><a xlink:title=" ">
<polygon fill="#e0e0e0" stroke="#999999" points="186,-74 151,-74 151,-55 186,-55 186,-74"/>
<text text-anchor="middle" x="168.5" y="-62" font-family="Helvetica,sans-Serif" font-size="10.00">any</text>
</a>
</g>
</g>
<!-- Node2&#45;&gt;Node7 -->
<g id="edge10_Node000002_Node000007" class="edge">
<title>Node2&#45;&gt;Node7</title>
<g id="a_edge10_Node000002_Node000007"><a xlink:title=" ">
<path fill="none" stroke="#63b8ff" d="M264.6,-219.9C271.52,-199.11 285.91,-145.25 263.5,-110 248.82,-86.91 218.66,-75.6 196.24,-70.19"/>
<polygon fill="#63b8ff" stroke="#63b8ff" points="196.78,-66.73 186.26,-68.04 195.3,-73.57 196.78,-66.73"/>
</a>
</g>
</g>
<!-- Node8 -->
<g id="Node000008" class="node">
<title>Node8</title>
<g id="a_Node000008"><a xlink:title=" ">
<polygon fill="#e0e0e0" stroke="#999999" points="254.5,-129 196.5,-129 196.5,-110 254.5,-110 254.5,-129"/>
<text text-anchor="middle" x="225.5" y="-117" font-family="Helvetica,sans-Serif" font-size="10.00">memory</text>
</a>
</g>
</g>
<!-- Node2&#45;&gt;Node8 -->
<g id="edge11_Node000002_Node000008" class="edge">
<title>Node2&#45;&gt;Node8</title>
<g id="a_edge11_Node000002_Node000008"><a xlink:title=" ">
<path fill="none" stroke="#63b8ff" d="M258.55,-219.66C252.7,-202.09 239.48,-162.45 231.65,-138.95"/>
<polygon fill="#63b8ff" stroke="#63b8ff" points="234.87,-137.54 228.39,-129.16 228.23,-139.75 234.87,-137.54"/>
</a>
</g>
</g>
<!-- Node9 -->
<g id="Node000009" class="node">
<title>Node9</title>
<g id="a_Node000009"><a xlink:title=" ">
<polygon fill="#e0e0e0" stroke="#999999" points="358,-184 311,-184 311,-165 358,-165 358,-184"/>
<text text-anchor="middle" x="334.5" y="-172" font-family="Helvetica,sans-Serif" font-size="10.00">vector</text>
</a>
</g>
</g>
<!-- Node2&#45;&gt;Node9 -->
<g id="edge12_Node000002_Node000009" class="edge">
<title>Node2&#45;&gt;Node9</title>
<g id="a_edge12_Node000002_Node000009"><a xlink:title=" ">
<path fill="none" stroke="#63b8ff" d="M273.23,-219.98C284.23,-212 300.92,-199.88 314.1,-190.31"/>
<polygon fill="#63b8ff" stroke="#63b8ff" points="316.52,-192.88 322.56,-184.17 312.41,-187.21 316.52,-192.88"/>
</a>
</g>
</g>
<!-- Node4 -->
<g id="Node000004" class="node">
<title>Node4</title>
<g id="a_Node000004"><a xlink:href="token_8hpp.html" target="_top" xlink:title=" ">
<polygon fill="white" stroke="#666666" points="140,-129 75,-129 75,-110 140,-110 140,-129"/>
<text text-anchor="middle" x="107.5" y="-117" font-family="Helvetica,sans-Serif" font-size="10.00">token.hpp</text>
</a>
</g>
</g>
<!-- Node3&#45;&gt;Node4 -->
<g id="edge3_Node000003_Node000004" class="edge">
<title>Node3&#45;&gt;Node4</title>
<g id="a_edge3_Node000003_Node000004"><a xlink:title=" ">
<path fill="none" stroke="#63b8ff" d="M161.22,-164.98C151.66,-157.07 137.22,-145.11 125.72,-135.58"/>
<polygon fill="#63b8ff" stroke="#63b8ff" points="127.9,-132.85 117.97,-129.17 123.44,-138.24 127.9,-132.85"/>
</a>
</g>
</g>
<!-- Node3&#45;&gt;Node7 -->
<g id="edge8_Node000003_Node000007" class="edge">
<title>Node3&#45;&gt;Node7</title>
<g id="a_edge8_Node000003_Node000007"><a xlink:title=" ">
<path fill="none" stroke="#63b8ff" d="M171.25,-164.66C170.77,-147.17 169.68,-107.8 169.02,-84.27"/>
<polygon fill="#63b8ff" stroke="#63b8ff" points="172.52,-84.06 168.74,-74.16 165.52,-84.25 172.52,-84.06"/>
</a>
</g>
</g>
<!-- Node3&#45;&gt;Node8 -->
<g id="edge9_Node000003_Node000008" class="edge">
<title>Node3&#45;&gt;Node8</title>
<g id="a_edge9_Node000003_Node000008"><a xlink:title=" ">
<path fill="none" stroke="#63b8ff" d="M180.42,-164.75C188.28,-157.03 199.93,-145.6 209.42,-136.28"/>
<polygon fill="#63b8ff" stroke="#63b8ff" points="212.06,-138.59 216.75,-129.09 207.16,-133.6 212.06,-138.59"/>
</a>
</g>
</g>
<!-- Node5 -->
<g id="Node000005" class="node">
<title>Node5</title>
<g id="a_Node000005"><a xlink:href="tokenType_8hpp.html" target="_top" xlink:title=" ">
<polygon fill="white" stroke="#666666" points="87,-74 0,-74 0,-55 87,-55 87,-74"/>
<text text-anchor="middle" x="43.5" y="-62" font-family="Helvetica,sans-Serif" font-size="10.00">tokenType.hpp</text>
</a>
</g>
</g>
<!-- Node4&#45;&gt;Node5 -->
<g id="edge4_Node000004_Node000005" class="edge">
<title>Node4&#45;&gt;Node5</title>
<g id="a_edge4_Node000004_Node000005"><a xlink:title=" ">
<path fill="none" stroke="#63b8ff" d="M97.22,-109.98C87.66,-102.07 73.22,-90.11 61.72,-80.58"/>
<polygon fill="#63b8ff" stroke="#63b8ff" points="63.9,-77.85 53.97,-74.17 59.44,-83.24 63.9,-77.85"/>
</a>
</g>
</g>
<!-- Node6 -->
<g id="Node000006" class="node">
<title>Node6</title>
<g id="a_Node000006"><a xlink:title=" ">
<polygon fill="#e0e0e0" stroke="#999999" points="101.5,-19 57.5,-19 57.5,0 101.5,0 101.5,-19"/>
<text text-anchor="middle" x="79.5" y="-7" font-family="Helvetica,sans-Serif" font-size="10.00">string</text>
</a>
</g>
</g>
<!-- Node4&#45;&gt;Node6 -->
<g id="edge7_Node000004_Node000006" class="edge">
<title>Node4&#45;&gt;Node6</title>
<g id="a_edge7_Node000004_Node000006"><a xlink:title=" ">
<path fill="none" stroke="#63b8ff" d="M106.3,-109.77C104.5,-97.44 100.75,-74.27 95.5,-55 93.1,-46.19 89.76,-36.63 86.76,-28.64"/>
<polygon fill="#63b8ff" stroke="#63b8ff" points="89.99,-27.29 83.11,-19.23 83.46,-29.82 89.99,-27.29"/>
</a>
</g>
</g>
<!-- Node4&#45;&gt;Node7 -->
<g id="edge6_Node000004_Node000007" class="edge">
<title>Node4&#45;&gt;Node7</title>
<g id="a_edge6_Node000004_Node000007"><a xlink:title=" ">
<path fill="none" stroke="#63b8ff" d="M117.3,-109.98C126.32,-102.15 139.91,-90.34 150.82,-80.86"/>
<polygon fill="#63b8ff" stroke="#63b8ff" points="153.27,-83.37 158.52,-74.17 148.68,-78.09 153.27,-83.37"/>
</a>
</g>
</g>
<!-- Node5&#45;&gt;Node6 -->
<g id="edge5_Node000005_Node000006" class="edge">
<title>Node5&#45;&gt;Node6</title>
<g id="a_edge5_Node000005_Node000006"><a xlink:title=" ">
<path fill="none" stroke="#63b8ff" d="M49.44,-54.75C54.48,-47.34 61.84,-36.5 68.01,-27.41"/>
<polygon fill="#63b8ff" stroke="#63b8ff" points="70.94,-29.33 73.67,-19.09 65.15,-25.39 70.94,-29.33"/>
</a>
</g>
</g>
</g>
</svg>
