<?xml version="1.0" encoding="UTF-8" standalone="no"?>
<!DOCTYPE svg PUBLIC "-//W3C//DTD SVG 1.1//EN"
 "http://www.w3.org/Graphics/SVG/1.1/DTD/svg11.dtd">
<!-- Generated by graphviz version 2.43.0 (0)
 -->
<!-- Title: lib/gsc/tokenType.hpp Pages: 1 -->
<svg width="1175pt" height="302pt"
 viewBox="0.00 0.00 1175.49 302.00" xmlns="http://www.w3.org/2000/svg" xmlns:xlink="http://www.w3.org/1999/xlink">
<g id="graph0" class="graph" transform="scale(1 1) rotate(0) translate(4 298)">
<title>lib/gsc/tokenType.hpp</title>
<!-- Node1 -->
<g id="Node000001" class="node">
<title>Node1</title>
<g id="a_Node000001"><a xlink:title=" ">
<polygon fill="#999999" stroke="#666666" points="871.99,-294 749.99,-294 749.99,-275 871.99,-275 871.99,-294"/>
<text text-anchor="middle" x="810.99" y="-282" font-family="Helvetica,sans-Serif" font-size="10.00">lib/gsc/tokenType.hpp</text>
</a>
</g>
</g>
<!-- Node2 -->
<g id="Node000002" class="node">
<title>Node2</title>
<g id="a_Node000002"><a xlink:href="token_8hpp.html" target="_top" xlink:title=" ">
<polygon fill="white" stroke="#666666" points="740.49,-239 641.49,-239 641.49,-220 740.49,-220 740.49,-239"/>
<text text-anchor="middle" x="690.99" y="-227" font-family="Helvetica,sans-Serif" font-size="10.00">lib/gsc/token.hpp</text>
</a>
</g>
</g>
<!-- Node1&#45;&gt;Node2 -->
<g id="edge1_Node000001_Node000002" class="edge">
<title>Node1&#45;&gt;Node2</title>
<g id="a_edge1_Node000001_Node000002"><a xlink:title=" ">
<path fill="none" stroke="#63b8ff" d="M782.46,-270.9C760.29,-261.11 730.14,-247.79 710.62,-239.17"/>
<polygon fill="#63b8ff" stroke="#63b8ff" points="781.15,-274.15 791.71,-274.98 783.98,-267.74 781.15,-274.15"/>
</a>
</g>
</g>
<!-- Node26 -->
<g id="Node000026" class="node">
<title>Node26</title>
<g id="a_Node000026"><a xlink:href="tokenType_8cpp.html" target="_top" xlink:title=" ">
<polygon fill="white" stroke="#666666" points="862.99,-239 758.99,-239 758.99,-220 862.99,-220 862.99,-239"/>
<text text-anchor="middle" x="810.99" y="-227" font-family="Helvetica,sans-Serif" font-size="10.00">src/tokenType.cpp</text>
</a>
</g>
</g>
<!-- Node1&#45;&gt;Node26 -->
<g id="edge43_Node000001_Node000026" class="edge">
<title>Node1&#45;&gt;Node26</title>
<g id="a_edge43_Node000001_Node000026"><a xlink:title=" ">
<path fill="none" stroke="#63b8ff" d="M810.99,-264.66C810.99,-255.93 810.99,-245.99 810.99,-239.09"/>
<polygon fill="#63b8ff" stroke="#63b8ff" points="807.49,-264.75 810.99,-274.75 814.49,-264.75 807.49,-264.75"/>
</a>
</g>
</g>
<!-- Node27 -->
<g id="Node000027" class="node">
<title>Node27</title>
<g id="a_Node000027"><a xlink:href="tokenTypeTest_8cpp.html" target="_top" xlink:title=" ">
<polygon fill="white" stroke="#666666" points="1008.99,-239 880.99,-239 880.99,-220 1008.99,-220 1008.99,-239"/>
<text text-anchor="middle" x="944.99" y="-227" font-family="Helvetica,sans-Serif" font-size="10.00">test/tokenTypeTest.cpp</text>
</a>
</g>
</g>
<!-- Node1&#45;&gt;Node27 -->
<g id="edge44_Node000001_Node000027" class="edge">
<title>Node1&#45;&gt;Node27</title>
<g id="a_edge44_Node000001_Node000027"><a xlink:title=" ">
<path fill="none" stroke="#63b8ff" d="M841.86,-271.29C866.69,-261.47 900.98,-247.91 923.07,-239.17"/>
<polygon fill="#63b8ff" stroke="#63b8ff" points="840.53,-268.05 832.52,-274.98 843.11,-274.56 840.53,-268.05"/>
</a>
</g>
</g>
<!-- Node3 -->
<g id="Node000003" class="node">
<title>Node3</title>
<g id="a_Node000003"><a xlink:href="main_8cpp.html" target="_top" xlink:title=" ">
<polygon fill="white" stroke="#666666" points="424.49,-19 341.49,-19 341.49,0 424.49,0 424.49,-19"/>
<text text-anchor="middle" x="382.99" y="-7" font-family="Helvetica,sans-Serif" font-size="10.00">app/main.cpp</text>
</a>
</g>
</g>
<!-- Node2&#45;&gt;Node3 -->
<g id="edge2_Node000002_Node000003" class="edge">
<title>Node2&#45;&gt;Node3</title>
<g id="a_edge2_Node000002_Node000003"><a xlink:title=" ">
<path fill="none" stroke="#63b8ff" d="M631.28,-222.67C547.37,-210.92 397.29,-176.01 329.99,-74 316.07,-52.9 346.34,-30.8 366.62,-19.05"/>
<polygon fill="#63b8ff" stroke="#63b8ff" points="631.05,-226.17 641.42,-224.03 631.98,-219.24 631.05,-226.17"/>
</a>
</g>
</g>
<!-- Node4 -->
<g id="Node000004" class="node">
<title>Node4</title>
<g id="a_Node000004"><a xlink:href="environment_8hpp.html" target="_top" xlink:title=" ">
<polygon fill="white" stroke="#666666" points="605.99,-129 471.99,-129 471.99,-110 605.99,-110 605.99,-129"/>
<text text-anchor="middle" x="538.99" y="-117" font-family="Helvetica,sans-Serif" font-size="10.00">lib/gsc/environment.hpp</text>
</a>
</g>
</g>
<!-- Node2&#45;&gt;Node4 -->
<g id="edge3_Node000002_Node000004" class="edge">
<title>Node2&#45;&gt;Node4</title>
<g id="a_edge3_Node000002_Node000004"><a xlink:title=" ">
<path fill="none" stroke="#63b8ff" d="M670.59,-214.01C638.52,-191.22 577.3,-147.72 551.23,-129.2"/>
<polygon fill="#63b8ff" stroke="#63b8ff" points="668.63,-216.91 678.81,-219.84 672.68,-211.2 668.63,-216.91"/>
</a>
</g>
</g>
<!-- Node10 -->
<g id="Node000010" class="node">
<title>Node10</title>
<g id="a_Node000010"><a xlink:href="expr_8hpp.html" target="_top" xlink:title=" ">
<polygon fill="white" stroke="#666666" points="257.49,-184 164.49,-184 164.49,-165 257.49,-165 257.49,-184"/>
<text text-anchor="middle" x="210.99" y="-172" font-family="Helvetica,sans-Serif" font-size="10.00">lib/gsc/expr.hpp</text>
</a>
</g>
</g>
<!-- Node2&#45;&gt;Node10 -->
<g id="edge10_Node000002_Node000010" class="edge">
<title>Node2&#45;&gt;Node10</title>
<g id="a_edge10_Node000002_Node000010"><a xlink:title=" ">
<path fill="none" stroke="#63b8ff" d="M631.23,-221.9C534.47,-211.22 345.51,-190.35 257.8,-180.67"/>
<polygon fill="#63b8ff" stroke="#63b8ff" points="631.11,-225.41 641.43,-223.03 631.87,-218.45 631.11,-225.41"/>
</a>
</g>
</g>
<!-- Node11 -->
<g id="Node000011" class="node">
<title>Node11</title>
<g id="a_Node000011"><a xlink:href="parser_8hpp.html" target="_top" xlink:title=" ">
<polygon fill="white" stroke="#666666" points="282.99,-74 180.99,-74 180.99,-55 282.99,-55 282.99,-74"/>
<text text-anchor="middle" x="231.99" y="-62" font-family="Helvetica,sans-Serif" font-size="10.00">lib/gsc/parser.hpp</text>
</a>
</g>
</g>
<!-- Node2&#45;&gt;Node11 -->
<g id="edge23_Node000002_Node000011" class="edge">
<title>Node2&#45;&gt;Node11</title>
<g id="a_edge23_Node000002_Node000011"><a xlink:title=" ">
<path fill="none" stroke="#63b8ff" d="M630.79,-224.33C550.62,-218.08 413.61,-204.75 367.99,-184 309.27,-157.29 256.99,-96.84 238.81,-74.24"/>
<polygon fill="#63b8ff" stroke="#63b8ff" points="631,-227.86 641.24,-225.13 631.53,-220.88 631,-227.86"/>
</a>
</g>
</g>
<!-- Node17 -->
<g id="Node000017" class="node">
<title>Node17</title>
<g id="a_Node000017"><a xlink:href="runtimeError_8hpp.html" target="_top" xlink:title=" ">
<polygon fill="white" stroke="#666666" points="757.49,-129 624.49,-129 624.49,-110 757.49,-110 757.49,-129"/>
<text text-anchor="middle" x="690.99" y="-117" font-family="Helvetica,sans-Serif" font-size="10.00">lib/gsc/runtimeError.hpp</text>
</a>
</g>
</g>
<!-- Node2&#45;&gt;Node17 -->
<g id="edge24_Node000002_Node000017" class="edge">
<title>Node2&#45;&gt;Node17</title>
<g id="a_edge24_Node000002_Node000017"><a xlink:title=" ">
<path fill="none" stroke="#63b8ff" d="M690.99,-209.48C690.99,-185.84 690.99,-146.5 690.99,-129.16"/>
<polygon fill="#63b8ff" stroke="#63b8ff" points="687.49,-209.66 690.99,-219.66 694.49,-209.66 687.49,-209.66"/>
</a>
</g>
</g>
<!-- Node21 -->
<g id="Node000021" class="node">
<title>Node21</title>
<g id="a_Node000021"><a xlink:href="errorTest_8cpp.html" target="_top" xlink:title=" ">
<polygon fill="white" stroke="#666666" points="910.49,-19 809.49,-19 809.49,0 910.49,0 910.49,-19"/>
<text text-anchor="middle" x="859.99" y="-7" font-family="Helvetica,sans-Serif" font-size="10.00">test/errorTest.cpp</text>
</a>
</g>
</g>
<!-- Node2&#45;&gt;Node21 -->
<g id="edge41_Node000002_Node000021" class="edge">
<title>Node2&#45;&gt;Node21</title>
<g id="a_edge41_Node000002_Node000021"><a xlink:title=" ">
<path fill="none" stroke="#63b8ff" d="M719.16,-215.37C762.75,-193.29 844.96,-144.13 877.99,-74 886.78,-55.34 874.31,-31.53 866.13,-19.03"/>
<polygon fill="#63b8ff" stroke="#63b8ff" points="717.38,-212.35 709.97,-219.92 720.48,-218.62 717.38,-212.35"/>
</a>
</g>
</g>
<!-- Node23 -->
<g id="Node000023" class="node">
<title>Node23</title>
<g id="a_Node000023"><a xlink:href="scanner_8hpp.html" target="_top" xlink:title=" ">
<polygon fill="white" stroke="#666666" points="1034.99,-74 924.99,-74 924.99,-55 1034.99,-55 1034.99,-74"/>
<text text-anchor="middle" x="979.99" y="-62" font-family="Helvetica,sans-Serif" font-size="10.00">lib/gsc/scanner.hpp</text>
</a>
</g>
</g>
<!-- Node2&#45;&gt;Node23 -->
<g id="edge36_Node000002_Node000023" class="edge">
<title>Node2&#45;&gt;Node23</title>
<g id="a_edge36_Node000002_Node000023"><a xlink:title=" ">
<path fill="none" stroke="#63b8ff" d="M750.76,-219C811.35,-208.95 898,-193.3 910.99,-184 950.86,-155.44 971.24,-96.11 977.68,-74.03"/>
<polygon fill="#63b8ff" stroke="#63b8ff" points="749.83,-215.6 740.53,-220.68 750.96,-222.51 749.83,-215.6"/>
</a>
</g>
</g>
<!-- Node24 -->
<g id="Node000024" class="node">
<title>Node24</title>
<g id="a_Node000024"><a xlink:href="token_8cpp.html" target="_top" xlink:title=" ">
<polygon fill="white" stroke="#666666" points="1044.49,-184 963.49,-184 963.49,-165 1044.49,-165 1044.49,-184"/>
<text text-anchor="middle" x="1003.99" y="-172" font-family="Helvetica,sans-Serif" font-size="10.00">src/token.cpp</text>
</a>
</g>
</g>
<!-- Node2&#45;&gt;Node24 -->
<g id="edge40_Node000002_Node000024" class="edge">
<title>Node2&#45;&gt;Node24</title>
<g id="a_edge40_Node000002_Node000024"><a xlink:title=" ">
<path fill="none" stroke="#63b8ff" d="M750.66,-218.4C812.94,-207.85 908.92,-191.6 963.11,-182.42"/>
<polygon fill="#63b8ff" stroke="#63b8ff" points="749.86,-214.98 740.59,-220.1 751.03,-221.88 749.86,-214.98"/>
</a>
</g>
</g>
<!-- Node25 -->
<g id="Node000025" class="node">
<title>Node25</title>
<g id="a_Node000025"><a xlink:href="tokenTest_8cpp.html" target="_top" xlink:title=" ">
<polygon fill="white" stroke="#666666" points="1167.49,-184 1062.49,-184 1062.49,-165 1167.49,-165 1167.49,-184"/>
<text text-anchor="middle" x="1114.99" y="-172" font-family="Helvetica,sans-Serif" font-size="10.00">test/tokenTest.cpp</text>
</a>
</g>
</g>
<!-- Node2&#45;&gt;Node25 -->
<g id="edge42_Node000002_Node000025" class="edge">
<title>Node2&#45;&gt;Node25</title>
<g id="a_edge42_Node000002_Node000025"><a xlink:title=" ">
<path fill="none" stroke="#63b8ff" d="M750.52,-219.96C886.55,-202.25 922.21,-200.98 1053.99,-184 1056.75,-183.64 1059.57,-183.27 1062.43,-182.89"/>
<polygon fill="#63b8ff" stroke="#63b8ff" points="750.01,-216.5 740.55,-221.27 750.92,-223.44 750.01,-216.5"/>
</a>
</g>
</g>
<!-- Node5 -->
<g id="Node000005" class="node">
<title>Node5</title>
<g id="a_Node000005"><a xlink:href="interpreter_8hpp.html" target="_top" xlink:title=" ">
<polygon fill="white" stroke="#666666" points="462.49,-74 339.49,-74 339.49,-55 462.49,-55 462.49,-74"/>
<text text-anchor="middle" x="400.99" y="-62" font-family="Helvetica,sans-Serif" font-size="10.00">lib/gsc/interpreter.hpp</text>
</a>
</g>
</g>
<!-- Node4&#45;&gt;Node5 -->
<g id="edge4_Node000004_Node000005" class="edge">
<title>Node4&#45;&gt;Node5</title>
<g id="a_edge4_Node000004_Node000005"><a xlink:title=" ">
<path fill="none" stroke="#63b8ff" d="M507.2,-106.29C481.62,-96.47 446.32,-82.91 423.57,-74.17"/>
<polygon fill="#63b8ff" stroke="#63b8ff" points="506.23,-109.67 516.82,-109.98 508.74,-103.13 506.23,-109.67"/>
</a>
</g>
</g>
<!-- Node8 -->
<g id="Node000008" class="node">
<title>Node8</title>
<g id="a_Node000008"><a xlink:href="environment_8cpp.html" target="_top" xlink:title=" ">
<polygon fill="white" stroke="#666666" points="596.99,-74 480.99,-74 480.99,-55 596.99,-55 596.99,-74"/>
<text text-anchor="middle" x="538.99" y="-62" font-family="Helvetica,sans-Serif" font-size="10.00">src/environment.cpp</text>
</a>
</g>
</g>
<!-- Node4&#45;&gt;Node8 -->
<g id="edge8_Node000004_Node000008" class="edge">
<title>Node4&#45;&gt;Node8</title>
<g id="a_edge8_Node000004_Node000008"><a xlink:title=" ">
<path fill="none" stroke="#63b8ff" d="M538.99,-99.66C538.99,-90.93 538.99,-80.99 538.99,-74.09"/>
<polygon fill="#63b8ff" stroke="#63b8ff" points="535.49,-99.75 538.99,-109.75 542.49,-99.75 535.49,-99.75"/>
</a>
</g>
</g>
<!-- Node9 -->
<g id="Node000009" class="node">
<title>Node9</title>
<g id="a_Node000009"><a xlink:href="environmentTest_8cpp.html" target="_top" xlink:title=" ">
<polygon fill="white" stroke="#666666" points="754.99,-74 614.99,-74 614.99,-55 754.99,-55 754.99,-74"/>
<text text-anchor="middle" x="684.99" y="-62" font-family="Helvetica,sans-Serif" font-size="10.00">test/environmentTest.cpp</text>
</a>
</g>
</g>
<!-- Node4&#45;&gt;Node9 -->
<g id="edge9_Node000004_Node000009" class="edge">
<title>Node4&#45;&gt;Node9</title>
<g id="a_edge9_Node000004_Node000009"><a xlink:title=" ">
<path fill="none" stroke="#63b8ff" d="M571.91,-106.55C599.02,-96.71 636.82,-82.98 661.11,-74.17"/>
<polygon fill="#63b8ff" stroke="#63b8ff" points="570.65,-103.28 562.45,-109.98 573.04,-109.86 570.65,-103.28"/>
</a>
</g>
</g>
<!-- Node5&#45;&gt;Node3 -->
<g id="edge5_Node000005_Node000003" class="edge">
<title>Node5&#45;&gt;Node3</title>
<g id="a_edge5_Node000005_Node000003"><a xlink:title=" ">
<path fill="none" stroke="#63b8ff" d="M394.79,-45.24C391.78,-36.37 388.3,-26.14 385.91,-19.09"/>
<polygon fill="#63b8ff" stroke="#63b8ff" points="391.49,-46.4 398.02,-54.75 398.12,-44.15 391.49,-46.4"/>
</a>
</g>
</g>
<!-- Node6 -->
<g id="Node000006" class="node">
<title>Node6</title>
<g id="a_Node000006"><a xlink:href="interpreter_8cpp.html" target="_top" xlink:title=" ">
<polygon fill="white" stroke="#666666" points="547.49,-19 442.49,-19 442.49,0 547.49,0 547.49,-19"/>
<text text-anchor="middle" x="494.99" y="-7" font-family="Helvetica,sans-Serif" font-size="10.00">src/interpreter.cpp</text>
</a>
</g>
</g>
<!-- Node5&#45;&gt;Node6 -->
<g id="edge6_Node000005_Node000006" class="edge">
<title>Node5&#45;&gt;Node6</title>
<g id="a_edge6_Node000005_Node000006"><a xlink:title=" ">
<path fill="none" stroke="#63b8ff" d="M425,-49.97C442.18,-40.28 464.8,-27.52 479.61,-19.17"/>
<polygon fill="#63b8ff" stroke="#63b8ff" points="423.09,-47.02 416.09,-54.98 426.52,-53.12 423.09,-47.02"/>
</a>
</g>
</g>
<!-- Node7 -->
<g id="Node000007" class="node">
<title>Node7</title>
<g id="a_Node000007"><a xlink:href="interpreterTest_8cpp.html" target="_top" xlink:title=" ">
<polygon fill="white" stroke="#666666" points="695.99,-19 565.99,-19 565.99,0 695.99,0 695.99,-19"/>
<text text-anchor="middle" x="630.99" y="-7" font-family="Helvetica,sans-Serif" font-size="10.00">test/interpreterTest.cpp</text>
</a>
</g>
</g>
<!-- Node5&#45;&gt;Node7 -->
<g id="edge7_Node000005_Node000007" class="edge">
<title>Node5&#45;&gt;Node7</title>
<g id="a_edge7_Node000005_Node000007"><a xlink:title=" ">
<path fill="none" stroke="#63b8ff" d="M447.9,-52.69C490.99,-42.76 554.02,-28.24 593.75,-19.08"/>
<polygon fill="#63b8ff" stroke="#63b8ff" points="446.9,-49.33 437.94,-54.98 448.47,-56.15 446.9,-49.33"/>
</a>
</g>
</g>
<!-- Node10&#45;&gt;Node5 -->
<g id="edge11_Node000010_Node000005" class="edge">
<title>Node10&#45;&gt;Node5</title>
<g id="a_edge11_Node000010_Node000005"><a xlink:title=" ">
<path fill="none" stroke="#63b8ff" d="M234.99,-159.86C274.74,-137.26 353.11,-92.71 385.95,-74.05"/>
<polygon fill="#63b8ff" stroke="#63b8ff" points="233.18,-156.86 226.22,-164.84 236.64,-162.95 233.18,-156.86"/>
</a>
</g>
</g>
<!-- Node10&#45;&gt;Node11 -->
<g id="edge12_Node000010_Node000011" class="edge">
<title>Node10&#45;&gt;Node11</title>
<g id="a_edge12_Node000010_Node000011"><a xlink:title=" ">
<path fill="none" stroke="#63b8ff" d="M229.1,-157.95C236.8,-150.14 244.93,-140.01 248.99,-129 256.02,-109.94 245.06,-86.69 237.72,-74.28"/>
<polygon fill="#63b8ff" stroke="#63b8ff" points="226.57,-155.52 221.7,-164.93 231.38,-160.61 226.57,-155.52"/>
</a>
</g>
</g>
<!-- Node13 -->
<g id="Node000013" class="node">
<title>Node13</title>
<g id="a_Node000013"><a xlink:href="parserTest_8cpp.html" target="_top" xlink:title=" ">
<polygon fill="white" stroke="#666666" points="207.49,-19 98.49,-19 98.49,0 207.49,0 207.49,-19"/>
<text text-anchor="middle" x="152.99" y="-7" font-family="Helvetica,sans-Serif" font-size="10.00">test/parserTest.cpp</text>
</a>
</g>
</g>
<!-- Node10&#45;&gt;Node13 -->
<g id="edge22_Node000010_Node000013" class="edge">
<title>Node10&#45;&gt;Node13</title>
<g id="a_edge22_Node000010_Node000013"><a xlink:title=" ">
<path fill="none" stroke="#63b8ff" d="M153.94,-167.96C103.21,-161.74 34.43,-149.71 16.99,-129 -4.21,-103.82 -5.41,-81.59 13.99,-55 33.19,-28.7 68.13,-17.59 98.18,-13.05"/>
<polygon fill="#63b8ff" stroke="#63b8ff" points="153.81,-171.46 164.15,-169.16 154.63,-164.51 153.81,-171.46"/>
</a>
</g>
</g>
<!-- Node14 -->
<g id="Node000014" class="node">
<title>Node14</title>
<g id="a_Node000014"><a xlink:href="stmt_8hpp.html" target="_top" xlink:title=" ">
<polygon fill="white" stroke="#666666" points="121.49,-129 26.49,-129 26.49,-110 121.49,-110 121.49,-129"/>
<text text-anchor="middle" x="73.99" y="-117" font-family="Helvetica,sans-Serif" font-size="10.00">lib/gsc/stmt.hpp</text>
</a>
</g>
</g>
<!-- Node10&#45;&gt;Node14 -->
<g id="edge16_Node000010_Node000014" class="edge">
<title>Node10&#45;&gt;Node14</title>
<g id="a_edge16_Node000010_Node000014"><a xlink:title=" ">
<path fill="none" stroke="#63b8ff" d="M179.43,-161.29C154.04,-151.47 118.99,-137.91 96.4,-129.17"/>
<polygon fill="#63b8ff" stroke="#63b8ff" points="178.39,-164.64 188.98,-164.98 180.92,-158.11 178.39,-164.64"/>
</a>
</g>
</g>
<!-- Node16 -->
<g id="Node000016" class="node">
<title>Node16</title>
<g id="a_Node000016"><a xlink:href="exprTest_8cpp.html" target="_top" xlink:title=" ">
<polygon fill="white" stroke="#666666" points="239.99,-129 139.99,-129 139.99,-110 239.99,-110 239.99,-129"/>
<text text-anchor="middle" x="189.99" y="-117" font-family="Helvetica,sans-Serif" font-size="10.00">test/exprTest.cpp</text>
</a>
</g>
</g>
<!-- Node10&#45;&gt;Node16 -->
<g id="edge21_Node000010_Node000016" class="edge">
<title>Node10&#45;&gt;Node16</title>
<g id="a_edge21_Node000010_Node000016"><a xlink:title=" ">
<path fill="none" stroke="#63b8ff" d="M203.76,-155.24C200.24,-146.37 196.19,-136.14 193.39,-129.09"/>
<polygon fill="#63b8ff" stroke="#63b8ff" points="200.59,-156.74 207.52,-164.75 207.09,-154.16 200.59,-156.74"/>
</a>
</g>
</g>
<!-- Node11&#45;&gt;Node3 -->
<g id="edge13_Node000011_Node000003" class="edge">
<title>Node11&#45;&gt;Node3</title>
<g id="a_edge13_Node000011_Node000003"><a xlink:title=" ">
<path fill="none" stroke="#63b8ff" d="M266.04,-51.55C294.08,-41.71 333.18,-27.98 358.29,-19.17"/>
<polygon fill="#63b8ff" stroke="#63b8ff" points="264.53,-48.37 256.25,-54.98 266.85,-54.98 264.53,-48.37"/>
</a>
</g>
</g>
<!-- Node12 -->
<g id="Node000012" class="node">
<title>Node12</title>
<g id="a_Node000012"><a xlink:href="parser_8cpp.html" target="_top" xlink:title=" ">
<polygon fill="white" stroke="#666666" points="318.99,-19 234.99,-19 234.99,0 318.99,0 318.99,-19"/>
<text text-anchor="middle" x="276.99" y="-7" font-family="Helvetica,sans-Serif" font-size="10.00">src/parser.cpp</text>
</a>
</g>
</g>
<!-- Node11&#45;&gt;Node12 -->
<g id="edge14_Node000011_Node000012" class="edge">
<title>Node11&#45;&gt;Node12</title>
<g id="a_edge14_Node000011_Node000012"><a xlink:title=" ">
<path fill="none" stroke="#63b8ff" d="M246.04,-46.96C253.88,-37.72 263.32,-26.6 269.7,-19.09"/>
<polygon fill="#63b8ff" stroke="#63b8ff" points="243.23,-44.86 239.42,-54.75 248.56,-49.39 243.23,-44.86"/>
</a>
</g>
</g>
<!-- Node11&#45;&gt;Node13 -->
<g id="edge15_Node000011_Node000013" class="edge">
<title>Node11&#45;&gt;Node13</title>
<g id="a_edge15_Node000011_Node000013"><a xlink:title=" ">
<path fill="none" stroke="#63b8ff" d="M210.6,-49.15C196.32,-39.57 178.02,-27.29 165.91,-19.17"/>
<polygon fill="#63b8ff" stroke="#63b8ff" points="209.04,-52.32 219.3,-54.98 212.94,-46.51 209.04,-52.32"/>
</a>
</g>
</g>
<!-- Node14&#45;&gt;Node5 -->
<g id="edge17_Node000014_Node000005" class="edge">
<title>Node14&#45;&gt;Node5</title>
<g id="a_edge17_Node000014_Node000005"><a xlink:title=" ">
<path fill="none" stroke="#63b8ff" d="M131.45,-109.19C192.79,-99.25 289.15,-83.63 348.51,-74.01"/>
<polygon fill="#63b8ff" stroke="#63b8ff" points="130.85,-105.74 121.54,-110.79 131.97,-112.65 130.85,-105.74"/>
</a>
</g>
</g>
<!-- Node14&#45;&gt;Node11 -->
<g id="edge18_Node000014_Node000011" class="edge">
<title>Node14&#45;&gt;Node11</title>
<g id="a_edge18_Node000014_Node000011"><a xlink:title=" ">
<path fill="none" stroke="#63b8ff" d="M108.87,-106.8C138.36,-96.91 179.92,-82.97 206.41,-74.08"/>
<polygon fill="#63b8ff" stroke="#63b8ff" points="107.74,-103.49 99.38,-109.98 109.97,-110.12 107.74,-103.49"/>
</a>
</g>
</g>
<!-- Node14&#45;&gt;Node13 -->
<g id="edge19_Node000014_Node000013" class="edge">
<title>Node14&#45;&gt;Node13</title>
<g id="a_edge19_Node000014_Node000013"><a xlink:title=" ">
<path fill="none" stroke="#63b8ff" d="M99.11,-104.57C110.88,-96.92 124.2,-86.44 132.99,-74 145.12,-56.82 150.11,-31.97 151.98,-19.04"/>
<polygon fill="#63b8ff" stroke="#63b8ff" points="97.2,-101.64 90.52,-109.86 100.87,-107.6 97.2,-101.64"/>
</a>
</g>
</g>
<!-- Node15 -->
<g id="Node000015" class="node">
<title>Node15</title>
<g id="a_Node000015"><a xlink:href="stmtTest_8cpp.html" target="_top" xlink:title=" ">
<polygon fill="white" stroke="#666666" points="124.49,-74 23.49,-74 23.49,-55 124.49,-55 124.49,-74"/>
<text text-anchor="middle" x="73.99" y="-62" font-family="Helvetica,sans-Serif" font-size="10.00">test/stmtTest.cpp</text>
</a>
</g>
</g>
<!-- Node14&#45;&gt;Node15 -->
<g id="edge20_Node000014_Node000015" class="edge">
<title>Node14&#45;&gt;Node15</title>
<g id="a_edge20_Node000014_Node000015"><a xlink:title=" ">
<path fill="none" stroke="#63b8ff" d="M73.99,-99.66C73.99,-90.93 73.99,-80.99 73.99,-74.09"/>
<polygon fill="#63b8ff" stroke="#63b8ff" points="70.49,-99.75 73.99,-109.75 77.49,-99.75 70.49,-99.75"/>
</a>
</g>
</g>
<!-- Node17&#45;&gt;Node8 -->
<g id="edge34_Node000017_Node000008" class="edge">
<title>Node17&#45;&gt;Node8</title>
<g id="a_edge34_Node000017_Node000008"><a xlink:title=" ">
<path fill="none" stroke="#63b8ff" d="M657.06,-106.67C628.72,-96.79 588.97,-82.93 563.6,-74.08"/>
<polygon fill="#63b8ff" stroke="#63b8ff" points="655.97,-110 666.57,-109.98 658.28,-103.39 655.97,-110"/>
</a>
</g>
</g>
<!-- Node17&#45;&gt;Node9 -->
<g id="edge35_Node000017_Node000009" class="edge">
<title>Node17&#45;&gt;Node9</title>
<g id="a_edge35_Node000017_Node000009"><a xlink:title=" ">
<path fill="none" stroke="#63b8ff" d="M688.86,-99.66C687.87,-90.93 686.74,-80.99 685.96,-74.09"/>
<polygon fill="#63b8ff" stroke="#63b8ff" points="685.4,-100.21 690,-109.75 692.35,-99.42 685.4,-100.21"/>
</a>
</g>
</g>
<!-- Node18 -->
<g id="Node000018" class="node">
<title>Node18</title>
<g id="a_Node000018"><a xlink:href="error_8hpp.html" target="_top" xlink:title=" ">
<polygon fill="white" stroke="#666666" points="868.49,-74 773.49,-74 773.49,-55 868.49,-55 868.49,-74"/>
<text text-anchor="middle" x="820.99" y="-62" font-family="Helvetica,sans-Serif" font-size="10.00">lib/gsc/error.hpp</text>
</a>
</g>
</g>
<!-- Node17&#45;&gt;Node18 -->
<g id="edge25_Node000017_Node000018" class="edge">
<title>Node17&#45;&gt;Node18</title>
<g id="a_edge25_Node000017_Node000018"><a xlink:title=" ">
<path fill="none" stroke="#63b8ff" d="M721.26,-106.16C745.33,-96.35 778.39,-82.87 799.72,-74.17"/>
<polygon fill="#63b8ff" stroke="#63b8ff" points="719.82,-102.97 711.88,-109.98 722.46,-109.45 719.82,-102.97"/>
</a>
</g>
</g>
<!-- Node18&#45;&gt;Node3 -->
<g id="edge26_Node000018_Node000003" class="edge">
<title>Node18&#45;&gt;Node3</title>
<g id="a_edge26_Node000018_Node000003"><a xlink:title=" ">
<path fill="none" stroke="#63b8ff" d="M763.08,-54.94C615.48,-36.22 576.26,-38.95 432.99,-19 430.29,-18.62 427.51,-18.21 424.7,-17.78"/>
<polygon fill="#63b8ff" stroke="#63b8ff" points="763.06,-58.46 773.42,-56.26 763.95,-51.52 763.06,-58.46"/>
</a>
</g>
</g>
<!-- Node18&#45;&gt;Node6 -->
<g id="edge28_Node000018_Node000006" class="edge">
<title>Node18&#45;&gt;Node6</title>
<g id="a_edge28_Node000018_Node000006"><a xlink:title=" ">
<path fill="none" stroke="#63b8ff" d="M763.37,-54.13C702.25,-44.2 606.54,-28.64 547.46,-19.03"/>
<polygon fill="#63b8ff" stroke="#63b8ff" points="762.81,-57.59 773.24,-55.74 763.93,-50.68 762.81,-57.59"/>
</a>
</g>
</g>
<!-- Node18&#45;&gt;Node7 -->
<g id="edge32_Node000018_Node000007" class="edge">
<title>Node18&#45;&gt;Node7</title>
<g id="a_edge32_Node000018_Node000007"><a xlink:title=" ">
<path fill="none" stroke="#63b8ff" d="M780.42,-52.18C744.89,-42.27 694.02,-28.08 661.76,-19.08"/>
<polygon fill="#63b8ff" stroke="#63b8ff" points="779.89,-55.67 790.46,-54.98 781.77,-48.93 779.89,-55.67"/>
</a>
</g>
</g>
<!-- Node18&#45;&gt;Node12 -->
<g id="edge29_Node000018_Node000012" class="edge">
<title>Node18&#45;&gt;Node12</title>
<g id="a_edge29_Node000018_Node000012"><a xlink:title=" ">
<path fill="none" stroke="#63b8ff" d="M763.27,-55C570.88,-33.08 520.04,-41.34 331.99,-19 327.86,-18.51 323.57,-17.94 319.29,-17.34"/>
<polygon fill="#63b8ff" stroke="#63b8ff" points="763.1,-58.5 773.44,-56.17 763.9,-51.55 763.1,-58.5"/>
</a>
</g>
</g>
<!-- Node19 -->
<g id="Node000019" class="node">
<title>Node19</title>
<g id="a_Node000019"><a xlink:href="error_8cpp.html" target="_top" xlink:title=" ">
<polygon fill="white" stroke="#666666" points="791.49,-19 714.49,-19 714.49,0 791.49,0 791.49,-19"/>
<text text-anchor="middle" x="752.99" y="-7" font-family="Helvetica,sans-Serif" font-size="10.00">src/error.cpp</text>
</a>
</g>
</g>
<!-- Node18&#45;&gt;Node19 -->
<g id="edge27_Node000018_Node000019" class="edge">
<title>Node18&#45;&gt;Node19</title>
<g id="a_edge27_Node000018_Node000019"><a xlink:title=" ">
<path fill="none" stroke="#63b8ff" d="M801.87,-48.6C789.69,-39.11 774.33,-27.13 764.11,-19.17"/>
<polygon fill="#63b8ff" stroke="#63b8ff" points="800.03,-51.6 810.07,-54.98 804.33,-46.08 800.03,-51.6"/>
</a>
</g>
</g>
<!-- Node20 -->
<g id="Node000020" class="node">
<title>Node20</title>
<g id="a_Node000020"><a xlink:href="scanner_8cpp.html" target="_top" xlink:title=" ">
<polygon fill="white" stroke="#666666" points="1020.99,-19 928.99,-19 928.99,0 1020.99,0 1020.99,-19"/>
<text text-anchor="middle" x="974.99" y="-7" font-family="Helvetica,sans-Serif" font-size="10.00">src/scanner.cpp</text>
</a>
</g>
</g>
<!-- Node18&#45;&gt;Node20 -->
<g id="edge30_Node000018_Node000020" class="edge">
<title>Node18&#45;&gt;Node20</title>
<g id="a_edge30_Node000018_Node000020"><a xlink:title=" ">
<path fill="none" stroke="#63b8ff" d="M855.37,-51.67C884.08,-41.79 924.35,-27.93 950.05,-19.08"/>
<polygon fill="#63b8ff" stroke="#63b8ff" points="854.05,-48.42 845.73,-54.98 856.33,-55.04 854.05,-48.42"/>
</a>
</g>
</g>
<!-- Node18&#45;&gt;Node21 -->
<g id="edge31_Node000018_Node000021" class="edge">
<title>Node18&#45;&gt;Node21</title>
<g id="a_edge31_Node000018_Node000021"><a xlink:title=" ">
<path fill="none" stroke="#63b8ff" d="M833.37,-46.67C840.13,-37.5 848.2,-26.52 853.67,-19.09"/>
<polygon fill="#63b8ff" stroke="#63b8ff" points="830.54,-44.62 827.43,-54.75 836.18,-48.77 830.54,-44.62"/>
</a>
</g>
</g>
<!-- Node22 -->
<g id="Node000022" class="node">
<title>Node22</title>
<g id="a_Node000022"><a xlink:href="scannerTest_8cpp.html" target="_top" xlink:title=" ">
<polygon fill="white" stroke="#666666" points="1154.99,-19 1038.99,-19 1038.99,0 1154.99,0 1154.99,-19"/>
<text text-anchor="middle" x="1096.99" y="-7" font-family="Helvetica,sans-Serif" font-size="10.00">test/scannerTest.cpp</text>
</a>
</g>
</g>
<!-- Node18&#45;&gt;Node22 -->
<g id="edge33_Node000018_Node000022" class="edge">
<title>Node18&#45;&gt;Node22</title>
<g id="a_edge33_Node000018_Node000022"><a xlink:title=" ">
<path fill="none" stroke="#63b8ff" d="M875.33,-53.07C927.07,-43.13 1004.02,-28.35 1052.3,-19.08"/>
<polygon fill="#63b8ff" stroke="#63b8ff" points="874.5,-49.66 865.33,-54.98 875.82,-56.54 874.5,-49.66"/>
</a>
</g>
</g>
<!-- Node23&#45;&gt;Node3 -->
<g id="edge37_Node000023_Node000003" class="edge">
<title>Node23&#45;&gt;Node3</title>
<g id="a_edge37_Node000023_Node000003"><a xlink:title=" ">
<path fill="none" stroke="#63b8ff" d="M914.8,-58.04C902.57,-57.03 889.89,-55.98 877.99,-55 680.23,-38.76 629.88,-43.65 432.99,-19 430.28,-18.66 427.5,-18.28 424.69,-17.87"/>
<polygon fill="#63b8ff" stroke="#63b8ff" points="914.68,-61.55 924.94,-58.89 915.26,-54.57 914.68,-61.55"/>
</a>
</g>
</g>
<!-- Node23&#45;&gt;Node20 -->
<g id="edge38_Node000023_Node000020" class="edge">
<title>Node23&#45;&gt;Node20</title>
<g id="a_edge38_Node000023_Node000020"><a xlink:title=" ">
<path fill="none" stroke="#63b8ff" d="M978.21,-44.66C977.39,-35.93 976.45,-25.99 975.8,-19.09"/>
<polygon fill="#63b8ff" stroke="#63b8ff" points="974.74,-45.12 979.16,-54.75 981.71,-44.46 974.74,-45.12"/>
</a>
</g>
</g>
<!-- Node23&#45;&gt;Node22 -->
<g id="edge39_Node000023_Node000022" class="edge">
<title>Node23&#45;&gt;Node22</title>
<g id="a_edge39_Node000023_Node000022"><a xlink:title=" ">
<path fill="none" stroke="#63b8ff" d="M1008.1,-50.77C1029.68,-40.99 1058.9,-27.75 1077.85,-19.17"/>
<polygon fill="#63b8ff" stroke="#63b8ff" points="1006.45,-47.67 998.79,-54.98 1009.34,-54.05 1006.45,-47.67"/>
</a>
</g>
</g>
</g>
</svg>
